<svg width="33" height="56" viewBox="0 0 33 56" fill="none" xmlns="http://www.w3.org/2000/svg">
<path d="M25.9145 28.0163C25.7223 27.8627 25.6188 27.7789 25.5153 27.6951C17.3243 19.946 9.13322 12.2108 0.942159 4.47558C0.173323 3.74953 -0.166736 2.91178 0.0993994 1.90649C0.587315 0.0634437 2.98253 -0.620717 4.49063 0.649867C4.59413 0.733642 4.68284 0.831378 4.78634 0.915153C13.5245 9.18093 22.2626 17.4327 31.0155 25.6706C32.0652 26.6619 32.1687 27.8068 31.873 29.0216C31.7695 29.4544 31.4147 29.8872 31.0598 30.2223C23.3715 37.5107 15.6683 44.7852 7.9504 52.0736C6.82671 53.1347 5.71781 54.1959 4.57935 55.257C3.82529 55.9551 2.90861 56.1646 1.91799 55.8714C0.927375 55.5921 0.306392 54.9498 0.069827 53.9864C-0.122382 53.1627 0.0846123 52.4226 0.661239 51.7664C0.779522 51.6407 0.897804 51.529 1.03087 51.4034C9.19236 43.6961 17.3391 36.0028 25.5006 28.2955C25.6188 28.2118 25.7519 28.1419 25.9145 28.0163Z" fill="#FFB84A"/>
</svg>
