<svg width="63" height="63" viewBox="0 0 63 63" fill="none" xmlns="http://www.w3.org/2000/svg">
<path d="M62.2204 30.4656C62.0006 31.7296 61.8907 33.0485 61.6159 34.3675C60.9015 37.9395 59.4177 41.1819 57.3294 44.2044C56.5051 45.3585 55.0762 45.6882 53.9222 44.9188C52.8231 44.1495 52.4933 42.6657 53.3177 41.5116C55.296 38.544 56.6699 35.3567 57.1096 31.7846C57.824 26.1791 56.615 21.0134 53.4276 16.3971C49.0861 10.1323 43.0411 6.61513 35.5672 5.40612C29.3023 4.41692 23.3671 5.35116 17.7617 8.37369C11.6617 11.671 7.32025 16.562 5.56168 23.4314C3.74817 30.5206 5.2869 36.8954 9.73826 42.6657C9.90312 42.8305 10.013 43.0504 10.1779 43.2152C10.9473 44.0945 11.0572 45.0288 10.6176 46.0729C9.4635 48.8756 8.36439 51.6783 7.21034 54.481C7.15538 54.6459 7.04547 54.8657 6.93556 55.1954C7.21034 55.0855 7.43016 55.0306 7.59503 54.9207C10.9473 53.4369 14.2995 51.9531 17.6518 50.4693C18.4761 50.0846 19.3004 50.0846 20.1797 50.4144C28.0933 53.5468 35.8969 53.272 43.5906 49.6999C44.1402 49.4252 44.7996 49.3153 45.4041 49.3702C46.3933 49.4801 47.1627 50.3594 47.3276 51.2936C47.4924 52.3927 47.0528 53.4369 46.0086 53.8765C43.9203 54.7558 41.8321 55.69 39.6339 56.2945C32.8194 58.1081 26.0599 57.7783 19.4104 55.3603C19.1356 55.2504 18.7509 55.3054 18.4761 55.4153C13.5851 57.5585 8.69411 59.7018 3.85806 61.845C3.52832 61.9549 3.25358 62.1198 2.92385 62.2297C2.59411 62.2297 2.26436 62.2297 1.93463 62.2297C0.0111974 61.4054 -0.428437 60.3063 0.39589 58.3279C2.04454 54.2063 3.74816 50.0297 5.45177 45.908C5.67159 45.4134 5.61664 45.0837 5.28691 44.5891C1.00041 38.654 -0.758154 32.0593 0.340948 24.8053C1.49501 17.0016 5.50671 10.8467 11.8265 6.23044C18.2563 1.5043 25.5653 -0.419127 33.4789 0.0754689C39.7438 0.460155 45.4591 2.49349 50.515 6.23044C56.3402 10.5169 60.1871 16.1773 61.6708 23.2665C61.9456 24.4206 62.0555 25.6296 62.2204 26.7837C62.2204 28.1026 62.2204 29.2566 62.2204 30.4656Z" fill="#E50056"/>
<path d="M28.6982 24.5305C28.6982 22.4422 28.6982 20.299 28.6982 18.2107C28.6982 16.6719 29.7424 15.5728 31.1163 15.5728C32.5451 15.5728 33.5343 16.6719 33.5343 18.2107C33.5343 22.4422 33.5343 26.6737 33.5343 30.9602C33.5343 32.499 32.4902 33.5981 31.1163 33.5981C29.6874 33.5981 28.6982 32.499 28.6982 30.9602C28.6982 28.817 28.6982 26.6737 28.6982 24.5305Z" fill="#E50056"/>
<path d="M28.6982 39.5882C28.6982 38.2693 29.7974 37.1702 31.1163 37.1702C32.4352 37.1702 33.5343 38.2693 33.5343 39.5882C33.5343 40.9071 32.4352 42.0062 31.1163 42.0062C29.7974 42.0062 28.6982 40.9071 28.6982 39.5882Z" fill="#E50056"/>
</svg>
