<svg width="41" height="22" viewBox="0 0 41 22" fill="none" xmlns="http://www.w3.org/2000/svg">
<path d="M37.2572 0C39.2734 0 40.4383 1.16497 40.4383 3.18118C40.4383 6.94478 40.4383 10.7083 40.4383 14.4719C40.4383 15.9952 39.7214 17.0257 38.3325 17.6082C37.7948 17.8322 37.4812 18.101 37.2572 18.7283C36.7195 20.4757 35.1513 21.551 33.3592 21.6406C31.6118 21.7302 30.0436 20.7446 29.2819 19.0869C29.1923 18.8628 29.0579 18.7732 28.7891 18.7732C23.0541 18.7732 17.3639 18.7732 11.6288 18.7732C11.36 18.7732 11.2256 18.818 11.136 19.0869C10.3295 20.7446 9.03017 21.6406 7.19318 21.6406C5.35618 21.6406 4.05685 20.7446 3.25036 19.042C3.16075 18.8628 3.07115 18.7732 2.84712 18.7732C2.21986 18.7732 1.59258 18.7732 0.965317 18.7732C0.33805 18.7732 0.0244141 18.5043 0.0244141 17.8771C0.0244141 12.9037 0.0244141 7.97512 0.0244141 3.00179C0.0244141 2.50894 0.114029 2.01626 0.338053 1.61302C0.920515 0.492896 1.90621 0 3.16075 0C8.85095 0 14.5412 0 20.2314 0C25.9216 0 31.567 0 37.2572 0ZM26.0112 17.2947C26.9969 17.2947 27.9378 17.2947 28.8787 17.2947C29.1923 14.7408 30.4917 13.1278 33.1351 12.9485C34.7033 12.8589 36.7643 13.755 37.4812 16.3089C38.5565 15.9953 39.0046 15.4128 39.0046 14.2927C39.0046 10.5291 39.0046 6.76539 39.0046 3.00179C39.0046 1.92647 38.4221 1.38899 37.3468 1.38899C27.1313 1.38899 16.9158 1.38899 6.65553 1.38899C5.4458 1.38899 4.28087 1.38899 3.07115 1.38899C2.39907 1.38899 1.99583 1.61288 1.6822 2.15054C2.35427 2.15054 2.98153 2.15054 3.56399 2.15054C4.23606 2.15054 4.86334 2.15054 5.53541 2.15054C6.20748 2.15054 6.4763 2.37461 6.4763 3.09148C6.4763 5.1077 6.4763 7.16876 6.4763 9.18498C6.4763 10.5291 5.58021 11.4701 4.19127 11.4701C3.29517 11.4701 2.39907 11.4701 1.50298 11.4701C1.50298 11.4701 1.45817 11.4699 1.45817 11.5147C1.45817 11.7387 1.45817 11.918 1.45817 12.2316C1.6822 12.2316 1.86141 12.2316 2.08544 12.2316C2.57829 12.2764 2.89193 12.5453 2.84712 12.9934C2.84712 13.3966 2.53348 13.6655 2.04063 13.7103C1.86141 13.7103 1.63739 13.7103 1.45817 13.7103C1.45817 14.92 1.45817 16.1296 1.45817 17.3393C1.90622 17.3393 2.35427 17.3393 2.84712 17.3393C2.89193 15.9504 3.42958 14.7856 4.50489 13.9343C5.31138 13.3071 6.25228 12.9934 7.28279 12.9934C9.07498 12.9934 11.36 14.3374 11.5392 17.3393C12.7042 17.3393 13.9139 17.3393 15.1236 17.3393C15.1236 15.4127 15.1236 13.4861 15.1236 11.5147C14.3619 11.5147 13.6451 11.5147 12.8834 11.5147C11.7633 11.5147 10.688 11.5147 9.56784 11.5147C8.04447 11.5147 7.19318 10.6635 7.19318 9.14013C7.19318 7.12391 7.19318 5.1077 7.19318 3.09148C7.19318 2.41941 7.4172 2.15054 8.08927 2.15054C13.4658 2.15054 18.8424 2.15054 24.219 2.15054C28.2514 2.15054 32.239 2.15054 36.2715 2.15054C36.3611 2.15054 36.4955 2.15054 36.5851 2.15054C37.2572 2.15054 37.4812 2.41937 37.4812 3.04664C37.4812 4.65961 37.4812 6.31734 37.4812 7.93031C37.4812 8.37836 37.4812 8.78178 37.4812 9.22982C37.4364 10.574 36.5403 11.4701 35.1513 11.4701C32.239 11.4701 29.2819 11.4701 26.3696 11.4701C26.2352 11.4701 26.1008 11.4701 25.9216 11.4701C26.0112 13.4415 26.0112 15.3681 26.0112 17.2947ZM25.9664 3.62923C25.9664 5.77986 25.9664 7.88555 25.9664 9.99137C26.056 10.081 26.1904 10.0362 26.28 10.0362C29.2371 10.0362 32.1942 10.0362 35.1962 10.0362C35.8234 10.0362 36.0922 9.76739 36.0922 9.14013C36.0922 7.39274 36.0922 5.60064 36.0922 3.85325C36.0922 3.76364 36.0922 3.7188 36.0922 3.58438C32.6871 3.62919 29.3715 3.62923 25.9664 3.62923ZM16.647 3.62923C16.647 5.77986 16.647 7.88559 16.647 10.0362C19.2457 10.0362 21.8891 10.0362 24.4878 10.0362C24.4878 7.9304 24.4878 5.77986 24.4878 3.62923C21.8891 3.62923 19.2457 3.62923 16.647 3.62923ZM24.5326 11.5147C21.9339 11.5147 19.2905 11.5147 16.6918 11.5147C16.6918 13.4413 16.6918 15.3681 16.6918 17.2947C19.2905 17.2947 21.8891 17.2947 24.5326 17.2947C24.5326 15.3681 24.5326 13.4413 24.5326 11.5147ZM15.1684 3.62923C13.0178 3.62923 10.8672 3.62923 8.71654 3.62923C8.62693 3.71884 8.67174 3.85312 8.67174 3.94273C8.67174 5.69012 8.67174 7.43759 8.67174 9.18498C8.67174 9.76744 8.94057 10.0362 9.47822 10.0362C11.3152 10.0362 13.1522 10.0362 14.9892 10.0362C15.034 10.0362 15.0788 10.0362 15.1684 9.99137C15.1684 7.88555 15.1684 5.77986 15.1684 3.62923ZM1.50298 9.99137C1.77181 10.081 2.04063 10.0362 2.30946 10.0362C2.93673 10.0362 3.564 10.0362 4.19127 10.0362C4.77373 10.0362 5.04255 9.76744 5.04255 9.18498C5.04255 7.34798 5.04255 5.46622 5.04255 3.62923C3.83282 3.62923 2.6679 3.62923 1.45817 3.62923C1.50298 5.77986 1.50298 7.88555 1.50298 9.99137ZM30.3572 17.2947C30.3572 18.8628 31.6566 20.1622 33.2247 20.207C34.7929 20.207 36.0922 18.9077 36.0922 17.2947C36.0922 15.7265 34.7929 14.4719 33.2247 14.4719C31.6566 14.427 30.3572 15.6817 30.3572 17.2947ZM4.37048 17.2947C4.37048 18.8628 5.71462 20.207 7.28279 20.207C8.85096 20.1622 10.1503 18.818 10.1503 17.2947C10.1055 15.6817 8.80615 14.427 7.23798 14.4719C5.62501 14.427 4.37048 15.7265 4.37048 17.2947Z" fill="#8DBF3D"/>
<path d="M33.2698 19.4C34.4347 19.4 35.3756 18.4592 35.3756 17.2943C35.3756 16.1742 34.4795 15.1884 33.3594 15.1436C32.9561 15.1436 32.5977 15.3677 32.5529 15.7261C32.5081 16.1294 32.6873 16.4429 33.1354 16.5325C33.4938 16.6222 33.8074 16.7117 33.897 17.1149C33.9867 17.4734 33.7626 17.8319 33.4042 17.9215C33.0457 18.0111 32.6873 17.8319 32.5977 17.4735C32.5529 17.3839 32.5529 17.2493 32.5081 17.1149C32.4185 16.7117 32.1049 16.4877 31.7464 16.5325C31.3432 16.5774 31.1191 16.8909 31.1191 17.3389C31.1639 18.5039 32.1049 19.4 33.2698 19.4Z" fill="#8DBF3D"/>
<path d="M7.2384 19.4C8.40332 19.4 9.34422 18.5039 9.38902 17.3389C9.43383 16.2188 8.49294 15.1884 7.32801 15.1436C6.92477 15.1436 6.61113 15.3675 6.52152 15.7708C6.47672 16.174 6.70075 16.443 7.10399 16.5774C7.2384 16.6222 7.32801 16.6221 7.46242 16.6669C7.77606 16.8013 7.95528 17.0254 7.91047 17.3838C7.86567 17.7422 7.68645 17.9662 7.28321 18.011C6.96957 18.0558 6.70074 17.8766 6.56633 17.563C6.52152 17.4734 6.52152 17.3391 6.47671 17.2495C6.3871 16.8462 6.07348 16.5774 5.71504 16.6222C5.3118 16.667 5.04297 16.9806 5.04297 17.4286C5.08777 18.4592 6.07348 19.4 7.2384 19.4Z" fill="#8DBF3D"/>
</svg>
