<svg width="43" height="22" viewBox="0 0 43 22" fill="none" xmlns="http://www.w3.org/2000/svg">
<path d="M42.1165 16.6677C41.6236 16.5781 41.1308 16.6677 40.5931 16.6229C40.5931 17.295 40.5931 17.9222 40.5931 18.5942C38.7113 18.5942 36.8743 18.5942 35.0821 18.5942C34.4549 20.7001 33.1555 21.8651 30.9153 21.8203C29.3023 21.7755 27.7341 20.6553 27.2861 18.6391C23.2985 18.6391 19.3109 18.6391 15.3232 18.6391C14.7856 20.6105 13.4862 21.7755 11.3804 21.8203C9.54341 21.8651 8.3785 20.7897 7.52721 18.5942C5.42139 18.5942 3.31556 18.5942 1.16493 18.5942C1.16493 17.9222 1.16493 17.2501 1.16493 16.578C0.761684 16.578 0.403243 16.578 0 16.578C0 15.6371 0 14.7411 0 13.7554C0.358438 13.7554 0.716876 13.7554 1.12012 13.7554C1.12012 11.9184 1.12012 10.0813 1.12012 8.28915C1.29934 8.15474 1.43376 8.19945 1.61297 8.19945C4.34607 8.19945 7.07915 8.19945 9.81224 8.19945C10.1259 8.19945 10.3051 8.10993 10.4395 7.8411C11.7837 5.51125 13.1278 3.18136 14.4719 0.851515C14.6064 0.627491 14.7408 0.493164 15.0544 0.493164C20.879 0.493164 26.7036 0.493164 32.5283 0.493164C32.8419 0.493164 32.9763 0.582686 33.1107 0.851515C34.4549 3.18136 35.799 5.51121 37.1432 7.79625C37.3224 8.10989 37.5016 8.19963 37.8152 8.15482C38.7113 8.15482 39.6074 8.15482 40.5483 8.15482C40.5483 9.99182 40.5483 11.8287 40.5483 13.6657C41.086 13.6657 41.5788 13.6657 42.1165 13.6657C42.1165 14.741 42.1165 15.7268 42.1165 16.6677ZM39.1594 9.72299C38.3977 9.72299 37.636 9.72299 36.9191 9.72299C36.6503 9.72299 36.5159 9.63329 36.3815 9.40927C35.0373 7.07942 33.6932 4.74953 32.349 2.41968C32.1698 2.15085 31.9906 2.06133 31.677 2.06133C26.4348 2.06133 21.1927 2.06133 15.9057 2.06133C15.5921 2.06133 15.4128 2.15085 15.2784 2.41968C13.9343 4.74953 12.5901 7.07942 11.246 9.40927C11.1116 9.63329 10.9772 9.76779 10.6635 9.72299C8.10967 9.72299 5.6006 9.72299 3.04673 9.72299C2.91232 9.72299 2.7331 9.72299 2.59868 9.72299C2.59868 12.2321 2.59868 14.741 2.59868 17.2501C4.25646 17.2501 5.91424 17.2501 7.52721 17.2501C8.06487 15.2787 9.31939 14.0689 11.3804 14.0689C13.4862 14.0689 14.7408 15.2787 15.2784 17.2501C19.2661 17.2501 23.2537 17.2501 27.2413 17.2501C27.2861 17.1157 27.3309 16.9365 27.3757 16.8021C27.9134 15.0995 29.4367 13.9793 31.2289 14.0241C33.0659 14.1137 34.4101 15.189 34.9477 16.9812C35.0373 17.2053 35.1269 17.2501 35.351 17.2501C36.1126 17.2501 36.8743 17.2501 37.636 17.2501C38.1289 17.2501 38.6217 17.2501 39.1594 17.2501C39.1594 14.6962 39.1594 12.2321 39.1594 9.72299ZM11.4252 20.4761C12.8142 20.4761 13.9791 19.3111 13.9791 17.9222C13.9791 16.5332 12.8142 15.3682 11.4252 15.3682C10.0363 15.3682 8.91615 16.5332 8.91615 17.8773C8.87134 19.2663 10.0363 20.4313 11.4252 20.4761ZM33.6484 17.9222C33.6484 16.5332 32.4835 15.3682 31.0945 15.3682C29.7056 15.3682 28.5854 16.5332 28.5854 17.9222C28.5854 19.3111 29.7504 20.4313 31.0945 20.4313C32.5283 20.4761 33.6484 19.3111 33.6484 17.9222Z" fill="#8DBF3D"/>
<path d="M34.6347 9.58829C30.7367 9.58829 26.9283 9.58829 23.0303 9.58829C23.0303 7.61688 23.0303 5.6456 23.0303 3.67419C23.1647 3.58458 23.2991 3.62934 23.3887 3.62934C25.853 3.62934 28.3172 3.62934 30.7815 3.62934C31.0055 3.62934 31.1399 3.62934 31.2744 3.85337C32.3497 5.73517 33.425 7.57212 34.5003 9.40911C34.5899 9.45392 34.5899 9.49868 34.6347 9.58829Z" fill="#8DBF3D"/>
<path d="M21.6408 3.62988C21.6408 5.60129 21.6408 7.57261 21.6408 9.58883C18.7733 9.58883 15.9058 9.58883 13.0383 9.58883C12.9935 9.45441 13.1279 9.36494 13.1727 9.27533C14.2032 7.48314 15.2338 5.73558 16.2643 3.94338C16.3987 3.71936 16.5779 3.62988 16.8467 3.62988C18.3253 3.62988 19.8038 3.62988 21.2824 3.62988C21.372 3.62988 21.5064 3.62988 21.6408 3.62988Z" fill="#8DBF3D"/>
</svg>
