<svg width="43" height="44" viewBox="0 0 43 44" fill="none" xmlns="http://www.w3.org/2000/svg">
<path d="M21.4221 29.4838C21.2912 29.6575 21.2158 29.7818 21.1189 29.8806C16.9908 34.0909 12.8268 38.2629 8.75244 42.5245C7.40151 43.9377 5.42625 43.7475 4.26011 42.4842C3.18187 41.316 2.06776 40.177 0.928525 39.0691C-0.212501 37.9594 -0.0259214 36.0599 0.919551 35.08C2.62391 33.3121 4.35339 31.5698 6.07211 29.8184C8.58559 27.2571 11.0991 24.6976 13.6126 22.1363C13.6933 22.054 13.7704 21.9644 13.9552 21.7615C13.8261 21.6884 13.6807 21.6427 13.5857 21.5439C9.39472 17.2824 5.20916 13.0153 1.02181 8.74829C0.0889002 7.79762 -0.151502 6.25278 0.508714 5.17231C0.743737 4.79021 1.09178 4.47576 1.40754 4.15034C2.43374 3.09363 3.49583 2.07532 4.49154 0.991194C5.74559 -0.374479 7.58989 0.04784 8.54971 1.02228C11.2587 3.7719 13.9588 6.53067 16.6625 9.28578C18.1533 10.805 19.646 12.3243 21.1351 13.8453C21.2248 13.9367 21.3001 14.041 21.4706 14.2475C21.7666 13.902 22.0052 13.5876 22.2779 13.3078C25.3081 10.2054 28.3436 7.10839 31.381 4.0114C32.4287 2.94373 33.4782 1.87788 34.5332 0.817517C35.3136 0.0313869 36.7237 -0.105728 37.7822 0.578022C38.2989 0.912585 38.7385 1.37878 39.1816 1.81755C40.0966 2.72617 40.9649 3.68415 41.896 4.57083C43.168 5.78293 42.8415 7.75009 41.8583 8.75012C38.6703 11.997 35.484 15.2457 32.296 18.4926C31.2877 19.5201 30.2794 20.5457 29.273 21.5732C29.1851 21.6646 29.0989 21.7578 28.9769 21.8895C29.0936 21.9864 29.1994 22.0613 29.2891 22.1527C33.4926 26.4344 37.6818 30.7325 41.9086 34.9904C43.0335 36.1239 42.9366 38.0362 41.8888 39.124C40.7083 40.3489 39.5099 41.5519 38.3222 42.7694C37.2763 43.8408 35.4248 43.806 34.3233 42.6835C30.1269 38.4092 25.9324 34.133 21.7379 29.8568C21.6482 29.7672 21.571 29.663 21.4221 29.4838Z" fill="white"/>
</svg>
