<svg width="27" height="36" viewBox="0 0 27 36" fill="none" xmlns="http://www.w3.org/2000/svg">
<path d="M13.1936 0.0125229C16.9644 0.0634786 20.1746 1.49014 22.7223 4.24175C24.5058 6.17806 25.5759 8.47107 26.0345 11.1208C26.4931 13.7195 25.7797 16.0636 24.7606 18.3566C22.9262 22.3821 20.4803 26.0507 17.8815 29.6176C17.2701 30.4329 16.7096 31.2993 16.0471 32.1146C15.3338 32.9809 14.6713 33.8979 13.907 34.7642C13.3975 35.2737 12.9388 35.3247 12.4802 34.7642C11.4102 33.5412 10.442 32.2164 9.4229 30.9425C7.2318 27.9871 5.14262 24.9807 3.30821 21.7705C2.23814 19.8851 1.26999 17.9487 0.658525 15.8596C-0.207722 13.057 0.19992 10.3564 1.3719 7.75764C1.88146 6.63662 2.54388 5.6175 3.30821 4.7003C5.29549 2.40729 7.79232 0.929576 10.7987 0.369064C11.614 0.0633293 12.3783 -0.0384328 13.1936 0.0125229ZM13.1936 32.6749C13.2955 32.573 13.3465 32.4711 13.4484 32.4202C15.4866 29.8214 17.4739 27.1719 19.3083 24.4203C20.8879 21.9744 22.4166 19.4776 23.5376 16.7769C24.251 14.9935 24.6077 13.2099 24.302 11.2735C23.7924 8.52193 22.5185 6.17797 20.3274 4.39452C17.423 2.05055 14.1618 1.33727 10.5949 2.20352C6.97703 3.06977 4.48021 5.31172 3.00249 8.72575C2.08529 10.8149 1.83051 12.9552 2.44197 15.1972C2.95153 16.9297 3.71586 18.5602 4.63306 20.1908C5.55027 21.8723 6.56938 23.5539 7.69041 25.0826C8.19996 25.745 8.60762 26.5094 9.11718 27.2228C10.3401 29.0063 11.7159 30.8405 13.1936 32.6749Z" fill="#8DBF3D"/>
<path d="M13.3472 17.3879C10.3409 17.337 7.94594 14.8912 7.99689 11.9358C8.04785 8.92941 10.4937 6.58545 13.5001 6.58545C16.4555 6.6364 18.8505 9.08223 18.7486 12.1396C18.6976 15.146 16.2008 17.4389 13.3472 17.3879ZM16.9141 11.9868C16.9141 9.99953 15.2836 8.36895 13.2963 8.4199C11.2071 8.47086 9.72939 10.2032 9.78034 12.0376C9.8313 13.9739 11.4109 15.6047 13.3472 15.5537C15.3345 15.5537 16.9141 13.9741 16.9141 11.9868Z" fill="#8DBF3D"/>
</svg>
