<svg width="14" height="18" viewBox="0 0 14 18" fill="none" xmlns="http://www.w3.org/2000/svg">
<path d="M13.9916 6.95657C13.9832 7.72318 13.8738 8.48145 13.6718 9.22306C13.4277 10.1313 13.0658 10.9896 12.6198 11.8062C11.8708 13.1894 10.9198 14.431 9.85092 15.5892C9.12715 16.3725 8.36129 17.1057 7.52811 17.764C7.43554 17.839 7.32613 17.8973 7.21672 17.9473C6.95583 18.064 6.72018 17.9723 6.52661 17.814C6.08898 17.4474 5.65135 17.0807 5.23055 16.6891C4.47311 15.9892 3.783 15.2309 3.13497 14.431C2.49536 13.6394 1.92307 12.8061 1.43494 11.9228C0.812161 10.7896 0.340867 9.59802 0.122051 8.32313C-0.00418847 7.60652 -0.0378525 6.88991 0.0463073 6.16497C0.231459 4.58177 0.887905 3.22355 2.00723 2.08197C2.731 1.3487 3.5726 0.798745 4.54044 0.440441C5.4662 0.0988026 6.4172 -0.0511856 7.41029 0.0154756C8.78209 0.0988021 10.0277 0.548765 11.1302 1.3487C12.2579 2.17363 13.0658 3.24021 13.5624 4.54844C13.8401 5.29838 13.9748 6.07331 14 6.86491C13.9916 6.88991 13.9916 6.92324 13.9916 6.95657ZM4.19538 6.92324C4.17855 8.40646 5.44095 9.68135 6.95583 9.68968C8.54645 9.69802 9.77518 8.43979 9.78359 6.93158C9.79201 5.44003 8.59694 4.24013 7.16622 4.1568C5.47461 4.06514 4.18697 5.42337 4.19538 6.92324Z" fill="#882A4D"/>
</svg>
