<svg width="327" height="35" viewBox="0 0 327 35" fill="none" xmlns="http://www.w3.org/2000/svg">
<path d="M10.0833 25.1799C10.0833 26.5731 9.5875 27.765 8.59598 28.7554C7.62126 29.729 6.43648 30.2158 5.04163 30.2158C3.64678 30.2158 2.45359 29.729 1.46207 28.7554C0.487357 27.765 0 26.5731 0 25.1799V5.28777C0 3.89448 0.487357 2.71103 1.46207 1.73741C2.45359 0.747002 3.64678 0.251799 5.04163 0.251799H12.6041C15.3938 0.251799 17.7717 1.23381 19.738 3.19784C21.7042 5.16187 22.6873 7.53717 22.6873 10.3237C22.6873 13.1103 21.7042 15.4856 19.738 17.4496C17.7717 19.4137 15.3938 20.3957 12.6041 20.3957H10.0833V25.1799ZM11.0916 12.3381C11.6462 12.3381 12.1167 12.1451 12.5032 11.759C12.9066 11.3561 13.1082 10.8777 13.1082 10.3237C13.1082 9.76978 12.9066 9.29976 12.5032 8.91367C12.1167 8.51079 11.6462 8.30935 11.0916 8.30935H10.0833V12.3381H11.0916Z" fill="#FFED8B"/>
<path d="M37.6206 11.5827H41.4019C42.3766 11.5827 43.1664 11.9269 43.7714 12.6151C44.3764 13.3034 44.6789 14.1343 44.6789 15.1079C44.6789 16.0815 44.3764 16.9125 43.7714 17.6007C43.1664 18.289 42.3766 18.6331 41.4019 18.6331H37.6206V19.8921H42.6623C44.0571 19.8921 45.2419 20.3873 46.2166 21.3777C47.2081 22.3513 47.7039 23.5348 47.7039 24.9281C47.7039 26.3213 47.2081 27.5132 46.2166 28.5036C45.2419 29.4772 44.0571 29.964 42.6623 29.964H32.579C31.1842 29.964 29.991 29.4772 28.9994 28.5036C28.0247 27.5132 27.5374 26.3213 27.5374 24.9281V5.28777C27.5374 3.89448 28.0247 2.71103 28.9994 1.73741C29.991 0.747002 31.1842 0.251799 32.579 0.251799H42.6623C44.0571 0.251799 45.2419 0.747002 46.2166 1.73741C47.2081 2.71103 47.7039 3.89448 47.7039 5.28777C47.7039 6.68106 47.2081 7.8729 46.2166 8.86331C45.2419 9.83693 44.0571 10.3237 42.6623 10.3237H37.6206V11.5827Z" fill="#FFED8B"/>
<path d="M67.6788 0.251799C69.0737 0.251799 70.2584 0.747002 71.2332 1.73741C72.2247 2.71103 72.7204 3.89448 72.7204 5.28777C72.7204 6.68106 72.2247 7.8729 71.2332 8.86331C70.2584 9.83693 69.0737 10.3237 67.6788 10.3237H62.6372V25.1799C62.6372 26.5731 62.1414 27.765 61.1499 28.7554C60.1752 29.729 58.9904 30.2158 57.5956 30.2158C56.2007 30.2158 55.0075 29.729 54.016 28.7554C53.0413 27.765 52.5539 26.5731 52.5539 25.1799V5.28777C52.5539 3.89448 53.0413 2.71103 54.016 1.73741C55.0075 0.747002 56.2007 0.251799 57.5956 0.251799H67.6788Z" fill="#FFED8B"/>
<path d="M86.1665 28.7302C85.1918 29.7206 84.007 30.2158 82.6121 30.2158C81.2173 30.2158 80.0241 29.729 79.0326 28.7554C78.0578 27.765 77.5705 26.5731 77.5705 25.1799V5.03597C77.5705 3.64269 78.0578 2.45923 79.0326 1.48561C80.0241 0.495204 81.2173 0 82.6121 0C84.007 0 85.1918 0.495204 86.1665 1.48561C87.158 2.45923 87.6537 3.64269 87.6537 5.03597V11.759L96.6783 1.46043C97.6698 0.486811 98.863 0 100.258 0C101.653 0 102.837 0.495204 103.812 1.48561C104.804 2.45923 105.299 3.64269 105.299 5.03597V25.1799C105.299 26.5731 104.804 27.765 103.812 28.7554C102.837 29.729 101.653 30.2158 100.258 30.2158C98.863 30.2158 97.6698 29.729 96.6783 28.7554C95.7035 27.765 95.2162 26.5731 95.2162 25.1799V18.4317L86.1665 28.7302Z" fill="#FFED8B"/>
<path d="M128.829 18.6835C129.03 18.3813 129.266 18.0959 129.535 17.8273C130.509 16.8537 131.694 16.3669 133.089 16.3669C134.484 16.3669 135.669 16.8621 136.643 17.8525C137.635 18.8261 138.131 20.0096 138.131 21.4029C138.131 21.7722 138.097 22.1331 138.03 22.4856C137.895 23.4592 137.215 24.5588 135.988 25.7842C133.03 28.7386 129.459 30.2158 125.274 30.2158C121.107 30.2158 117.544 28.747 114.586 25.8094C111.628 22.8549 110.149 19.2878 110.149 15.1079C110.149 10.9281 111.628 7.3693 114.586 4.43165C117.544 1.47722 121.107 0 125.274 0C129.459 0 133.03 1.46883 135.988 4.40647C137.215 5.64868 137.895 6.75659 138.03 7.73022C138.097 8.08273 138.131 8.44365 138.131 8.81295C138.131 10.2062 137.635 11.3981 136.643 12.3885C135.669 13.3621 134.484 13.8489 133.089 13.8489C131.694 13.8489 130.509 13.3537 129.535 12.3633C129.266 12.1115 129.03 11.8345 128.829 11.5324C127.854 10.5588 126.669 10.0719 125.274 10.0719C123.88 10.0719 122.686 10.5671 121.695 11.5576C120.72 12.5312 120.233 13.7146 120.233 15.1079C120.233 16.5012 120.72 17.693 121.695 18.6835C122.686 19.6571 123.88 20.1439 125.274 20.1439C126.669 20.1439 127.854 19.6571 128.829 18.6835Z" fill="#FFED8B"/>
<path d="M163.147 0.251799C164.542 0.251799 165.727 0.747002 166.701 1.73741C167.693 2.71103 168.189 3.89448 168.189 5.28777C168.189 6.68106 167.693 7.8729 166.701 8.86331C165.727 9.83693 164.542 10.3237 163.147 10.3237H160.626V25.1799C160.626 26.5731 160.131 27.765 159.139 28.7554C158.164 29.729 156.979 30.2158 155.585 30.2158C154.19 30.2158 152.997 29.729 152.005 28.7554C151.03 27.765 150.543 26.5731 150.543 25.1799V10.3237H148.022C146.627 10.3237 145.434 9.83693 144.443 8.86331C143.468 7.8729 142.981 6.68106 142.981 5.28777C142.981 3.89448 143.468 2.71103 144.443 1.73741C145.434 0.747002 146.627 0.251799 148.022 0.251799H163.147Z" fill="#FFED8B"/>
<path d="M183.122 25.1799C183.122 26.5731 182.626 27.765 181.635 28.7554C180.66 29.729 179.475 30.2158 178.08 30.2158C176.686 30.2158 175.492 29.729 174.501 28.7554C173.526 27.765 173.039 26.5731 173.039 25.1799V5.28777C173.039 3.89448 173.526 2.71103 174.501 1.73741C175.492 0.747002 176.686 0.251799 178.08 0.251799H185.643C188.433 0.251799 190.811 1.23381 192.777 3.19784C194.743 5.16187 195.726 7.53717 195.726 10.3237C195.726 13.1103 194.743 15.4856 192.777 17.4496C190.811 19.4137 188.433 20.3957 185.643 20.3957H183.122V25.1799ZM184.13 12.3381C184.685 12.3381 185.155 12.1451 185.542 11.759C185.945 11.3561 186.147 10.8777 186.147 10.3237C186.147 9.76978 185.945 9.29976 185.542 8.91367C185.155 8.51079 184.685 8.30935 184.13 8.30935H183.122V12.3381H184.13Z" fill="#FFED8B"/>
<path d="M210.685 25.1799L209.727 27.4964C209.088 28.7218 208.105 29.5444 206.777 29.964C205.45 30.3837 204.164 30.2746 202.92 29.6367C201.694 28.982 200.87 27.9916 200.45 26.6655C200.03 25.3393 200.139 24.0635 200.778 22.8381L211.012 2.71942C211.836 0.906475 213.34 0 215.525 0C217.726 0 219.239 0.906475 220.062 2.71942L230.271 22.8381C230.927 24.0635 231.044 25.3393 230.624 26.6655C230.204 27.9916 229.372 28.982 228.129 29.6367C226.902 30.2746 225.625 30.3837 224.297 29.964C222.969 29.5444 221.986 28.7218 221.348 27.4964L220.39 25.1799H210.685ZM217.239 17.6259L215.525 13.5468L213.836 17.6259H217.239Z" fill="#FFED8B"/>
<path d="M240.667 29.964C239.272 29.964 238.079 29.4772 237.088 28.5036C236.113 27.5132 235.626 26.3213 235.626 24.9281V5.03597C235.626 3.64269 236.113 2.45923 237.088 1.48561C238.079 0.495204 239.272 0 240.667 0C242.062 0 243.247 0.495204 244.222 1.48561C245.213 2.45923 245.709 3.64269 245.709 5.03597V20.3957H252.011V5.03597C252.011 3.64269 252.498 2.45923 253.473 1.48561C254.464 0.495204 255.658 0 257.052 0C258.447 0 259.632 0.495204 260.607 1.48561C261.598 2.45923 262.094 3.64269 262.094 5.03597V20.3957C263.489 20.3957 264.674 20.8909 265.648 21.8813C266.64 22.8549 267.136 24.0384 267.136 25.4317V29.964C267.136 31.3573 266.64 32.5408 265.648 33.5144C264.674 34.5048 263.489 35 262.094 35C260.699 35 259.506 34.5048 258.515 33.5144C257.54 32.5408 257.052 31.3573 257.052 29.964H240.667Z" fill="#FFED8B"/>
<path d="M280.078 28.7302C279.103 29.7206 277.918 30.2158 276.523 30.2158C275.128 30.2158 273.935 29.729 272.944 28.7554C271.969 27.765 271.482 26.5731 271.482 25.1799V5.03597C271.482 3.64269 271.969 2.45923 272.944 1.48561C273.935 0.495204 275.128 0 276.523 0C277.918 0 279.103 0.495204 280.078 1.48561C281.069 2.45923 281.565 3.64269 281.565 5.03597V11.759L290.589 1.46043C291.581 0.486811 292.774 0 294.169 0C295.564 0 296.749 0.495204 297.723 1.48561C298.715 2.45923 299.211 3.64269 299.211 5.03597V25.1799C299.211 26.5731 298.715 27.765 297.723 28.7554C296.749 29.729 295.564 30.2158 294.169 30.2158C292.774 30.2158 291.581 29.729 290.589 28.7554C289.615 27.765 289.127 26.5731 289.127 25.1799V18.4317L280.078 28.7302Z" fill="#FFED8B"/>
<path d="M316.917 12.3381V8.30935H315.908C315.354 8.30935 314.875 8.51079 314.472 8.91367C314.085 9.29976 313.892 9.76978 313.892 10.3237C313.892 10.8777 314.085 11.3561 314.472 11.759C314.875 12.1451 315.354 12.3381 315.908 12.3381H316.917ZM312.883 28.2014C312.06 29.3094 310.959 29.9556 309.581 30.1403C308.203 30.3417 306.951 30.0312 305.825 29.2086C304.716 28.3693 304.061 27.2614 303.859 25.8849C303.674 24.5084 304.002 23.2662 304.842 22.1583L307.917 18.054C307.699 17.8693 307.48 17.6679 307.262 17.4496C305.296 15.4856 304.313 13.1103 304.313 10.3237C304.313 7.53717 305.296 5.16187 307.262 3.19784C309.228 1.23381 311.606 0.251799 314.396 0.251799H321.958C323.353 0.251799 324.538 0.747002 325.513 1.73741C326.504 2.71103 327 3.89448 327 5.28777V25.1799C327 26.5731 326.504 27.765 325.513 28.7554C324.538 29.729 323.353 30.2158 321.958 30.2158C320.564 30.2158 319.37 29.729 318.379 28.7554C317.404 27.765 316.917 26.5731 316.917 25.1799V21.1763L312.883 28.2014Z" fill="#FFED8B"/>
</svg>
