<svg width="62" height="55" viewBox="0 0 62 55" fill="none" xmlns="http://www.w3.org/2000/svg">
<path d="M33.0602 45.6487C32.2737 46.3433 31.5285 47.0379 30.742 47.7325C29.2518 49.0808 27.7615 50.4291 26.2712 51.7366C24.8224 53.0032 22.173 52.9623 20.9312 51.1237C20.2274 50.0614 19.8135 48.9174 19.4823 47.7325C18.1576 43.5241 16.8744 39.3157 15.5497 35.0664C15.4669 34.7804 15.3013 34.617 15.0115 34.5353C11.3687 33.3095 7.68446 32.1246 4.04162 30.8989C2.59276 30.4086 1.35088 29.6323 0.56436 28.284C-0.594727 26.241 0.0676085 23.9121 2.2202 22.6864C3.42068 21.9918 4.74535 21.5015 6.02863 20.9295C9.42309 19.4994 12.859 18.0694 16.2534 16.6802C21.5935 14.4739 26.8922 12.2675 32.2323 10.0612C37.1998 7.97739 42.2087 5.93448 47.1762 3.85071C49.9083 2.70668 52.6405 1.56265 55.3726 0.459474C56.6145 -0.030825 57.8978 -0.194259 59.2224 0.296041C61.1266 1.03149 62.2443 2.87011 61.9546 5.0356C61.7062 6.83336 61.3336 8.59027 60.9611 10.3472C60.4229 13.0847 59.8848 15.8222 59.3466 18.5597C58.8499 20.9703 58.3945 23.4218 57.8978 25.8325C56.987 30.4086 56.0763 34.9847 55.207 39.5608C54.4619 43.2381 53.7168 46.9153 53.013 50.5926C52.3921 53.8612 49.1218 55.6181 45.8515 54.801C44.8166 54.5558 44.0301 53.9021 43.2436 53.2892C39.9319 50.756 36.6202 48.2636 33.2672 45.7304C33.1844 45.7304 33.143 45.7304 33.0602 45.6487ZM24.2842 47.1605C27.182 44.5455 29.9969 42.0532 32.7704 39.52C32.8532 39.5608 32.8946 39.6017 32.936 39.6425C36.496 42.3392 40.0561 45.0358 43.5747 47.6916C44.6096 48.4679 45.6445 49.2851 46.6794 50.0205C47.3832 50.5108 48.1283 50.5517 48.3353 49.5302C48.8734 46.7519 49.4116 44.0144 49.9497 41.236C51.026 35.761 52.1023 30.3269 53.1786 24.8519C54.3791 18.8048 55.5796 12.7578 56.7801 6.71079C56.9043 6.13877 56.987 5.56676 57.1112 4.87217C39.7663 12.0632 22.5456 19.2543 5.2421 26.4453C5.40769 26.527 5.49048 26.527 5.57327 26.5679C9.67147 27.9162 13.7697 29.2646 17.8679 30.6946C18.82 31.0215 19.5651 30.9806 20.4344 30.4086C26.354 26.7313 32.3151 23.1358 38.2347 19.4994C41.2152 17.6608 44.2371 15.8222 47.2176 14.0244C47.7143 13.7384 48.2111 13.4524 48.7492 13.2481C48.9976 13.1664 49.4116 13.2073 49.5772 13.3707C49.8255 13.6158 49.8255 14.0244 49.4944 14.3104C49.3288 14.4739 49.2046 14.6373 49.039 14.8007C45.8515 17.7425 42.6226 20.6843 39.4352 23.667C35.0886 27.6711 30.742 31.6752 26.3954 35.6384C26.1057 35.8836 25.9815 36.1696 25.9401 36.5373C25.5261 39.0705 25.1122 41.6037 24.7396 44.1778C24.6154 45.0767 24.4498 46.0573 24.2842 47.1605Z" fill="#E96100"/>
</svg>
