<svg width="68" height="42" viewBox="0 0 68 42" fill="none" xmlns="http://www.w3.org/2000/svg">
<path d="M40.9621 30.026C40.9621 31.053 40.9621 31.7514 40.9621 32.4498C40.9621 34.0109 40.9621 35.5309 41.0028 37.092C41.0436 40.2963 39.8215 41.6109 36.685 41.8985C31.023 42.4325 25.9312 40.8303 21.1653 37.7903C16.5217 34.7914 13.0593 30.6833 10.045 26.1233C6.37889 20.5773 3.1609 14.7849 1.08346 8.41731C0.676119 7.14379 0.350243 5.87027 0.105839 4.55567C-0.38297 2.00864 0.839054 0.283232 3.4053 0.159988C6.05301 0.0367446 8.70072 0.0778264 11.3484 0.118908C13.5481 0.159989 14.8108 1.47459 15.5033 3.48757C17.2141 8.37622 19.2509 13.1416 22.1022 17.4552C23.1206 19.0162 24.3426 20.4541 25.4832 21.933C25.6054 21.8919 25.7683 21.8098 25.8905 21.7687C25.8905 21.399 25.8905 21.0703 25.8905 20.7006C25.8905 17.3319 25.8905 13.9633 25.8905 10.5946C25.8905 8.82811 25.361 7.26703 24.2204 5.82919C23.6909 5.13081 23.2428 4.26811 23.0798 3.4054C22.8354 1.92648 24.0575 0.406474 25.6054 0.201069C27.1125 0.0367439 28.6604 0.0778245 30.1676 0.0367433C32.4894 0.0367433 34.8113 -0.00433785 37.1738 0.0367433C39.7401 0.0778245 40.8806 1.18702 40.9214 3.77513C41.0028 7.43136 40.9621 11.0876 40.9621 14.7027C40.9621 15.9762 40.9621 17.2908 40.9621 18.893C41.5731 18.4 42.1026 18.1125 42.3878 17.6606C44.3023 14.9903 46.2982 12.4022 48.0091 9.60866C49.2718 7.5546 50.2495 5.25405 51.2678 3.03567C52.0825 1.18702 53.4267 0.0778245 55.4227 0.0367433C58.1111 -0.00433785 60.7996 -0.0454171 63.4473 0.118908C66.0543 0.283232 67.2763 2.04972 66.3801 4.55567C65.5247 6.93838 64.4249 9.28001 63.1214 11.4573C61.2069 14.7027 59.0887 17.8249 57.0113 20.9881C56.0744 22.426 56.0744 22.3849 57.2557 23.6995C59.9849 26.6984 62.7141 29.6563 65.2803 32.8195C66.3801 34.1752 67.2356 35.9006 67.8058 37.5849C68.539 39.7212 67.1133 41.7341 64.9137 41.8574C62.0216 42.0217 59.0887 41.9806 56.1559 41.9395C54.6487 41.8985 53.4674 41.0357 52.4898 39.9676C50.4531 37.8314 48.4979 35.6541 46.4205 33.6001C45.4021 32.573 44.1393 31.7514 42.9581 30.8887C42.51 30.6011 41.8582 30.4368 40.9621 30.026ZM26.0942 3.07675C26.0942 3.28216 26.0942 3.36432 26.1349 3.44648C26.2571 3.61081 26.3793 3.77513 26.5015 3.93945C28.1716 5.95243 28.8641 8.25298 28.8234 10.8411C28.7826 14.2097 28.8234 17.5784 28.8234 20.9471C28.8234 21.6865 28.7419 22.426 28.5789 23.1244C28.2123 24.5622 26.7866 25.3427 25.4017 24.8498C24.7499 24.6033 24.0167 24.2746 23.5279 23.7817C22.2244 22.3438 20.9209 20.8649 19.8211 19.2627C16.8883 14.9081 14.7701 10.1016 13.0185 5.13081C12.2853 3.03567 12.2039 2.95351 9.96348 2.95351C8.33412 2.95351 6.70475 2.95351 5.07539 2.95351C2.75355 2.95351 2.75356 2.95351 3.32383 5.21297C4.79026 10.9233 7.43797 16.0995 10.493 21.1114C13.1815 25.5071 15.9921 29.8206 19.9841 33.1482C24.587 36.9276 29.7195 39.3514 35.8296 38.9406C38.1107 38.8174 38.1514 38.7352 38.1107 36.3936C38.1107 34.2163 38.1107 32.039 38.2736 29.9028C38.3958 28.1773 39.4142 27.3557 41.125 27.3557C41.8175 27.3557 42.5915 27.3968 43.1617 27.7255C44.7504 28.6292 46.3797 29.533 47.7239 30.7655C50.0865 32.9428 52.2047 35.3665 54.4858 37.626C55.0968 38.2011 55.8708 38.8995 56.6447 38.9406C59.2109 39.1049 61.7772 38.9817 64.3434 38.9817C65.1581 38.9817 65.4433 38.5298 65.0359 37.8314C64.262 36.4757 63.5695 35.0379 62.5511 33.8465C60.0256 30.8476 57.3372 28.013 54.7302 25.0963C53.1823 23.4119 53.0601 21.8508 54.3229 19.9611C55.0561 18.8519 55.83 17.7838 56.5225 16.6335C58.7221 12.9773 60.9218 9.32109 63.04 5.66486C63.488 4.9254 63.651 4.02162 63.9768 2.99459C60.9625 2.99459 58.2333 2.95351 55.4634 3.03567C55.0153 3.03567 54.4043 3.69297 54.1599 4.18594C52.9379 6.48649 51.9196 8.86919 50.6975 11.1287C48.8238 14.5384 46.7871 17.8249 43.8542 20.4541C42.7137 21.4811 41.4509 22.3438 39.903 21.6454C38.2736 20.9471 38.1514 19.3449 38.1514 17.7838C38.1514 13.347 38.1514 8.86919 38.1514 4.43243C38.1514 3.98053 38.1514 3.52864 38.1514 2.99459C33.9558 3.07675 30.0861 3.07675 26.0942 3.07675Z" fill="#E96100"/>
</svg>
