<svg width="58" height="59" viewBox="0 0 58 59" fill="none" xmlns="http://www.w3.org/2000/svg">
<path fill-rule="evenodd" clip-rule="evenodd" d="M23.1412 54H35V53.3011H23.1412V54ZM33.5882 51.3441C33.3059 51.2043 33.1647 50.9247 32.8824 50.7849C32.7412 50.6451 32.4588 50.3656 32.1765 50.086C31.6118 49.3871 31.1882 48.828 30.4824 48.4086C30.3412 48.2688 30.0588 48.129 29.7765 47.9892C29.6353 47.8494 29.3529 47.8495 29.0706 47.7097C28.6471 47.5699 28.0824 47.7097 27.6588 47.8495C27.0941 48.129 26.5294 48.4086 26.2471 48.6881C26.1059 48.8279 25.8235 49.1075 25.6824 49.3871C25.5412 49.5269 25.4 49.8064 25.2588 50.086L25.1176 50.2258C24.8353 50.6451 24.5529 51.0645 24.1294 51.3441H33.5882ZM35 42.2581V39.8817C34.8588 39.7419 34.8588 39.4624 34.8588 39.3226H34.5765C34.2941 39.3226 34.0118 39.4624 33.8706 39.4624C33.5882 39.6022 33.4471 39.6021 33.1647 39.7419C32.7412 40.0215 32.4588 40.4409 32.1765 40.7204C31.7529 41.2796 31.3294 41.8387 30.4824 42.1183V43.7957H26.8118V42.8172V42.2581C26.6706 42.2581 26.6706 42.2581 26.5294 42.2581C26.2471 42.2581 25.9647 42.258 25.6824 42.3978C25.5412 42.3978 25.5412 42.3978 25.4 42.5376C25.2588 42.6774 25.1176 42.6774 24.9765 42.6774C24.8353 42.6774 24.8353 42.6774 24.6941 42.6774L24.5529 44.0753C24.5529 44.3548 24.5529 44.4946 24.5529 44.6344C24.5529 45.3333 24.5529 45.4731 23.9882 46.5914L23.5647 47.4301C23.4235 47.7097 23.2824 47.9892 23.1412 48.2688V49.6667C23.2824 49.5269 23.4235 49.3871 23.5647 49.2473L23.7059 49.1075C23.8471 48.828 24.1294 48.5484 24.2706 48.2688C24.4118 47.9892 24.6941 47.7097 24.9765 47.5699C25.4 47.0107 26.2471 46.4516 27.2353 46.172C27.9412 45.8925 28.7882 45.7527 29.7765 45.8925C30.2 46.0322 30.6235 46.172 31.0471 46.3118C31.3294 46.4516 31.7529 46.7312 31.8941 46.871C32.8824 47.5699 33.4471 48.2688 34.0118 48.9677C34.1529 49.1075 34.2941 49.3871 34.5765 49.6667C34.7177 49.8064 34.8588 49.8065 34.8588 49.8065H35C35 49.8065 35 49.8064 35 49.6667C35 49.3871 34.2941 47.9892 33.8706 46.871C33.5882 46.3118 33.4471 45.8925 33.3059 45.6129C33.1647 45.3333 33.1647 45.0538 33.0235 44.7742C33.0235 44.4946 33.0235 44.3548 33.0235 43.9355C33.0235 43.6559 33.1647 43.5161 33.1647 43.2365C33.1647 42.957 33.3059 42.6774 33.4471 42.5376L33.8706 41.8387L34.5765 42.1183C34.7177 41.9785 34.8588 42.1183 35 42.2581ZM35 37.2258V30.7957C34.5765 30.9355 34.0118 31.0753 33.4471 31.0753C32.3176 31.0753 31.4706 30.6559 30.6235 30.0968V39.4624C31.0471 38.9032 31.3294 38.4839 32.0353 38.0645C32.3176 37.785 32.7412 37.6451 33.1647 37.5054C33.5882 37.3656 34.0118 37.2258 34.4353 37.2258C34.7176 37.3656 34.8588 37.2258 35 37.2258ZM35 28.6989V28H31.3294C31.4706 28.1398 31.6118 28.2796 31.7529 28.4193C32.1765 28.8387 32.8824 29.1183 33.5882 29.1183C34.0118 29.1183 34.5765 28.9785 35 28.6989ZM26.8118 28H23V28.6989C23.4235 28.9785 23.9882 29.2581 24.5529 29.2581C25.2588 29.2581 25.9647 28.9785 26.3882 28.5591C26.6706 28.2796 26.8118 28.1398 26.8118 28ZM23.1412 30.9355V40.4408C23.7059 40.4408 24.4118 40.4409 24.9765 40.5806H25.1176C25.2588 40.5806 25.2588 40.5806 25.4 40.4408C25.8235 40.3011 26.2471 40.3011 26.8118 40.3011C26.9529 40.3011 26.9529 40.3011 27.0941 40.3011V30.3764C26.3882 30.7957 25.6824 31.0753 24.8353 31.0753C24.1294 31.2151 23.5647 31.0753 23.1412 30.9355ZM23.1412 42.3978V43.0968C23.2824 43.0968 23.2824 42.957 23.4235 42.957L24.8353 42.5376L24.6941 42.3978C24.6941 42.3978 24.5529 42.3979 24.4118 42.2581C23.9882 42.3979 23.5647 42.258 23.1412 42.3978Z" fill="#F99035"/>
<path fill-rule="evenodd" clip-rule="evenodd" d="M3.15516 41.2843C3.01888 42.3807 3.29144 42.2437 2.61005 43.3401C2.33749 43.8883 2.06494 44.4365 1.79238 44.9848C1.51982 45.533 0.974713 46.0812 1.11099 46.9035C1.24727 47.5888 1.79238 48 2.47377 48C3.29144 47.8629 3.56399 47.3147 3.83655 46.9035C4.24538 46.3553 4.51793 45.8071 4.92677 45.3959C5.60815 44.7107 6.97094 43.7513 8.60627 44.0254C9.28766 44.1624 9.83277 44.5736 10.2416 44.8477C11.3318 45.67 11.8769 46.4924 12.6946 47.4518C13.5123 48.4112 14.8751 48 14.8751 47.0406C15.0113 46.2183 13.5123 43.4772 13.1034 42.5178C12.9672 42.1066 12.9672 41.9695 12.9672 41.4213C13.1034 41.0101 13.1034 40.736 13.2397 40.4619C13.5123 40.599 13.6486 40.736 13.7848 40.8731C14.0574 41.1472 14.4662 41.5584 14.6025 41.5584C15.2839 41.8325 15.9653 41.1472 15.9653 40.599C16.1015 39.5026 15.829 38.5432 15.2839 37.7208C15.1476 37.5838 15.1476 37.4467 15.0113 37.3096C14.8751 37.1726 14.7388 37.0355 14.8751 36.8985C15.0113 36.7614 15.0113 36.6244 14.8751 36.4873C14.7388 35.9391 14.0574 35.9391 13.5123 36.0761C12.8309 36.0761 12.1495 36.3502 11.7407 36.7614C10.1053 37.8579 10.5142 39.7767 7.10721 39.2284C6.42582 39.0914 5.60815 39.0914 4.92677 39.3655C4.24538 39.5025 4.65421 39.6396 3.97282 39.3655C3.01888 39.0914 1.79238 39.2284 1.11099 39.9137C0.293324 40.599 -0.524343 42.5178 0.429602 43.3401C0.838435 43.6142 1.79237 44.0254 2.20121 43.6142C2.61004 42.5178 2.47377 41.4213 3.15516 41.2843Z" fill="#F99035"/>
<path fill-rule="evenodd" clip-rule="evenodd" d="M6 25.8614L25.5599 12.6931C25.5599 12.8317 25.7006 12.8317 25.7006 12.8317L11.3473 25.7228H6V25.8614ZM33.4401 12.8317L53 26H47.7934L33.2994 13.1089C33.4401 12.9703 33.4401 12.9703 33.4401 12.8317ZM46.3862 25.8614H38.9281L32.3144 13.9406C32.4551 13.802 32.5958 13.802 32.7365 13.5248L46.3862 25.8614ZM37.8024 25.8614H30.0629V14.7723C30.485 14.7723 31.0479 14.6336 31.4701 14.495L37.8024 25.8614ZM30.0629 12.4158V12L30.2036 12.2772C30.2036 12.4159 30.0629 12.4158 30.0629 12.4158ZM28.9371 25.8614H21.479L27.6707 14.495C28.0928 14.6336 28.515 14.7723 28.9371 14.7723V25.8614ZM20.494 25.8614H12.7545L26.2635 13.6634C26.4042 13.802 26.5449 13.9406 26.8264 14.0792L20.494 25.8614Z" fill="#F99035"/>
<path fill-rule="evenodd" clip-rule="evenodd" d="M20 27C20 28.68 18.46 30 16.5 30C14.54 30 13 28.68 13 27H20Z" fill="#F99035"/>
<path fill-rule="evenodd" clip-rule="evenodd" d="M29 27C29 28.68 27.1176 30 24.9216 30C22.7255 30 21 28.68 21 27H29Z" fill="#F99035"/>
<path fill-rule="evenodd" clip-rule="evenodd" d="M37 27C37 28.68 35.46 30 33.5 30C31.54 30 30 28.68 30 27H37Z" fill="#F99035"/>
<path fill-rule="evenodd" clip-rule="evenodd" d="M46 27C46 28.68 44.46 30 42.5 30C40.54 30 39 28.68 39 27H46Z" fill="#F99035"/>
<path fill-rule="evenodd" clip-rule="evenodd" d="M11 27C11 28.68 9.46 30 7.5 30C5.54 30 4 28.68 4 27H11Z" fill="#F99035"/>
<path fill-rule="evenodd" clip-rule="evenodd" d="M55 27C55 28.68 53.32 30 51.5 30C49.54 30 48 28.68 48 27H55Z" fill="#F99035"/>
<path fill-rule="evenodd" clip-rule="evenodd" d="M33 4.49122C33 6.45614 31.46 8 29.5 8C27.54 8 26 6.45614 26 4.49122C26 4.21051 29.08 0.982459 29.5 0C29.92 0.982459 33 4.07016 33 4.49122Z" fill="#F99035"/>
<path fill-rule="evenodd" clip-rule="evenodd" d="M9 59C9.4198 55.1429 12.6382 52 16.5563 52H29.1502H29.8498H42.4437C46.3618 52 49.5802 55 50 59H29.8498H29.1502H9Z" fill="#F99035"/>
<path fill-rule="evenodd" clip-rule="evenodd" d="M44.7939 41.2843C44.6553 42.3807 44.9326 42.2437 44.2394 43.3401C43.9621 43.8883 43.6848 44.4365 43.4075 44.9848C43.1302 45.533 42.5757 46.0812 42.7143 46.9035C42.853 47.5888 43.4075 48 44.2394 48C45.0712 47.8629 45.2098 47.3147 45.6258 46.9035C46.0417 46.3553 46.3189 45.8071 46.7349 45.3959C47.4281 44.7107 48.8145 43.7513 50.4781 44.0254C51.1713 44.1624 51.7259 44.5736 52.2804 44.8477C53.3896 45.67 53.9441 46.4924 54.776 47.4518C55.6078 48.4112 56.9942 48 56.9942 47.0406C57.1328 46.2183 55.4692 43.4772 55.0532 42.5178C54.9146 42.1066 54.9146 41.9695 54.9146 41.4213C54.9146 41.0101 55.0532 40.736 55.1919 40.4619C55.4692 40.599 55.6078 40.736 55.7464 40.8731C56.0237 41.1472 56.301 41.5584 56.5783 41.5584C57.2715 41.8325 57.9647 41.1472 57.9647 40.599C58.1033 39.5026 57.826 38.5432 57.2715 37.7208C57.1328 37.5838 57.1328 37.4467 56.9942 37.3096C56.8555 37.1726 56.7169 37.0355 56.8556 36.8985C56.9942 36.7614 56.9942 36.6244 56.9942 36.4873C56.8555 35.9391 56.1624 35.9391 55.6078 36.0761C54.9146 36.0761 54.2214 36.3502 53.8055 36.7614C52.1418 37.8579 52.4191 39.7767 49.0917 39.2284C48.3985 39.0914 47.5667 39.0914 46.8735 39.3655C46.1803 39.6396 46.7349 39.6396 46.0417 39.3655C45.0712 39.0914 43.8234 39.2284 43.1302 39.9137C42.2984 40.599 41.4666 42.5178 42.437 43.3401C42.853 43.6142 43.8234 44.0254 44.2394 43.6142C44.378 42.5178 44.2394 41.4213 44.7939 41.2843Z" fill="#F99035"/>
<path fill-rule="evenodd" clip-rule="evenodd" d="M24.2914 44.2509C24.1552 45.3532 24.2914 45.2154 23.7463 46.3176C23.4738 46.8688 23.0649 47.4199 22.7924 47.971C22.5198 48.3844 22.111 49.0733 22.111 49.7622C22.2473 50.4511 22.7924 50.8644 23.4738 50.8644C24.2914 50.7266 24.564 50.1755 24.8365 49.7622C25.2454 49.211 25.5179 48.7977 25.9268 48.3844C26.6082 47.6955 27.9709 46.731 29.6063 47.0065C30.2877 47.1443 30.8328 47.4199 31.2416 47.8332C32.3318 48.6599 32.8769 49.4866 33.6946 50.4511C34.5123 51.4155 35.875 51.0022 35.875 50.0377C36.0113 49.2111 34.5123 46.4554 34.1034 45.6287C33.9672 45.2154 33.9672 45.0776 33.9672 44.5265C33.9672 44.1132 34.1034 43.8376 34.2397 43.562C34.5123 43.6998 34.6486 43.8376 34.7848 43.9754C35.0574 44.251 35.3299 44.6643 35.6025 44.6643C36.2839 44.9399 36.829 44.251 36.9653 43.6998C37.1016 42.5976 36.829 41.6331 36.2839 40.6687C36.1476 40.5309 36.1476 40.3931 36.0113 40.2553C35.875 40.1175 35.7388 39.9798 35.875 39.842C35.875 39.7042 36.0113 39.5664 35.875 39.4286C35.7388 38.8775 35.0574 39.0153 34.5123 39.0153C33.8309 39.1531 33.1495 39.2909 32.7407 39.7042C31.1053 40.8065 31.5142 42.7354 28.1072 42.1842C27.4258 42.0465 26.6082 42.0465 25.9268 42.322C25.2454 42.4598 25.6542 42.5976 24.9728 42.322C24.0189 41.9087 22.7924 42.1842 22.111 42.8731C21.2933 43.562 20.4757 45.491 21.4296 46.1799C21.8384 46.4554 22.7924 46.8688 23.2012 46.4554C23.7463 45.6288 23.61 44.5265 24.2914 44.2509Z" fill="#F99035"/>
<path d="M30 27H28V43H30V27Z" fill="#F99035"/>
<path d="M9 29H7V40H9V29Z" fill="#F99035"/>
<path d="M51 27H49V41H51V27Z" fill="#F99035"/>
</svg>
