<svg width="46" height="36" viewBox="0 0 46 36" fill="none" xmlns="http://www.w3.org/2000/svg">
<path fill-rule="evenodd" clip-rule="evenodd" d="M27.6 6.34483C27.6 5.6421 28.0182 4.93935 28.7151 4.65826C30.3879 3.95553 31.9212 5.50156 31.2242 7.18811C31.0849 7.32866 30.9455 7.60974 30.8061 7.75029C30.2485 8.31247 29.4121 8.453 28.7151 8.17191C28.297 8.03136 27.8788 7.60975 27.7394 7.18811C27.6 7.04756 27.6 6.62592 27.6 6.34483ZM46 12.5288V12.8099C46 13.6532 45.7212 14.637 45.1636 15.3398C44.3273 16.6047 42.7939 17.1668 41.4 18.0101L37.3576 20.2589C36.6606 20.6805 35.9636 20.9616 35.2667 21.3832L32.2 23.0698C31.7818 23.2103 31.503 23.4914 31.2242 23.6319C31.3636 23.7725 31.9212 24.3347 31.9212 24.4752L34.0121 26.724C34.1515 26.8645 34.1515 26.8645 34.1515 26.8645C34.4303 27.1456 34.7091 27.4267 34.9879 27.7078C35.1273 27.8484 35.1273 27.8483 35.1273 27.8483L38.3333 31.362C38.4727 31.5025 38.7515 31.9242 39.0303 31.9242C39.4485 31.9242 41.4 31.9242 41.8182 31.9242C43.0727 31.9242 43.7697 31.7836 44.6061 32.3458C45.1636 32.7674 45.7212 33.4702 45.7212 34.3134V34.7351C45.7212 35.0162 45.5818 35.2972 45.303 35.5783C45.1636 35.7189 44.7455 36 44.4667 36H37.2182C37.0788 36 37.0788 36 37.0788 35.8594L36.2424 35.0162C36.103 34.8756 36.103 34.7351 35.9636 34.5945L35.1273 33.6107C34.9879 33.4702 34.9879 33.4702 34.8485 33.3296L31.0848 29.3943C30.3879 28.6916 29.8303 27.9889 29.2727 27.4267L28.297 26.4429C28.0182 26.1618 27.7394 26.0213 27.8788 25.5996C28.0182 24.3347 27.7394 22.9292 27.1818 21.6643C26.7636 20.9616 26.3455 20.1183 25.7879 19.5561C25.6485 19.4156 25.5091 19.1345 25.3697 18.9939C25.2303 18.8534 25.2303 18.8534 25.0909 18.7128C24.9515 18.5723 24.9515 18.5723 24.8121 18.4318C24.6727 18.4318 24.6727 18.2912 24.5333 18.2912C24.1151 18.0101 23.697 17.729 23.2788 17.5885C22.0242 16.8858 20.9091 16.7452 19.2364 16.7452C17.5636 16.7452 15.8909 17.448 14.6364 18.4318L11.9879 20.3994C11.0121 21.1021 11.5697 22.6481 12.6848 22.6481C13.103 22.6481 13.3818 22.5076 13.8 22.2265L16.0303 20.54C17.8424 19.1345 20.2121 18.5723 22.303 19.6967C24.8121 20.9616 26.0667 23.6319 25.3697 26.4429C25.2303 26.8645 25.2303 27.1456 24.9515 27.4267C24.5333 28.4105 21.8848 31.6431 21.7455 31.9242C22.7212 31.9242 28.0182 31.7836 28.7151 32.0647C30.1091 32.4863 31.2242 34.454 30.2485 35.4378C30.1091 35.5784 29.6909 35.8594 29.4121 35.8594H5.01818C4.04242 35.8594 3.34546 35.5784 2.64849 35.1567C2.50909 35.0162 2.50909 35.0162 2.2303 34.8756L1.81211 34.5945C1.67272 34.454 1.67273 34.454 1.53333 34.3134C1.25454 34.0323 0.975758 33.6107 0.69697 33.3296C0.278788 32.6269 0 31.9242 0 31.0809C0 28.4105 0.278784 26.1618 0.975753 23.6319C1.11515 22.9292 1.39394 22.086 1.67272 21.3832C1.95151 20.6805 2.2303 19.9778 2.50908 19.2751L3.34546 17.8696C3.48485 17.7291 3.48485 17.5885 3.62424 17.4479C4.32121 16.3236 5.29697 15.0587 6.13334 13.9343L6.55151 13.5127C6.6909 13.3721 6.8303 13.3721 6.9697 13.091C7.10909 12.8099 7.38788 12.5289 7.66667 12.2478C8.08485 11.8261 8.78182 11.2639 9.2 10.8423C9.75757 10.4207 10.3151 9.999 10.8727 9.57736L12.6848 8.45301C13.3818 8.03138 13.9394 7.75027 14.6364 7.46918C14.7758 7.32863 15.0545 7.32866 15.1939 7.18811C15.3333 7.04756 15.4727 7.04756 15.7515 7.04756C16.4485 6.76647 17.1455 6.48536 17.9818 6.20427C19.097 5.78264 20.3515 5.50154 21.6061 5.36099C22.0242 5.36099 22.4424 5.22048 22.8606 5.22048C22.8606 4.79884 23 4.37718 23.1394 4.09609C23.2788 3.5339 23.5576 3.11227 23.8364 2.69063L24.3939 1.9879L25.0909 1.28517C26.7636 -0.120288 29.5515 -0.401379 31.503 0.582441C32.2 0.863533 32.6182 1.2852 33.1758 1.70683C33.4545 1.84738 33.5939 2.12847 33.8727 2.40956C34.2909 2.97175 34.7091 3.53391 34.8485 4.23664C34.9879 4.51773 35.1273 4.93935 35.1273 5.36099C35.5454 5.36099 38.0545 6.34484 38.3333 6.48538C39.4485 6.90702 40.703 7.46921 41.8182 8.03139L42.9333 8.59357C43.2121 8.73411 43.4909 8.87464 43.6303 9.01519C44.3273 9.43683 44.7454 10.1396 45.0242 10.8423C45.8606 11.2639 46 11.8261 46 12.5288Z" fill="#6DCAE4"/>
</svg>
