<svg width="65" height="32" viewBox="0 0 65 32" fill="none" xmlns="http://www.w3.org/2000/svg">
<path fill-rule="evenodd" clip-rule="evenodd" d="M11.8022 15.0676C11.3807 14.9224 10.9592 14.777 10.6782 14.4865L10.1162 14.0507L9.55415 13.4696C8.57063 12.1622 8.57063 11.2906 8.43013 11.1453C8.28962 11 8.43013 11 8.28963 11H7.44662C6.6036 11 6.3226 11.1453 5.47958 11.2906C4.63657 11.5811 3.51255 12.1622 2.81004 12.8886C2.81004 12.8886 2.81004 12.8885 2.66954 13.0338C2.66954 13.0338 2.66954 13.0338 2.52904 13.1791L1.26452 14.7771C0.843015 15.3582 0.562013 16.0845 0.421511 16.8109C0.281009 17.3919 0.281002 17.392 0.1405 17.9731C0.1405 18.2636 0 18.5541 0 18.6994V19.7163C0 19.7163 0 19.7163 0 19.8616V20.0068C0 20.1521 0 20.2974 0 20.4426L0.1405 21.3143C0.281002 21.8954 0.702515 23.2028 1.12402 23.7839C1.26452 23.9292 1.26452 23.9292 1.26452 24.0744C1.40502 24.365 1.68603 24.5102 1.82653 24.8008C1.96703 24.8008 2.66955 24.5103 3.09105 24.5103C3.23155 24.5103 3.23155 24.5103 3.37205 24.5103C3.65306 24.365 4.77708 24.365 5.19858 24.5103C6.3226 24.8008 6.1821 24.8008 7.30612 25.2366C7.86812 25.5272 8.14913 25.5271 8.71114 25.6724C8.85164 25.6724 8.85163 25.6724 8.99214 25.6724C9.97565 25.8177 10.1162 25.6724 10.9592 25.5271C11.5212 25.3819 12.0832 25.0913 12.6452 24.9461C12.6452 24.9461 12.7857 24.9461 12.7857 24.8008L13.3477 24.6555C14.1907 24.365 14.8932 24.365 15.7362 24.365C16.0172 24.365 16.0172 24.5103 16.2982 24.5103C16.5792 24.5103 17.4223 24.8008 17.7033 24.9461C18.4058 25.2366 18.9678 25.5271 19.6703 25.6724L20.5133 25.8177C22.3398 25.8177 23.1828 24.946 24.7284 24.6555C25.8524 24.5102 26.9764 24.5102 27.9599 24.8008C29.2244 25.2366 28.8029 25.3819 30.6295 25.6724C31.7535 25.8177 32.8775 25.8177 33.861 25.5271C34.2825 25.3819 34.704 25.2366 35.1255 25.0913C35.547 24.9461 35.9685 24.8008 36.5305 24.6555C38.4976 24.2197 39.2001 25.2366 40.7456 25.6724C41.0266 25.6724 41.3076 25.8177 41.4481 25.8177C41.7291 25.8177 42.0101 25.8177 42.2911 25.8177C42.8531 25.8177 43.2747 25.963 43.9772 25.8177C45.9442 25.5272 46.6467 24.8008 48.1922 24.6555C49.3162 24.5102 50.4403 24.6555 51.4238 25.0913C52.4073 25.5272 52.8288 25.8177 54.0933 25.963C55.4983 26.1083 56.6224 25.8177 57.8869 25.2366C58.5894 24.9461 59.2919 24.8008 59.9944 24.6555C60.5564 24.5102 61.1184 24.6555 61.6804 24.6555C62.3829 24.8008 62.9449 25.0913 63.0854 25.0913C63.0854 24.9461 63.2259 24.8008 63.3664 24.6555C63.6475 24.2197 64.069 23.6386 64.2095 23.2028C64.631 22.4764 64.7715 21.8954 64.912 20.8785C65.193 18.99 64.7715 17.2467 64.069 15.794C63.0854 13.9055 61.1184 12.3074 59.0109 11.7264C58.5894 11.5811 58.1679 11.5811 57.6059 11.5811C57.3249 11.5811 56.4818 11.5811 56.2008 11.7264C56.0603 11.8716 56.0603 12.1622 56.0603 12.4527C55.7793 13.1791 55.4983 13.6149 54.9363 14.196C54.0933 15.0676 52.5478 15.9392 51.1428 15.9392C42.4316 15.3581 17.4223 16.6656 11.8022 15.0676Z" fill="#6DCAE4"/>
<path fill-rule="evenodd" clip-rule="evenodd" d="M16.8623 31.519C17.0005 31.519 17.4152 31.3724 17.6917 31.3724C19.0741 31.2257 19.9035 30.9325 21.1476 30.6392C21.5623 30.4926 21.977 30.346 22.5299 30.346C24.7416 30.0527 26.5387 30.1993 28.4739 30.9325C30.271 31.519 32.4827 31.8123 34.5562 31.3724C36.768 30.9325 37.5974 30.1993 40.362 30.346C43.5414 30.346 43.8179 31.0791 46.1679 31.519C48.3796 31.9589 50.1766 31.6657 52.2501 31.0791C52.6648 30.9325 53.0795 30.7858 53.6325 30.6392C54.1854 30.4926 54.6001 30.4926 55.153 30.4926C56.1207 30.346 57.3648 30.4926 58.3324 30.6392C59.3001 30.7858 60.1295 31.0791 60.9589 31.3724C61.7883 31.519 63.0324 31.8123 64 31.8123V27.4133C61.65 27.2667 61.65 27.2667 59.7148 26.5335C59.3001 26.3869 58.8854 26.3868 58.3324 26.2402C56.5354 25.8003 53.9089 26.0936 52.3884 26.6801C50.5913 27.4133 48.3796 27.5599 46.3061 27.12C45.3384 26.9734 44.5091 26.6801 43.6797 26.3869C41.8826 25.947 39.3944 25.8003 37.5974 26.3869C34.9709 27.12 34.8327 27.4133 31.6533 27.2667C30.6857 27.2667 29.718 26.9734 28.7504 26.6801C28.6122 26.6801 28.3357 26.5335 28.0592 26.5335C27.0916 26.2402 26.8151 26.2403 25.8475 26.0936C25.0181 25.947 23.4975 26.0936 22.6681 26.2402C21.2858 26.5335 21.1476 26.6801 19.9035 26.9734C19.3505 27.12 17.4152 27.4133 17.0005 27.4133C16.8623 27.4133 16.8623 27.4133 16.8623 27.4133L14.2359 27.12L10.78 26.2402C10.6418 26.2402 10.3653 26.2403 10.2271 26.0936C9.67416 25.947 8.56829 26.0936 8.01536 26.0936C7.87712 26.0936 7.73889 26.2402 7.46242 26.2402C7.18595 26.2402 7.04772 26.3869 6.77125 26.3869L5.11245 26.8268C4.69775 26.9734 3.73011 27.2667 3.31541 27.2667C3.17718 27.2667 3.03894 27.2667 2.76248 27.4133C2.48601 27.5599 1.10368 27.5599 1.10368 27.5599C0.965442 27.7066 0.965442 31.9589 1.10368 31.9589C1.24191 32.1056 2.76248 31.8123 3.03895 31.8123L3.86835 31.6657C4.28305 31.519 4.28305 31.519 4.83598 31.3724H4.97422C5.11246 31.3724 5.11245 31.3724 5.25069 31.2258L6.63302 30.7859C7.73889 30.6392 8.56829 30.4926 9.67416 30.6392L11.4712 30.9325C11.6094 30.9325 11.6094 31.0791 11.7477 31.0791C11.8859 31.0791 11.8859 31.0791 12.0241 31.2258L13.13 31.519C13.2682 31.6657 13.5447 31.6657 13.6829 31.6657L14.927 31.9589C15.2035 31.519 16.4476 31.6657 16.8623 31.519Z" fill="#6DCAE4"/>
<path fill-rule="evenodd" clip-rule="evenodd" d="M24.1942 0.0322678C23.4478 0.180498 23.1492 0.18048 22.4028 0.476941C20.9099 1.36633 19.8649 2.99686 20.0142 4.92386C20.3128 8.62962 25.0899 10.5566 27.9264 7.4438C28.6728 6.55441 29.1207 5.51677 28.9714 4.03447C28.9714 1.51455 26.2842 -0.264193 24.1942 0.0322678Z" fill="#6DCAE4"/>
<path fill-rule="evenodd" clip-rule="evenodd" d="M40.5955 0.0322678C39.932 0.180498 39.6666 0.18048 39.1358 0.476941C37.8088 1.36633 36.8799 2.99686 37.0126 4.92386C37.278 8.62962 41.5244 10.5566 44.0457 7.4438C44.7092 6.55441 45.1073 5.51677 44.9746 4.03447C44.8419 1.51455 42.586 -0.264193 40.5955 0.0322678Z" fill="#6DCAE4"/>
<path fill-rule="evenodd" clip-rule="evenodd" d="M18 17H31V13.5C31 11.6042 29.4624 10 27.6452 10H21.4946C19.6774 10 18.1398 11.6042 18.1398 13.5V17H18Z" fill="#6DCAE4"/>
<path fill-rule="evenodd" clip-rule="evenodd" d="M35 17H48V13.5C48 11.6042 46.4624 10 44.6452 10H38.4946C36.5376 10 35.1398 11.6042 35.1398 13.5V17H35Z" fill="#6DCAE4"/>
</svg>
