<svg width="51" height="67" viewBox="0 0 51 67" fill="none" xmlns="http://www.w3.org/2000/svg">
<path d="M35.5749 8.71275C30.8501 13.4149 26.9591 17.1489 26.9591 17.1489C26.9591 17.1489 27.6539 17.8404 28.3488 18.5319L29.7384 19.9149L28.0708 21.5745C27.0981 22.5426 26.4033 23.234 26.2643 23.234C26.1253 23.234 25.9864 23.0957 25.7084 22.9575L25.2916 22.5425L24.8747 22.8191C24.5967 22.9574 24.4578 23.0958 24.4578 23.0958C24.4578 23.0958 22.2343 20.883 21.4005 20.1915L21.1226 19.7766L21.2616 19.6383L21.4005 19.5L21.2616 19.3617C21.1226 19.2234 17.3706 15.4893 12.7847 10.7872L4.44687 2.35108L4.3079 2.48934L4.16894 2.62765L3.61308 2.07447C2.91825 1.38298 2.7793 1.24467 2.3624 1.24467C1.80655 1.24467 1.38965 1.65958 1.38965 2.21277C1.38965 2.62767 1.52861 2.76596 2.08447 3.45745L2.77929 4.01063L1.38965 5.39361L0 6.77659L6.11444 12.8617C9.44959 16.1808 13.3406 20.0532 14.5913 21.4362L16.9537 23.7872L18.3433 22.4043L19.8719 21.0213L21.4005 22.5425C22.2343 23.3723 22.9292 24.0638 22.9292 24.0638L22.7902 24.2021C22.6512 24.3404 22.5123 24.617 21.5395 26.6915L20.4278 29.0425L20.1499 29.3192L19.8719 29.5957L19.733 29.4574L19.594 29.3192L17.0926 31.6702C15.703 33.0532 11.812 36.7872 8.47684 40.1064L2.3624 46.0532L2.50137 46.1915L2.64033 46.3298L1.94551 47.7128C1.66758 48.1277 1.25068 48.4043 1.25068 48.5426C0.833789 49.234 1.52862 50.2021 2.3624 50.0638C2.64033 49.9255 2.91826 49.7872 3.47411 49.234L4.02997 48.6809L5.41962 50.0638L6.80927 51.4468L9.17166 49.234C10.4223 47.9894 13.0627 45.3617 15.0082 43.4255C16.9537 41.4893 18.6213 39.9681 18.6213 39.9681C18.6213 40.1064 18.0654 42.734 17.7875 43.7021C16.9537 46.7447 15.9809 49.6489 14.8692 51.4468C14.7302 51.7234 14.5913 52 14.5913 52C14.5913 52 15.703 51.8617 16.9537 51.4468L19.3161 50.8936H25.4305H31.545L34.0463 51.4468C35.297 51.7234 36.4087 52 36.5477 52C36.5477 52 36.4087 51.8617 36.4087 51.7234C36.1308 51.3085 35.297 49.3723 34.7411 48.4042C33.4905 45.2234 32.5177 41.2128 31.9618 36.9255C31.8229 35.8192 31.6839 34.1596 31.6839 34.1596C31.6839 34.1596 37.2425 39.6915 43.9128 46.3298L46.5531 49.0957L46.6921 48.9574L46.8311 48.8191L47.3869 49.3723C47.8038 49.7872 48.0817 50.0638 48.2207 50.0638C48.9155 50.3404 49.6104 49.9255 49.6104 49.0957C49.6104 48.9574 49.6103 48.8192 49.4714 48.6809C49.4714 48.5426 49.1935 48.266 48.7766 47.8511L48.2207 47.1596L49.6104 45.7766L51 44.3936L49.3324 42.734C48.4986 41.9042 45.1635 38.5851 41.9673 35.4043C38.9101 32.2234 35.7139 29.1809 35.158 28.4894L33.9074 27.2447L32.5177 28.6277L31.1281 30.0106L30.7112 29.5957L30.2943 29.1809L29.3215 26.8298C28.4877 24.8936 28.2098 24.4787 28.0708 24.3404C27.9319 24.3404 27.9319 24.2021 27.9319 24.2021C27.9319 24.2021 28.6267 23.5106 29.4605 22.6808L30.9891 21.1596L31.1281 21.2979C31.267 21.4362 31.267 21.4362 31.267 21.4362C31.267 21.4362 35.0191 17.7021 39.6049 13.2766C44.1907 8.85107 47.9428 4.97872 48.2207 4.84042L48.4986 4.56381L48.3597 4.42555L48.2207 4.28724L48.9155 3.73406C49.4714 3.18087 49.6104 3.04256 49.6104 2.90426C49.7493 2.48937 49.6103 2.21277 49.4714 2.07447C49.1935 1.65957 48.6376 1.52129 48.2207 1.65959C48.0817 1.65959 47.8038 2.07448 47.5259 2.35108L46.8311 2.90426L45.4414 1.52128L44.0518 0L35.5749 8.71275ZM29.0436 30.9787L29.8774 31.8085L29.7384 31.9468C29.5995 32.0851 29.5995 32.0851 29.5995 32.0851C29.5995 32.0851 29.8774 32.3617 30.1553 32.7766C30.4332 33.0532 30.7112 33.3298 30.5722 33.3298C30.5722 33.3298 30.0164 33.0532 29.4605 32.7766L28.4877 32.2234H25.4305H22.3733L22.0954 32.3617L21.8174 32.5L21.4005 32.0851L20.9836 31.6702L21.8174 30.8404L22.6512 30.0106H25.2916H27.9319L29.0436 30.9787Z" fill="#B37CD5"/>
<path d="M18.4911 54.1398C17.9467 54.2796 16.858 54.5591 15.9053 54.6989C15.0888 54.8387 14.2722 55.1183 14.1361 55.1183L14 55.2581V60.5699V65.8817L14.2722 66.0215C14.4083 66.0215 15.497 66.301 16.7219 66.5806L18.8994 67H19.9882H20.9408V63.2258V59.3118L21.213 59.172C21.6213 58.8924 22.4379 58.4731 22.8462 58.3333C25.1598 57.4946 27.6095 57.7742 29.5148 58.8925L29.9231 59.0323V63.086V67H31.0118H32.1006L34.5503 66.4408C35.9112 66.1613 37 65.8817 37 65.8817C37 65.8817 37 63.5053 37 60.5699V55.2581L36.7278 55.1183C36.5917 55.1183 35.3669 54.8387 34.0059 54.5591L31.5562 54H25.432H19.3077L18.4911 54.1398Z" fill="#B37CD5"/>
</svg>
