<svg width="56" height="44" viewBox="0 0 56 44" fill="none" xmlns="http://www.w3.org/2000/svg">
<path fill-rule="evenodd" clip-rule="evenodd" d="M31.7008 33.3842V36.4572V37.1556H16.6185H14.384C14.384 36.7366 14.1047 36.0381 13.9651 35.7588L13.5461 34.781C13.4065 34.5016 13.1272 34.0826 12.8479 33.6635C12.7082 33.3842 12.1496 32.8254 12.01 32.6857L11.8703 32.546C10.7531 31.4286 8.65835 30.5905 6.84289 30.5905C5.44639 30.5905 4.60848 30.7302 3.49127 31.2889C3.35162 31.4286 3.07233 31.4286 2.93268 31.5683C2.79303 31.708 2.65337 31.7079 2.37407 31.8476C1.53617 32.4063 0.698254 32.9651 0 33.6635V18.5778L14.1047 17.1809L16.6185 5.44765C16.4788 5.16829 16.7581 4.60956 14.384 4.74924C14.803 1.25718 27.5112 0.698413 31.4214 0V27.3778H42.5935H53.6259H54.8828H55.7207V32.4064H53.6259V29.4731H42.5935V33.5238H31.7008V33.3842ZM16.1995 17.0413C16.8978 13.1302 17.596 9.91749 18.4339 6.14607C18.5736 5.30797 19.1322 4.46986 20.2494 4.46986C22.6234 4.19049 24.9975 4.33018 27.3716 4.46986C27.9302 4.46986 28.7681 4.88894 28.7681 5.72704L29.187 16.6223V16.7619V28.2159C29.187 30.0318 28.0698 30.0317 26.2544 30.0317H17.8753C17.1771 30.0317 16.7581 30.0317 16.3392 29.7524C15.9202 29.473 15.6409 29.054 15.6409 28.2159V27.9365C15.5013 25.981 15.3616 22.6286 15.6409 19.5556C15.7806 18.7175 15.9202 17.8794 16.1995 17.0413ZM27.9302 16.7619L17.4564 17.0413C17.1771 17.8794 17.0374 18.7175 16.8978 19.5556C16.6185 22.4889 16.7581 25.8413 16.8978 27.7969V28.0762C16.8978 28.4953 16.8978 28.7747 17.0374 28.7747C17.1771 28.9143 17.4564 28.9143 18.015 28.9143H26.1147C27.2319 28.9143 27.9302 28.9143 27.9302 28.2159V16.7619ZM32.5387 26.5397H56V2.23497C55.4414 2.23497 54.7431 2.23494 54.4638 2.37462C50.9726 4.60954 47.9002 7.68256 44.5486 10.0572C42.8728 11.3143 42.3142 11.873 42.0349 14.3873L41.197 22.7682H32.399V26.5397H32.5387ZM51.3915 38.2731C51.3915 36.7365 50.1347 35.3397 48.5985 35.3397C48.0399 35.3397 47.7606 35.3397 47.202 35.619C45.3865 36.4571 44.9676 38.9714 46.3641 40.2286C46.783 40.6476 47.4813 41.0667 48.1795 41.0667C48.8778 41.0667 49.1571 41.0667 49.7157 40.7873C50.6933 40.3683 51.3915 39.2508 51.3915 38.2731ZM48.5985 44C47.9002 44 47.6209 44 47.0623 43.8604C46.2244 43.7207 45.2469 43.1619 44.6883 42.6032C44.5486 42.4635 44.5486 42.4635 44.5486 42.4635C44.409 42.3238 44.409 42.3238 44.409 42.3238C43.2918 41.2063 42.7332 39.8095 42.7332 38.1333C42.7332 37.2952 43.0125 36.4572 43.2918 35.7588C43.5711 35.2001 43.7107 34.9207 44.1297 34.362C44.2693 34.2223 44.2693 34.2222 44.2693 34.2222L44.8279 33.6635L45.6658 33.1048C46.6434 32.5461 47.3416 32.2667 48.7382 32.2667C49.5761 32.2667 50.5536 32.546 51.1122 32.8254L51.9501 33.3842C53.0673 34.0826 54.0449 35.6191 54.3242 36.8762C54.7431 38.9715 54.1845 40.927 52.788 42.3238C52.3691 42.7428 51.6708 43.3016 51.1122 43.4413C50.1347 43.8604 49.5761 44 48.5985 44ZM9.77556 38.2731C9.77556 37.5746 9.49626 36.7365 8.93766 36.1778C8.65836 35.8984 8.37906 35.7587 8.09975 35.619C6.28429 34.781 3.91023 35.8984 3.91023 38.2731C3.91023 39.3905 4.60848 40.3683 5.44639 40.7873C6.84289 41.4857 8.37906 41.0667 9.21696 39.8095C9.35662 39.6698 9.35661 39.5302 9.49626 39.3905C9.63591 39.1111 9.77556 38.5524 9.77556 38.2731ZM6.98254 44C5.58603 44 4.60848 43.581 3.49127 42.8826C3.35162 42.7429 3.21198 42.7429 3.07233 42.6032L2.65337 42.1841C2.09476 41.6254 1.81547 41.346 1.53617 40.5079C0.698263 38.6921 0.837909 37.0159 1.81547 35.2C1.95512 35.0603 1.95511 34.9207 2.09476 34.781C3.21197 33.2445 4.88778 32.2667 6.84289 32.2667C7.9601 32.2667 8.51871 32.4063 9.49626 32.8254C11.1721 33.5238 12.2893 35.0604 12.7082 36.8762L12.8479 38.2731C12.8479 38.4127 12.8479 38.4128 12.8479 38.5524C12.8479 39.2508 12.7082 39.9493 12.4289 40.6477C12.01 41.6255 11.1721 42.6032 10.1945 43.1619C9.49626 43.581 9.21696 43.7206 8.37905 44C7.82045 44 7.4015 44 6.98254 44Z" fill="#B37CD5"/>
</svg>
