<svg width="59" height="53" viewBox="0 0 59 53" fill="none" xmlns="http://www.w3.org/2000/svg">
<path fill-rule="evenodd" clip-rule="evenodd" d="M25 51H30.875V49.322H25V51ZM31 47.0847V20.3771C30.75 20.2373 30.625 19.9576 30.375 19.8178C30 19.3983 29.75 18.839 29.5 18.2797C29.375 18.9788 29 19.3983 28.625 19.8178C28.125 20.3771 27.5 20.6568 26.875 20.9365L25.25 47.2246H31V47.0847ZM27 18L26.875 19.1186C27.125 18.9788 27.375 18.839 27.5 18.6992C27.625 18.5593 27.875 18.2797 27.875 18H27Z" fill="#E50056"/>
<path fill-rule="evenodd" clip-rule="evenodd" d="M34 51H28V49.322H34V51ZM28 47.0847V20.3771C28.2553 20.2373 28.5106 19.9576 28.6383 19.8178C29.0213 19.3983 29.4043 18.839 29.5319 18.2797C29.6596 18.9788 30.0426 19.3983 30.4255 19.8178C30.9362 20.3771 31.5745 20.6568 32.2128 20.9365L33.7447 47.2246H28V47.0847ZM32.0851 18L32.2128 19.1186C31.9574 18.9788 31.7021 18.839 31.5745 18.6992C31.4468 18.5593 31.1915 18.2797 31.1915 18H32.0851Z" fill="#E50056"/>
<path fill-rule="evenodd" clip-rule="evenodd" d="M13 53C13.2739 50.125 15.8755 48 19.0249 48H29.1577H29.7054H39.8382C42.9876 48 45.5892 50.25 46 53H29.8423H29.2946H13Z" fill="#E50056"/>
<path fill-rule="evenodd" clip-rule="evenodd" d="M1.45928 29.2216L0.0963137 24.0937C-0.660887 21.5297 3.27656 21.3947 3.88232 23.2839C4.33664 25.0382 4.9424 26.7925 5.39672 28.6817C5.54816 29.2215 5.85104 29.6264 6.60824 29.4915H9.03128C10.0914 29.4915 11 30.3011 11 31.2457C11 32.1903 10.0914 33 9.03128 33H4.33664C2.21648 33 1.9136 30.7059 1.45928 29.2216Z" fill="#E50056"/>
<path fill-rule="evenodd" clip-rule="evenodd" d="M10 16L26.1913 4.58531C26.1913 4.58531 26.1913 4.73171 26.3321 4.73171L14.5054 16H10ZM32.8087 4.58531L49 16H44.6354L32.8087 4.58531ZM43.509 16H37.3141L31.8231 5.60972C31.9639 5.46338 32.1047 5.46336 32.2455 5.31702L43.509 16ZM36.3285 16H29.9928V6.34142C30.4152 6.34142 30.6968 6.19507 31.1191 6.04872L36.3285 16ZM29.9928 4.2927V4L30.1336 4.2927H29.9928ZM29.148 16H22.9531L28.0217 6.04872C28.3032 6.19507 28.7256 6.34142 29.148 6.34142V16ZM29.0072 4.2927C29.148 4.2927 29.148 4.2927 29.0072 4.2927V4.2927ZM22.1083 16H15.7726L27.0361 5.31702C27.1769 5.46336 27.3177 5.60972 27.4585 5.60972L22.1083 16Z" fill="#E50056"/>
<path fill-rule="evenodd" clip-rule="evenodd" d="M15 17C15 18.7143 13.5714 20 12 20C10.4286 20 9 18.5714 9 17H15Z" fill="#E50056"/>
<path fill-rule="evenodd" clip-rule="evenodd" d="M22 17C22 18.7143 20.7143 20 19 20C17.2857 20 16 18.5714 16 17H22Z" fill="#E50056"/>
<path fill-rule="evenodd" clip-rule="evenodd" d="M29 17C29 18.7143 27.7143 20 26 20C24.2857 20 23 18.5714 23 17H29Z" fill="#E50056"/>
<path fill-rule="evenodd" clip-rule="evenodd" d="M36 17C36 18.7143 34.7143 20 33 20C31.2857 20 30 18.5714 30 17H36Z" fill="#E50056"/>
<path fill-rule="evenodd" clip-rule="evenodd" d="M43 17C43 18.7143 41.7143 20 40 20C38.2857 20 37 18.5714 37 17H43Z" fill="#E50056"/>
<path fill-rule="evenodd" clip-rule="evenodd" d="M51 17C51 18.7143 49.7143 20 48 20C46.2857 20 45 18.5714 45 17H51Z" fill="#E50056"/>
<path fill-rule="evenodd" clip-rule="evenodd" d="M30 0C31.7143 0 33 1.19046 33 2.5C33 3.80954 31.5714 5 30 5C28.4286 5 27 3.92859 27 2.5C27 1.07141 28.2857 0 30 0Z" fill="#E50056"/>
<path fill-rule="evenodd" clip-rule="evenodd" d="M30 0C31.7143 0 33 1.19046 33 2.5C33 3.80954 31.5714 5 30 5C28.4286 5 27 3.92859 27 2.5C27 1.07141 28.2857 0 30 0Z" fill="#E50056"/>
<path fill-rule="evenodd" clip-rule="evenodd" d="M36.3266 36.2216L35.0876 31.0937C34.3992 28.5297 37.9787 28.3947 38.5294 30.2839C39.0801 32.0382 39.4931 33.7925 39.9061 35.6817C40.0438 36.2215 40.3191 36.6264 41.0075 36.4915H43.2103C44.174 36.4915 45 37.3011 45 38.2457C45 39.1903 44.174 40 43.2103 40H38.8047C36.8773 39.8651 36.602 37.571 36.3266 36.2216Z" fill="#E50056"/>
<path fill-rule="evenodd" clip-rule="evenodd" d="M50.3266 30.2216L49.0876 25.0937C48.3992 22.5297 51.9787 22.3947 52.5294 24.2839C52.9424 26.0382 53.4931 27.9275 53.9061 29.6817C54.0438 30.0866 54.3191 30.6264 55.0075 30.4915H57.2102C58.174 30.4915 59 31.3011 59 32.2457C59 33.1903 58.174 34 57.2102 34H52.9424C51.015 34 50.7396 31.7059 50.3266 30.2216Z" fill="#E50056"/>
<path d="M5 29.4606L10.902 18L12 18.5394L6.09804 30L5 29.4606Z" fill="#E50056"/>
<path d="M51.7727 33L47 18.4055L48.2273 18L53 32.5946L51.7727 33Z" fill="#E50056"/>
<path fill-rule="evenodd" clip-rule="evenodd" d="M16.4593 36.2216L15.0963 31.0937C14.3391 28.5297 18.2766 28.3947 18.8823 30.2839C19.3366 32.0382 19.9424 33.7925 20.3967 35.6817C20.5482 36.2215 20.851 36.6264 21.6082 36.4915H24.0313C25.0914 36.4915 26 37.3011 26 38.2457C26 39.1903 25.0914 40 24.0313 40H19.3366C17.2165 39.8651 16.9136 37.571 16.4593 36.2216Z" fill="#E50056"/>
<path d="M20 36.7223L24.7143 17H25.4286L26 17.1389L21.2857 37L20 36.7223Z" fill="#E50056"/>
<path d="M39.7727 38L38 17H39.2273L41 37.8599L39.7727 38Z" fill="#E50056"/>
</svg>
