<svg width="56" height="62" viewBox="0 0 56 62" fill="none" xmlns="http://www.w3.org/2000/svg">
<path fill-rule="evenodd" clip-rule="evenodd" d="M48.556 21.7879H46.0328L45.8927 21.2293C45.7525 21.0897 45.7525 20.8104 45.6123 20.6708C45.4721 20.3916 45.1918 20.1123 44.9114 19.9727C44.0704 19.5538 36.7811 19.6935 36.2204 19.8331C35.099 20.252 33.2767 23.7426 27.95 23.7426C22.7634 23.7426 20.8009 20.2519 19.8197 19.9727C19.1188 19.6934 15.0536 19.8331 13.9322 19.8331C11.409 19.8331 10.7081 19.6935 10.0073 21.5086C10.0073 21.5086 10.0073 21.5086 10.0073 21.6482L9.86708 21.9275C8.60548 21.9275 2.2975 21.7878 1.59661 21.9275C0.615367 22.0671 -0.225695 23.1841 0.0546601 24.3011C0.335015 25.5577 1.31626 25.837 2.71803 25.837C2.43768 26.6747 1.59661 27.3729 2.15732 28.4899C2.43768 29.188 3.27874 29.8861 4.40016 29.7465C6.36264 29.4672 6.50283 26.2558 7.34389 25.837H10.0073C10.0073 26.5351 9.86708 27.9313 10.1474 28.6295C10.4278 29.3276 10.9885 29.7465 11.9697 29.8861C13.9322 30.0258 16.0349 29.8861 17.9974 29.8861C18.1375 31.2824 17.9974 41.0561 17.9974 43.2901C17.9974 44.5468 18.1375 45.1053 18.9786 45.6638C20.6607 46.5016 22.2027 44.6864 23.7446 44.2675C24.1652 44.1279 25.8473 44.9657 25.9875 45.3845V62H30.0526V46.5015C30.0526 44.9656 29.7723 45.1053 30.6133 44.2675C31.0339 43.8487 31.5946 43.1505 32.1553 42.8713C32.5758 43.4298 34.8187 45.6638 35.3794 45.8034C36.3606 46.2223 37.2017 45.6638 37.6222 45.2449C38.1829 44.5468 38.0427 43.5694 38.0427 42.592C38.0427 40.358 37.9026 31.5616 38.0427 30.0257C45.332 29.8861 46.0328 31.1428 46.0328 25.9766C47.2944 25.9766 53.6024 26.1163 54.3033 25.9766C55.9854 25.6974 56.6863 23.603 55.1444 22.3463C54.5837 21.9275 54.023 22.0671 53.3221 22.0671C53.6024 21.2293 54.4435 20.5312 53.8828 19.2746C53.6024 18.5764 52.7614 17.8783 51.6399 18.018C49.6775 18.1576 49.5373 21.369 48.556 21.7879Z" fill="#6DCAE4"/>
<path fill-rule="evenodd" clip-rule="evenodd" d="M22.0343 8.00691C19.6502 8.00691 15.8635 7.30452 16.0038 10.2544C16.2843 12.7829 19.5099 11.9402 22.3148 12.0806C22.1746 13.2044 21.7538 13.6258 22.0343 15.1709C22.3148 16.1542 22.7356 16.9971 23.1563 17.6995C25.4002 20.7899 30.4491 20.7898 32.8332 17.559C34.5162 15.171 33.9552 13.7663 33.6747 12.0806C36.4796 11.9402 39.8455 12.7829 39.9858 10.2544C40.2662 7.44499 36.3394 8.00691 33.9552 8.00691C33.9552 6.74267 34.0954 1.96664 33.815 1.26428C33.3942 0.280978 32.4125 0 31.571 0H24.5588C20.9124 0 22.1746 2.80945 22.0343 8.00691Z" fill="#6DCAE4"/>
</svg>
