<svg width="49" height="48" viewBox="0 0 49 48" fill="none" xmlns="http://www.w3.org/2000/svg">
<path fill-rule="evenodd" clip-rule="evenodd" d="M23.9233 17.0479C20.5174 17.4621 18.3888 20.2238 17.1116 22.7093C12.1448 32.3752 16.4021 48.6692 25.0585 47.9787C28.3224 47.7026 30.7349 44.5267 31.8702 42.3173C34.7083 36.3797 34.8502 27.8185 31.4444 22.157C30.593 20.6381 29.7415 19.6715 28.6063 18.7049C27.6129 17.7383 25.7681 16.7717 23.9233 17.0479Z" fill="#B37CD5"/>
<path fill-rule="evenodd" clip-rule="evenodd" d="M19.7167 46.2801C19.5742 46.003 18.8612 45.3102 18.576 44.8945C18.1483 44.3403 17.8631 44.0632 17.5779 43.509C16.865 42.4006 16.4373 41.2922 16.0095 40.0452C13.8707 33.9489 14.5836 25.6358 18.4335 20.2323C19.0038 19.5395 20.1445 18.154 21 17.8769C20.7148 17.3226 19.289 16.6299 18.576 16.3528C15.4392 15.2444 12.5874 16.907 10.7338 19.1239C8.45245 22.0335 7.31177 25.7743 7.0266 30.3466C6.74143 35.8886 8.73762 43.7861 13.5855 46.2801C14.4411 46.6957 15.4392 47.1114 16.5798 46.9728C18.0057 47.1114 18.576 46.6957 19.7167 46.2801Z" fill="#B37CD5"/>
<path fill-rule="evenodd" clip-rule="evenodd" d="M28 17.8481C28.4272 18.2621 28.9969 18.4001 30.5634 20.1938C35.5479 26.5409 35.5479 39.5109 29.9938 45.582C29.709 45.858 29.5665 45.996 29.4241 46.2719C31.4179 47.0998 33.2693 47.3758 35.4055 46.2719C37.1145 45.4441 38.1114 44.0643 39.2507 42.5465C41.1021 39.5109 42.2414 34.8197 41.9565 30.5423C41.6717 26.1269 40.5324 21.9875 38.2538 19.3659C37.2569 18.124 35.8327 16.7443 33.839 16.1923C32.6996 15.9164 31.5603 15.9163 30.5634 16.3303C29.5666 16.7442 28.4272 17.2962 28 17.8481Z" fill="#B37CD5"/>
<path fill-rule="evenodd" clip-rule="evenodd" d="M35 16.0425C35.5629 16.4682 35.7036 16.3263 36.548 17.0357C40.0662 19.7316 41.7549 24.9816 42.1771 29.3801C42.5993 34.9138 41.6142 40.7312 38.096 45.1298L37.8145 45.5556C37.9553 45.6974 37.9553 45.6974 37.9553 45.6974C38.096 45.6974 37.9553 45.6974 38.096 45.6974C38.2367 45.6974 38.3775 45.8393 38.5182 45.8393C38.7996 45.9812 39.0811 45.9812 39.2218 45.9812C42.5993 46.265 45.2731 43.2853 46.6804 40.4475C50.1985 33.4949 49.7764 22.9951 44.9916 16.8939C43.1622 14.6237 40.2069 13.2047 37.2516 14.4818C36.548 14.7655 35.2815 15.6168 35 16.0425Z" fill="#B37CD5"/>
<path fill-rule="evenodd" clip-rule="evenodd" d="M10.881 45.8434L9.74676 44.418C9.32144 43.9903 9.03788 43.4201 8.75433 42.7074C5.49352 36.5781 5.63529 27.4554 8.75433 21.326C9.74675 19.3304 11.4481 17.1922 13.5747 16.1944L13.8582 16.0519C14 15.9094 14 15.9094 14 15.9094C13.5747 15.4818 12.5823 14.7691 11.7316 14.484C8.75434 13.2011 5.77707 14.6265 4.07578 16.9071C-0.886337 23.0365 -1.02811 33.5847 2.09093 40.1417C3.50867 42.85 6.48594 46.8412 10.881 45.8434Z" fill="#B37CD5"/>
<path fill-rule="evenodd" clip-rule="evenodd" d="M15.6258 15.6066C16.0323 15.7459 16.1677 15.6065 16.4387 15.4672H16.5742C17.5226 15.1885 18.6064 15.3278 19.5548 15.7459C21.5871 16.4426 20.3677 17 21.9936 16.582C23.8903 16.164 26.4645 16.0246 28.2258 17C28.4968 16.8607 28.6323 16.7213 28.9032 16.582C29.9871 15.7459 31.4774 15.1885 32.8323 14.9098C33.1032 14.9098 33.6452 14.7704 33.9161 14.7704C34.1871 14.7704 34.5935 14.9098 35 14.9098C34.8645 14.3525 34.1871 13.5164 33.7806 13.2377C33.2387 12.8197 32.6968 12.541 31.6129 12.541C28.3613 12.541 28.2258 13.5164 27.1419 13.7951C26.871 12.8197 26.6 11.8442 26.329 10.8688L25.2452 8.08194C25.1097 7.80325 24.9742 7.5246 24.8387 7.24591C24.7032 6.96722 24.5677 6.68848 24.4323 6.4098C23.7548 5.01635 21.7226 0.696721 20.6387 0C20.2323 0.139344 17.929 1.39344 17.7935 2.09016C19.4193 2.92623 20.6387 5.43439 21.3161 7.10652C21.9936 8.6393 22.5355 10.4508 22.671 12.123C22.8065 13.2377 22.8064 13.0983 22.5355 14.0737C22.2645 13.9344 20.3677 12.8197 19.4194 12.541C18.3355 12.2623 16.3032 12.541 15.4903 12.959C15.0839 13.2377 14.1355 14.0738 14 14.4918C14.4065 14.7705 15.4903 15.4672 15.6258 15.6066Z" fill="#B37CD5"/>
</svg>
