<svg width="73" height="48" viewBox="0 0 73 48" fill="none" xmlns="http://www.w3.org/2000/svg">
<path fill-rule="evenodd" clip-rule="evenodd" d="M26.9444 16L29.7222 15.4545L27.5 10.1363L27.9167 7L25 7.40907L25.8333 10L26.9444 16ZM30 13.5454L29.5833 9.18186L29.1667 9.31819L29.0278 7.54548L28.6111 10L30 13.5454Z" fill="#B37CD5"/>
<path fill-rule="evenodd" clip-rule="evenodd" d="M44 12.403L41.4359 13L41.3077 6.73134L39.7692 3.89548L42.3333 3L42.5897 5.98507L44 12.403ZM40.4103 11.2089L39.1282 6.73134L39.5128 6.58212L39 4.79106L40.2821 7.17908L40.4103 11.2089Z" fill="#B37CD5"/>
<path fill-rule="evenodd" clip-rule="evenodd" d="M30.2366 15L28 9.74155L28.4194 6.91013L33.172 3L39.1828 4.75279L40.7204 7.17973L41 12.8427L30.2366 15ZM31.6344 7.71909L36.5269 6.64046L37.5054 11.2247L32.6129 12.3034L31.6344 7.71909Z" fill="#B37CD5"/>
<path fill-rule="evenodd" clip-rule="evenodd" d="M31.4286 26L35.2857 25.2857L34.1429 20.2857L39.1429 19.2857L40.2857 24.1428L44 23.4285L41 13L36 14L34.8571 14.2857L30 15.2858L31.4286 26Z" fill="#B37CD5"/>
<path fill-rule="evenodd" clip-rule="evenodd" d="M24 7.33332L25.125 7L27 9.66668L25.875 10L24 7.33332Z" fill="#B37CD5"/>
<path fill-rule="evenodd" clip-rule="evenodd" d="M42.8571 3H42V7H43L42.8571 3Z" fill="#B37CD5"/>
<path fill-rule="evenodd" clip-rule="evenodd" d="M38 4.46156L38.7895 4L41 6.53844L40.0526 7L38 4.46156Z" fill="#B37CD5"/>
<path fill-rule="evenodd" clip-rule="evenodd" d="M29 6.1482L27.8 6L27 9.85189L28.2 10L29 6.1482Z" fill="#B37CD5"/>
<path fill-rule="evenodd" clip-rule="evenodd" d="M33 2.94589L32.7297 2L28 6.32432L28.5405 7L33 2.94589Z" fill="#B37CD5"/>
<path fill-rule="evenodd" clip-rule="evenodd" d="M33.1304 3.04993L33 2L39 4.09995L38.7391 5L33.1304 3.04993Z" fill="#B37CD5"/>
<path fill-rule="evenodd" clip-rule="evenodd" d="M27 9.54541L28.92 9L30 14.7273L29.28 15L27 9.54541Z" fill="#B37CD5"/>
<path fill-rule="evenodd" clip-rule="evenodd" d="M41 7L39 7.39998L40.125 13L40.875 12.8667L41 7Z" fill="#B37CD5"/>
<path fill-rule="evenodd" clip-rule="evenodd" d="M1 14.2817H9.74999L17.9444 13.7746L26.6944 12.507L29.75 12L31 15.4225L2.52778 21L1 14.2817Z" fill="#B37CD5"/>
<path fill-rule="evenodd" clip-rule="evenodd" d="M0 14.1372L0.947365 14L3 20.7256L2.05262 21L0 14.1372Z" fill="#B37CD5"/>
<path fill-rule="evenodd" clip-rule="evenodd" d="M31 15.8235L30.8599 15L2 21.0392L2.28019 22L31 15.8235Z" fill="#B37CD5"/>
<path fill-rule="evenodd" clip-rule="evenodd" d="M2 21.145L3.05001 21L8 39.855L7.1 40L2 21.145Z" fill="#B37CD5"/>
<path fill-rule="evenodd" clip-rule="evenodd" d="M47 31.8695L46.8601 31L6 40.1305L6.13993 41L47 31.8695Z" fill="#B37CD5"/>
<path fill-rule="evenodd" clip-rule="evenodd" d="M14.1429 39L15 38.7206L10.8571 20L10 20.2794L14.1429 39Z" fill="#B37CD5"/>
<path fill-rule="evenodd" clip-rule="evenodd" d="M22 37L23 36.8592L18.8571 18L18 18.2814L22 37Z" fill="#B37CD5"/>
<path fill-rule="evenodd" clip-rule="evenodd" d="M30.3143 35L31 34.8592L27.6857 16L27 16.1407L30.3143 35Z" fill="#B37CD5"/>
<path fill-rule="evenodd" clip-rule="evenodd" d="M11.4118 25L12 24.3421L7.58824 20L7 20.6579L11.4118 25Z" fill="#B37CD5"/>
<path fill-rule="evenodd" clip-rule="evenodd" d="M5.94999 40L7 39.8525L5.19999 31L4 31.2951L5.94999 40Z" fill="#B37CD5"/>
<path d="M5.4815 31.1156L3.97949 31.4321L4.12336 32.1149L5.62537 31.7983L5.4815 31.1156Z" fill="#B37CD5"/>
<path fill-rule="evenodd" clip-rule="evenodd" d="M10 29.8956L14.2273 29L16 37.9552L11.7727 39L10 29.8956Z" fill="#B37CD5"/>
<path fill-rule="evenodd" clip-rule="evenodd" d="M18 28.9403L22.2273 28L24 36.1941L19.9091 37L18 28.9403Z" fill="#B37CD5"/>
<path fill-rule="evenodd" clip-rule="evenodd" d="M26 26.4286L32.1091 25L34 33.7143L27.8909 35L26 26.4286Z" fill="#B37CD5"/>
<path fill-rule="evenodd" clip-rule="evenodd" d="M19.4118 24L20 23.2105L15.4412 18L15 18.7895L19.4118 24Z" fill="#B37CD5"/>
<path fill-rule="evenodd" clip-rule="evenodd" d="M27.5588 22L28 21.2105L23.5882 16L23 16.7895L27.5588 22Z" fill="#B37CD5"/>
<path fill-rule="evenodd" clip-rule="evenodd" d="M11 30.7143L10.9167 30L10 30.2857L10.0833 31L11 30.7143Z" fill="#B37CD5"/>
<path fill-rule="evenodd" clip-rule="evenodd" d="M19 28.7501L18.8333 28L17 28.25L17.1667 29L19 28.7501Z" fill="#B37CD5"/>
<path fill-rule="evenodd" clip-rule="evenodd" d="M27 27.625L26.9091 27L26 27.25L26.0909 28L27 27.625Z" fill="#B37CD5"/>
<path d="M6 35.7419L10.6875 32L11 32.3871L6.46875 36L6 35.7419Z" fill="#B37CD5"/>
<path d="M15 33.6129L18.75 30L19 30.2581L15.375 34L15 33.6129Z" fill="#B37CD5"/>
<path d="M22 32.6666L26.5455 28L27 28.3333L22.4545 33L22 32.6666Z" fill="#B37CD5"/>
<path fill-rule="evenodd" clip-rule="evenodd" d="M6 35.1L6.66667 35L7 35.8L6.33334 36L6 35.1Z" fill="#B37CD5"/>
<path fill-rule="evenodd" clip-rule="evenodd" d="M14 33.1L14.6667 33L15 33.9L14.3333 34L14 33.1Z" fill="#B37CD5"/>
<path fill-rule="evenodd" clip-rule="evenodd" d="M22 31.2223L22.6667 31L23 33H22.3333L22 31.2223Z" fill="#B37CD5"/>
<path fill-rule="evenodd" clip-rule="evenodd" d="M66.4663 0L58.3798 3.75263L50.5721 6.78351L42.0673 9.23714L39 9.81449L39.4183 14L68 7.64955L66.4663 0Z" fill="#B37CD5"/>
<path fill-rule="evenodd" clip-rule="evenodd" d="M66.8 0L66 0.269247L67.2 7L68 6.86542L66.8 0Z" fill="#B37CD5"/>
<path fill-rule="evenodd" clip-rule="evenodd" d="M40.2802 14L40 13.16L68.8599 7L69 7.84005L40.2802 14Z" fill="#B37CD5"/>
<path fill-rule="evenodd" clip-rule="evenodd" d="M68.9655 7L68 7.28573L71.1724 26L72 25.8572L68.9655 7Z" fill="#B37CD5"/>
<path fill-rule="evenodd" clip-rule="evenodd" d="M32.1399 35L32 34.1304L72.8601 25L73 25.8696L32.1399 35Z" fill="#B37CD5"/>
<path fill-rule="evenodd" clip-rule="evenodd" d="M65 27.8593L64.1428 28L60 9.14079L60.8571 9L65 27.8593Z" fill="#B37CD5"/>
<path fill-rule="evenodd" clip-rule="evenodd" d="M57 29.8593L56.1429 30L52 11.1408L53 11L57 29.8593Z" fill="#B37CD5"/>
<path fill-rule="evenodd" clip-rule="evenodd" d="M48 30.7207L47.2 31L44 12.2794L44.6857 12L48 30.7207Z" fill="#B37CD5"/>
<path fill-rule="evenodd" clip-rule="evenodd" d="M61.9 15L61 14.3913L63.1 8L64 8.45651L61.9 15Z" fill="#B37CD5"/>
<path fill-rule="evenodd" clip-rule="evenodd" d="M72 25.85L71.3 26L70 17.15L70.8 17L72 25.85Z" fill="#B37CD5"/>
<path fill-rule="evenodd" clip-rule="evenodd" d="M70.0833 18L70 17.2857L70.9167 17L71 17.7143L70.0833 18Z" fill="#B37CD5"/>
<path fill-rule="evenodd" clip-rule="evenodd" d="M65.1861 18L61 18.8955L62.8139 28L67 26.9552L65.1861 18Z" fill="#B37CD5"/>
<path fill-rule="evenodd" clip-rule="evenodd" d="M57.2273 20L53 20.9402L54.7727 29L59 28.0598L57.2273 20Z" fill="#B37CD5"/>
<path d="M49.3448 21.726L43.4775 22.9849L45.2927 31.4447L51.16 30.1858L49.3448 21.726Z" fill="#B37CD5"/>
<path fill-rule="evenodd" clip-rule="evenodd" d="M53.9 16L53 15.6087L55.25 10L56 10.5218L53.9 16Z" fill="#B37CD5"/>
<path fill-rule="evenodd" clip-rule="evenodd" d="M45.5263 18L45 17.4782L46.4737 12L47 12.3913L45.5263 18Z" fill="#B37CD5"/>
<path fill-rule="evenodd" clip-rule="evenodd" d="M64.1667 19L64 18.375L65.6667 18L66 18.75L64.1667 19Z" fill="#B37CD5"/>
<path fill-rule="evenodd" clip-rule="evenodd" d="M56.1818 21L56 20.375L57.8182 20L58 20.7501L56.1818 21Z" fill="#B37CD5"/>
<path fill-rule="evenodd" clip-rule="evenodd" d="M48.1667 23L48 22.25L49.8333 22L50 22.625L48.1667 23Z" fill="#B37CD5"/>
<path d="M70.85 22L65 20.3529L65.15 20L71 21.5294L70.85 22Z" fill="#B37CD5"/>
<path d="M62.8462 24L57 22.4706L57.1538 22L63 23.6471L62.8462 24Z" fill="#B37CD5"/>
<path d="M54.85 26L49 23.5294L49.3 23L55 25.2942L54.85 26Z" fill="#B37CD5"/>
<path fill-rule="evenodd" clip-rule="evenodd" d="M70.6667 21L70 21.1111L70.3333 22L71 21.8889L70.6667 21Z" fill="#B37CD5"/>
<path fill-rule="evenodd" clip-rule="evenodd" d="M62.6667 23L62 23.1L62.3333 24L63 23.9L62.6667 23Z" fill="#B37CD5"/>
<path fill-rule="evenodd" clip-rule="evenodd" d="M54.6667 25H54L54.3333 26L55 25.8889L54.6667 25Z" fill="#B37CD5"/>
<path fill-rule="evenodd" clip-rule="evenodd" d="M31.9052 34L47 31.0843L45.0948 23L30 25.9156L31.9052 34Z" fill="#B37CD5"/>
<path fill-rule="evenodd" clip-rule="evenodd" d="M35.4 34H42.6C43.8706 34 45 35.12 45 36.38V48H33V36.38C33 34.98 34.1294 34 35.4 34Z" fill="#B37CD5"/>
</svg>
