<svg width="50" height="61" viewBox="0 0 50 61" fill="none" xmlns="http://www.w3.org/2000/svg">
<path d="M29.7333 17L46 58H43.6L28 17H29.7333Z" fill="#F99035"/>
<path d="M20.1704 17L3 58H5.53334L22 17H20.1704Z" fill="#F99035"/>
<path d="M26 2H23V43H26V2Z" fill="#F99035"/>
<path fill-rule="evenodd" clip-rule="evenodd" d="M22.12 44H26.88C27.44 44 28 44.56 28 45.12V49.8799C28 50.4399 27.58 51 26.88 51H22.12C21.56 51 21 50.5799 21 49.8799V45.12C21.14 44.56 21.56 44 22.12 44Z" fill="#F99035"/>
<path fill-rule="evenodd" clip-rule="evenodd" d="M22.0845 51H27.9361C28.601 51 29 51.75 29 52.5C29 53.4375 28.468 54 27.9361 54H22.0845C21.4195 54 21.0205 53.25 21.0205 52.5C20.8875 51.5625 21.4195 51 22.0845 51Z" fill="#F99035"/>
<path fill-rule="evenodd" clip-rule="evenodd" d="M31 44C31.625 44 32 44.5833 32 45.1667V49.8333C32 50.5625 31.5 51 31 51C30.375 51 30 50.4167 30 49.8333V45.1667C30 44.5833 30.375 44 31 44Z" fill="#F99035"/>
<path fill-rule="evenodd" clip-rule="evenodd" d="M31.0686 51H33.9516C34.6069 51 35 51.75 35 52.5C35 53.4375 34.4758 54 33.9516 54H31.0686C30.4134 54 30.0202 53.25 30.0202 52.5C29.8892 51.5625 30.4134 51 31.0686 51Z" fill="#F99035"/>
<path fill-rule="evenodd" clip-rule="evenodd" d="M18.5 44C17.75 44 17 44.5833 17 45.1667V49.8333C17 50.5625 17.75 51 18.5 51C19.4375 51 20 50.4167 20 49.8333V45.1667C20 44.5833 19.25 44 18.5 44Z" fill="#F99035"/>
<path fill-rule="evenodd" clip-rule="evenodd" d="M18.7368 51H15.2632C14.6316 51 14 51.75 14 52.5C14 53.4375 14.6316 54 15.2632 54H18.7368C19.5263 54 20 53.25 20 52.5C20 51.5625 19.3684 51 18.7368 51Z" fill="#F99035"/>
<path fill-rule="evenodd" clip-rule="evenodd" d="M7.94117 58H1.05883C0.397063 58 0 58.75 0 59.4999C0 60.4374 0.529416 61 1.05883 61H7.94117C8.47058 61 9 60.2499 9 59.4999C9 58.5625 8.47058 58 7.94117 58Z" fill="#F99035"/>
<path fill-rule="evenodd" clip-rule="evenodd" d="M48.9254 58H42.0746C41.403 58 41 58.75 41 59.4999C41 60.4374 41.5373 61 42.0746 61H48.9254C49.597 61 50 60.2499 50 59.4999C50 58.5625 49.4627 58 48.9254 58Z" fill="#F99035"/>
<path d="M27 2.5C27 3.8889 25.8889 5 24.5 5C23.1111 5 22 3.8889 22 2.5C22 1.1111 23.1111 0 24.5 0C25.8889 0 27 1.1111 27 2.5Z" fill="#F99035"/>
<path fill-rule="evenodd" clip-rule="evenodd" d="M23.4474 13H25.5526C26.3421 13 27 13.7273 27 14.6001V19.4C27 20.2728 26.3421 21 25.5526 21H23.4474C22.6579 21 22 20.2728 22 19.4V14.6001C22 13.5819 22.6579 13 23.4474 13Z" fill="#F99035"/>
<path fill-rule="evenodd" clip-rule="evenodd" d="M20.2308 15H21.9231C22.5385 15 23 15.4545 23 16.2121V18.7879C23 19.394 22.5385 20 21.9231 20H20.2308C19.6154 20 19 19.5455 19 18.7879V16.2121C19 15.4545 19.6154 15 20.2308 15Z" fill="#F99035"/>
<path fill-rule="evenodd" clip-rule="evenodd" d="M27.84 15H29.16C29.64 15 30 15.4545 30 16.2121V18.7879C30 19.394 29.64 20 29.16 20H27.84C27.36 20 27 19.5455 27 18.7879V16.2121C27 15.4545 27.36 15 27.84 15Z" fill="#F99035"/>
<path d="M16 14H15V20H16V14Z" fill="#F99035"/>
<path d="M20 19H15V20H20V19Z" fill="#F99035"/>
<path d="M18 17H15V18H18V17Z" fill="#F99035"/>
<path d="M18 15H15V16H18V15Z" fill="#F99035"/>
<path fill-rule="evenodd" clip-rule="evenodd" d="M15 14.2V13L19 13.8V15L15 14.2Z" fill="#F99035"/>
<path d="M19 14H18V18H19V14Z" fill="#F99035"/>
<path d="M35 14H34V20H35V14Z" fill="#F99035"/>
<path d="M35 19H30V20H35V19Z" fill="#F99035"/>
<path d="M35 17H31V18H35V17Z" fill="#F99035"/>
<path d="M35 15H31V16H35V15Z" fill="#F99035"/>
<path fill-rule="evenodd" clip-rule="evenodd" d="M35 14.2V13L31 13.8V15L35 14.2Z" fill="#F99035"/>
<path d="M32 14H31V18H32V14Z" fill="#F99035"/>
<path fill-rule="evenodd" clip-rule="evenodd" d="M22 43H27V41.4211C27 40.6316 26.375 40 25.5937 40H23.4062C22.625 40 22 40.6316 22 41.4211V43Z" fill="#F99035"/>
</svg>
