<svg width="57" height="40" viewBox="0 0 57 40" fill="none" xmlns="http://www.w3.org/2000/svg">
<path fill-rule="evenodd" clip-rule="evenodd" d="M30.5175 24.4761H30.3801L28.7305 25.3201C28.4555 25.4608 28.1806 25.6014 27.9057 25.7421C27.6307 25.8827 27.4933 25.8828 27.2183 26.0234C26.8059 26.3048 26.2561 26.4454 25.8437 26.7268L23.7817 27.7114C23.5067 27.8521 23.3693 27.8521 23.0943 27.9928L22.407 28.2741C21.9946 28.4148 21.5822 28.6961 21.3073 28.8368L20.4825 29.2587C20.345 29.2587 20.345 29.2588 20.345 29.3995C20.2075 29.3995 20.2076 29.3994 20.2076 29.5401C19.9326 29.6808 19.6577 29.8214 19.3828 29.9621L18.283 30.5248C18.283 30.5248 18.1456 30.5248 18.1456 30.6654L17.3208 31.0875C17.1833 31.0875 17.1833 31.0875 17.1833 31.2281C17.0458 31.2281 17.0458 31.2281 17.0458 31.3688C16.6334 31.5094 16.221 31.7908 15.9461 31.9315L14.9838 32.3535C14.8464 32.3535 14.8464 32.3535 14.8464 32.4942C14.7089 32.4942 14.7089 32.6348 14.5714 32.6348C14.2965 32.7755 14.159 32.7754 13.8841 32.9161C13.4717 33.0567 13.0593 33.3381 12.5094 33.4788C12.372 33.4788 12.372 33.6194 12.372 33.6194L12.2345 33.7602C12.2345 33.7602 12.097 33.7602 12.097 33.9008C11.9596 33.9008 11.9596 33.9008 11.9596 34.0415C11.6846 34.1821 11.2722 34.3229 10.9973 34.4635L10.31 34.7448C10.1725 34.7448 10.1725 34.7448 10.1725 34.7448C10.035 34.7448 10.035 34.7448 9.89758 34.7448H9.21025C9.07278 34.7448 9.07278 34.7448 9.07278 34.7448C8.38545 34.7448 7.83558 34.6042 7.14825 34.4635C6.18599 34.1822 5.22373 33.9007 4.39893 33.6194C3.98653 33.4787 3.43666 33.3382 3.02426 33.1975C2.062 32.9162 1.37467 32.9162 0.412403 33.0569C0.274937 33.0569 0.274941 33.1975 0.137475 33.3381C8.38823e-06 33.4788 0 33.6195 0 33.7602V33.9008C0 34.0415 0.137475 34.3229 0.137475 34.4635C0.274941 34.7449 0.549874 35.0262 0.824806 35.1669L2.19947 36.4327C2.19947 36.4327 2.19947 36.5735 2.33693 36.5735L2.8868 36.9954C3.02427 36.9954 3.02426 37.1361 3.02426 37.1361C2.74933 37.6987 2.61186 37.9802 2.74933 38.6835C2.74933 38.8242 2.74933 38.8242 2.8868 38.8242C3.2992 39.1055 4.81132 38.9648 5.36119 38.9648C5.77359 38.9648 6.04852 38.8242 6.46092 38.8242L7.56065 38.6835C7.69811 38.6835 7.83558 38.6835 7.97305 38.6835C9.07278 38.5429 10.1725 38.5428 11.2722 38.2615L15.3962 37.6988C15.6712 37.6988 15.9461 37.5581 16.221 37.5581C16.7709 37.5581 17.3208 37.4175 17.8706 37.4175C18.8329 37.2768 19.7952 37.2768 20.7574 36.9954C21.5822 36.8548 22.407 36.8548 23.2318 36.7142C23.9191 36.5735 24.6065 36.5734 25.2938 36.4327L26.1186 36.2921C26.3935 36.2921 27.9057 35.7294 28.3181 35.5888L29.6927 35.1669C30.1051 35.0262 30.655 34.8855 31.0674 34.7448L33.1294 34.0415C34.0916 33.7601 35.0539 33.4788 36.0162 33.1975C36.4286 33.0568 36.9784 32.9161 37.3908 32.7754L39.1779 32.2127C40.1402 31.9314 41.1024 31.6501 42.0647 31.3688C42.6146 31.2281 43.027 31.0875 43.4394 30.9469C44.5391 30.5249 45.7763 30.2435 46.876 29.8215C47.1509 29.6808 47.5633 29.5401 47.8383 29.3995C47.9757 29.2588 47.9757 29.2587 48.1132 29.2587L48.5256 28.8368C48.6631 28.6961 49.2129 28.1335 49.3504 27.9928L50.5876 26.5861C50.5876 26.4455 51 26.1641 51 26.0234C51 25.8828 50.3127 24.4761 50.3127 24.1948C50.1752 23.9134 50.0377 23.4914 49.9003 23.2101C49.7628 23.0694 49.7628 22.9288 49.7628 22.7881C49.7628 22.6474 49.7628 22.6474 49.6253 22.5067L48.2507 18.4274V18.2867H46.3261L45.3639 18.4274C45.2264 18.4274 45.2264 18.4274 45.0889 18.4274C44.9515 18.4274 44.9515 18.4274 44.814 18.4274C44.4016 18.5681 43.8518 18.568 43.4394 18.7087L42.8895 18.8494C42.752 18.8494 42.752 18.9901 42.6145 18.9901C42.4771 18.8494 42.2022 18.4274 42.0647 18.2867L41.2399 17.1614C41.2399 17.0207 41.1024 17.0208 41.1024 17.0208L39.8652 15.3328C39.1779 14.4887 38.4906 13.6448 37.9407 12.8008C37.6658 12.3788 37.2534 11.9567 36.9784 11.6754L32.9919 6.75201L32.8544 6.61137L32.4421 6.04867C32.1671 5.76734 31.8922 5.3454 31.6172 5.06407L31.0674 4.36073C30.9299 4.22007 30.9299 4.22005 30.7924 4.07938C30.5175 3.65738 29.9677 2.95399 29.6927 2.53199L29.2803 2.11001C29.1429 1.96934 29.0054 1.82869 28.8679 1.68802C28.593 1.40669 28.3181 1.26602 28.0431 0.984687C27.9057 0.984687 27.9057 0.984721 27.9057 0.844054C27.6307 0.703387 27.2183 0.562651 26.8059 0.421984C26.1186 0.14065 25.5687 0.140667 24.8814 0C24.7439 0 24.469 0 24.3315 0C24.1941 0 24.0566 0 23.9191 0H22.407C22.1321 0 21.4447 0.140684 21.1698 0.281351C19.9326 0.562686 18.558 1.12537 17.5957 1.96937C17.1833 2.25071 16.9084 2.53201 16.496 2.81334C16.3585 2.95401 16.3585 2.95403 16.221 3.09469C16.221 3.09469 16.221 3.09466 16.0836 3.23533C15.9461 3.37599 15.9461 3.37605 15.9461 3.37605C15.8086 3.65738 15.6712 3.79805 15.5337 4.07938C15.5337 4.07938 15.5337 4.22001 15.3962 4.22001C14.8464 5.20468 14.5714 6.18934 14.8464 7.45534C14.8464 7.73668 14.8464 7.87734 14.9838 8.15868C14.9838 8.29934 15.1213 8.29936 15.1213 8.44003C15.1213 8.5807 15.2588 8.58071 15.2588 8.72138C15.5337 9.28405 15.8086 9.56538 16.0836 10.1281C16.0836 10.2687 16.221 10.2687 16.221 10.4094C16.3585 10.5501 16.3585 10.6907 16.496 10.8314C16.6334 10.9721 16.6334 10.972 16.6334 10.972C17.4582 11.1127 30.3801 24.3354 30.5175 24.4761Z" fill="#F99035"/>
<path fill-rule="evenodd" clip-rule="evenodd" d="M36 33.5769C36.1383 33.8346 36.4149 34.35 36.5532 34.7365L36.6915 34.9942C36.8298 35.3807 37.1064 35.7673 37.2447 36.025C37.2447 36.025 37.2447 36.1538 37.383 36.1538C37.6596 36.5403 38.0745 37.0557 38.3511 37.4423C38.4894 37.5711 38.6277 37.7 38.766 37.8289C38.766 37.8289 38.9043 37.8288 38.9043 37.9577C39.0426 38.0865 39.3191 38.2154 39.4574 38.3443H39.5958C39.5958 38.3443 39.734 38.3442 39.734 38.4731C40.1489 38.6019 40.2872 38.7307 40.7021 38.8595C41.9468 39.1172 43.1915 38.9884 44.4362 38.7307C44.5745 38.7307 44.8511 38.6019 44.9894 38.6019C45.6808 38.3442 46.3723 38.0865 47.0638 37.8289C47.3404 37.7 47.617 37.4423 47.8936 37.3134C48.4468 36.9269 49 36.2827 49 35.5096C49 34.9942 49 34.7365 48.7234 34.3499C48.4468 33.5769 47.8936 33.1903 47.617 32.4173C47.4787 32.0307 47.3404 31.6443 46.9255 31.2578C46.9255 31.1289 46.6489 31 46.6489 31C46.5106 31 46.5106 31.1288 46.3723 31.1288C46.234 31.1288 46.234 31.1289 46.0957 31.2578C45.8192 31.3866 45.4043 31.3866 45.1277 31.5154L43.4681 32.0308C43.3298 32.0308 43.3298 32.0308 43.1915 32.1596C43.0532 32.1596 42.7766 32.2885 42.6383 32.2885L41.6702 32.5462C41.5319 32.5462 41.5319 32.6751 41.3936 32.6751L39.1809 33.3193C38.766 33.4481 38.4894 33.4481 38.2128 33.5769H36Z" fill="#F99035"/>
<path fill-rule="evenodd" clip-rule="evenodd" d="M21.0838 24.7161C21.0838 25.2593 21.2251 25.5309 21.3665 26.0741C21.3665 26.2099 21.5079 26.3457 21.5079 26.4815C21.3665 26.6173 21.2251 26.6172 21.0838 26.6172L16.7016 28.6543C16.5602 28.6543 16.4188 28.7901 16.2775 28.7901L11.7539 30.963C11.6126 30.963 11.6126 31.0987 11.6126 31.0987C11.4712 31.2345 11.3298 31.2345 11.1885 31.2345C10.9058 31.3703 10.623 31.5062 10.3403 31.642L8.9267 32.321L8.78535 32.4568C8.64398 32.321 8.36126 32.0493 8.07854 31.7777C7.93718 31.5061 7.65446 31.3703 7.37173 31.0987L6.66493 30.4197C6.52356 30.2839 6.3822 30.1481 6.24084 30.0123L5.95812 29.7407C5.6754 29.6049 5.53404 29.3333 5.25131 29.0617C5.10995 28.9259 4.68587 28.6543 4.54451 28.3827L4.26178 28.1111H4.12042C3.97906 27.9753 3.41362 27.4321 3.13089 27.4321C2.98953 27.4321 2.98953 27.5679 2.84817 27.5679C2.7068 27.7037 2.56545 27.9753 2.42409 28.2469C2.42409 28.3827 2.28272 28.5185 2.28272 28.7901C2.14136 29.1976 2.14136 29.4691 2.14136 29.8766C2.14136 30.1482 2 30.6914 2 30.8272C2 30.963 2 30.963 2 30.963C2 31.0988 2 31.0987 2 31.2345C2 31.3703 2 31.5062 2 31.5062L2.28272 31.642L2.84817 31.7777C2.84817 31.7777 2.98952 31.7777 2.98952 31.9135C3.13089 31.9135 3.27225 32.0494 3.41361 32.0494C3.69634 32.1852 3.8377 32.1852 4.12042 32.1852C4.82723 32.4568 5.39267 32.5926 6.24084 32.8642C6.52356 32.8642 6.80628 33 7.089 33H7.51309C7.65445 33 7.79581 33 7.93717 33C9.06806 33 9.91624 32.7284 10.9058 32.1852C11.6126 31.7778 12.3194 31.3703 13.0262 31.0987C13.1675 31.0987 13.1675 30.963 13.3089 30.963L15.0052 30.2839C15.0052 30.2839 15.1466 30.284 15.1466 30.1482C15.5707 30.0124 15.8534 29.8765 16.2775 29.7407L16.5602 29.6049C16.7016 29.6049 16.8429 29.4692 16.8429 29.4692L18.1152 28.9259C18.3979 28.7901 18.6806 28.6543 18.9634 28.5185C18.9634 28.5185 19.1047 28.5185 19.1047 28.3827H19.2461L20.0942 27.9753C20.2356 27.9753 20.2356 27.8395 20.377 27.8395L20.6597 27.7037C20.801 27.7037 20.9424 27.5679 21.0838 27.5679L21.7906 27.2963C21.7906 27.2963 21.9319 27.2963 21.9319 27.1605L22.356 27.0246C22.6387 26.8888 22.7801 26.8889 23.0628 26.7531L23.4869 26.6172L23.6283 26.4815L26.1728 25.3951C26.1728 25.3951 26.3141 25.395 26.3141 25.2592C26.5969 25.1234 26.7382 25.1234 27.0209 24.9876L28.0105 24.5802C28.1518 24.4444 28.8586 24.1728 29 24.1728L28.8586 24.037L28.7173 23.9012C28.5759 23.7654 28.5759 23.7654 28.5759 23.7654L28.0105 23.2222C27.8691 23.0864 27.8691 23.0864 27.5864 23.0864C27.3037 23.2222 27.0209 23.4938 26.7382 23.6296C26.5969 23.4938 26.3141 23.0864 26.1728 22.9506C26.1728 22.9506 26.1728 22.9506 26.0314 22.9506C26.0314 22.9506 26.0314 22.9506 25.8901 22.8148C25.466 22.5432 25.1832 22.2716 24.6178 22.1358C24.3351 22 23.7696 22 23.4869 22C23.3455 22 23.0628 22.1358 22.9215 22.1358C22.4974 22.2716 22.0733 22.5432 21.7906 22.8148C21.7906 22.8148 21.6492 22.8148 21.6492 22.9506C21.5079 23.0864 21.3665 23.2222 21.2251 23.4938C21.2251 23.7654 21.0838 24.1728 21.0838 24.7161Z" fill="#F99035"/>
<path fill-rule="evenodd" clip-rule="evenodd" d="M54.2857 20.9175C54.5714 21.3492 54.7143 21.781 55 22.3567C55 22.5007 55 22.5007 55.1429 22.6446L55.5714 23.94C55.5714 24.0839 55.7143 24.3717 55.7143 24.5157C56 25.6671 56.1429 26.6746 56.4286 27.97L56.5714 28.8335C56.5714 28.9774 56.5714 28.9774 56.5714 29.1214C56.5714 29.2653 56.5714 30.2728 56.5714 30.4167V30.8485C56.5714 30.9924 56.5714 30.9924 56.5714 30.9924C56.4286 30.9924 56.4286 30.8485 56.2857 30.8485C56.2857 30.9924 56.2857 30.9924 56.2857 31.1363C55.8571 31.1363 55.4286 30.8485 55.1429 30.5606C55 30.4167 54.8571 30.2728 54.7143 30.1289C54.1429 29.5532 53.4286 28.2578 53.1429 27.5382L52.4286 25.9549C52.2857 25.5231 52 24.8035 51.7143 24.3718C51.5714 24.0839 51.5714 24.0839 51.7143 23.94C51.7143 23.94 51.7143 23.9399 51.7143 23.796C51.8571 23.5082 52.1429 23.2203 52.2857 22.9325C52.4286 22.7886 52.4286 22.7885 52.5714 22.6446L53.2857 21.925C53.4286 21.781 53.8571 21.3493 54 21.2053L54.2857 20.9175ZM57 29.1214V29.841C57 30.2728 56.8571 30.8486 56.8571 31.2804C56.8571 31.4243 56.7143 31.712 56.5714 31.8559C56.4286 31.9999 56.5714 32 56.2857 32C56.1429 32 56.1429 32 56 32C55.7143 32 55.2857 31.7121 55 31.5681L54.8571 31.4243C54.8571 31.4243 54.7143 31.4243 54.7143 31.2804C54.7143 31.1364 54.5714 31.1363 54.5714 31.1363C54.4286 30.9924 54.4286 30.9925 54.1429 30.7046L54 30.5606L53.7143 30.1289C53.1429 29.4092 52.7143 28.6896 52.2857 27.8261L52 27.2503C52 27.1064 51.8571 27.1064 51.8571 26.9624C51.7143 26.5307 51.4286 26.0989 51.2857 25.6671C51.2857 25.5232 51.1429 25.5232 51.1429 25.3793C50.8571 24.8036 50.4286 23.94 50.2857 23.3642C50.1429 23.0764 50.1429 22.9325 50 22.6446L49.2857 20.6297C49.2857 20.6297 49.2857 20.4857 49.1429 20.4857C49.1429 20.3418 49.1429 20.3418 49.1429 20.3418C48.8571 19.6222 48.5714 18.7585 48.4286 18.0389C48.4286 17.895 48.4286 17.895 48.2857 17.895C48.1429 17.1754 47.8571 16.4557 47.7143 15.7361C47.4286 14.8725 47.2857 14.2969 47.1429 13.4333C47 13.0015 47 12.5697 47 12.2818C47 12.1379 47 11.994 47 11.85C47 11.5622 47 11.2744 47 10.9865V10.4108C47 9.69112 47.1429 8.53973 47.5714 8.10795C47.7143 7.96402 48 7.96402 48.2857 8.10795C48.5714 8.25187 49 8.53968 49.2857 8.6836C49.2857 8.6836 49.2857 8.68366 49.4286 8.82758C49.5714 8.97151 50 9.4033 50.1429 9.54722C50.2857 9.69115 50.2857 9.83506 50.4286 9.97899C50.8571 10.5547 51.5714 11.7061 51.8571 12.4258L52.2857 13.1454C52.4286 13.4333 53 14.4408 53 14.8726L54 17.1754C54.1429 17.3193 54.4286 18.1829 54.4286 18.3268C54.5714 18.3268 54.5714 18.3268 54.7143 18.3268C55 18.3268 55.2857 18.3268 55.5714 18.4708C56 18.6147 56.1429 18.7585 56.1429 18.7585C56.1429 19.4782 55.8571 19.91 55.4286 20.3418C55.2857 20.4857 55.2857 20.4857 55.2857 20.7736L56.2857 24.0839C56.2857 24.2278 56.4286 24.2278 56.4286 24.3718C56.5714 24.6596 56.5714 24.8035 56.5714 25.0914C56.5714 26.0989 57 27.6821 57 29.1214ZM47.5714 10.9865C47.5714 10.5547 47.5714 9.54721 47.8572 9.25935C47.8572 9.11542 48 9.11546 48 9.11546C48.1429 9.11546 48.1429 9.11539 48.5714 9.40324C48.8572 9.6911 49.2857 10.1229 49.5714 10.4108C50.1429 11.1304 50.7143 12.1379 51.1429 13.0014C51.7143 14.2968 52.1429 15.4483 52.7143 16.7436L53 17.4632C53.1429 17.6072 53.2857 18.1829 53.4286 18.3268L51.8571 18.4708C51.1429 18.4708 50.5714 18.6147 49.8571 18.6147C49.2857 18.6147 49.4286 18.6147 49.2857 18.4708L49 17.1754V17.0315L48.5714 15.4482C48.2857 14.4407 47.8572 13.1454 47.8572 11.994C47.5714 11.5622 47.5714 11.2744 47.5714 10.9865Z" fill="#F99035"/>
<path fill-rule="evenodd" clip-rule="evenodd" d="M5 38.4616L5.14285 38.6154L5.71429 38.923C6.14286 39.2307 6.71428 39.5385 7.28571 39.8462C7.57143 40 7.99999 40 8.28571 40H8.42856C8.71428 40 8.85713 39.8462 9.14285 39.8462C9.57142 39.6924 9.57142 39.3847 9.71428 39.077C9.85714 38.9232 10 38.4615 10 38.1538C10 38 10 38 10 38H8.99999C8.71428 38 6.85714 38.3078 6.42857 38.3078C6.28571 38.3078 5.14286 38.4616 5 38.4616Z" fill="#F99035"/>
</svg>
