<svg width="24" height="73" viewBox="0 0 24 73" fill="none" xmlns="http://www.w3.org/2000/svg">
<path fill-rule="evenodd" clip-rule="evenodd" d="M14.6 45L15 44.5333L9.4 38L9 38.4666L14.6 45Z" fill="#F99035"/>
<path fill-rule="evenodd" clip-rule="evenodd" d="M9.4 45L9 44.5333L14.6 38L15 38.4666L9.4 45Z" fill="#F99035"/>
<path fill-rule="evenodd" clip-rule="evenodd" d="M14.6 45L15 44.5333L9.4 38L9 38.4666L14.6 45Z" fill="#F99035"/>
<path fill-rule="evenodd" clip-rule="evenodd" d="M9.4 45L9 44.5333L14.6 38L15 38.4666L9.4 45Z" fill="#F99035"/>
<path d="M10 19H9V70H10V19Z" fill="#F99035"/>
<path fill-rule="evenodd" clip-rule="evenodd" d="M14.6 32L15 31.4784L9.4 26L9 26.3914L14.6 32Z" fill="#F99035"/>
<path fill-rule="evenodd" clip-rule="evenodd" d="M9.4 32L9 31.4784L14.6 26L15 26.3914L9.4 32Z" fill="#F99035"/>
<path d="M15 19H14V70H15V19Z" fill="#F99035"/>
<path d="M9.09911 19.1876L8.60547 19.6807L14.5225 25.6044L15.0162 25.1113L9.09911 19.1876Z" fill="#F99035"/>
<path d="M14.5938 19.2203L8.67676 25.144L9.1704 25.6371L15.0874 19.7134L14.5938 19.2203Z" fill="#F99035"/>
<path fill-rule="evenodd" clip-rule="evenodd" d="M14.6 32L15 31.4784L9.4 26L9 26.3914L14.6 32Z" fill="#F99035"/>
<path fill-rule="evenodd" clip-rule="evenodd" d="M9.4 32L9 31.4784L14.6 26L15 26.3914L9.4 32Z" fill="#F99035"/>
<path fill-rule="evenodd" clip-rule="evenodd" d="M14.6 32L15 31.4784L9.4 26L9 26.3914L14.6 32Z" fill="#F99035"/>
<path fill-rule="evenodd" clip-rule="evenodd" d="M9.4 32L9 31.4784L14.6 26L15 26.3914L9.4 32Z" fill="#F99035"/>
<path fill-rule="evenodd" clip-rule="evenodd" d="M9.30909 28H14.8364C15.5636 28 16 28.5819 16 29.3091V34.8363C16 35.5636 15.4182 36 14.8364 36H9.30909C8.58182 36 8 35.4181 8 34.8363V29.3091C8 28.5819 8.58182 28 9.30909 28Z" fill="#F99035"/>
<path fill-rule="evenodd" clip-rule="evenodd" d="M8.33992 37H15.679C16.4129 37 17 37.4445 17 38C17 38.5555 16.4129 39 15.679 39H8.33992C7.60602 39 7.01889 38.5555 7.01889 38C6.87211 37.4445 7.60602 37 8.33992 37Z" fill="#F99035"/>
<path fill-rule="evenodd" clip-rule="evenodd" d="M19 28C19.5556 28 20 28.5819 20 29.3091V34.6909C20 35.4181 19.5556 36 19 36C18.4444 36 18 35.4181 18 34.6909V29.3091C18 28.5819 18.4444 28 19 28Z" fill="#F99035"/>
<path fill-rule="evenodd" clip-rule="evenodd" d="M19.2558 37H22.7442C23.4419 37 24 37.4445 24 38C24 38.5555 23.4419 39 22.7442 39H19.2558C18.5581 39 18 38.5555 18 38C18 37.4445 18.5581 37 19.2558 37Z" fill="#F99035"/>
<path fill-rule="evenodd" clip-rule="evenodd" d="M4.50001 28C3.66667 28 3 28.5819 3 29.3091V34.6909C3 35.4181 3.66667 36 4.50001 36C5.33334 36 6 35.4181 6 34.6909V29.3091C6 28.5819 5.33334 28 4.50001 28Z" fill="#F99035"/>
<path fill-rule="evenodd" clip-rule="evenodd" d="M4.74419 37H1.25582C0.558142 37 0 37.4445 0 38C0 38.5555 0.558142 39 1.25582 39H4.74419C5.44187 39 6 38.5555 6 38C6 37.4445 5.44187 37 4.74419 37Z" fill="#F99035"/>
<path d="M9.09911 19.1876L8.60547 19.6807L14.5225 25.6044L15.0162 25.1113L9.09911 19.1876Z" fill="#F99035"/>
<path d="M14.5938 19.2203L8.67676 25.144L9.1704 25.6371L15.0874 19.7134L14.5938 19.2203Z" fill="#F99035"/>
<path d="M9.04436 44.7759L8.55078 45.269L14.4687 51.1919L14.9622 50.6988L9.04436 44.7759Z" fill="#F99035"/>
<path d="M14.6161 44.7182L8.69824 50.6411L9.19182 51.1343L15.1097 45.2114L14.6161 44.7182Z" fill="#F99035"/>
<path d="M9.09911 19.1876L8.60547 19.6807L14.5225 25.6044L15.0162 25.1113L9.09911 19.1876Z" fill="#F99035"/>
<path d="M14.5938 19.2203L8.67676 25.144L9.1704 25.6371L15.0874 19.7134L14.5938 19.2203Z" fill="#F99035"/>
<path d="M9.04436 44.7759L8.55078 45.269L14.4687 51.1919L14.9622 50.6988L9.04436 44.7759Z" fill="#F99035"/>
<path d="M14.6161 44.7182L8.69824 50.6411L9.19182 51.1343L15.1097 45.2114L14.6161 44.7182Z" fill="#F99035"/>
<path fill-rule="evenodd" clip-rule="evenodd" d="M14.6 58L15 57.5434L9.4 51L9 51.4564L14.6 58Z" fill="#F99035"/>
<path fill-rule="evenodd" clip-rule="evenodd" d="M9.4 58L9 57.5434L14.6 51L15 51.4564L9.4 58Z" fill="#F99035"/>
<path d="M9.04436 44.7759L8.55078 45.269L14.4687 51.1919L14.9622 50.6988L9.04436 44.7759Z" fill="#F99035"/>
<path d="M14.6161 44.7182L8.69824 50.6411L9.19182 51.1343L15.1097 45.2114L14.6161 44.7182Z" fill="#F99035"/>
<path fill-rule="evenodd" clip-rule="evenodd" d="M14.6 58L15 57.5434L9.4 51L9 51.4564L14.6 58Z" fill="#F99035"/>
<path fill-rule="evenodd" clip-rule="evenodd" d="M9.4 58L9 57.5434L14.6 51L15 51.4564L9.4 58Z" fill="#F99035"/>
<path fill-rule="evenodd" clip-rule="evenodd" d="M14.6 64L15 63.4782L9.4 58L9 58.3914L14.6 64Z" fill="#F99035"/>
<path fill-rule="evenodd" clip-rule="evenodd" d="M9.4 64L9 63.4782L14.6 58L15 58.3914L9.4 64Z" fill="#F99035"/>
<path d="M9.04436 44.7759L8.55078 45.269L14.4687 51.1919L14.9622 50.6988L9.04436 44.7759Z" fill="#F99035"/>
<path d="M14.6161 44.7182L8.69824 50.6411L9.19182 51.1343L15.1097 45.2114L14.6161 44.7182Z" fill="#F99035"/>
<path fill-rule="evenodd" clip-rule="evenodd" d="M14.6 58L15 57.5434L9.4 51L9 51.4564L14.6 58Z" fill="#F99035"/>
<path fill-rule="evenodd" clip-rule="evenodd" d="M9.4 58L9 57.5434L14.6 51L15 51.4564L9.4 58Z" fill="#F99035"/>
<path fill-rule="evenodd" clip-rule="evenodd" d="M14.6 64L15 63.4782L9.4 58L9 58.3914L14.6 64Z" fill="#F99035"/>
<path fill-rule="evenodd" clip-rule="evenodd" d="M9.4 64L9 63.4782L14.6 58L15 58.3914L9.4 64Z" fill="#F99035"/>
<path fill-rule="evenodd" clip-rule="evenodd" d="M14.6 70L15 69.6001L9.4 64L9 64.4001L14.6 70Z" fill="#F99035"/>
<path fill-rule="evenodd" clip-rule="evenodd" d="M9.4 70L9 69.6001L14.6 64L15 64.4001L9.4 70Z" fill="#F99035"/>
<path d="M9.04436 44.7759L8.55078 45.269L14.4687 51.1919L14.9622 50.6988L9.04436 44.7759Z" fill="#F99035"/>
<path d="M14.6161 44.7182L8.69824 50.6411L9.19182 51.1343L15.1097 45.2114L14.6161 44.7182Z" fill="#F99035"/>
<path fill-rule="evenodd" clip-rule="evenodd" d="M14.6 58L15 57.5434L9.4 51L9 51.4564L14.6 58Z" fill="#F99035"/>
<path fill-rule="evenodd" clip-rule="evenodd" d="M9.4 58L9 57.5434L14.6 51L15 51.4564L9.4 58Z" fill="#F99035"/>
<path fill-rule="evenodd" clip-rule="evenodd" d="M14.6 64L15 63.4782L9.4 58L9 58.3914L14.6 64Z" fill="#F99035"/>
<path fill-rule="evenodd" clip-rule="evenodd" d="M9.4 64L9 63.4782L14.6 58L15 58.3914L9.4 64Z" fill="#F99035"/>
<path fill-rule="evenodd" clip-rule="evenodd" d="M14.6 70L15 69.6001L9.4 64L9 64.4001L14.6 70Z" fill="#F99035"/>
<path fill-rule="evenodd" clip-rule="evenodd" d="M9.4 70L9 69.6001L14.6 64L15 64.4001L9.4 70Z" fill="#F99035"/>
<path d="M9.04436 44.7759L8.55078 45.269L14.4687 51.1919L14.9622 50.6988L9.04436 44.7759Z" fill="#F99035"/>
<path d="M14.6161 44.7182L8.69824 50.6411L9.19182 51.1343L15.1097 45.2114L14.6161 44.7182Z" fill="#F99035"/>
<path fill-rule="evenodd" clip-rule="evenodd" d="M14.6 58L15 57.5434L9.4 51L9 51.4564L14.6 58Z" fill="#F99035"/>
<path fill-rule="evenodd" clip-rule="evenodd" d="M9.4 58L9 57.5434L14.6 51L15 51.4564L9.4 58Z" fill="#F99035"/>
<path fill-rule="evenodd" clip-rule="evenodd" d="M14.6 64L15 63.4782L9.4 58L9 58.3914L14.6 64Z" fill="#F99035"/>
<path fill-rule="evenodd" clip-rule="evenodd" d="M9.4 64L9 63.4782L14.6 58L15 58.3914L9.4 64Z" fill="#F99035"/>
<path fill-rule="evenodd" clip-rule="evenodd" d="M14.6 70L15 69.6001L9.4 64L9 64.4001L14.6 70Z" fill="#F99035"/>
<path fill-rule="evenodd" clip-rule="evenodd" d="M9.4 70L9 69.6001L14.6 64L15 64.4001L9.4 70Z" fill="#F99035"/>
<path fill-rule="evenodd" clip-rule="evenodd" d="M16.7143 70H7.28571C6.57142 70 6 70.6667 6 71.5C6 72.3333 6.57142 73 7.28571 73H16.7143C17.4286 73 18 72.3333 18 71.5C18 70.8334 17.4286 70 16.7143 70Z" fill="#F99035"/>
<path fill-rule="evenodd" clip-rule="evenodd" d="M14.7143 18H8.28571C7.57142 18 7 18.4445 7 19C7 19.5555 7.57142 20 8.28571 20H14.7143C15.4286 20 16 19.5555 16 19C16 18.4445 15.4286 18 14.7143 18Z" fill="#F99035"/>
<path d="M11.3898 8C13.5593 8 14.9153 9.35592 15.5932 10.8475C15.8644 11.3899 16 11.9322 16 12.4746C16 13.0169 16 13.5594 15.7288 14.1018C15.322 15.1866 14.2373 16 12.6102 16C10.5763 16 9.08475 14.7797 8.40678 13.1525C8.1356 12.6101 8 12.0678 8 11.5254C8 10.9831 8 10.4406 8.27118 9.8982C8.81356 8.81344 9.76271 8 11.3898 8ZM15.1864 11.1186C14.6441 9.76264 13.2881 8.67798 11.5254 8.67798C10.1695 8.67798 9.22033 9.35589 8.94915 10.3051C8.81356 10.7118 8.67797 11.2542 8.67797 11.661C8.67797 12.2034 8.81356 12.6101 9.08475 13.1525C9.62712 14.5085 10.9831 15.7289 12.7458 15.7289C14.2373 15.7289 15.0508 15.051 15.4576 14.1018C15.5932 13.695 15.7288 13.2882 15.5932 12.7458C15.4576 12.0679 15.322 11.5254 15.1864 11.1186Z" fill="#F99035"/>
<path d="M11.5 5C12.2353 5 12.8235 5.26313 13.2647 5.78946C13.7059 6.1842 14 6.84217 14 7.50008C14 8.15799 13.7059 8.8158 13.2647 9.21054C12.8235 9.60529 12.0882 10 11.5 10C10.7647 10 10.1765 9.73687 9.7353 9.21054C9.29412 8.8158 9 8.15799 9 7.50008C9 6.84217 9.29412 6.1842 9.7353 5.78946C10.1765 5.26313 10.7647 5 11.5 5ZM12.8235 6.18427C12.3824 5.78952 11.9412 5.52636 11.3529 5.52636C10.7647 5.52636 10.3235 5.78952 10.0294 6.18427C9.58823 6.57901 9.44117 6.97372 9.44117 7.63163C9.44117 8.28954 9.73529 8.68425 10.0294 9.07899C10.3235 9.47374 10.9118 9.60535 11.3529 9.60535C11.9412 9.60535 12.3824 9.47374 12.8235 9.07899C13.2647 8.68425 13.4118 8.28954 13.4118 7.63163C13.4118 6.97372 13.2647 6.44743 12.8235 6.18427Z" fill="#F99035"/>
<path d="M11.3898 8C13.5593 8 14.9153 9.35592 15.5932 10.8475C15.8644 11.3899 16 11.9322 16 12.4746C16 13.0169 16 13.5594 15.7288 14.1018C15.322 15.1866 14.2373 16 12.6102 16C10.5763 16 9.08475 14.7797 8.40678 13.1525C8.1356 12.6101 8 12.0678 8 11.5254C8 10.9831 8 10.4406 8.27118 9.8982C8.81356 8.81344 9.76271 8 11.3898 8ZM15.1864 11.1186C14.6441 9.76264 13.2881 8.67798 11.5254 8.67798C10.1695 8.67798 9.22033 9.35589 8.94915 10.3051C8.81356 10.7118 8.67797 11.2542 8.67797 11.661C8.67797 12.2034 8.81356 12.6101 9.08475 13.1525C9.62712 14.5085 10.9831 15.7289 12.7458 15.7289C14.2373 15.7289 15.0508 15.051 15.4576 14.1018C15.5932 13.695 15.7288 13.2882 15.5932 12.7458C15.4576 12.0679 15.322 11.5254 15.1864 11.1186Z" fill="#F99035"/>
<path d="M11.4738 12.0219C12.7837 11.4588 14.0936 11.1774 15.0106 11.0366C16.0585 10.8958 16.8444 11.1774 16.9754 11.5997C17.1064 12.022 16.7135 12.7258 15.7965 13.2888C15.0106 13.8519 13.8316 14.4149 12.5217 14.9779C11.2118 15.541 9.90188 15.8226 8.98494 15.9634C7.937 16.1042 7.15105 15.8226 7.02006 15.4003C6.88907 14.978 7.41304 14.2742 8.19899 13.7112C8.98494 13.1481 10.1639 12.585 11.4738 12.0219ZM15.0106 11.5997C14.0936 11.7405 12.9147 12.022 11.6048 12.4443C10.2949 12.8666 9.24693 13.5703 8.46098 13.9926C7.80602 14.4149 7.41304 14.8373 7.41304 15.1188C7.41304 15.4004 8.068 15.4003 8.85395 15.2596C9.77089 15.1188 10.9498 14.8373 12.2597 14.415C13.5696 13.9927 14.6176 13.2887 15.4035 12.8665C16.0585 12.4442 16.4515 12.022 16.4515 11.7404C16.3205 11.5997 15.9275 11.5997 15.0106 11.5997Z" fill="#F99035"/>
<path d="M11.4776 13C12.8209 13 14.1642 13.148 15.0597 13.4443C16.1045 13.7406 16.8507 14.1851 17 14.7777V14.9259C17 15.3703 16.7015 15.6667 16.2537 15.963C15.806 16.2593 15.3582 16.4075 14.6119 16.7038C14.0149 16.8519 13.2687 17 12.3731 17C11.0299 17 9.68657 16.8518 8.79105 16.5555C7.74628 16.2592 7 15.8149 7 15.2223V15.074C7 14.6295 7.29851 14.3333 7.74627 13.8889C8.19403 13.5926 8.6418 13.4444 9.38807 13.2962C9.83583 13.1481 10.5821 13 11.4776 13ZM14.9104 13.8889C14.0149 13.5926 12.8209 13.4443 11.4776 13.4443C10.7313 13.4443 9.98508 13.5926 9.38807 13.7408C8.79105 13.8889 8.19404 14.0369 7.89553 14.3332C7.59702 14.4814 7.44777 14.7777 7.44777 14.9259C7.44777 14.9259 7.44777 14.9258 7.44777 15.074C7.59702 15.5184 8.04478 15.8149 8.9403 15.963C9.83582 16.2593 11.0299 16.4074 12.3731 16.4074C13.1194 16.4074 13.8657 16.2593 14.4627 16.1111C15.0597 15.963 15.6567 15.8148 15.9552 15.5185C16.2537 15.3703 16.403 15.074 16.403 14.9259C16.403 14.9259 16.403 14.9259 16.403 14.7777C16.2537 14.4814 15.6567 14.1852 14.9104 13.8889Z" fill="#F99035"/>
<path fill-rule="evenodd" clip-rule="evenodd" d="M12.08 0L13.04 2.50009L14 5H12.08H10L11.12 2.50009L12.08 0Z" fill="#F99035"/>
<path d="M12 4H11V20H12V4Z" fill="#F99035"/>
</svg>
