<svg width="107" height="62" viewBox="0 0 107 62" fill="none" xmlns="http://www.w3.org/2000/svg">
<path d="M85.4634 20.1982L85.6505 20.5694L86.0496 20.4532C87.8014 19.9434 89.5412 19.6409 91.3911 19.6409C99.7599 19.6409 106.5 25.6163 106.5 32.7685C106.5 39.4241 100.677 45.0919 92.9935 46.1084L92.6205 46.1577L92.5646 46.5298C91.6551 52.5847 85.5928 57.443 78.1649 57.443C76.7819 57.443 75.3916 57.2415 74.1103 56.9364L73.897 56.8856L73.7152 57.0081C69.6323 59.7579 64.1305 61.5 58.147 61.5C52.0433 61.5 46.5453 59.7574 42.4669 56.9089L42.1869 56.7134L41.9029 56.903C39.9585 58.2011 37.5527 59.0034 34.7931 59.0034C31.355 59.0034 28.2604 57.6022 26.0845 55.5026L25.8302 55.2573L25.5141 55.415C23.0884 56.6252 20.3064 57.2349 17.3965 57.2349C7.95768 57.2349 0.5 50.5334 0.5 42.547C0.5 36.7551 4.39083 31.8135 9.97086 29.3777L10.3508 29.2119L10.2582 28.8078C10.1537 28.3516 10.1516 27.8878 10.1516 27.3591C10.1516 19.6867 17.2492 13.3993 26.2138 13.3993H26.2152H26.2166H26.218H26.2194H26.2208H26.2222H26.2236H26.225H26.2264H26.2278H26.2292H26.2306H26.2319H26.2333H26.2347H26.2361H26.2375H26.2389H26.2403H26.2417H26.2431H26.2445H26.2459H26.2473H26.2487H26.2501H26.2515H26.2529H26.2543H26.2557H26.2571H26.2585H26.2599H26.2613H26.2627H26.2641H26.2655H26.2669H26.2683H26.2696H26.271H26.2724H26.2738H26.2752H26.2766H26.278H26.2794H26.2808H26.2822H26.2836H26.285H26.2864H26.2878H26.2892H26.2906H26.292H26.2934H26.2948H26.2962H26.2976H26.299H26.3004H26.3018H26.3032H26.3046H26.306H26.3074H26.3088H26.3101H26.3115H26.3129H26.3143H26.3157H26.3171H26.3185H26.3199H26.3213H26.3227H26.3241H26.3255H26.3269H26.3283H26.3297H26.3311H26.3325H26.3339H26.3353H26.3367H26.3381H26.3395H26.3409H26.3423H26.3437H26.3451H26.3465H26.3479H26.3492H26.3506H26.352H26.3534H26.3548H26.3562H26.3576H26.359H26.3604H26.3618H26.3632H26.3646H26.366H26.3674H26.3688H26.3702H26.3716H26.373H26.3744H26.3758H26.3772H26.3786H26.38H26.3814H26.3828H26.3842H26.3856H26.387H26.3884H26.3897H26.3911H26.3925H26.3939H26.3953H26.3967H26.3981H26.3995H26.4009H26.4023H26.4037H26.4051H26.4065H26.4079H26.4093H26.4107H26.4121H26.4135H26.4149H26.4163H26.4177H26.4191H26.4205H26.4219H26.4233H26.4247H26.4261H26.4275H26.4289H26.4303H26.4316H26.433H26.4344H26.4358H26.4372H26.4386H26.44H26.4414H26.4428H26.4442H26.4456H26.447H26.4484H26.4498H26.4512H26.4526H26.454H26.4554H26.4568H26.4582H26.4596H26.461H26.4624H26.4638H26.4652H26.4666H26.468H26.4694H26.4708H26.4722H26.4735H26.4749H26.4763H26.4777H26.4791H26.4805H26.4819H26.4833H26.4847H26.4861H26.4875H26.4889H26.4903H26.4917H26.4931H26.4945H26.4959H26.4973H26.4987H26.5001H26.5015H26.5029H26.5043H26.5057H26.5071H26.5085H26.5099H26.5113H26.5127H26.514H26.5154H26.5168H26.5182H26.5196H26.521H26.5224H26.5238H26.5252H26.5266H26.528H26.5294H26.5308H26.5322H26.5336H26.535H26.5364H26.5378H26.5392H26.5406H26.542H26.5434H26.5448H26.5462H26.5476H26.549H26.5504H26.5518H26.5532H26.5546H26.556H26.5573H26.5587H26.5601H26.5615H26.5629H26.5643H26.5657H26.5671H26.5685H26.5699H26.5713H26.5727H26.5741H26.5755H26.5769H26.5783H26.5797H26.5811H26.5825H26.5839H26.5853H26.5867H26.5881H26.5895H26.5909H26.5923H26.5937H26.5951H26.5965H26.5978H26.5992H26.6006H26.602H26.6034H26.6048H26.6062H26.6076H26.609H26.6104H26.6118H26.6132H26.6146H26.616H26.6174H26.6188H26.6202H26.6216H26.623H26.6244H26.6258H26.6272H26.6286H26.63H26.6314H26.6328H26.6342H26.6356H26.637H26.6384H26.6397H26.6411H26.6425H26.6439H26.6453H26.6467H26.6481H26.6495H26.6509H26.6523H26.6537H26.6551H26.6565H26.6579H26.6593H26.6607H26.6621H26.6635H26.6649H26.6663H26.6677H26.6691H26.6705H26.6719H26.6733H26.6747H26.6761H26.6775H26.6789H26.6803H26.6816H26.683H26.6844H26.6858H26.6872H26.6886H26.69H26.6914H26.6928H26.6942H26.6956H26.697H26.6984H26.6998H26.7012H26.7026H26.704H26.7054H26.7068H26.7082H26.7096H26.711H26.7124H26.7138H26.7152H26.7166H26.718H26.7194H26.7208H26.7222H26.7235H26.7249H26.7263H26.7277H26.7291H26.7305H26.7319H26.7333H26.7347H26.7361H26.7375H26.7389H26.7403H26.7417H26.7431H26.7445H26.7459H26.7473H26.7487H26.7501H26.7515H26.7529H26.7543H26.7557H26.7571H26.7585H26.7599H26.7613H26.7627H26.764H26.7654H26.7668H26.7682H26.7696H26.771H26.7724H26.7738H26.7752H26.7766H26.778H26.7794H26.7808H26.7822H26.7836H26.785H26.7864H26.7878H26.7892H26.7906H26.792H26.7934H26.7948H26.7962H26.7976H26.799H26.8004H26.8018H26.8032H26.8045H26.8059H26.8073H26.8087H26.8101H26.8115H26.8129H26.8143H26.8157H26.8171H26.8185H26.8199H26.8213H26.8227H26.8241H26.8255H26.8269H26.8283H26.8297H26.8311H26.8325H26.8339H26.8353H26.8367H26.8381H26.8395H26.8409H26.8423H26.8437H26.845H26.8464H26.8478H26.8492H26.8506H26.852H26.8534H26.8548H26.8562H26.8576H26.859H26.8604H26.8618H26.8632H26.8646H26.866H26.8674H26.8688H26.8702H26.8716H26.873H26.8744H26.8758H26.8772H26.8786H26.88H26.8814H26.8828H26.8841H26.8855H26.8869H26.8883H26.8897H26.8911H26.8925H26.8939H26.8953H26.8967H26.8981H26.8995H26.9009H26.9023H26.9037H26.9051H26.9065H26.9079H26.9093H26.9107H26.9121H26.9135H26.9149H26.9163H26.9177H26.9191H26.9205H26.9219H26.9232H26.9246H26.926H26.9274H26.9288H27.2681L27.3934 13.0841C30.2872 5.80806 38.3074 0.5 47.6614 0.5C56.4324 0.5 63.8754 4.99113 67.2355 11.4653L67.3958 11.7741L67.7412 11.7311C68.5775 11.6268 69.3826 11.5269 70.3006 11.5269C77.1579 11.5269 82.9339 15.1793 85.4634 20.1982Z" fill="white" stroke="#E50056"/>
<circle cx="31.8555" cy="35.189" r="15.9395" fill="#E50056"/>
<path fill-rule="evenodd" clip-rule="evenodd" d="M29.7441 44.9811H32.7666V44.1934H29.7939L29.7441 44.9811ZM32.7666 43.1972V31.0145C32.6494 30.9423 32.5404 30.8557 32.4409 30.761C32.2468 30.5621 32.0912 30.3134 32.0109 30.0359C31.9291 30.3118 31.7799 30.5605 31.581 30.761C31.3356 31.0016 31.0243 31.1733 30.6698 31.2359L29.8629 43.1972H32.7666ZM32.7666 29.9268V29.9172H32.7617L32.7666 29.9268ZM30.7596 29.9188L30.7227 30.4482C30.8447 30.3985 30.9586 30.3214 31.0484 30.2316C31.135 30.145 31.2072 30.0375 31.257 29.9188H30.7596Z" fill="white"/>
<path fill-rule="evenodd" clip-rule="evenodd" d="M34.2753 44.9811H31.2529V44.1934H34.2256L34.2753 44.9811ZM31.2529 43.1972V31.0145C31.37 30.9423 31.4791 30.8557 31.5786 30.761C31.7775 30.5621 31.9283 30.3134 32.0085 30.0359C32.0903 30.3118 32.2444 30.5605 32.4385 30.761C32.6839 31.0016 32.9951 31.1733 33.3497 31.2359L34.1566 43.1972H31.2529ZM33.2598 29.9188L33.2967 30.4482C33.1748 30.3985 33.0657 30.3214 32.9711 30.2316C32.8845 30.145 32.8123 30.0375 32.7625 29.9188H33.2598ZM31.2529 29.9268V29.9172H31.2577L31.2529 29.9268Z" fill="white"/>
<path fill-rule="evenodd" clip-rule="evenodd" d="M24.3047 46.2661C24.4491 44.8271 25.6683 43.6945 27.1426 43.6945H31.8816H32.135H36.8756C38.3483 43.6945 39.5724 44.8255 39.7135 46.2661H32.135H31.8816H24.3047Z" fill="white"/>
<path fill-rule="evenodd" clip-rule="evenodd" d="M19.3415 35.301L18.7576 32.8882C18.4399 31.6754 20.1212 31.5984 20.3522 32.4711C20.5736 33.3182 20.7918 34.1604 21.0131 35.001C21.0725 35.2272 21.1768 35.4358 21.5249 35.4181H22.5131C22.9671 35.4181 23.3377 35.7887 23.3377 36.2427C23.3377 36.6951 22.9655 37.0673 22.5131 37.0673H20.511C19.6415 37.0673 19.5051 35.9716 19.3415 35.301Z" fill="white"/>
<path fill-rule="evenodd" clip-rule="evenodd" d="M23.1758 29.0397L30.5265 24.0504C30.5393 24.0729 30.5537 24.0905 30.5666 24.1098L25.1923 29.0397H23.1758ZM33.4959 24.052L40.8466 29.0413H38.9023L33.4558 24.105C33.4687 24.0873 33.4831 24.0697 33.4959 24.052ZM38.3504 29.0397H35.5269L33.0339 24.5173C33.0933 24.4724 33.151 24.4274 33.2056 24.3809L38.3504 29.0397ZM35.1002 29.0397H32.1949V24.8253C32.3762 24.8076 32.5478 24.7611 32.7066 24.6986L35.1002 29.0397ZM32.1949 23.9205V23.7713L32.2671 23.9029C32.2446 23.9061 32.2222 23.9157 32.1949 23.9205ZM31.8243 29.0397H29.0457L31.3398 24.7066C31.4938 24.7708 31.6575 24.8109 31.8243 24.8237V29.0397ZM31.7649 23.9061L31.8243 23.797V23.9189C31.8051 23.9157 31.7826 23.9109 31.7649 23.9061ZM28.6238 29.0397H25.7458L30.8216 24.3857C30.881 24.4403 30.9436 24.49 31.0077 24.5301L28.6238 29.0397Z" fill="white"/>
<path fill-rule="evenodd" clip-rule="evenodd" d="M25.1149 29.5466C25.1149 30.2894 24.5117 30.8862 23.7737 30.8862C23.0309 30.8862 22.4277 30.2878 22.4277 29.5466H25.1149Z" fill="white"/>
<path fill-rule="evenodd" clip-rule="evenodd" d="M28.4098 29.5466C28.4098 30.2894 27.8066 30.8862 27.0686 30.8862C26.3259 30.8862 25.7227 30.2878 25.7227 29.5466H28.4098Z" fill="white"/>
<path fill-rule="evenodd" clip-rule="evenodd" d="M31.7037 29.5466C31.7037 30.2894 31.1005 30.8862 30.3626 30.8862C29.6198 30.8862 29.0166 30.2878 29.0166 29.5466H31.7037Z" fill="white"/>
<path fill-rule="evenodd" clip-rule="evenodd" d="M35.0006 29.5466C35.0006 30.2894 34.3974 30.8862 33.6594 30.8862C32.9167 30.8862 32.3135 30.2878 32.3135 29.5466H35.0006Z" fill="white"/>
<path fill-rule="evenodd" clip-rule="evenodd" d="M38.2945 29.5466C38.2945 30.2894 37.6913 30.8862 36.9534 30.8862C36.2106 30.8862 35.6074 30.2878 35.6074 29.5466H38.2945Z" fill="white"/>
<path fill-rule="evenodd" clip-rule="evenodd" d="M41.5904 29.5466C41.5904 30.2894 40.9872 30.8862 40.2493 30.8862C39.5065 30.8862 38.9033 30.2878 38.9033 29.5466H41.5904Z" fill="white"/>
<path fill-rule="evenodd" clip-rule="evenodd" d="M32.0081 21.7018C32.7509 21.7018 33.3541 22.3034 33.3541 23.0461C33.3541 23.7841 32.7509 24.3857 32.0081 24.3857C31.2654 24.3857 30.667 23.7841 30.667 23.0461C30.667 22.3034 31.2654 21.7018 32.0081 21.7018Z" fill="white"/>
<path fill-rule="evenodd" clip-rule="evenodd" d="M32.0081 21.7018C32.7509 21.7018 33.3541 22.3034 33.3541 23.0461C33.3541 23.7841 32.7509 24.3857 32.0081 24.3857C31.2654 24.3857 30.667 23.7841 30.667 23.0461C30.667 22.3034 31.2654 21.7018 32.0081 21.7018Z" fill="white"/>
<path fill-rule="evenodd" clip-rule="evenodd" d="M35.1813 38.4341L34.5973 36.0213C34.2797 34.8085 35.9657 34.7267 36.1919 35.6042C36.4133 36.4465 36.6363 37.2887 36.8529 38.1309C36.9123 38.3571 37.0165 38.5657 37.3646 38.548H38.3577C38.8117 38.548 39.1823 38.9186 39.1823 39.3726C39.1823 39.825 38.8101 40.1972 38.3577 40.1972H36.3492C35.4845 40.1956 35.3449 39.1047 35.1813 38.4341Z" fill="white"/>
<path fill-rule="evenodd" clip-rule="evenodd" d="M41.5212 35.8128L40.9373 33.4C40.6196 32.1872 42.3009 32.1102 42.5319 32.9829C42.7501 33.8251 42.9714 34.6674 43.1928 35.5128C43.2522 35.739 43.3565 35.9476 43.7046 35.9251H44.6928C45.1468 35.9251 45.5174 36.2957 45.5174 36.7497C45.5174 37.2021 45.1452 37.5743 44.6928 37.5743H42.6843C41.8212 37.5743 41.6848 36.4834 41.5212 35.8128Z" fill="white"/>
<path d="M20.7598 35.5048L23.5062 30.0808L24.0421 30.3535L21.2956 35.7727L20.7598 35.5048Z" fill="white"/>
<path d="M42.2445 37.1571L39.9648 30.3118L40.5311 30.1225L42.8108 36.9727L42.2445 37.1571Z" fill="white"/>
<path fill-rule="evenodd" clip-rule="evenodd" d="M26.1734 38.3074L25.5846 35.8946C25.267 34.6818 26.953 34.6048 27.1792 35.4775C27.4006 36.3197 27.6236 37.1668 27.8402 38.0074C27.8996 38.2336 28.0038 38.4421 28.3568 38.4245H29.345C29.799 38.4245 30.1696 38.7919 30.1696 39.2443C30.1696 39.6967 29.7974 40.0688 29.345 40.0688H27.3381C26.4718 40.0688 26.3306 38.978 26.1734 38.3074Z" fill="white"/>
<path d="M27.5635 38.5786L29.6522 29.5466H29.9602L30.2506 29.6156L28.1474 38.7149L27.5635 38.5786Z" fill="white"/>
<path d="M36.727 39.0775L35.8848 29.5707L36.4832 29.5209L37.3206 39.0277L36.727 39.0775Z" fill="white"/>
<path d="M69.9893 45.7906V24.8093L70.9002 25.3736V45.4962L69.9893 45.7906Z" fill="#E50056"/>
<path fill-rule="evenodd" clip-rule="evenodd" d="M70.9007 22.9415C71.0234 23.0887 71.8545 23.9291 71.9833 24.0057C72.3636 24.2235 72.8053 23.7727 72.5906 23.3985C72.4771 23.1991 71.7503 22.5244 71.5417 22.3158C70.3118 21.0952 70.5541 21.1228 69.3672 22.3158C69.1249 22.5489 68.4655 23.1562 68.3183 23.3709C68.0484 23.7788 68.5268 24.2204 68.8979 24.0119C69.0451 23.926 69.8426 23.1132 69.9898 22.9384L69.999 25.8643C69.999 26.0882 69.9039 26.6618 70.4314 26.6863C70.9682 26.7108 70.9007 26.1066 70.9007 25.8889V22.9415Z" fill="#E50056"/>
<path fill-rule="evenodd" clip-rule="evenodd" d="M70.9007 47.8425C71.0234 47.6953 71.8545 46.8549 71.9833 46.7875C72.3636 46.5636 72.8053 47.0206 72.5906 47.3947C72.4771 47.5849 71.7503 48.2596 71.5417 48.4682C70.3118 49.6981 70.5541 49.6613 69.3672 48.4774C69.1249 48.2351 68.4655 47.637 68.3183 47.4131C68.0484 47.0144 68.5268 46.5728 68.8979 46.7813C69.0451 46.8672 69.8426 47.68 69.9898 47.8456L69.999 44.9197C69.999 44.6958 69.9039 44.1314 70.4314 44.0977C70.9682 44.0732 70.9007 44.6774 70.9007 44.9013V47.8425Z" fill="#E50056"/>
<path fill-rule="evenodd" clip-rule="evenodd" d="M57.7303 32.8264C57.7487 33.2067 57.5923 35.9333 57.5647 36.5743C57.4696 39.077 57.3224 41.6042 57.2366 44.1038C57.2182 44.7111 57.1936 45.3674 57.1599 45.9747L57.0832 47.8455C57.1599 48.9619 58.4603 49.5171 59.4049 48.8331C59.8803 48.4957 59.9509 48.0112 59.9938 47.4468L60.5919 38.7304C60.6103 38.5402 60.5735 38.4268 60.7299 38.3593C60.8771 38.4206 60.8526 38.5065 60.8587 38.6967L61.466 47.4039C61.5089 48.0449 61.6408 48.5203 62.0364 48.8147C63.024 49.5508 64.2447 48.9435 64.3765 47.8455C64.4011 47.6124 63.9165 37.295 63.892 36.5927C63.8674 35.9701 63.7018 33.1822 63.7355 32.8264C63.987 33.1454 65.2782 35.1972 65.5543 35.6235C65.7628 35.9517 65.9008 36.2645 66.2566 36.4639C67.0878 36.9147 68.0232 36.2645 67.9803 35.3996C67.9619 34.9334 67.695 34.6543 67.5049 34.3446C67.3055 34.0164 67.1246 33.7036 66.9344 33.3754C66.1707 32.0597 64.4471 28.6399 63.3828 27.6616C63.0271 27.3426 62.8032 27.2537 62.2296 27.2966C60.7483 27.3917 60.7575 27.4009 59.2761 27.2966C58.7394 27.2629 58.3652 27.3579 58.0984 27.6432C57.7089 28.0511 57.761 27.9284 57.3807 28.4743C57.1721 28.7872 56.9728 29.0877 56.7734 29.419C55.9852 30.7592 55.3105 32.0167 54.5468 33.357C54.3474 33.6944 54.1665 34.0133 53.9763 34.3262C53.8628 34.4979 53.7862 34.6206 53.6727 34.7862C53.0225 35.783 54.0898 37.0282 55.1817 36.4731C55.5098 36.3075 55.7031 35.9885 55.8993 35.6511C56.2551 35.0531 56.7397 34.3783 57.1139 33.7741C57.209 33.6177 57.3132 33.4551 57.4175 33.2895L57.7303 32.8264Z" fill="#E50056"/>
<path fill-rule="evenodd" clip-rule="evenodd" d="M60.4172 21.4264C58.9082 21.5828 57.617 22.9569 57.8102 24.656C57.9759 26.1619 59.3345 27.4592 61.0429 27.2599C63.5823 26.9746 64.6037 23.9199 62.6377 22.1104C62.0887 21.6074 61.1778 21.3497 60.4172 21.4264Z" fill="#E50056"/>
<path d="M76.6113 30.5323C76.7064 30.2563 76.9242 30.1244 77.2616 30.1244C77.5989 30.1244 77.8167 30.2532 77.9118 30.5323L78.6141 33.4306C78.6846 33.6208 78.6754 33.7956 78.5896 33.9766C78.5037 34.1575 78.3718 34.2802 78.1909 34.3415C78.0007 34.4121 77.8197 34.4029 77.6449 34.3231C77.464 34.2373 77.3413 34.1054 77.2738 33.9152L77.0929 32.7375L76.6696 33.9766C76.5316 34.2526 76.3138 34.3906 76.0194 34.3906C75.7342 34.3906 75.5164 34.2526 75.3784 33.9766L74.9552 32.7375L74.765 33.9152C74.7037 34.1054 74.5749 34.2342 74.4 34.3231C74.2191 34.3998 74.0351 34.409 73.8541 34.3415C73.6732 34.2802 73.5321 34.1606 73.4554 33.9766C73.3695 33.7956 73.3603 33.6208 73.4309 33.4306L74.1332 30.5323C74.2283 30.2563 74.446 30.1244 74.7742 30.1244C75.1116 30.1244 75.3293 30.2532 75.4244 30.5323L76.0225 32.3081L76.6113 30.5323ZM80.1721 34.1759C80.0341 34.3231 79.8685 34.3937 79.6692 34.3937C79.479 34.3937 79.3042 34.3231 79.1662 34.1851C79.0281 34.0471 78.9576 33.8723 78.9576 33.676V30.8359C78.9576 30.6366 79.0281 30.471 79.1662 30.333C79.3042 30.1949 79.479 30.1244 79.6692 30.1244C79.8685 30.1244 80.0403 30.1949 80.1813 30.333C80.3194 30.471 80.3899 30.6366 80.3899 30.8359V31.7806L81.6627 30.3268C81.8007 30.1888 81.9663 30.1275 82.1657 30.1275C82.365 30.1275 82.5307 30.198 82.6687 30.336C82.8067 30.474 82.8772 30.6397 82.8772 30.839V33.6791C82.8772 33.8784 82.8067 34.0502 82.6687 34.1882C82.5307 34.3262 82.365 34.3967 82.1657 34.3967C81.9663 34.3967 81.8007 34.3262 81.6627 34.1882C81.5247 34.0502 81.4541 33.8754 81.4541 33.6791V32.7283L80.1721 34.1759ZM84.6592 32.9276V33.6729C84.6592 33.8723 84.5886 34.044 84.4506 34.1821C84.3126 34.3201 84.147 34.3906 83.9476 34.3906C83.7483 34.3906 83.5827 34.3201 83.4446 34.1821C83.3066 34.044 83.2361 33.8692 83.2361 33.6729V30.8329C83.2361 30.6335 83.3066 30.4679 83.4446 30.3299C83.5827 30.1919 83.7483 30.1213 83.9476 30.1213C84.147 30.1213 84.3126 30.1919 84.4506 30.3299C84.5886 30.4679 84.6592 30.6335 84.6592 30.8329V31.5782H85.5517V30.8329C85.5517 30.6335 85.6222 30.4679 85.7602 30.3299C85.8982 30.1919 86.0639 30.1213 86.2632 30.1213C86.4626 30.1213 86.6282 30.1919 86.7662 30.3299C86.9042 30.4679 86.9748 30.6335 86.9748 30.8329V33.6729C86.9748 33.8723 86.9042 34.044 86.7662 34.1821C86.6282 34.3201 86.4626 34.3906 86.2632 34.3906C86.0639 34.3906 85.8982 34.3201 85.7602 34.1821C85.6222 34.044 85.5517 33.8692 85.5517 33.6729V32.9276H84.6592ZM88.039 34.3906C87.8489 34.3906 87.674 34.3201 87.536 34.1821C87.398 34.044 87.3275 33.8692 87.3275 33.6729C87.3275 33.4828 87.398 33.308 87.536 33.1699C87.674 33.0319 87.8489 32.9614 88.039 32.9614C88.2384 32.9614 88.404 33.0319 88.542 33.1699C88.68 33.308 88.7506 33.4828 88.7506 33.6729C88.7506 33.8723 88.68 34.044 88.542 34.1821C88.404 34.3201 88.2384 34.3906 88.039 34.3906ZM87.5268 39.0126C87.5606 38.9696 87.5974 38.9267 87.6311 38.8899C87.7691 38.7519 87.9347 38.6814 88.1341 38.6814C88.3334 38.6814 88.4991 38.7519 88.6371 38.8899C88.7751 39.0279 88.8456 39.2027 88.8456 39.3929C88.8456 39.445 88.8456 39.4972 88.8272 39.5493C88.8088 39.6873 88.7138 39.8437 88.542 40.0155C88.1249 40.4295 87.625 40.6381 87.033 40.6381C86.4442 40.6381 85.9412 40.4295 85.5179 40.0155C85.1008 39.6014 84.8953 39.0985 84.8953 38.5096C84.8953 37.9115 85.1039 37.4116 85.5179 36.9945C85.9412 36.5804 86.4442 36.3719 87.033 36.3719C87.6219 36.3719 88.1249 36.5804 88.542 36.9945C88.7168 37.1662 88.8119 37.3227 88.8272 37.4607C88.8456 37.5128 88.8456 37.565 88.8456 37.6171C88.8456 37.8165 88.7751 37.9821 88.6371 38.1201C88.4991 38.2581 88.3334 38.3286 88.1341 38.3286C87.9347 38.3286 87.7691 38.2581 87.6311 38.1201C87.5974 38.0863 87.5606 38.0434 87.5268 37.9974C87.398 37.8594 87.2232 37.7889 87.033 37.7889C86.8337 37.7889 86.6619 37.8594 86.5208 37.9974C86.3798 38.1354 86.3123 38.3102 86.3123 38.5065C86.3123 38.6967 86.3828 38.8715 86.5208 39.0095C86.6589 39.1475 86.8337 39.2181 87.033 39.2181C87.2262 39.2211 87.398 39.1506 87.5268 39.0126ZM92.388 36.789C92.4831 36.513 92.7009 36.375 93.0382 36.375C93.3756 36.375 93.5934 36.513 93.6884 36.789L94.3908 39.6873C94.4521 39.8683 94.4429 40.0523 94.3662 40.2241C94.2804 40.405 94.1485 40.5277 93.9583 40.5952C93.7774 40.6657 93.5934 40.6565 93.4124 40.5706C93.2376 40.4939 93.118 40.3529 93.0474 40.1719L92.8573 38.985L92.4402 40.2241C92.2929 40.5001 92.0844 40.6381 91.79 40.6381C91.5047 40.6381 91.287 40.5001 91.1398 40.2241L90.7226 38.985L90.5325 40.1719C90.4619 40.3529 90.3423 40.4909 90.1675 40.5706C89.9866 40.6565 89.8025 40.6657 89.6216 40.5952C89.4314 40.5246 89.2996 40.405 89.2137 40.2241C89.137 40.0523 89.1278 39.8683 89.1953 39.6873L89.8884 36.789C89.9835 36.513 90.2012 36.375 90.5386 36.375C90.876 36.375 91.0938 36.513 91.1888 36.789L91.7869 38.5556L92.388 36.789ZM95.4489 40.6412C95.2495 40.6412 95.0839 40.5706 94.9459 40.4326C94.8079 40.2946 94.7373 40.129 94.7373 39.9296C94.7373 39.7303 94.8079 39.5646 94.9459 39.4266C95.0839 39.2886 95.2495 39.2181 95.4489 39.2181C95.6482 39.2181 95.8139 39.2886 95.9519 39.4266C96.0899 39.5646 96.1604 39.7303 96.1604 39.9296C96.1604 40.129 96.0899 40.2946 95.9519 40.4326C95.8139 40.5706 95.6482 40.6412 95.4489 40.6412ZM74.8171 36.4087C75.0165 36.4087 75.1821 36.4792 75.3201 36.6173C75.4581 36.7553 75.5287 36.9301 75.5287 37.1202V39.9327C75.5287 40.132 75.4581 40.2977 75.3201 40.4357C75.1821 40.5737 75.0165 40.6442 74.8171 40.6442C74.6178 40.6442 74.4522 40.5737 74.3142 40.4357C74.1761 40.2977 74.1056 40.132 74.1056 39.9327V37.8379C73.9062 37.8379 73.7406 37.7674 73.6026 37.6202C73.4554 37.4821 73.3849 37.3165 73.3849 37.1172C73.3849 36.927 73.4554 36.7522 73.6026 36.6142C73.7406 36.4762 73.9062 36.4056 74.1056 36.4056H74.8171V36.4087ZM77.8412 39.1874H78.2645C78.4638 39.1874 78.6356 39.2579 78.7767 39.396C78.9147 39.534 78.9852 39.6996 78.9852 39.8989C78.9852 40.0983 78.9147 40.2639 78.7767 40.4019C78.6386 40.54 78.4638 40.6105 78.2645 40.6105H76.6267C76.4273 40.6105 76.2617 40.5584 76.1329 40.4725C75.9765 40.3498 75.8814 40.1964 75.8569 39.9971C75.8323 39.8069 75.8753 39.6321 75.9857 39.4696C77.0591 38.5955 77.6051 38.1017 77.6235 37.9821C77.6327 37.8594 77.5621 37.8011 77.4149 37.8011C77.2585 37.8011 77.1818 37.8717 77.1634 38.0097C77.1297 38.1048 77.1021 38.1906 77.0591 38.2704C76.9211 38.4084 76.7555 38.4789 76.5561 38.4789C76.3568 38.4789 76.1912 38.4084 76.0532 38.2704C75.9151 38.1324 75.8446 37.9667 75.8446 37.7674C75.8446 37.6968 75.8446 37.6202 75.863 37.5435C75.8814 37.4055 75.9765 37.2307 76.1482 37.0068C76.5653 36.5927 76.9886 36.3842 77.4118 36.3842C77.8351 36.3842 78.1909 36.5068 78.4945 36.7399C78.7889 36.9822 78.9453 37.3104 78.9453 37.7367C78.9453 38.16 78.7889 38.4912 78.4945 38.7151C78.3442 38.8562 78.1172 39.0126 77.8412 39.1874ZM81.0462 40.6412C80.4574 40.6412 80.0157 40.4326 79.7121 40.0186C79.4177 39.6045 79.2704 39.1015 79.2704 38.5127C79.2704 37.9146 79.4177 37.4147 79.7121 36.9976C80.0157 36.5835 80.4574 36.375 81.0462 36.375C81.6351 36.375 82.086 36.5835 82.3804 36.9976C82.6748 37.4116 82.8312 37.9146 82.8312 38.5127C82.8312 39.1015 82.6748 39.6045 82.3804 40.0186C82.086 40.4326 81.6351 40.6412 81.0462 40.6412ZM81.0462 39.2211C81.1505 39.2211 81.2364 39.1506 81.3069 39.0126C81.3683 38.8746 81.402 38.6998 81.402 38.5096C81.402 38.3102 81.3683 38.1385 81.3069 38.0005C81.2364 37.8625 81.1505 37.7919 81.0462 37.7919C80.942 37.7919 80.8561 37.8625 80.7947 38.0005C80.7242 38.1385 80.6905 38.3133 80.6905 38.5096C80.6905 38.6998 80.7242 38.8746 80.7947 39.0126C80.8561 39.1506 80.942 39.2211 81.0462 39.2211Z" fill="#E50056"/>
</svg>
