<svg width="109" height="64" viewBox="0 0 109 64" fill="none" xmlns="http://www.w3.org/2000/svg">
<path d="M86.7114 20.9372L86.8982 21.3136L87.3011 21.1944C89.058 20.675 90.8026 20.3669 92.6574 20.3669C101.045 20.3669 107.814 26.4521 107.814 33.7536C107.814 40.5479 101.966 46.3219 94.264 47.3569L93.891 47.407L93.8359 47.7793C92.9221 53.9597 86.8355 58.9071 79.3906 58.9071C78.004 58.9071 76.6099 58.7019 75.3249 58.3911L75.1087 58.3387L74.925 58.4644C70.8296 61.2665 65.3116 63.0413 59.3111 63.0413C53.1901 63.0413 47.676 61.266 43.5849 58.3632L43.302 58.1625L43.0149 58.3572C41.0644 59.6801 38.6521 60.4972 35.8854 60.4972C32.4389 60.4972 29.3352 59.0703 27.1518 56.9299L26.8957 56.6788L26.5757 56.841C24.1429 58.0739 21.3532 58.695 18.4354 58.695C8.97466 58.695 1.48535 51.8699 1.48535 43.7182C1.48535 37.807 5.39368 32.7698 10.9889 30.2885L11.3643 30.1221L11.274 29.7215C11.1687 29.2544 11.1666 28.7798 11.1666 28.2414C11.1666 20.4098 18.2948 14.0065 27.2797 14.0065H27.2811H27.2825H27.2839H27.2853H27.2867H27.2881H27.2895H27.2909H27.2923H27.2937H27.2952H27.2966H27.298H27.2994H27.3008H27.3022H27.3036H27.305H27.3064H27.3078H27.3092H27.3106H27.312H27.3134H27.3148H27.3162H27.3176H27.319H27.3204H27.3218H27.3232H27.3246H27.326H27.3274H27.3288H27.3302H27.3316H27.333H27.3344H27.3358H27.3372H27.3386H27.34H27.3414H27.3428H27.3442H27.3456H27.347H27.3484H27.3498H27.3512H27.3526H27.354H27.3554H27.3568H27.3582H27.3596H27.361H27.3624H27.3638H27.3652H27.3666H27.368H27.3694H27.3708H27.3722H27.3736H27.375H27.3764H27.3778H27.3792H27.3806H27.382H27.3834H27.3848H27.3862H27.3876H27.389H27.3904H27.3918H27.3932H27.3946H27.396H27.3974H27.3988H27.4002H27.4016H27.403H27.4044H27.4058H27.4072H27.4086H27.41H27.4114H27.4128H27.4142H27.4156H27.417H27.4184H27.4198H27.4212H27.4226H27.424H27.4254H27.4268H27.4282H27.4296H27.431H27.4324H27.4338H27.4352H27.4366H27.438H27.4394H27.4408H27.4422H27.4436H27.445H27.4464H27.4478H27.4492H27.4506H27.452H27.4534H27.4548H27.4562H27.4576H27.459H27.4604H27.4618H27.4632H27.4646H27.466H27.4674H27.4688H27.4702H27.4716H27.4731H27.4745H27.4759H27.4773H27.4787H27.4801H27.4815H27.4829H27.4843H27.4857H27.4871H27.4885H27.4899H27.4913H27.4927H27.4941H27.4955H27.4969H27.4983H27.4997H27.5011H27.5025H27.5039H27.5053H27.5067H27.5081H27.5095H27.5109H27.5123H27.5137H27.5151H27.5165H27.5179H27.5193H27.5207H27.5221H27.5235H27.5249H27.5263H27.5277H27.5291H27.5305H27.5319H27.5333H27.5347H27.5361H27.5375H27.5389H27.5403H27.5417H27.5431H27.5445H27.5459H27.5473H27.5487H27.5501H27.5515H27.5529H27.5543H27.5557H27.5571H27.5585H27.5599H27.5613H27.5627H27.5641H27.5655H27.5669H27.5683H27.5697H27.5711H27.5725H27.5739H27.5753H27.5767H27.5781H27.5795H27.5809H27.5823H27.5837H27.5851H27.5865H27.5879H27.5893H27.5907H27.5921H27.5935H27.5949H27.5963H27.5977H27.5991H27.6005H27.6019H27.6033H27.6047H27.6061H27.6075H27.6089H27.6103H27.6117H27.6131H27.6145H27.6159H27.6173H27.6187H27.6201H27.6215H27.623H27.6244H27.6258H27.6272H27.6286H27.63H27.6314H27.6328H27.6342H27.6356H27.637H27.6384H27.6398H27.6412H27.6426H27.644H27.6454H27.6468H27.6482H27.6496H27.651H27.6524H27.6538H27.6552H27.6566H27.658H27.6594H27.6608H27.6622H27.6636H27.665H27.6664H27.6678H27.6692H27.6706H27.672H27.6734H27.6748H27.6762H27.6776H27.679H27.6804H27.6818H27.6832H27.6846H27.686H27.6874H27.6888H27.6902H27.6916H27.693H27.6944H27.6958H27.6972H27.6986H27.7H27.7014H27.7028H27.7042H27.7056H27.707H27.7084H27.7098H27.7112H27.7126H27.714H27.7154H27.7168H27.7182H27.7196H27.721H27.7224H27.7238H27.7252H27.7266H27.728H27.7294H27.7308H27.7322H27.7336H27.735H27.7364H27.7378H27.7392H27.7406H27.742H27.7434H27.7448H27.7462H27.7476H27.749H27.7504H27.7518H27.7532H27.7546H27.756H27.7574H27.7588H27.7602H27.7616H27.763H27.7644H27.7658H27.7672H27.7687H27.7701H27.7715H27.7729H27.7743H27.7757H27.7771H27.7785H27.7799H27.7813H27.7827H27.7841H27.7855H27.7869H27.7883H27.7897H27.7911H27.7925H27.7939H27.7953H27.7967H27.7981H27.7995H27.8009H27.8023H27.8037H27.8051H27.8065H27.8079H27.8093H27.8107H27.8121H27.8135H27.8149H27.8163H27.8177H27.8191H27.8205H27.8219H27.8233H27.8247H27.8261H27.8275H27.8289H27.8303H27.8317H27.8331H27.8345H27.8359H27.8373H27.8387H27.8401H27.8415H27.8429H27.8443H27.8457H27.8471H27.8485H27.8499H27.8513H27.8527H27.8541H27.8555H27.8569H27.8583H27.8597H27.8611H27.8625H27.8639H27.8653H27.8667H27.8681H27.8695H27.8709H27.8723H27.8737H27.8751H27.8765H27.8779H27.8793H27.8807H27.8821H27.8835H27.8849H27.8863H27.8877H27.8891H27.8905H27.8919H27.8933H27.8947H27.8961H27.8975H27.8989H27.9003H27.9017H27.9031H27.9045H27.9059H27.9073H27.9087H27.9101H27.9115H27.9129H27.9143H27.9157H27.9171H27.9185H27.9199H27.9213H27.9227H27.9241H27.9255H27.9269H27.9283H27.9297H27.9311H27.9325H27.9339H27.9353H27.9368H27.9382H27.9396H27.941H27.9424H27.9438H27.9452H27.9466H27.948H27.9494H27.9508H27.9522H27.9536H27.955H27.9564H27.9578H27.9592H27.9606H27.962H27.9634H27.9648H27.9662H27.9676H27.969H27.9704H27.9718H27.9732H27.9746H27.976H27.9774H27.9788H27.9802H27.9816H27.983H27.9844H27.9858H27.9872H27.9886H27.99H27.9914H27.9928H27.9942H27.9956H27.997H28.3382L28.4626 13.6888C31.3675 6.2685 39.4146 0.861816 48.7933 0.861816C57.5877 0.861816 65.0548 5.43643 68.4275 12.0379L68.5872 12.3506L68.9356 12.3065C69.7745 12.2002 70.5817 12.0984 71.5021 12.0984C78.3768 12.0984 84.172 15.8183 86.7114 20.9372Z" fill="white" stroke="#6DCAE4"/>
<circle cx="33.3255" cy="36.1475" r="16.0023" fill="#6DCAE4"/>
<path d="M72.123 47.2771V25.5237L73.0675 26.1088V46.9718L72.123 47.2771Z" fill="#6DCAE4"/>
<path fill-rule="evenodd" clip-rule="evenodd" d="M73.0671 23.5872C73.1943 23.7398 74.0465 24.6111 74.1896 24.6906C74.5839 24.9164 75.0354 24.4489 74.8192 24.061C74.692 23.8543 73.9479 23.1547 73.7221 22.9385C72.4565 21.6729 72.7077 21.7015 71.4676 22.9385C71.2259 23.1802 70.5422 23.8098 70.3896 24.0324C70.1098 24.4553 70.6059 24.9132 70.9811 24.697C71.1432 24.6079 71.97 23.7653 72.1226 23.584L72.1322 26.6176C72.1322 26.8593 72.0336 27.4443 72.571 27.4698C73.1275 27.4952 73.0575 26.8688 73.0639 26.643V23.5872H73.0671Z" fill="#6DCAE4"/>
<path fill-rule="evenodd" clip-rule="evenodd" d="M73.0671 49.4045C73.1943 49.2518 74.0465 48.3806 74.1896 48.3106C74.5839 48.0849 75.0354 48.5523 74.8192 48.9402C74.692 49.1469 73.9479 49.837 73.7221 50.0532C72.4565 51.3283 72.7077 51.2997 71.4676 50.0627C71.2259 49.8115 70.5422 49.1915 70.3896 48.9593C70.1098 48.546 70.6059 48.088 70.9811 48.3043C71.1432 48.3933 71.97 49.236 72.1226 49.4077L72.1322 46.3741C72.1322 46.142 72.0336 45.5569 72.571 45.5314C73.1275 45.4965 73.0575 46.1229 73.0639 46.3582V49.4045H73.0671Z" fill="#6DCAE4"/>
<path fill-rule="evenodd" clip-rule="evenodd" d="M59.4028 33.8327C59.4282 34.227 59.2692 37.0539 59.2406 37.7185C59.142 40.3132 58.9799 42.9334 58.9004 45.525C58.8749 46.1546 58.8559 46.8351 58.8113 47.4711L58.7318 49.4013C58.8209 50.5587 60.1691 51.1406 61.1485 50.4347C61.6414 50.0754 61.7146 49.573 61.7495 48.9911L62.3791 39.9539C62.3887 39.7568 62.3601 39.6391 62.5222 39.5692C62.6749 39.6328 62.6494 39.7218 62.6558 39.9189L63.2854 48.9466C63.3299 49.6111 63.4666 50.1136 63.8705 50.4188C64.9039 51.1725 66.1695 50.546 66.2967 49.4044C66.3222 49.1628 65.8293 38.4657 65.8038 37.7376C65.7784 37.092 65.6067 34.2015 65.6417 33.8327C65.8929 34.1729 67.2411 36.2907 67.5178 36.7295C67.7436 37.0698 67.8771 37.3941 68.2555 37.6008C69.1173 38.0683 70.0808 37.3941 70.0426 36.4974C70.0235 36.0141 69.7469 35.7247 69.5402 35.4035C69.3335 35.0633 69.1554 34.7389 68.9487 34.3987C68.1665 33.0345 66.3699 29.489 65.2665 28.4746C64.9071 28.1439 64.675 28.0612 64.0804 28.0962C62.5445 28.1948 62.554 28.2043 61.0182 28.0962C60.4617 28.0612 60.0737 28.1598 59.7876 28.4555C59.3837 28.8848 59.4473 28.7513 59.0498 29.3173C58.8241 29.6416 58.6174 29.9533 58.4202 30.2967C57.603 31.6863 56.9034 32.99 56.1021 34.3796C55.9049 34.7294 55.7173 35.0601 55.5106 35.3845C55.4025 35.5625 55.3135 35.6897 55.2054 35.8614C54.5312 36.8949 55.6378 38.1859 56.7699 37.6104C57.1101 37.4386 57.3104 37.1079 57.514 36.7582C57.8828 36.1381 58.3757 35.4385 58.7732 34.8121C58.8718 34.6499 58.9703 34.4877 59.088 34.3192L59.4028 33.8327Z" fill="#6DCAE4"/>
<path fill-rule="evenodd" clip-rule="evenodd" d="M62.1945 22.0163C60.63 22.1785 59.2913 23.6031 59.482 25.3647C59.6538 26.926 61.0624 28.2711 62.8432 28.0644C65.4761 27.7687 66.5254 24.6016 64.4967 22.7254C63.9307 22.2039 62.9862 21.9337 62.1945 22.0163Z" fill="#6DCAE4"/>
<path d="M78.9852 31.4574C79.0838 31.1712 79.3095 31.0344 79.6593 31.0344C80.0091 31.0344 80.2349 31.168 80.3334 31.4574L81.0616 34.4623C81.1252 34.6595 81.1157 34.8471 81.0362 35.0283C80.9472 35.2159 80.8104 35.3431 80.6133 35.4067C80.4257 35.4799 80.2349 35.4799 80.0472 35.3877C79.866 35.2986 79.742 35.1619 79.6689 34.9743L79.4717 33.7437L79.0392 35.0283C78.8866 35.3145 78.6704 35.4576 78.3651 35.4576C78.0694 35.4576 77.8436 35.3145 77.691 35.0283L77.2585 33.7437L77.0614 34.9743C76.9882 35.1619 76.8642 35.2986 76.683 35.3877C76.4954 35.4767 76.3046 35.4767 76.1169 35.4067C75.9198 35.3431 75.7831 35.2191 75.694 35.0283C75.6145 34.8503 75.605 34.6595 75.6749 34.4623L76.3936 31.4574C76.4922 31.1712 76.7179 31.0344 77.0677 31.0344C77.4175 31.0344 77.6433 31.168 77.7419 31.4574L78.3619 33.2985L78.9852 31.4574ZM82.6802 35.235C82.5371 35.3877 82.3654 35.4608 82.1587 35.4608C81.952 35.4608 81.7803 35.3876 81.6372 35.2446C81.4941 35.1015 81.421 34.9202 81.421 34.7231V31.7722C81.421 31.5655 81.4941 31.3937 81.6372 31.2507C81.7803 31.1076 81.952 31.0344 82.1587 31.0344C82.3654 31.0344 82.5371 31.1076 82.6802 31.2507C82.8233 31.3937 82.8964 31.5655 82.8964 31.7722V32.7579L84.216 31.2411C84.3687 31.098 84.5404 31.0344 84.7471 31.0344C84.9538 31.0344 85.1255 31.1076 85.2686 31.2507C85.4117 31.3937 85.4848 31.5655 85.4848 31.7722V34.7231C85.4848 34.9202 85.4117 35.1015 85.2686 35.2446C85.1255 35.3876 84.9538 35.4608 84.7471 35.4608C84.5404 35.4608 84.3687 35.3876 84.2256 35.2446C84.0825 35.1015 84.0094 34.9202 84.0094 34.7231V33.7278L82.6802 35.235ZM87.3323 33.9408V34.7231C87.3323 34.9202 87.2592 35.1015 87.1161 35.2446C86.973 35.3876 86.7917 35.4608 86.585 35.4608C86.3879 35.4608 86.2066 35.3876 86.0635 35.2446C85.9205 35.1015 85.8473 34.9202 85.8473 34.7231V31.7722C85.8473 31.5655 85.9205 31.3937 86.0635 31.2507C86.2066 31.1076 86.3879 31.0344 86.585 31.0344C86.7917 31.0344 86.9698 31.1076 87.1161 31.2507C87.2592 31.3937 87.3323 31.5655 87.3323 31.7722V32.5449H88.2481V31.7722C88.2481 31.5655 88.3212 31.3937 88.4643 31.2507C88.6074 31.1076 88.7887 31.0344 88.9954 31.0344C89.1925 31.0344 89.3738 31.1076 89.5169 31.2507C89.66 31.3937 89.7331 31.5655 89.7331 31.7722V34.7231C89.7331 34.9202 89.66 35.1015 89.5169 35.2446C89.3738 35.3876 89.1925 35.4608 88.9954 35.4608C88.7887 35.4608 88.6106 35.3876 88.4643 35.2446C88.3212 35.1015 88.2481 34.9202 88.2481 34.7231V33.9408H87.3323ZM90.8365 35.4576C90.6298 35.4576 90.4581 35.3845 90.315 35.2414C90.1719 35.0983 90.0988 34.917 90.0988 34.7199C90.0988 34.5132 90.1719 34.3351 90.315 34.192C90.4581 34.0489 90.6298 33.9758 90.8365 33.9758C91.0432 33.9758 91.2149 34.0489 91.358 34.192C91.5011 34.3351 91.5742 34.5164 91.5742 34.7199C91.5742 34.917 91.5011 35.0983 91.358 35.2414C91.2149 35.3876 91.0432 35.4576 90.8365 35.4576ZM87.8188 40.2496C87.8443 40.2051 87.8824 40.1606 87.9174 40.1225C88.0605 39.9794 88.2322 39.9062 88.4389 39.9062C88.6456 39.9062 88.8173 39.9794 88.9604 40.1225C89.1035 40.2656 89.1766 40.4468 89.1766 40.6439C89.1766 40.698 89.1766 40.7521 89.1671 40.8061C89.148 40.9492 89.0399 41.1114 88.8618 41.2894C88.4294 41.7187 87.911 41.935 87.2973 41.935C86.6868 41.935 86.1653 41.7187 85.7328 41.2894C85.294 40.8602 85.0778 40.3387 85.0778 39.7282C85.0778 39.1081 85.294 38.5898 85.7328 38.1573C86.1653 37.728 86.6836 37.5118 87.2973 37.5118C87.9079 37.5118 88.4294 37.728 88.8618 38.1573C89.0431 38.3354 89.148 38.4975 89.1671 38.6406C89.1766 38.6947 89.1766 38.7488 89.1766 38.8028C89.1766 39.0095 89.1035 39.1812 88.9604 39.3243C88.8173 39.4674 88.6456 39.5405 88.4389 39.5405C88.2322 39.5405 88.0605 39.4674 87.9174 39.3243C87.8824 39.2893 87.8443 39.2448 87.8188 39.1971C87.6757 39.054 87.4945 38.9809 87.2973 38.9809C87.0906 38.9809 86.9189 39.0604 86.7758 39.2067C86.6327 39.3498 86.5596 39.5215 86.5596 39.7282C86.5596 39.9253 86.6327 40.1066 86.7758 40.2496C86.9189 40.3927 87.0906 40.4659 87.2973 40.4659C87.4945 40.4659 87.6726 40.3927 87.8188 40.2496ZM92.8494 37.9442C92.9479 37.6581 93.1737 37.515 93.5235 37.515C93.8733 37.515 94.099 37.6581 94.1976 37.9442L94.9258 40.9492C94.9989 41.1368 94.9894 41.3276 94.9004 41.5152C94.8113 41.6933 94.6746 41.8205 94.487 41.8936C94.2898 41.9668 94.1022 41.9572 93.921 41.8746C93.7334 41.7855 93.6062 41.6424 93.5362 41.4516L93.3486 40.2306L92.9098 41.5152C92.7667 41.7919 92.5409 41.9382 92.2357 41.9382C91.9399 41.9382 91.7142 41.7951 91.5615 41.5152L91.1291 40.2306L90.9319 41.4516C90.8683 41.6392 90.7348 41.7824 90.5535 41.8746C90.3659 41.9541 90.1751 41.9636 89.9875 41.8936C89.7999 41.8205 89.6536 41.6965 89.5741 41.5152C89.4851 41.3276 89.4755 41.1368 89.5487 40.9492L90.2769 37.9442C90.3754 37.6581 90.6012 37.515 90.9414 37.515C91.2912 37.515 91.517 37.6581 91.6156 37.9442L92.2357 39.7759L92.8494 37.9442ZM96.0197 41.9382C95.8225 41.9382 95.6413 41.865 95.4982 41.7219C95.3551 41.5788 95.282 41.4071 95.282 41.2004C95.282 40.9937 95.3551 40.822 95.4982 40.6789C95.6413 40.5358 95.8225 40.4627 96.0197 40.4627C96.2264 40.4627 96.4044 40.5358 96.5507 40.6789C96.6938 40.822 96.7669 40.9937 96.7669 41.2004C96.7669 41.4071 96.6938 41.5788 96.5507 41.7219C96.4044 41.865 96.2264 41.9382 96.0197 41.9382ZM77.2903 38.8601C77.2013 38.8601 77.1281 38.8855 77.0646 38.9491C77.001 39.0127 76.9755 39.0826 76.9755 39.1749C76.9755 39.2671 77.001 39.337 77.0646 39.4006C77.1281 39.4642 77.1981 39.4897 77.2903 39.4897C77.3698 39.4897 77.4525 39.4642 77.5065 39.4006C77.5701 39.337 77.6051 39.2671 77.6051 39.1749C77.6051 39.0826 77.5701 39.0127 77.5065 38.9491C77.4493 38.8855 77.3698 38.8601 77.2903 38.8601ZM76.7243 40.5835C76.2219 40.4754 75.888 40.1702 75.7354 39.6773C75.5732 39.1939 75.6082 38.7456 75.8435 38.3481C76.0692 37.9538 76.4095 37.693 76.8483 37.5754C77.2967 37.4577 77.7196 37.5118 78.1139 37.7376C78.5082 37.9697 78.7594 38.3036 78.8866 38.7519C79.0043 39.1908 78.9502 39.6137 78.7149 40.008L77.8086 41.5693C77.7101 41.741 77.5574 41.8555 77.3603 41.9095C77.1727 41.9636 76.9819 41.935 76.8038 41.8364C76.6321 41.7283 76.5176 41.5852 76.4636 41.388C76.4095 41.1909 76.4381 41.0033 76.5367 40.822L76.7243 40.5835ZM81.0902 41.9382C80.4797 41.9382 80.0218 41.7219 79.707 41.2926C79.4017 40.8633 79.2491 40.3419 79.2491 39.7313C79.2491 39.1113 79.4017 38.5929 79.707 38.1605C80.0218 37.7312 80.4797 37.515 81.0902 37.515C81.7008 37.515 82.1682 37.7312 82.4735 38.1605C82.7883 38.5898 82.9409 39.1113 82.9409 39.7313C82.9409 40.3419 82.7883 40.8633 82.4735 41.2926C82.1682 41.7219 81.7008 41.9382 81.0902 41.9382ZM81.0902 40.4659C81.1984 40.4659 81.2874 40.3927 81.3605 40.2496C81.4241 40.1066 81.4591 39.9253 81.4591 39.7282C81.4591 39.5215 81.4241 39.3498 81.3605 39.2067C81.2874 39.0636 81.1984 38.9809 81.0902 38.9809C80.9917 38.9809 80.9026 39.0604 80.8295 39.2067C80.7564 39.3498 80.7214 39.5215 80.7214 39.7282C80.7214 39.9253 80.7564 40.1066 80.8295 40.2496C80.8995 40.3927 80.9885 40.4659 81.0902 40.4659Z" fill="#6DCAE4"/>
<path fill-rule="evenodd" clip-rule="evenodd" d="M35.3321 29.3912C35.3321 29.0238 35.5773 28.6201 35.9096 28.4771C36.7927 28.0897 37.6012 28.9622 37.244 29.8112C37.2032 29.9035 37.1036 30.0465 37.0379 30.1117C36.7465 30.4031 36.3094 30.49 35.9238 30.3162C35.7284 30.2293 35.508 30.0157 35.4263 29.8112C35.3872 29.7044 35.3321 29.5252 35.3321 29.3912ZM45 32.6006V32.7689C44.9858 33.2396 44.8436 33.6993 44.5878 34.0813C44.1311 34.7764 43.3386 35.0714 42.6546 35.4859L40.5365 36.7024C40.1705 36.896 39.8329 37.106 39.4775 37.2997L37.8766 38.2138C37.706 38.3152 37.5354 38.4129 37.3542 38.5107C37.3791 38.612 37.6705 38.8836 37.7451 38.9596L38.8503 40.1706C38.8858 40.2068 38.916 40.2375 38.9516 40.2719C39.1026 40.4204 39.2128 40.5579 39.3585 40.7064C39.3993 40.748 39.4296 40.7733 39.4633 40.8186L41.1655 42.6685C41.226 42.75 41.3965 42.9491 41.5014 42.9654C41.7075 42.9853 42.7008 42.96 42.9371 42.96C43.6052 42.96 43.9659 42.8984 44.3976 43.1754C44.6891 43.3691 44.9556 43.7836 45 44.1764V44.3918C44.9805 44.5457 44.9254 44.6887 44.8099 44.8063C44.7246 44.8878 44.554 45 44.3976 45H40.5827C40.5223 45 40.533 44.9692 40.4921 44.924L40.0905 44.4841C40.0301 44.4226 39.9804 44.3773 39.92 44.3158L39.4438 43.7854C39.3834 43.7239 39.3389 43.6786 39.2785 43.6171L37.34 41.5173C37.0095 41.1806 36.7021 40.8077 36.3716 40.4692L35.8847 39.9479C35.755 39.7941 35.6093 39.7235 35.6289 39.5334C35.6893 38.8238 35.5791 38.0781 35.277 37.4445C35.0869 37.0408 34.8613 36.6173 34.5485 36.3005C34.4632 36.219 34.3886 36.1068 34.298 36.029C34.2269 35.9729 34.2127 35.9566 34.1523 35.8968C34.1079 35.8516 34.0563 35.8154 34.0013 35.7738C33.9568 35.7321 33.9106 35.7013 33.8609 35.667C33.6654 35.5131 33.4344 35.381 33.2088 35.2687C32.5265 34.9266 31.949 34.8452 31.1263 34.8452C30.2325 34.8452 29.3441 35.2325 28.692 35.7339L27.2705 36.8164C26.7535 37.2092 27.0697 38.0219 27.6064 38.0219C27.8622 38.0219 28.0026 37.9459 28.1678 37.8174L29.3068 36.9395C30.2752 36.1991 31.4959 35.9023 32.6242 36.4743C33.9142 37.1386 34.5965 38.574 34.2411 40.0294C34.1914 40.2448 34.131 40.3606 34.0546 40.5398C33.8236 41.0919 32.4181 42.7826 32.3737 42.9618C32.8605 42.9618 35.6964 42.9202 36.018 43.007C36.766 43.1953 37.3275 44.2741 36.8069 44.8045C36.727 44.886 36.551 44.9982 36.3947 44.9982H23.5391C23.0523 44.9982 22.6809 44.8353 22.3184 44.6307C22.2278 44.58 22.2029 44.5638 22.1283 44.5076L21.9524 44.3701C21.8813 44.3085 21.8511 44.2886 21.7871 44.2162C21.6272 44.0533 21.4815 43.8741 21.3607 43.675C21.1599 43.3274 21 42.9184 21 42.455C21 41.0141 21.135 39.8502 21.5224 38.4908C21.6432 38.0817 21.7783 37.6997 21.9186 37.3051C22.0537 36.9322 22.2243 36.5702 22.4055 36.2064L22.8124 35.4353C22.8621 35.3538 22.9137 35.2723 22.9634 35.1855C23.3455 34.5411 23.7968 33.9184 24.289 33.3518L24.4755 33.1418C24.5413 33.0694 24.6017 33.0242 24.6621 32.9481C24.7829 32.7907 24.9126 32.6766 25.0495 32.539C25.2858 32.2947 25.6163 32.0123 25.8828 31.7933C26.1689 31.5525 26.4603 31.319 26.7712 31.109L27.7307 30.4918C28.0666 30.2872 28.4042 30.1334 28.7595 29.956C28.8555 29.9053 28.9354 29.8745 29.0349 29.8329C29.1309 29.7913 29.2162 29.7514 29.2961 29.7152C29.6622 29.5614 30.0549 29.4184 30.4564 29.3007C31.089 29.1161 31.7162 28.9532 32.3737 28.8609C32.5691 28.8301 32.8499 28.7794 33.0666 28.7794C33.072 28.5948 33.1715 28.3341 33.2265 28.1766C33.3172 27.9015 33.4469 27.6716 33.6086 27.4453L33.9355 27.0362L34.3229 26.6833C35.2113 25.952 36.6417 25.7891 37.6865 26.285C38.0134 26.4389 38.2941 26.638 38.5696 26.8679C38.6993 26.9747 38.8201 27.1177 38.9267 27.2516C39.147 27.5268 39.3336 27.8436 39.458 28.1911C39.5077 28.3486 39.6037 28.5948 39.609 28.7794C39.7956 28.7939 41.1193 29.3206 41.2953 29.393C41.9118 29.6483 42.5195 29.889 43.1023 30.1841L43.6638 30.4809C43.79 30.5479 43.9197 30.6348 44.0245 30.7108C44.355 30.9516 44.6126 31.2828 44.7868 31.672C44.92 31.9616 44.9893 32.2784 45 32.6006Z" fill="white"/>
</svg>
