<svg width="108" height="64" viewBox="0 0 108 64" fill="none" xmlns="http://www.w3.org/2000/svg">
<path d="M86.0542 20.9372L86.241 21.3136L86.6439 21.1944C88.4008 20.675 90.1453 20.3669 92.0002 20.3669C100.388 20.3669 107.157 26.4521 107.157 33.7536C107.157 40.5479 101.309 46.3219 93.6067 47.3569L93.2338 47.407L93.1787 47.7793C92.2648 53.9597 86.1783 58.9071 78.7333 58.9071C77.3467 58.9071 75.9526 58.7019 74.6677 58.3911L74.4514 58.3387L74.2678 58.4644C70.1723 61.2665 64.6544 63.0413 58.6539 63.0413C52.5328 63.0413 47.0188 61.266 42.9277 58.3632L42.6448 58.1625L42.3577 58.3572C40.4072 59.6801 37.9948 60.4972 35.2282 60.4972C31.7817 60.4972 28.678 59.0703 26.4946 56.9299L26.2384 56.6788L25.9185 56.841C23.4857 58.0739 20.6959 58.695 17.7782 58.695C8.31743 58.695 0.828125 51.8699 0.828125 43.7182C0.828125 37.807 4.73645 32.7698 10.3317 30.2885L10.7071 30.1221L10.6167 29.7215C10.5114 29.2544 10.5094 28.7798 10.5094 28.2414C10.5094 20.4098 17.6375 14.0065 26.6225 14.0065H26.6239H26.6253H26.6267H26.6281H26.6295H26.6309H26.6323H26.6337H26.6351H26.6365H26.6379H26.6393H26.6407H26.6421H26.6435H26.6449H26.6463H26.6477H26.6491H26.6505H26.6519H26.6533H26.6547H26.6561H26.6575H26.6589H26.6603H26.6617H26.6631H26.6645H26.6659H26.6673H26.6687H26.6701H26.6715H26.6729H26.6743H26.6757H26.6771H26.6785H26.6799H26.6813H26.6827H26.6841H26.6855H26.6869H26.6883H26.6897H26.6912H26.6926H26.694H26.6954H26.6968H26.6982H26.6996H26.701H26.7024H26.7038H26.7052H26.7066H26.708H26.7094H26.7108H26.7122H26.7136H26.715H26.7164H26.7178H26.7192H26.7206H26.722H26.7234H26.7248H26.7262H26.7276H26.729H26.7304H26.7318H26.7332H26.7346H26.736H26.7374H26.7388H26.7402H26.7416H26.743H26.7444H26.7458H26.7472H26.7486H26.75H26.7514H26.7528H26.7542H26.7556H26.757H26.7584H26.7598H26.7612H26.7626H26.764H26.7654H26.7668H26.7682H26.7696H26.771H26.7724H26.7738H26.7752H26.7766H26.778H26.7794H26.7808H26.7822H26.7836H26.785H26.7864H26.7878H26.7892H26.7906H26.792H26.7934H26.7948H26.7962H26.7976H26.799H26.8004H26.8018H26.8032H26.8046H26.806H26.8074H26.8088H26.8102H26.8116H26.813H26.8144H26.8158H26.8172H26.8186H26.82H26.8214H26.8228H26.8242H26.8256H26.827H26.8284H26.8298H26.8312H26.8326H26.834H26.8354H26.8368H26.8382H26.8396H26.841H26.8424H26.8438H26.8452H26.8466H26.848H26.8494H26.8508H26.8522H26.8536H26.855H26.8565H26.8579H26.8593H26.8607H26.8621H26.8635H26.8649H26.8663H26.8677H26.8691H26.8705H26.8719H26.8733H26.8747H26.8761H26.8775H26.8789H26.8803H26.8817H26.8831H26.8845H26.8859H26.8873H26.8887H26.8901H26.8915H26.8929H26.8943H26.8957H26.8971H26.8985H26.8999H26.9013H26.9027H26.9041H26.9055H26.9069H26.9083H26.9097H26.9111H26.9125H26.9139H26.9153H26.9167H26.9181H26.9195H26.9209H26.9223H26.9237H26.9251H26.9265H26.9279H26.9293H26.9307H26.9321H26.9335H26.9349H26.9363H26.9377H26.9391H26.9405H26.9419H26.9433H26.9447H26.9461H26.9475H26.9489H26.9503H26.9517H26.9531H26.9545H26.9559H26.9573H26.9587H26.9601H26.9615H26.9629H26.9643H26.9657H26.9671H26.9685H26.9699H26.9713H26.9727H26.9741H26.9755H26.9769H26.9783H26.9797H26.9811H26.9825H26.9839H26.9853H26.9867H26.9881H26.9895H26.9909H26.9923H26.9937H26.9951H26.9965H26.9979H26.9993H27.0007H27.0021H27.0036H27.005H27.0064H27.0078H27.0092H27.0106H27.012H27.0134H27.0148H27.0162H27.0176H27.019H27.0204H27.0218H27.0232H27.0246H27.026H27.0274H27.0288H27.0302H27.0316H27.033H27.0344H27.0358H27.0372H27.0386H27.04H27.0414H27.0428H27.0442H27.0456H27.047H27.0484H27.0498H27.0512H27.0526H27.054H27.0554H27.0568H27.0582H27.0596H27.061H27.0624H27.0638H27.0652H27.0666H27.068H27.0694H27.0708H27.0722H27.0736H27.075H27.0764H27.0778H27.0792H27.0806H27.082H27.0834H27.0848H27.0862H27.0876H27.089H27.0904H27.0918H27.0932H27.0946H27.096H27.0974H27.0988H27.1002H27.1016H27.103H27.1044H27.1058H27.1072H27.1086H27.11H27.1114H27.1128H27.1142H27.1156H27.117H27.1184H27.1198H27.1212H27.1226H27.124H27.1254H27.1268H27.1282H27.1296H27.131H27.1324H27.1338H27.1352H27.1366H27.138H27.1394H27.1408H27.1422H27.1436H27.145H27.1464H27.1478H27.1492H27.1506H27.1521H27.1535H27.1549H27.1563H27.1577H27.1591H27.1605H27.1619H27.1633H27.1647H27.1661H27.1675H27.1689H27.1703H27.1717H27.1731H27.1745H27.1759H27.1773H27.1787H27.1801H27.1815H27.1829H27.1843H27.1857H27.1871H27.1885H27.1899H27.1913H27.1927H27.1941H27.1955H27.1969H27.1983H27.1997H27.2011H27.2025H27.2039H27.2053H27.2067H27.2081H27.2095H27.2109H27.2123H27.2137H27.2151H27.2165H27.2179H27.2193H27.2207H27.2221H27.2235H27.2249H27.2263H27.2277H27.2291H27.2305H27.2319H27.2333H27.2347H27.2361H27.2375H27.2389H27.2403H27.2417H27.2431H27.2445H27.2459H27.2473H27.2487H27.2501H27.2515H27.2529H27.2543H27.2557H27.2571H27.2585H27.2599H27.2613H27.2627H27.2641H27.2655H27.2669H27.2683H27.2697H27.2711H27.2725H27.2739H27.2753H27.2767H27.2781H27.2795H27.2809H27.2823H27.2837H27.2851H27.2865H27.2879H27.2893H27.2907H27.2921H27.2935H27.2949H27.2963H27.2977H27.2991H27.3005H27.3019H27.3033H27.3047H27.3061H27.3075H27.3089H27.3103H27.3117H27.3131H27.3145H27.3159H27.3173H27.3187H27.3201H27.3215H27.3229H27.3243H27.3257H27.3271H27.3285H27.3299H27.3313H27.3327H27.3342H27.3356H27.337H27.3384H27.3398H27.681L27.8053 13.6888C30.7103 6.2685 38.7574 0.861816 48.1361 0.861816C56.9305 0.861816 64.3976 5.43643 67.7703 12.0379L67.93 12.3506L68.2784 12.3065C69.1173 12.2002 69.9245 12.0984 70.8449 12.0984C77.7196 12.0984 83.5148 15.8183 86.0542 20.9372Z" fill="white" stroke="#6DCAE4"/>
<circle cx="32.6683" cy="36.1475" r="16.0023" fill="#6DCAE4"/>
<path d="M71.0264 47.1306V25.5033L71.9653 26.085V46.8271L71.0264 47.1306Z" fill="#6DCAE4"/>
<path fill-rule="evenodd" clip-rule="evenodd" d="M71.966 23.5875C72.0925 23.7392 72.9397 24.6054 73.0725 24.675C73.4645 24.8995 73.9198 24.4347 73.6985 24.049C73.5815 23.8435 72.8417 23.1575 72.6173 22.933C71.359 21.6748 71.6088 21.7033 70.3758 22.933C70.1356 23.1733 69.4559 23.7993 69.2946 24.0301C69.0259 24.4411 69.5191 24.8963 69.8921 24.6813C70.0534 24.5928 70.8659 23.755 71.0176 23.5748L71.0366 26.6003C71.0366 26.8311 70.9386 27.4128 71.4728 27.4381C72.0261 27.4729 71.9565 26.8501 71.9629 26.6161V23.5875H71.966Z" fill="#6DCAE4"/>
<path fill-rule="evenodd" clip-rule="evenodd" d="M71.966 49.2551C72.0925 49.1033 72.9397 48.2371 73.0725 48.1581C73.4645 47.9336 73.9198 48.3983 73.6985 48.784C73.5815 48.9895 72.8417 49.6755 72.6173 49.9C71.359 51.1583 71.6088 51.1298 70.3758 49.9C70.1356 49.6597 69.4559 49.0338 69.2946 48.803C69.0259 48.392 69.5191 47.9368 69.8921 48.1517C70.0534 48.2402 70.8659 49.078 71.0176 49.2582L71.0366 46.2422C71.0366 46.002 70.9386 45.4203 71.4728 45.395C72.0261 45.3697 71.9565 45.9925 71.9629 46.2169V49.2551H71.966Z" fill="#6DCAE4"/>
<path fill-rule="evenodd" clip-rule="evenodd" d="M58.381 33.7673C58.4063 34.1593 58.2482 36.9698 58.2198 37.6305C58.1123 40.2166 57.9605 42.8153 57.8815 45.3918C57.8562 46.0241 57.8373 46.7038 57.793 47.3266L57.714 49.2456C57.793 50.3964 59.1334 50.9749 60.1166 50.2731C60.6003 49.9253 60.6794 49.4163 60.7142 48.8378L61.3401 39.8625C61.3496 39.657 61.3148 39.5495 61.4729 39.4705C61.6341 39.5337 61.5993 39.6222 61.6152 39.8182L62.2411 48.803C62.2854 49.4637 62.4118 49.9538 62.8228 50.2573C63.8503 51.016 65.1085 50.3837 65.235 49.2583C65.2603 49.0085 64.7703 38.3735 64.745 37.659C64.7197 37.0172 64.549 34.1435 64.5742 33.7704C64.8335 34.1087 66.1739 36.2142 66.449 36.6536C66.664 36.9919 66.8062 37.3144 67.1824 37.5199C68.0392 37.9941 68.9971 37.3239 68.9591 36.4229C68.9402 35.9423 68.6557 35.6641 68.4596 35.3353C68.2542 34.9971 68.0771 34.6841 67.8716 34.3363C67.0939 32.9895 65.3077 29.4551 64.2107 28.4466C63.8534 28.1178 63.6132 28.0356 63.022 28.0704C61.5045 28.1684 61.5045 28.1779 59.9775 28.0799C59.4243 28.0356 59.0481 28.1336 58.7635 28.4371C58.362 28.8576 58.4253 28.7311 58.0301 29.2938C57.8056 29.6068 57.6001 29.9198 57.4041 30.2581C56.5822 31.6491 55.8961 32.9358 55.0995 34.3173C54.9034 34.6651 54.7169 34.9939 54.5114 35.3258C54.4039 35.4966 54.3154 35.6199 54.2079 35.7906C53.5282 36.8244 54.6379 38.1111 55.7633 37.5388C56.1016 37.3618 56.2913 37.0298 56.5031 36.6821C56.8699 36.0751 57.3599 35.3701 57.7551 34.7536C57.8531 34.5924 57.9511 34.4248 58.068 34.2541L58.381 33.7673Z" fill="#6DCAE4"/>
<path fill-rule="evenodd" clip-rule="evenodd" d="M61.1477 22.0162C59.6017 22.1775 58.2708 23.5938 58.4605 25.3452C58.6312 26.8975 60.0317 28.2348 61.8021 28.0388C64.4198 27.7353 65.463 24.5865 63.446 22.7212C62.8801 22.2028 61.9349 21.9372 61.1477 22.0162Z" fill="#6DCAE4"/>
<path d="M77.8495 31.412C77.9475 31.1275 78.172 30.9852 78.5197 30.9852C78.8675 30.9852 79.092 31.1275 79.19 31.412L79.9044 34.3996C79.9772 34.5861 79.9677 34.7758 79.8855 34.9528C79.797 35.1393 79.661 35.2658 79.465 35.3353C79.2785 35.4081 79.0888 35.3986 78.9023 35.3101C78.7221 35.231 78.5988 35.0856 78.5261 34.8991L78.33 33.6756L77.9001 34.9528C77.7483 35.2373 77.5239 35.3796 77.2299 35.3796C76.9264 35.3796 76.7019 35.2373 76.5597 34.9528L76.1297 33.6756L75.9337 34.8991C75.861 35.0856 75.7377 35.2279 75.5512 35.3101C75.371 35.3986 75.1844 35.4081 74.9979 35.3353C74.8019 35.2626 74.666 35.1393 74.5774 34.9528C74.4984 34.7758 74.4889 34.5861 74.5585 34.3996L75.273 31.412C75.371 31.1275 75.5954 30.9852 75.9432 30.9852C76.2909 30.9852 76.5154 31.1275 76.6134 31.412L77.2299 33.233L77.8495 31.412ZM81.5199 35.1678C81.3777 35.31 81.2069 35.3828 81.0015 35.3828C80.796 35.3828 80.6252 35.31 80.483 35.1678C80.3407 35.0255 80.268 34.8548 80.268 34.6493V31.7155C80.268 31.51 80.3407 31.3393 80.483 31.197C80.6252 31.0548 80.796 30.9821 81.0015 30.9821C81.2069 30.9821 81.3777 31.0548 81.5199 31.197C81.6622 31.3393 81.7349 31.51 81.7349 31.7155V32.6955L83.0469 31.197C83.1892 31.0548 83.3694 30.9821 83.5749 30.9821C83.7709 30.9821 83.9511 31.0548 84.0933 31.197C84.2356 31.3393 84.3083 31.51 84.3083 31.7155V34.6493C84.3083 34.8548 84.2356 35.0255 84.0933 35.1678C83.9511 35.31 83.7709 35.3828 83.5749 35.3828C83.3694 35.3828 83.1986 35.31 83.0564 35.1678C82.9046 35.0255 82.8319 34.8548 82.8319 34.6493V33.6693L81.5199 35.1678ZM86.1388 33.8811V34.6493C86.1388 34.8548 86.0661 35.0255 85.9238 35.1678C85.7815 35.31 85.6108 35.3828 85.4053 35.3828C85.1998 35.3828 85.0291 35.31 84.8868 35.1678C84.7446 35.0255 84.6719 34.8548 84.6719 34.6493V31.7155C84.6719 31.51 84.7446 31.3393 84.8868 31.197C85.0291 31.0548 85.1998 30.9821 85.4053 30.9821C85.6108 30.9821 85.7815 31.0548 85.9238 31.197C86.0661 31.3393 86.1388 31.51 86.1388 31.7155V32.4932H87.0587V31.7155C87.0587 31.51 87.1315 31.3393 87.2737 31.197C87.416 31.0548 87.5962 30.9821 87.7922 30.9821C87.9977 30.9821 88.1684 31.0548 88.3107 31.197C88.4624 31.3393 88.5351 31.51 88.5351 31.7155V34.6493C88.5351 34.8548 88.4624 35.0255 88.3107 35.1678C88.1684 35.31 87.9977 35.3828 87.7922 35.3828C87.5962 35.3828 87.416 35.31 87.2737 35.1678C87.1315 35.0255 87.0587 34.8548 87.0587 34.6493V33.8811H86.1388ZM89.6321 35.3796C89.4267 35.3796 89.2559 35.3069 89.1137 35.1646C88.9714 35.0224 88.8987 34.8517 88.8987 34.6462C88.8987 34.4407 88.9714 34.2699 89.1137 34.1277C89.2559 33.9854 89.4267 33.9127 89.6321 33.9127C89.8376 33.9127 90.0084 33.9854 90.1506 34.1277C90.2929 34.2699 90.3656 34.4407 90.3656 34.6462C90.3656 34.8517 90.2929 35.0224 90.1506 35.1646C90.0052 35.31 89.8376 35.3796 89.6321 35.3796ZM75.9937 37.4693C76.1992 37.4693 76.37 37.542 76.5217 37.6843C76.664 37.8265 76.7367 37.9973 76.7367 38.2028V41.0923C76.7367 41.2978 76.664 41.4748 76.5217 41.6171C76.37 41.7594 76.1992 41.8321 75.9937 41.8321C75.7977 41.8321 75.6176 41.7594 75.4753 41.6171C75.333 41.4748 75.2603 41.2946 75.2603 41.0923V38.9331C75.0548 38.9331 74.8841 38.8603 74.7418 38.7181C74.5996 38.5758 74.5269 38.3956 74.5269 38.1996C74.5269 37.9941 74.5996 37.8234 74.7418 37.6811C74.8841 37.5389 75.0548 37.4661 75.2603 37.4661H75.9937V37.4693ZM89.1042 40.1439C89.1295 40.0996 89.1674 40.0648 89.2117 40.0174C89.3445 39.8846 89.5247 39.8119 89.7207 39.8119C89.9262 39.8119 90.1032 39.8846 90.2486 40.0269C90.3909 40.1692 90.4636 40.3399 90.4636 40.5454C90.4636 40.5991 90.4541 40.6529 90.4446 40.6971C90.4257 40.8394 90.3277 41.0006 90.1506 41.1777C89.7144 41.6045 89.1959 41.8289 88.5889 41.8289C87.9819 41.8289 87.4634 41.6139 87.0335 41.1777C86.6035 40.7509 86.3822 40.2324 86.3822 39.6254C86.3822 39.0184 86.6067 38.4999 87.0335 38.0731C87.4634 37.6369 87.9787 37.4219 88.5889 37.4219C89.1959 37.4219 89.7144 37.6369 90.1506 38.0637C90.3308 38.2502 90.4288 38.4114 90.4446 38.5537C90.4541 38.5979 90.4636 38.6517 90.4636 38.7054C90.4636 38.9109 90.3909 39.0816 90.2486 39.2302C90.1064 39.363 89.9262 39.4357 89.7207 39.4357C89.5247 39.4357 89.3445 39.363 89.2117 39.2207C89.1674 39.186 89.1326 39.148 89.1042 39.1038C88.9619 38.9615 88.7912 38.8888 88.5857 38.8888C88.3802 38.8888 88.2095 38.9615 88.0672 39.1038C87.925 39.246 87.8523 39.4167 87.8523 39.6222C87.8523 39.8277 87.925 39.9984 88.0672 40.1407C88.2095 40.283 88.3802 40.3557 88.5857 40.3557C88.7912 40.3557 88.9619 40.2893 89.1042 40.1439ZM94.1151 37.8518C94.2131 37.5673 94.428 37.425 94.7758 37.425C95.1236 37.425 95.348 37.5673 95.446 37.8518L96.17 40.8394C96.2427 41.0354 96.2332 41.2156 96.1447 41.4021C96.0656 41.5887 95.9202 41.7151 95.7337 41.7783C95.5472 41.851 95.3575 41.8416 95.171 41.7594C94.9845 41.6708 94.858 41.5349 94.7947 41.3389L94.5987 40.1249L94.1625 41.4021C94.0202 41.6867 93.7957 41.8289 93.5017 41.8289C93.1982 41.8289 92.9738 41.6867 92.8315 41.4021L92.3952 40.1249L92.2087 41.3389C92.136 41.5349 92.0127 41.6677 91.8262 41.7594C91.646 41.8384 91.4595 41.8479 91.2635 41.7783C91.0769 41.7151 90.941 41.5918 90.8525 41.4021C90.7639 41.2156 90.7545 41.0354 90.8272 40.8394L91.5511 37.8518C91.6491 37.5673 91.8736 37.425 92.2214 37.425C92.5691 37.425 92.7936 37.5673 92.8916 37.8518L93.5081 39.6823L94.1151 37.8518ZM97.267 41.8321C97.0615 41.8321 96.8908 41.7594 96.7485 41.6171C96.6063 41.4748 96.5335 41.2946 96.5335 41.0923C96.5335 40.8963 96.6063 40.7161 96.7485 40.5738C96.8908 40.4316 97.0615 40.3588 97.267 40.3588C97.4725 40.3588 97.6432 40.4316 97.7855 40.5738C97.9277 40.7161 98.0004 40.8963 98.0004 41.0923C98.0004 41.2978 97.9277 41.4748 97.7855 41.6171C97.6432 41.7594 97.4725 41.8321 97.267 41.8321ZM79.1204 40.3241H79.5567C79.7622 40.3241 79.9329 40.3968 80.0752 40.539C80.2174 40.6813 80.2901 40.8615 80.2901 41.0575C80.2901 41.263 80.2174 41.4337 80.0752 41.5823C79.9329 41.7246 79.7622 41.7973 79.5567 41.7973H77.8685C77.663 41.7878 77.4923 41.7435 77.35 41.6455C77.1888 41.5191 77.1003 41.361 77.0655 41.165C77.0402 40.9595 77.0844 40.7825 77.2077 40.6212C78.3142 39.7202 78.877 39.2018 78.8865 39.0785C78.9054 38.9615 78.8327 38.9014 78.6715 38.9014C78.5197 38.9014 78.4312 38.9741 78.4122 39.1164C78.387 39.2049 78.349 39.2935 78.3142 39.3851C78.172 39.5274 77.9918 39.6001 77.7958 39.6001C77.5903 39.6001 77.4196 39.5274 77.2773 39.3851C77.1256 39.2429 77.0528 39.0627 77.0528 38.8667C77.0528 38.7876 77.0623 38.7054 77.0718 38.6359C77.0908 38.4936 77.1983 38.3071 77.3753 38.0731C77.8053 37.6463 78.232 37.4314 78.6715 37.4314C79.1078 37.4314 79.484 37.5578 79.7875 37.8076C80.1004 38.0479 80.2522 38.3956 80.2522 38.835C80.2522 39.2713 80.1004 39.6033 79.7875 39.8341C79.6294 39.9858 79.4049 40.1534 79.1204 40.3241ZM82.4241 41.8321C81.8076 41.8321 81.3524 41.6171 81.0489 41.1808C80.7359 40.754 80.5841 40.2355 80.5841 39.6286C80.5841 39.0216 80.7359 38.5031 81.0489 38.0763C81.3524 37.64 81.8076 37.425 82.4241 37.425C83.0311 37.425 83.4863 37.64 83.7898 38.0763C84.1028 38.5031 84.2546 39.0216 84.2546 39.6286C84.2546 40.2355 84.1028 40.754 83.7898 41.1808C83.4863 41.6171 83.0311 41.8321 82.4241 41.8321ZM82.4241 40.3588C82.5221 40.3588 82.6106 40.2861 82.6833 40.1439C82.7561 40.0016 82.7908 39.8309 82.7908 39.6254C82.7908 39.4199 82.7561 39.2492 82.6833 39.1069C82.6106 38.9647 82.5221 38.892 82.4241 38.892C82.3166 38.892 82.2281 38.9647 82.1554 39.1069C82.0827 39.2492 82.0479 39.4199 82.0479 39.6254C82.0479 39.8309 82.0827 40.0016 82.1554 40.1439C82.2281 40.2893 82.3166 40.3588 82.4241 40.3588Z" fill="#6DCAE4"/>
<path fill-rule="evenodd" clip-rule="evenodd" d="M41.8393 32.423H40.7691L40.6793 32.1825C40.6534 32.1003 40.6275 32.0272 40.5849 31.9633C40.5072 31.8385 40.3779 31.7273 40.2576 31.6619C39.8922 31.4807 36.7654 31.5416 36.5417 31.6101C36.0728 31.7654 35.2599 33.277 33.0023 33.277C30.7783 33.277 29.9364 31.7989 29.4935 31.6238C29.1966 31.5081 27.4338 31.5675 26.9725 31.5675C25.8628 31.5675 25.5964 31.4731 25.2995 32.2845C25.295 32.2967 25.2904 32.3104 25.2874 32.3195L25.231 32.423C24.7058 32.423 21.9794 32.388 21.6963 32.4398C21.2624 32.5174 20.9001 32.9634 21.0249 33.4841C21.1543 34.0169 21.5669 34.1371 22.1682 34.1371C22.0434 34.5192 21.713 34.8024 21.9185 35.3093C22.0479 35.632 22.3783 35.9106 22.8608 35.8375C23.6783 35.7127 23.7727 34.3639 24.1593 34.1356H25.2858C25.2858 34.4538 25.2432 35.0551 25.3498 35.3169C25.4609 35.6046 25.7243 35.8238 26.1201 35.8451C26.9451 35.8923 27.8616 35.836 28.7004 35.8497C28.7612 36.4601 28.7125 40.6267 28.7125 41.5887C28.708 42.1079 28.8069 42.3879 29.1464 42.5858C29.8345 42.9816 30.5362 42.1733 31.2015 41.98C31.3385 41.9419 32.0753 42.289 32.1392 42.4351V49.5671H33.8548V42.8827C33.8548 42.2175 33.7604 42.3073 34.1167 41.9511C34.2795 41.7927 34.5642 41.4563 34.7621 41.3543C34.925 41.569 35.8977 42.5706 36.1337 42.6513C36.5417 42.7883 36.9207 42.6041 37.0973 42.3849C37.3257 42.0972 37.2861 41.6542 37.2861 41.2341C37.2861 40.272 37.2343 36.4738 37.2952 35.8512C40.4007 35.7782 40.7143 36.3368 40.7143 34.1371C41.2654 34.1371 43.9735 34.1721 44.2795 34.125C44.9767 34.0169 45.3116 33.0807 44.619 32.5692C44.3997 32.4063 44.141 32.423 43.8365 32.423C43.9613 32.0272 44.2886 31.7487 44.077 31.2326C43.9568 30.9357 43.596 30.6526 43.1439 30.7211C42.3203 30.8459 42.2472 32.1947 41.8393 32.423Z" fill="white"/>
<path fill-rule="evenodd" clip-rule="evenodd" d="M30.4246 26.4297C29.4047 26.4297 27.7576 26.1283 27.8611 27.3614C27.9555 28.4483 29.3529 28.0829 30.5616 28.1469C30.519 28.6584 30.3424 28.8213 30.4749 29.4865C30.5616 29.9203 30.7413 30.2644 30.9559 30.5597C31.9363 31.8993 34.0949 31.8993 35.0752 30.5125C35.7801 29.5154 35.535 28.9065 35.4315 28.1454C36.6356 28.0631 38.0513 28.4589 38.1366 27.3629C38.2355 26.1298 36.5503 26.4267 35.573 26.4267C35.5563 25.8771 35.637 23.854 35.5045 23.5191C35.3279 23.0852 34.9245 23 34.515 23H31.5222C29.9817 22.997 30.4886 24.23 30.4246 26.4297Z" fill="white"/>
</svg>
