<svg width="108" height="64" viewBox="0 0 108 64" fill="none" xmlns="http://www.w3.org/2000/svg">
<path d="M86.397 20.9372L86.5837 21.3136L86.9867 21.1944C88.7435 20.675 90.4881 20.3669 92.3429 20.3669C100.73 20.3669 107.5 26.4521 107.5 33.7536C107.5 40.5479 101.652 46.3219 93.9495 47.3569L93.5765 47.407L93.5215 47.7793C92.6076 53.9597 86.5211 58.9071 79.0761 58.9071C77.6895 58.9071 76.2954 58.7019 75.0105 58.3911L74.7942 58.3387L74.6106 58.4644C70.5151 61.2665 64.9971 63.0413 58.9967 63.0413C52.8756 63.0413 47.3615 61.266 43.2705 58.3632L42.9876 58.1625L42.7005 58.3572C40.75 59.6801 38.3376 60.4972 35.571 60.4972C32.1244 60.4972 29.0208 59.0703 26.8373 56.9299L26.5812 56.6788L26.2613 56.841C23.8285 58.0739 21.0387 58.695 18.1209 58.695C8.66021 58.695 1.1709 51.8699 1.1709 43.7182C1.1709 37.807 5.07922 32.7698 10.6745 30.2885L11.0499 30.1221L10.9595 29.7215C10.8542 29.2544 10.8521 28.7798 10.8521 28.2414C10.8521 20.4098 17.9803 14.0065 26.9653 14.0065H26.9667H26.9681H26.9695H26.9709H26.9723H26.9737H26.9751H26.9765H26.9779H26.9793H26.9807H26.9821H26.9835H26.9849H26.9863H26.9877H26.9891H26.9905H26.9919H26.9933H26.9947H26.9961H26.9975H26.9989H27.0003H27.0017H27.0031H27.0045H27.0059H27.0073H27.0087H27.0101H27.0115H27.0129H27.0143H27.0157H27.0171H27.0185H27.0199H27.0213H27.0227H27.0241H27.0255H27.0269H27.0283H27.0297H27.0311H27.0325H27.0339H27.0353H27.0367H27.0381H27.0395H27.0409H27.0423H27.0437H27.0451H27.0465H27.0479H27.0493H27.0507H27.0521H27.0535H27.0549H27.0563H27.0577H27.0591H27.0605H27.0619H27.0633H27.0647H27.0661H27.0675H27.0689H27.0703H27.0717H27.0731H27.0745H27.0759H27.0773H27.0787H27.0801H27.0816H27.083H27.0844H27.0858H27.0872H27.0886H27.09H27.0914H27.0928H27.0942H27.0956H27.097H27.0984H27.0998H27.1012H27.1026H27.104H27.1054H27.1068H27.1082H27.1096H27.111H27.1124H27.1138H27.1152H27.1166H27.118H27.1194H27.1208H27.1222H27.1236H27.125H27.1264H27.1278H27.1292H27.1306H27.132H27.1334H27.1348H27.1362H27.1376H27.139H27.1404H27.1418H27.1432H27.1446H27.146H27.1474H27.1488H27.1502H27.1516H27.153H27.1544H27.1558H27.1572H27.1586H27.16H27.1614H27.1628H27.1642H27.1656H27.167H27.1684H27.1698H27.1712H27.1726H27.174H27.1754H27.1768H27.1782H27.1796H27.181H27.1824H27.1838H27.1852H27.1866H27.188H27.1894H27.1908H27.1922H27.1936H27.195H27.1964H27.1978H27.1992H27.2006H27.202H27.2034H27.2048H27.2062H27.2076H27.209H27.2104H27.2118H27.2132H27.2146H27.216H27.2174H27.2188H27.2202H27.2216H27.223H27.2244H27.2258H27.2272H27.2286H27.23H27.2314H27.2328H27.2342H27.2356H27.237H27.2384H27.2399H27.2413H27.2427H27.2441H27.2455H27.2469H27.2483H27.2497H27.2511H27.2525H27.2539H27.2553H27.2567H27.2581H27.2595H27.2609H27.2623H27.2637H27.2651H27.2665H27.2679H27.2693H27.2707H27.2721H27.2735H27.2749H27.2763H27.2777H27.2791H27.2805H27.2819H27.2833H27.2847H27.2861H27.2875H27.2889H27.2903H27.2917H27.2931H27.2945H27.2959H27.2973H27.2987H27.3001H27.3015H27.3029H27.3043H27.3057H27.3071H27.3085H27.3099H27.3113H27.3127H27.3141H27.3155H27.3169H27.3183H27.3197H27.3211H27.3225H27.3239H27.3253H27.3267H27.3281H27.3295H27.3309H27.3323H27.3337H27.3351H27.3365H27.3379H27.3393H27.3407H27.3421H27.3435H27.3449H27.3463H27.3477H27.3491H27.3505H27.3519H27.3533H27.3547H27.3561H27.3575H27.3589H27.3603H27.3617H27.3631H27.3645H27.3659H27.3673H27.3687H27.3701H27.3715H27.3729H27.3743H27.3757H27.3771H27.3785H27.3799H27.3813H27.3827H27.3841H27.3856H27.387H27.3884H27.3898H27.3912H27.3926H27.394H27.3954H27.3968H27.3982H27.3996H27.401H27.4024H27.4038H27.4052H27.4066H27.408H27.4094H27.4108H27.4122H27.4136H27.415H27.4164H27.4178H27.4192H27.4206H27.422H27.4234H27.4248H27.4262H27.4276H27.429H27.4304H27.4318H27.4332H27.4346H27.436H27.4374H27.4388H27.4402H27.4416H27.443H27.4444H27.4458H27.4472H27.4486H27.45H27.4514H27.4528H27.4542H27.4556H27.457H27.4584H27.4598H27.4612H27.4626H27.464H27.4654H27.4668H27.4682H27.4696H27.471H27.4724H27.4738H27.4752H27.4766H27.478H27.4794H27.4808H27.4822H27.4836H27.485H27.4864H27.4878H27.4892H27.4906H27.492H27.4934H27.4948H27.4962H27.4976H27.499H27.5004H27.5018H27.5032H27.5046H27.506H27.5074H27.5088H27.5102H27.5116H27.513H27.5144H27.5158H27.5172H27.5186H27.52H27.5214H27.5228H27.5242H27.5256H27.527H27.5284H27.5298H27.5312H27.5326H27.534H27.5354H27.5368H27.5382H27.5396H27.5411H27.5425H27.5439H27.5453H27.5467H27.5481H27.5495H27.5509H27.5523H27.5537H27.5551H27.5565H27.5579H27.5593H27.5607H27.5621H27.5635H27.5649H27.5663H27.5677H27.5691H27.5705H27.5719H27.5733H27.5747H27.5761H27.5775H27.5789H27.5803H27.5817H27.5831H27.5845H27.5859H27.5873H27.5887H27.5901H27.5915H27.5929H27.5943H27.5957H27.5971H27.5985H27.5999H27.6013H27.6027H27.6041H27.6055H27.6069H27.6083H27.6097H27.6111H27.6125H27.6139H27.6153H27.6167H27.6181H27.6195H27.6209H27.6223H27.6237H27.6251H27.6265H27.6279H27.6293H27.6307H27.6321H27.6335H27.6349H27.6363H27.6377H27.6391H27.6405H27.6419H27.6433H27.6447H27.6461H27.6475H27.6489H27.6503H27.6517H27.6531H27.6545H27.6559H27.6573H27.6587H27.6601H27.6615H27.6629H27.6643H27.6657H27.6671H27.6685H27.6699H27.6713H27.6727H27.6741H27.6755H27.6769H27.6783H27.6797H27.6811H27.6825H28.0237L28.1481 13.6888C31.0531 6.2685 39.1002 0.861816 48.4789 0.861816C57.2732 0.861816 64.7404 5.43643 68.113 12.0379L68.2728 12.3506L68.6211 12.3065C69.4601 12.2002 70.2673 12.0984 71.1877 12.0984C78.0624 12.0984 83.8576 15.8183 86.397 20.9372Z" fill="white" stroke="#6DCAE4"/>
<circle cx="33.012" cy="36.1475" r="16.0023" fill="#6DCAE4"/>
<path d="M71.1289 47.2761V25.5267L72.0701 26.1086V46.9708L71.1289 47.2761Z" fill="#6DCAE4"/>
<path fill-rule="evenodd" clip-rule="evenodd" d="M72.0696 23.5967C72.1968 23.7493 73.049 24.6205 73.1825 24.6905C73.5768 24.9162 74.0347 24.4488 73.8121 24.0609C73.6944 23.8542 72.9504 23.1642 72.7246 22.9384C71.4591 21.6729 71.7103 21.7015 70.4702 22.9384C70.2285 23.1801 69.5449 23.8097 69.3827 24.0418C69.1029 24.4552 69.6085 24.9131 69.9837 24.6968C70.1363 24.6078 70.9631 23.7652 71.1157 23.5839L71.1348 26.6269C71.1348 26.8591 71.0362 27.4441 71.5736 27.4696C72.13 27.5045 72.0601 26.8781 72.0601 26.6428L72.0696 23.5967Z" fill="#6DCAE4"/>
<path fill-rule="evenodd" clip-rule="evenodd" d="M72.0696 49.4129C72.1968 49.2602 73.049 48.389 73.1825 48.3095C73.5768 48.0837 74.0347 48.5512 73.8121 48.9391C73.6944 49.1458 72.9504 49.8358 72.7246 50.0615C71.4591 51.3271 71.7103 51.2984 70.4702 50.0615C70.2285 49.8199 69.5449 49.1903 69.3827 48.9582C69.1029 48.5448 69.6085 48.0869 69.9837 48.3031C70.1363 48.3922 70.9631 49.2348 71.1157 49.416L71.1348 46.3826C71.1348 46.1409 71.0362 45.5559 71.5736 45.5304C72.13 45.505 72.0601 46.1314 72.0601 46.3571L72.0696 49.4129Z" fill="#6DCAE4"/>
<path fill-rule="evenodd" clip-rule="evenodd" d="M58.4064 33.8354C58.4318 34.2297 58.2728 37.0564 58.2442 37.721C58.1361 40.322 57.9835 42.9358 57.8944 45.5272C57.8754 46.1632 57.8595 46.8468 57.815 47.4732L57.7355 49.4033C57.815 50.5608 59.1632 51.1427 60.152 50.4368C60.6385 50.087 60.718 49.575 60.753 48.9932L61.3826 39.9659C61.3921 39.7592 61.3572 39.6511 61.5162 39.5716C61.6783 39.6352 61.6433 39.7242 61.6592 39.9214L62.2888 48.9582C62.3334 49.6227 62.4605 50.1156 62.8739 50.4209C63.9073 51.184 65.1728 50.548 65.3 49.4161C65.3255 49.1649 64.8326 38.4682 64.7976 37.7496C64.7786 37.1041 64.61 34.2138 64.6355 33.8386C64.8962 34.1788 66.2444 36.2965 66.5211 36.7385C66.7373 37.0787 66.8804 37.403 67.2588 37.6097C68.1205 38.0867 69.0839 37.4126 69.0458 36.5064C69.0267 36.023 68.7405 35.7432 68.5434 35.4125C68.3367 35.0723 68.1491 34.7575 67.9519 34.4077C67.1697 33.0532 65.3732 29.4982 64.2698 28.4839C63.9105 28.1532 63.6688 28.0705 63.0742 28.1055C61.548 28.2041 61.548 28.2136 60.0121 28.115C59.4557 28.0705 59.0773 28.1691 58.7911 28.4743C58.3873 28.8973 58.4509 28.7701 58.0534 29.3361C57.8277 29.6508 57.621 29.9656 57.4238 30.3059C56.5971 31.705 55.8976 32.9991 55.1058 34.3887C54.9087 34.7384 54.7115 35.0691 54.5144 35.3934C54.4063 35.5715 54.3172 35.6987 54.2091 35.8704C53.5255 36.9102 54.6416 38.2043 55.7736 37.6193C56.1138 37.4476 56.3046 37.1169 56.5176 36.7671C56.8865 36.1566 57.3793 35.4475 57.7768 34.8274C57.8754 34.6653 57.9739 34.4968 58.0916 34.3251L58.4064 33.8354Z" fill="#6DCAE4"/>
<path fill-rule="evenodd" clip-rule="evenodd" d="M61.1926 22.0163C59.6377 22.1785 58.2991 23.603 58.4899 25.3646C58.6616 26.9258 60.0702 28.2708 61.8508 28.0642C64.4837 27.7684 65.533 24.6014 63.4948 22.7254C62.9351 22.2039 61.9844 21.9368 61.1926 22.0163Z" fill="#6DCAE4"/>
<path d="M77.9904 31.4665C78.089 31.1803 78.3148 31.0372 78.6645 31.0372C79.0143 31.0372 79.2401 31.1803 79.3291 31.4665L80.0573 34.4713C80.1304 34.659 80.1209 34.8497 80.0382 35.0278C79.9492 35.2154 79.8061 35.3426 79.6153 35.4126C79.4277 35.4857 79.2369 35.4761 79.0493 35.3871C78.868 35.3076 78.744 35.1614 78.6709 34.9737L78.4737 33.7432L78.0413 35.0278C77.8887 35.314 77.6629 35.4571 77.3672 35.4571C77.062 35.4571 76.8362 35.314 76.6931 35.0278L76.2543 33.7432L76.0667 34.9737C75.9936 35.1614 75.8696 35.3044 75.682 35.3871C75.5007 35.4761 75.3131 35.4857 75.116 35.4126C74.9283 35.3394 74.7916 35.2154 74.7026 35.0278C74.6231 34.8497 74.6136 34.659 74.6835 34.4713L75.4021 31.4665C75.5007 31.1803 75.7265 31.0372 76.0762 31.0372C76.426 31.0372 76.6518 31.1803 76.7503 31.4665L77.3704 33.298L77.9904 31.4665ZM81.6821 35.244C81.539 35.3871 81.3673 35.4602 81.1606 35.4602C80.9539 35.4602 80.7822 35.3871 80.6391 35.244C80.4961 35.1009 80.4229 34.9292 80.4229 34.7225V31.7718C80.4229 31.5651 80.4961 31.3934 80.6391 31.2503C80.7822 31.1072 80.9539 31.0341 81.1606 31.0341C81.3673 31.0341 81.539 31.1072 81.6821 31.2503C81.8252 31.3934 81.8983 31.5651 81.8983 31.7718V32.7575L83.2179 31.2503C83.361 31.1072 83.5422 31.0341 83.7489 31.0341C83.9461 31.0341 84.1273 31.1072 84.2704 31.2503C84.4135 31.3934 84.4866 31.5651 84.4866 31.7718V34.7225C84.4866 34.9292 84.4135 35.1009 84.2704 35.244C84.1273 35.3871 83.9461 35.4602 83.7489 35.4602C83.5422 35.4602 83.3642 35.3871 83.2274 35.244C83.0748 35.1009 83.0017 34.9292 83.0017 34.7225V33.7368L81.6821 35.244ZM86.3277 33.9499V34.7225C86.3277 34.9292 86.2546 35.1009 86.1115 35.244C85.9684 35.3871 85.7967 35.4602 85.59 35.4602C85.3833 35.4602 85.2116 35.3871 85.0685 35.244C84.9254 35.1009 84.8523 34.9292 84.8523 34.7225V31.7718C84.8523 31.5651 84.9254 31.3934 85.0685 31.2503C85.2116 31.1072 85.3833 31.0341 85.59 31.0341C85.7967 31.0341 85.9684 31.1072 86.1115 31.2503C86.2546 31.3934 86.3277 31.5651 86.3277 31.7718V32.5444H87.253V31.7718C87.253 31.5651 87.3261 31.3934 87.4692 31.2503C87.6123 31.1072 87.7935 31.0341 87.9907 31.0341C88.1974 31.0341 88.3691 31.1072 88.5122 31.2503C88.6648 31.3934 88.7379 31.5651 88.7379 31.7718V34.7225C88.7379 34.9292 88.6648 35.1009 88.5122 35.244C88.3691 35.3871 88.1974 35.4602 87.9907 35.4602C87.7935 35.4602 87.6123 35.3871 87.4692 35.244C87.3261 35.1009 87.253 34.9292 87.253 34.7225V33.9499H86.3277ZM89.8413 35.4602C89.6346 35.4602 89.4629 35.3871 89.3198 35.244C89.1767 35.1009 89.1036 34.9292 89.1036 34.7225C89.1036 34.5159 89.1767 34.3442 89.3198 34.2011C89.4629 34.058 89.6346 33.9848 89.8413 33.9848C90.048 33.9848 90.2197 34.058 90.3628 34.2011C90.5059 34.3442 90.579 34.5159 90.579 34.7225C90.579 34.9292 90.5059 35.1009 90.3628 35.244C90.2165 35.3871 90.0448 35.4602 89.8413 35.4602ZM86.811 40.2489C86.846 40.2044 86.8841 40.1694 86.9191 40.1217C87.0622 39.9882 87.2339 39.915 87.4406 39.915C87.6473 39.915 87.819 39.9882 87.9621 40.1313C88.1052 40.2744 88.1783 40.4461 88.1783 40.6527C88.1783 40.7068 88.1783 40.7609 88.1592 40.8054C88.1401 40.9485 88.0416 41.1106 87.8635 41.2887C87.4311 41.718 86.9128 41.9437 86.2991 41.9437C85.6886 41.9437 85.1671 41.7275 84.7283 41.2887C84.2958 40.8594 84.0828 40.338 84.0828 39.7274C84.0828 39.1169 84.299 38.5955 84.7283 38.1662C85.1671 37.7274 85.6886 37.5112 86.2991 37.5112C86.9096 37.5112 87.4311 37.7274 87.8635 38.1567C88.0447 38.3443 88.1433 38.5064 88.1592 38.6495C88.1783 38.694 88.1783 38.7481 88.1783 38.8021C88.1783 39.0088 88.1052 39.1805 87.9621 39.3236C87.819 39.4667 87.6473 39.5398 87.4406 39.5398C87.2339 39.5398 87.0622 39.4667 86.9191 39.3236C86.8841 39.2886 86.846 39.2505 86.811 39.206C86.6775 39.0629 86.4962 38.9898 86.2991 38.9898C86.0924 38.9898 85.9143 39.0629 85.7681 39.206C85.625 39.3491 85.5518 39.5208 85.5518 39.7274C85.5518 39.9341 85.625 40.1058 85.7681 40.2489C85.9111 40.392 86.0924 40.4651 86.2991 40.4651C86.4994 40.4651 86.6775 40.3952 86.811 40.2489ZM91.8509 37.9436C91.9494 37.6574 92.1752 37.5144 92.525 37.5144C92.8748 37.5144 93.1005 37.6574 93.1991 37.9436L93.9273 40.9485C93.9908 41.1361 93.9813 41.3269 93.9018 41.5145C93.8128 41.6925 93.676 41.8292 93.4789 41.8928C93.2913 41.966 93.1005 41.9564 92.9129 41.8738C92.7317 41.7847 92.6077 41.648 92.5345 41.4509L92.3374 40.2298L91.9049 41.5145C91.7523 41.8006 91.5361 41.9437 91.2308 41.9437C90.9351 41.9437 90.7094 41.8006 90.5567 41.5145L90.1243 40.2298L89.9271 41.4509C89.854 41.648 89.73 41.7815 89.5488 41.8738C89.3612 41.9533 89.1704 41.9628 88.9828 41.8928C88.7856 41.8292 88.6489 41.6957 88.5599 41.5145C88.4804 41.3269 88.4708 41.1361 88.5408 40.9485L89.2594 37.9436C89.358 37.6574 89.5837 37.5144 89.9335 37.5144C90.2833 37.5144 90.509 37.6574 90.6076 37.9436L91.2277 39.7847L91.8509 37.9436ZM95.0242 41.9469C94.8176 41.9469 94.6459 41.8738 94.5028 41.7307C94.3597 41.5876 94.2866 41.4063 94.2866 41.2028C94.2866 41.0057 94.3597 40.8244 94.5028 40.6814C94.6459 40.5383 94.8176 40.4651 95.0242 40.4651C95.2309 40.4651 95.4026 40.5383 95.5457 40.6814C95.6888 40.8244 95.7619 41.0057 95.7619 41.2028C95.7619 41.4095 95.6888 41.5876 95.5457 41.7307C95.3995 41.8738 95.2309 41.9469 95.0242 41.9469ZM76.2829 38.8594C76.2034 38.8594 76.1207 38.8944 76.0667 38.958C76.0031 39.012 75.9681 39.0915 75.9681 39.1742C75.9681 39.2632 76.0031 39.3363 76.0667 39.3999C76.1207 39.4635 76.2003 39.489 76.2829 39.489C76.372 39.489 76.4451 39.4635 76.5087 39.3999C76.5723 39.3363 76.5977 39.2664 76.5977 39.1742C76.5977 39.0947 76.5723 39.012 76.5087 38.958C76.4451 38.8944 76.3751 38.8594 76.2829 38.8594ZM75.7265 40.5923C75.2145 40.4747 74.8902 40.1694 74.728 39.6861C74.5754 39.1933 74.6104 38.7449 74.8457 38.3506C75.0714 37.9563 75.4117 37.7051 75.8505 37.578C76.2988 37.4603 76.7122 37.5143 77.1096 37.7401C77.5135 37.9722 77.7647 38.3061 77.8823 38.7544C78 39.1932 77.9459 39.6162 77.7202 40.0104L76.8139 41.5717C76.7154 41.7498 76.5627 41.8674 76.3656 41.9119C76.1684 41.966 75.9872 41.9469 75.8091 41.8388C75.6279 41.7402 75.5134 41.5876 75.4689 41.3904C75.4148 41.1933 75.4339 41.0121 75.542 40.834L75.7265 40.5923ZM80.0922 41.9469C79.4817 41.9469 79.0238 41.7307 78.709 41.2919C78.4038 40.8626 78.2512 40.3411 78.2512 39.7306C78.2512 39.1201 78.4038 38.5986 78.709 38.1694C79.0238 37.7306 79.4817 37.5144 80.0922 37.5144C80.7027 37.5144 81.1702 37.7306 81.4754 38.1694C81.7807 38.5986 81.9428 39.1201 81.9428 39.7306C81.9428 40.3411 81.7807 40.8626 81.4754 41.2919C81.1702 41.7307 80.7027 41.9469 80.0922 41.9469ZM80.0922 40.4651C80.2003 40.4651 80.2894 40.392 80.3625 40.2489C80.4261 40.1058 80.4611 39.9341 80.4611 39.7274C80.4611 39.5208 80.4261 39.3491 80.3625 39.206C80.2894 39.0629 80.2003 38.9898 80.0922 38.9898C79.9841 38.9898 79.8951 39.0629 79.8315 39.206C79.7584 39.3491 79.7234 39.5208 79.7234 39.7274C79.7234 39.9341 79.7584 40.1058 79.8315 40.2489C79.8951 40.3952 79.9841 40.4651 80.0922 40.4651Z" fill="#6DCAE4"/>
<path fill-rule="evenodd" clip-rule="evenodd" d="M24.0646 34.4036C23.8922 34.3488 23.7229 34.2666 23.5682 34.1763L23.3087 33.9893C23.3038 33.9893 23.299 33.9845 23.299 33.9845L23.0395 33.725C22.6204 33.1882 22.6075 32.8239 22.5704 32.7562C22.543 32.7159 22.5607 32.7288 22.493 32.7159L22.1416 32.6982C21.7499 32.6982 21.6274 32.7385 21.3034 32.8255C20.9214 32.9206 20.4475 33.2124 20.1509 33.4767C20.1332 33.4945 20.138 33.4896 20.1187 33.5041C20.1058 33.5138 20.0864 33.5315 20.0784 33.5412L19.5368 34.1957C19.3723 34.4407 19.2498 34.7453 19.1547 35.0274C19.0725 35.2773 19.0822 35.2821 19.0403 35.519C19.0177 35.6512 19.0032 35.7367 19 35.814V36.2557C19 36.2686 19 36.2831 19 36.296V36.3508C19 36.4233 19.0097 36.4733 19.0177 36.5426L19.0903 36.9424C19.1499 37.2019 19.3595 37.7467 19.519 37.9659C19.5593 38.0207 19.5835 38.0562 19.619 38.1159C19.6834 38.2206 19.764 38.298 19.8285 38.3979C19.9107 38.3979 20.1751 38.2706 20.3927 38.248C20.4604 38.2432 20.433 38.2432 20.4926 38.2303C20.6151 38.1981 21.1035 38.19 21.2712 38.2255C21.7902 38.3399 21.7177 38.3302 22.1771 38.5204C22.4366 38.6349 22.5511 38.6607 22.8154 38.7155C22.8557 38.7252 22.8928 38.7203 22.9331 38.7284C23.3425 38.7832 23.4295 38.7413 23.7987 38.6881C24.0405 38.6478 24.3048 38.5333 24.5095 38.4382C24.5369 38.4253 24.5547 38.4157 24.5917 38.4011L24.8561 38.3109C25.2204 38.1884 25.5444 38.1964 25.9216 38.2206C26.0215 38.2254 26.0392 38.2529 26.144 38.248C26.2859 38.2529 26.6034 38.3754 26.7308 38.4302C27.008 38.5623 27.3046 38.6752 27.6141 38.7123L27.9462 38.7622C28.7698 38.7493 29.1164 38.3979 29.795 38.2706C30.2641 38.1835 30.7735 38.2061 31.1974 38.3351C31.7487 38.5027 31.5617 38.5623 32.3725 38.7171C32.8512 38.8074 33.3332 38.7574 33.7652 38.63C33.9699 38.5704 34.1343 38.4898 34.3245 38.4157C34.5389 38.3335 34.7162 38.2932 34.9435 38.2512C35.7769 38.0917 36.1186 38.493 36.8101 38.6607C36.9149 38.6881 37.0197 38.7058 37.1341 38.7203C37.2759 38.7332 37.3839 38.7251 37.521 38.7332C37.7708 38.7509 37.9771 38.7783 38.2399 38.7461C39.091 38.6413 39.3779 38.2996 40.071 38.2367C40.5852 38.1868 41.022 38.2367 41.4557 38.3915C41.907 38.5511 42.0698 38.6865 42.6485 38.7461C43.2674 38.8106 43.7817 38.6865 44.283 38.4592C44.5876 38.3222 44.8745 38.2674 45.2211 38.2222C45.4758 38.19 45.7272 38.2222 45.9545 38.2545C46.2737 38.2996 46.4961 38.3995 46.5928 38.4141C46.6299 38.3592 46.6976 38.2867 46.7347 38.2416C46.8572 38.0965 47.0442 37.8047 47.1167 37.6452C47.2763 37.3228 47.3585 37.0681 47.4359 36.6587C47.5809 35.8849 47.3859 35.0983 47.0764 34.5213C46.6348 33.6927 45.7837 33.0286 44.881 32.8239C44.6811 32.7788 44.5167 32.7594 44.2975 32.7417C44.175 32.732 43.7913 32.7288 43.7011 32.782C43.6688 32.8465 43.6414 32.9916 43.606 33.0738C43.4738 33.3655 43.3835 33.5735 43.1466 33.8104C42.742 34.215 42.0988 34.5422 41.5072 34.5422C37.4532 34.5438 26.497 35.1177 24.0646 34.4036Z" fill="white"/>
<path fill-rule="evenodd" clip-rule="evenodd" d="M26.1448 41.6315C26.2319 41.6186 26.3947 41.6137 26.4962 41.604C27.1104 41.5589 27.4714 41.4396 28.0453 41.272C28.2548 41.2075 28.4418 41.1769 28.6788 41.1398C29.6395 40.9948 30.4632 41.1027 31.3159 41.3671C32.1363 41.6266 33.0777 41.704 33.9884 41.5396C34.9862 41.3574 35.3408 41.0528 36.5336 41.0754C37.9231 41.0979 38.0956 41.4122 39.0789 41.5525C40.0815 41.6975 40.8552 41.6169 41.7385 41.3429C41.9384 41.2833 42.1206 41.2285 42.3349 41.1833C42.5574 41.1382 42.7814 41.1189 42.9991 41.0931C43.4633 41.0334 43.9694 41.0931 44.4014 41.1527C44.8302 41.2124 45.1945 41.3623 45.5991 41.4622C45.9682 41.5525 46.5276 41.6492 46.9418 41.6218V39.7842C45.9086 39.7165 45.9134 39.702 45.0156 39.4425C44.806 39.378 44.611 39.3474 44.3966 39.3022C43.5729 39.1378 42.4478 39.2474 41.7369 39.4973C40.9487 39.7697 39.9558 39.8471 39.0547 39.702C38.6356 39.6375 38.2665 39.5021 37.857 39.3925C37.0414 39.1781 35.9904 39.1701 35.1748 39.3796C33.982 39.6843 33.9223 39.8068 32.5603 39.7568C32.1041 39.7439 31.6995 39.6198 31.303 39.515C31.2079 39.4876 31.1111 39.4505 31.0112 39.4247C30.5518 39.3071 30.4744 39.3248 30.0553 39.2523C29.691 39.1926 29.0028 39.2297 28.653 39.2926C28.0614 39.3973 27.9792 39.4473 27.4424 39.5924C27.2006 39.6601 26.3673 39.81 26.1271 39.7649C26.0868 39.7552 26.0949 39.7697 26.0401 39.7697L24.8875 39.6472L23.3433 39.2652C23.2708 39.2523 23.1741 39.2555 23.1015 39.2378C22.8468 39.183 22.3826 39.22 22.1263 39.2249C22.0264 39.2249 21.9893 39.2474 21.9039 39.2523C21.7588 39.2619 21.6895 39.2797 21.5621 39.2974L20.8239 39.4795C20.6466 39.5392 20.1775 39.6665 20.0034 39.6843C19.926 39.6939 19.8616 39.6972 19.789 39.7165C19.6746 39.7487 19.0782 39.7536 19.0556 39.7713C19.0282 39.7987 19.0234 41.596 19.0556 41.6234C19.1104 41.683 19.8164 41.596 19.926 41.5734L20.3129 41.5009C20.5079 41.4509 20.5128 41.4606 20.7546 41.3832C20.7771 41.3735 20.7868 41.3735 20.8142 41.3655C20.869 41.3526 20.8787 41.3429 20.9367 41.3252L21.5702 41.1753C22.0344 41.1108 22.4165 41.0528 22.9 41.1076L23.7205 41.2172C23.7608 41.2269 23.793 41.2349 23.8527 41.2494C23.9172 41.2591 23.9397 41.272 23.98 41.2817L24.462 41.4219C24.5345 41.4445 24.6312 41.4719 24.7086 41.4896L25.2422 41.5944C25.4033 41.6137 25.9852 41.6589 26.1448 41.6315Z" fill="white"/>
<path fill-rule="evenodd" clip-rule="evenodd" d="M29.4662 28.022C29.1696 28.0768 29.0519 28.0816 28.7601 28.2364C28.1315 28.5781 27.7317 29.2729 27.7994 30.0611C27.9268 31.5844 29.903 32.3758 31.0652 31.0895C31.3747 30.7445 31.5439 30.2755 31.502 29.6839C31.4279 28.6345 30.3398 27.8576 29.4662 28.022Z" fill="white"/>
<path fill-rule="evenodd" clip-rule="evenodd" d="M36.6567 28.022C36.3601 28.0768 36.2424 28.0816 35.9507 28.2364C35.3172 28.5781 34.9222 29.2729 34.9899 30.0611C35.1173 31.5844 37.0935 32.3758 38.2557 31.0895C38.5652 30.7445 38.7344 30.2755 38.6925 29.6839C38.6184 28.6345 37.5303 27.8576 36.6567 28.022Z" fill="white"/>
<path fill-rule="evenodd" clip-rule="evenodd" d="M26.8066 35.1H32.4903V33.6122C32.4903 32.7982 31.8262 32.1292 31.0057 32.1292H28.2961C27.4756 32.1292 26.8066 32.7982 26.8066 33.6122V35.1Z" fill="white"/>
<path fill-rule="evenodd" clip-rule="evenodd" d="M33.9971 35.1H39.6807V33.6122C39.6807 32.7982 39.0118 32.1292 38.1961 32.1292H35.4865C34.666 32.1292 33.9971 32.7982 33.9971 33.6122V35.1Z" fill="white"/>
</svg>
