<svg width="108" height="64" viewBox="0 0 108 64" fill="none" xmlns="http://www.w3.org/2000/svg">
<path d="M85.7261 20.9372L85.9128 21.3136L86.3158 21.1944C88.0726 20.675 89.8172 20.3669 91.672 20.3669C100.059 20.3669 106.829 26.4521 106.829 33.7536C106.829 40.5479 100.981 46.3219 93.2786 47.3569L92.9056 47.407L92.8506 47.7793C91.9367 53.9597 85.8502 58.9071 78.4052 58.9071C77.0186 58.9071 75.6245 58.7019 74.3396 58.3911L74.1233 58.3387L73.9397 58.4644C69.8442 61.2665 64.3262 63.0413 58.3258 63.0413C52.2047 63.0413 46.6906 61.266 42.5996 58.3632L42.3167 58.1625L42.0296 58.3572C40.0791 59.6801 37.6667 60.4972 34.9001 60.4972C31.4535 60.4972 28.3499 59.0703 26.1664 56.9299L25.9103 56.6788L25.5904 56.841C23.1576 58.0739 20.3678 58.695 17.45 58.695C7.98931 58.695 0.5 51.8699 0.5 43.7182C0.5 37.807 4.40833 32.7698 10.0036 30.2885L10.379 30.1221L10.2886 29.7215C10.1833 29.2544 10.1812 28.7798 10.1812 28.2414C10.1812 20.4098 17.3094 14.0065 26.2944 14.0065H26.2958H26.2972H26.2986H26.3H26.3014H26.3028H26.3042H26.3056H26.307H26.3084H26.3098H26.3112H26.3126H26.314H26.3154H26.3168H26.3182H26.3196H26.321H26.3224H26.3238H26.3252H26.3266H26.328H26.3294H26.3308H26.3322H26.3336H26.335H26.3364H26.3378H26.3392H26.3406H26.342H26.3434H26.3448H26.3462H26.3476H26.349H26.3504H26.3518H26.3532H26.3546H26.356H26.3574H26.3588H26.3602H26.3616H26.363H26.3644H26.3658H26.3672H26.3686H26.37H26.3714H26.3728H26.3742H26.3756H26.377H26.3784H26.3798H26.3812H26.3826H26.384H26.3854H26.3868H26.3882H26.3896H26.391H26.3924H26.3938H26.3952H26.3966H26.398H26.3994H26.4008H26.4022H26.4036H26.405H26.4065H26.4079H26.4093H26.4107H26.4121H26.4135H26.4149H26.4163H26.4177H26.4191H26.4205H26.4219H26.4233H26.4247H26.4261H26.4275H26.4289H26.4303H26.4317H26.4331H26.4345H26.4359H26.4373H26.4387H26.4401H26.4415H26.4429H26.4443H26.4457H26.4471H26.4485H26.4499H26.4513H26.4527H26.4541H26.4555H26.4569H26.4583H26.4597H26.4611H26.4625H26.4639H26.4653H26.4667H26.4681H26.4695H26.4709H26.4723H26.4737H26.4751H26.4765H26.4779H26.4793H26.4807H26.4821H26.4835H26.4849H26.4863H26.4877H26.4891H26.4905H26.4919H26.4933H26.4947H26.4961H26.4975H26.4989H26.5003H26.5017H26.5031H26.5045H26.5059H26.5073H26.5087H26.5101H26.5115H26.5129H26.5143H26.5157H26.5171H26.5185H26.5199H26.5213H26.5227H26.5241H26.5255H26.5269H26.5283H26.5297H26.5311H26.5325H26.5339H26.5353H26.5367H26.5381H26.5395H26.5409H26.5423H26.5437H26.5451H26.5465H26.5479H26.5493H26.5507H26.5521H26.5535H26.5549H26.5563H26.5577H26.5591H26.5605H26.5619H26.5633H26.5647H26.5662H26.5676H26.569H26.5704H26.5718H26.5732H26.5746H26.576H26.5774H26.5788H26.5802H26.5816H26.583H26.5844H26.5858H26.5872H26.5886H26.59H26.5914H26.5928H26.5942H26.5956H26.597H26.5984H26.5998H26.6012H26.6026H26.604H26.6054H26.6068H26.6082H26.6096H26.611H26.6124H26.6138H26.6152H26.6166H26.618H26.6194H26.6208H26.6222H26.6236H26.625H26.6264H26.6278H26.6292H26.6306H26.632H26.6334H26.6348H26.6362H26.6376H26.639H26.6404H26.6418H26.6432H26.6446H26.646H26.6474H26.6488H26.6502H26.6516H26.653H26.6544H26.6558H26.6572H26.6586H26.66H26.6614H26.6628H26.6642H26.6656H26.667H26.6684H26.6698H26.6712H26.6726H26.674H26.6754H26.6768H26.6782H26.6796H26.681H26.6824H26.6838H26.6852H26.6866H26.688H26.6894H26.6908H26.6922H26.6936H26.695H26.6964H26.6978H26.6992H26.7006H26.702H26.7034H26.7048H26.7062H26.7076H26.709H26.7104H26.7119H26.7133H26.7147H26.7161H26.7175H26.7189H26.7203H26.7217H26.7231H26.7245H26.7259H26.7273H26.7287H26.7301H26.7315H26.7329H26.7343H26.7357H26.7371H26.7385H26.7399H26.7413H26.7427H26.7441H26.7455H26.7469H26.7483H26.7497H26.7511H26.7525H26.7539H26.7553H26.7567H26.7581H26.7595H26.7609H26.7623H26.7637H26.7651H26.7665H26.7679H26.7693H26.7707H26.7721H26.7735H26.7749H26.7763H26.7777H26.7791H26.7805H26.7819H26.7833H26.7847H26.7861H26.7875H26.7889H26.7903H26.7917H26.7931H26.7945H26.7959H26.7973H26.7987H26.8001H26.8015H26.8029H26.8043H26.8057H26.8071H26.8085H26.8099H26.8113H26.8127H26.8141H26.8155H26.8169H26.8183H26.8197H26.8211H26.8225H26.8239H26.8253H26.8267H26.8281H26.8295H26.8309H26.8323H26.8337H26.8351H26.8365H26.8379H26.8393H26.8407H26.8421H26.8435H26.8449H26.8463H26.8477H26.8491H26.8505H26.8519H26.8533H26.8547H26.8561H26.8575H26.8589H26.8603H26.8617H26.8631H26.8645H26.8659H26.8674H26.8688H26.8702H26.8716H26.873H26.8744H26.8758H26.8772H26.8786H26.88H26.8814H26.8828H26.8842H26.8856H26.887H26.8884H26.8898H26.8912H26.8926H26.894H26.8954H26.8968H26.8982H26.8996H26.901H26.9024H26.9038H26.9052H26.9066H26.908H26.9094H26.9108H26.9122H26.9136H26.915H26.9164H26.9178H26.9192H26.9206H26.922H26.9234H26.9248H26.9262H26.9276H26.929H26.9304H26.9318H26.9332H26.9346H26.936H26.9374H26.9388H26.9402H26.9416H26.943H26.9444H26.9458H26.9472H26.9486H26.95H26.9514H26.9528H26.9542H26.9556H26.957H26.9584H26.9598H26.9612H26.9626H26.964H26.9654H26.9668H26.9682H26.9696H26.971H26.9724H26.9738H26.9752H26.9766H26.978H26.9794H26.9808H26.9822H26.9836H26.985H26.9864H26.9878H26.9892H26.9906H26.992H26.9934H26.9948H26.9962H26.9976H26.999H27.0004H27.0018H27.0032H27.0046H27.006H27.0074H27.0088H27.0102H27.0116H27.3528L27.4772 13.6888C30.3822 6.2685 38.4293 0.861816 47.808 0.861816C56.6023 0.861816 64.0695 5.43643 67.4421 12.0379L67.6019 12.3506L67.9502 12.3065C68.7892 12.2002 69.5964 12.0984 70.5168 12.0984C77.3915 12.0984 83.1867 15.8183 85.7261 20.9372Z" fill="white" stroke="#B37CD5"/>
<circle cx="32.3402" cy="36.1475" r="16.0023" fill="#B37CD5"/>
<path d="M71.0332 47.1737V25.551L71.9684 26.1323V46.8704L71.0332 47.1737Z" fill="#B37CD5"/>
<path fill-rule="evenodd" clip-rule="evenodd" d="M71.9689 23.6364C72.0953 23.7881 72.942 24.6537 73.0747 24.7233C73.4664 24.9539 73.9214 24.4831 73.7002 24.0977C73.5833 23.9018 72.844 23.2068 72.6197 22.9919C71.3623 21.725 71.6119 21.7629 70.3797 22.9824C70.1396 23.232 69.4509 23.8481 69.2992 24.0787C69.0212 24.4895 69.5235 24.9444 69.8963 24.7296C70.048 24.6411 70.8694 23.8039 71.0211 23.6333L71.04 26.6473C71.04 26.8779 70.9421 27.4593 71.476 27.494C72.0289 27.5193 71.9594 26.8969 71.9594 26.6663L71.9689 23.6364Z" fill="#B37CD5"/>
<path fill-rule="evenodd" clip-rule="evenodd" d="M71.9689 49.2873C72.0953 49.1357 72.942 48.27 73.0747 48.191C73.4664 47.9667 73.9214 48.4311 73.7002 48.8166C73.5833 49.0219 72.844 49.717 72.6197 49.9318C71.3623 51.1893 71.6119 51.1608 70.3797 49.9318C70.1396 49.6917 69.4509 49.0662 69.2992 48.845C69.0212 48.4248 69.5235 47.9699 69.8963 48.1847C70.048 48.2732 70.8694 49.1104 71.0211 49.2905L71.04 46.2764C71.04 46.0458 70.9421 45.455 71.476 45.4297C72.0289 45.4045 71.9594 46.0268 71.9594 46.2512L71.9689 49.2873Z" fill="#B37CD5"/>
<path fill-rule="evenodd" clip-rule="evenodd" d="M58.3928 33.8096C58.4181 34.2014 58.2506 37.01 58.2317 37.6703C58.1243 40.2547 57.9726 42.8517 57.8841 45.4266C57.8652 46.0585 57.8494 46.7377 57.8052 47.3601L57.7262 49.2779C57.8052 50.4279 59.1447 51.006 60.1273 50.3047C60.6107 49.9571 60.6897 49.4485 60.7244 48.8703L61.35 39.9009C61.3595 39.6955 61.3247 39.5881 61.4827 39.5186C61.6438 39.5723 61.609 39.6607 61.6248 39.8566L62.2504 48.8356C62.2946 49.4959 62.421 49.9856 62.8317 50.2889C63.8585 51.0471 65.1159 50.4216 65.2423 49.2905C65.2676 49.0409 64.7684 38.4128 64.7431 37.6988C64.7242 37.0574 64.5567 34.1856 64.582 33.8191C64.8411 34.1476 66.1806 36.2518 66.4555 36.7004C66.6703 37.0385 66.8125 37.3513 67.1885 37.5566C68.0447 38.0305 68.9988 37.3607 68.964 36.4603C68.9451 35.9864 68.6607 35.7021 68.4649 35.3735C68.2595 35.0354 68.0731 34.7227 67.8772 34.3751C67.1 33.0292 65.315 29.4971 64.2187 28.4987C63.8617 28.1606 63.6216 28.0785 63.0308 28.1164C61.5143 28.2144 61.5143 28.2238 59.9883 28.1259C59.4354 28.0911 59.0594 28.1891 58.7751 28.4829C58.3738 28.9031 58.437 28.7767 58.0421 29.3391C57.8178 29.6613 57.6124 29.971 57.4166 30.3027C56.5951 31.6928 55.9001 32.985 55.1134 34.3593C54.9175 34.7069 54.7216 35.0354 54.5257 35.3672C54.4183 35.5441 54.3299 35.661 54.2224 35.8411C53.5432 36.8679 54.6521 38.1506 55.7768 37.5787C56.1149 37.4018 56.3045 37.0701 56.5161 36.7225C56.8826 36.1159 57.3723 35.4114 57.7672 34.7953C57.8652 34.6342 57.9631 34.4667 58.08 34.2961L58.3928 33.8096Z" fill="#B37CD5"/>
<path fill-rule="evenodd" clip-rule="evenodd" d="M61.1606 22.0662C59.6156 22.2274 58.2855 23.6428 58.4751 25.3994C58.6457 26.9506 60.0453 28.2807 61.8146 28.0817C64.4305 27.7784 65.4731 24.6411 63.4479 22.7676C62.8919 22.2526 61.9472 21.9872 61.1606 22.0662Z" fill="#B37CD5"/>
<path d="M77.852 31.4558C77.9499 31.1715 78.1743 31.0293 78.5218 31.0293C78.8693 31.0293 79.0936 31.1715 79.1821 31.4558L79.9056 34.4414C79.9783 34.6278 79.9688 34.8174 79.8866 35.0038C79.7982 35.1807 79.656 35.3071 79.4664 35.3798C79.2769 35.4524 79.0905 35.443 78.9041 35.3608C78.724 35.2723 78.6008 35.1302 78.5281 34.9406L78.3322 33.7274L77.9025 35.0038C77.7509 35.2787 77.5266 35.424 77.2328 35.424C76.9295 35.424 76.7051 35.2818 76.563 35.0038L76.127 33.7274L75.9406 34.9406C75.8679 35.127 75.7447 35.2692 75.5583 35.3608C75.3782 35.4398 75.1918 35.4493 74.9959 35.3798C74.8095 35.3071 74.6737 35.1839 74.5852 35.0038C74.5062 34.8174 74.4967 34.6278 74.5662 34.4414L75.2803 31.4558C75.3782 31.1715 75.6025 31.0293 75.9501 31.0293C76.2976 31.0293 76.5219 31.1715 76.6198 31.4558L77.2359 33.2756L77.852 31.4558ZM81.52 35.2092C81.3778 35.3513 81.2073 35.424 81.0019 35.424C80.7965 35.424 80.6259 35.3513 80.4838 35.2092C80.3416 35.067 80.2689 34.8964 80.2689 34.691V31.7591C80.2689 31.5632 80.3416 31.3832 80.4838 31.241C80.6259 31.0988 80.7965 31.0262 81.0019 31.0262C81.2073 31.0262 81.3778 31.0988 81.52 31.241C81.6622 31.3832 81.7349 31.5632 81.7349 31.7591V32.7385L83.046 31.241C83.1882 31.0988 83.3682 31.0262 83.5736 31.0262C83.7695 31.0262 83.9496 31.0988 84.0918 31.241C84.2339 31.3832 84.3066 31.5632 84.3066 31.7591V34.691C84.3066 34.8964 84.2339 35.067 84.0918 35.2092C83.9496 35.3513 83.7695 35.424 83.5736 35.424C83.3682 35.424 83.1977 35.3513 83.0555 35.2092C82.9038 35.067 82.8312 34.8964 82.8312 34.691V33.7116L81.52 35.2092ZM86.1359 33.9233V34.691C86.1359 34.8964 86.0632 35.067 85.921 35.2092C85.7788 35.3513 85.6083 35.424 85.4029 35.424C85.1975 35.424 85.0269 35.3513 84.8848 35.2092C84.7426 35.067 84.6699 34.8964 84.6699 34.691V31.7591C84.6699 31.5632 84.7426 31.3832 84.8848 31.241C85.0269 31.0988 85.1975 31.0262 85.4029 31.0262C85.6083 31.0262 85.7788 31.0988 85.921 31.241C86.0632 31.3832 86.1359 31.5632 86.1359 31.7591V32.5363H87.0552V31.7591C87.0552 31.5632 87.1279 31.3832 87.2701 31.241C87.4122 31.0988 87.5923 31.0262 87.7882 31.0262C87.9936 31.0262 88.1642 31.0988 88.3064 31.241C88.458 31.3832 88.5307 31.5632 88.5307 31.7591V34.691C88.5307 34.8964 88.458 35.067 88.3064 35.2092C88.1642 35.3513 87.9936 35.424 87.7882 35.424C87.5923 35.424 87.4122 35.3513 87.2701 35.2092C87.1279 35.067 87.0552 34.8964 87.0552 34.691V33.9233H86.1359ZM89.6238 35.4208C89.4184 35.4208 89.2478 35.3482 89.1057 35.206C88.9635 35.0638 88.8908 34.8932 88.8908 34.6879C88.8908 34.4825 88.9635 34.3119 89.1057 34.1697C89.2478 34.0276 89.4184 33.9549 89.6238 33.9549C89.8292 33.9549 89.9998 34.0276 90.1419 34.1697C90.2841 34.3119 90.3568 34.4825 90.3568 34.6879C90.3568 34.8932 90.2841 35.0638 90.1419 35.206C89.9998 35.3513 89.8292 35.4208 89.6238 35.4208ZM89.1246 40.1915C89.1594 40.1472 89.1878 40.103 89.232 40.0651C89.3742 39.9229 89.5448 39.8503 89.7502 39.8503C89.9461 39.8503 90.1261 39.9229 90.2683 40.0651C90.4105 40.2073 90.4831 40.3779 90.4831 40.5832C90.4831 40.6369 90.4737 40.6907 90.4642 40.7444C90.4452 40.8865 90.3473 41.0382 90.1704 41.2246C89.7407 41.6511 89.2162 41.866 88.6096 41.866C88.003 41.866 87.4849 41.6511 87.0552 41.2246C86.6256 40.7981 86.4139 40.2705 86.4139 39.6639C86.4139 39.0573 86.6287 38.5391 87.0552 38.1126C87.4818 37.6861 87.9999 37.4713 88.6096 37.4713C89.2162 37.4713 89.7439 37.6861 90.1704 38.1126C90.3505 38.2895 90.4484 38.4507 90.4642 38.5928C90.4737 38.6465 90.4831 38.6908 90.4831 38.7445C90.4831 38.9499 90.4105 39.1268 90.2683 39.2689C90.1261 39.4111 89.9461 39.4838 89.7502 39.4838C89.5448 39.4838 89.3742 39.4111 89.232 39.2595C89.1878 39.2247 89.1594 39.1868 89.1246 39.1426C88.9825 39.0004 88.8118 38.9277 88.6065 38.9277C88.4106 38.9277 88.2305 39.0004 88.0884 39.1426C87.9462 39.2847 87.8735 39.4553 87.8735 39.6607C87.8735 39.8661 87.9462 40.0367 88.0884 40.1788C88.2305 40.321 88.4106 40.3937 88.6065 40.3937C88.8118 40.3968 88.9825 40.3336 89.1246 40.1915ZM94.1322 37.8915C94.2302 37.6166 94.4545 37.4713 94.802 37.4713C95.1495 37.4713 95.3644 37.6134 95.4623 37.8915L96.1858 40.8771C96.2585 41.073 96.249 41.2593 96.1669 41.4394C96.0784 41.6258 95.9362 41.7522 95.7467 41.8154C95.5603 41.8881 95.3707 41.8881 95.1843 41.7964C95.0042 41.708 94.881 41.5721 94.8083 41.3857L94.6124 40.1631L94.1828 41.4394C94.0311 41.7238 93.8068 41.866 93.513 41.866C93.2097 41.866 92.9854 41.7238 92.8432 41.4394L92.4072 40.1631L92.2208 41.3857C92.1481 41.5721 92.0249 41.708 91.8385 41.7964C91.6584 41.8849 91.472 41.8849 91.2762 41.8154C91.0897 41.7522 90.9539 41.629 90.8654 41.4394C90.777 41.2625 90.777 41.073 90.8465 40.8771L91.5605 37.8915C91.6584 37.6166 91.8828 37.4713 92.2303 37.4713C92.5778 37.4713 92.8021 37.6134 92.9001 37.8915L93.5162 39.7207L94.1322 37.8915ZM97.2821 41.8691C97.0768 41.8691 96.9061 41.7964 96.764 41.6543C96.6218 41.5121 96.5491 41.332 96.5491 41.1361C96.5491 40.9308 96.6218 40.7538 96.764 40.6117C96.9061 40.479 97.0768 40.3968 97.2821 40.3968C97.4875 40.3968 97.6581 40.4758 97.8003 40.6117C97.9424 40.7538 98.0151 40.9339 98.0151 41.1361C98.0151 41.332 97.9424 41.5121 97.8003 41.6543C97.6581 41.7964 97.4875 41.8691 97.2821 41.8691ZM75.9943 37.5092C76.1996 37.5092 76.3702 37.5818 76.5219 37.724C76.6546 37.8662 76.7273 38.0368 76.7273 38.2421V41.1393C76.7273 41.3352 76.6546 41.5153 76.5219 41.6574C76.3702 41.7996 76.1996 41.8723 75.9943 41.8723C75.7984 41.8723 75.6183 41.7996 75.4761 41.6574C75.334 41.5153 75.2613 41.3352 75.2613 41.1393V38.972C75.056 38.972 74.8853 38.8993 74.7432 38.7571C74.601 38.615 74.5283 38.4443 74.5283 38.239C74.5283 38.0336 74.601 37.863 74.7432 37.7208C74.8853 37.5787 75.056 37.506 75.2613 37.506H75.9943V37.5092ZM82.5373 38.9183C83.1629 38.9088 83.5894 38.9972 83.8137 39.1868C84.1265 39.4553 84.2782 39.8124 84.2782 40.2642C84.2782 40.7096 84.1265 41.0856 83.8327 41.3952C83.5294 41.708 83.1281 41.8691 82.629 41.8691C82.0571 41.8691 81.6559 41.7522 81.3968 41.5405C81.1472 41.3162 81.0209 41.0951 81.0209 40.8707C81.0209 40.6464 81.0998 40.46 81.2609 40.2989C81.4126 40.1473 81.599 40.0683 81.8233 40.0683C82.0287 40.0683 82.1803 40.1315 82.2877 40.2642C82.3857 40.3968 82.5121 40.46 82.6637 40.4505C82.8059 40.4505 82.8944 40.3621 82.9133 40.1915C82.9133 40.0209 82.7964 39.9419 82.5753 39.9419C82.1014 39.9608 81.817 39.9608 81.7191 39.9419C81.5232 39.9071 81.3621 39.8092 81.2452 39.6386C81.1283 39.4775 81.084 39.2911 81.1188 39.0952L81.2452 38.1158C81.2799 37.9388 81.3621 37.7935 81.5042 37.6893C81.6211 37.5629 81.7728 37.5123 81.9592 37.5123H83.5736C83.779 37.5123 83.9401 37.566 84.057 37.6893C84.1834 37.8062 84.2371 37.9578 84.2371 38.1347C84.2371 38.3116 84.1834 38.457 84.057 38.5802C83.9401 38.6971 83.779 38.7508 83.5736 38.7508H82.5658L82.5373 38.9183ZM78.8977 41.8691C78.2911 41.8691 77.8267 41.6543 77.5234 41.2278C77.2201 40.8012 77.059 40.2736 77.059 39.667C77.059 39.0604 77.2201 38.5423 77.5234 38.1158C77.8267 37.6893 78.2911 37.4744 78.8977 37.4744C79.5043 37.4744 79.9593 37.6893 80.2721 38.1158C80.5754 38.5423 80.727 39.0604 80.727 39.667C80.727 40.2736 80.5754 40.7981 80.2721 41.2278C79.9593 41.6543 79.5043 41.8691 78.8977 41.8691ZM78.8977 40.3968C79.0052 40.3968 79.0936 40.3242 79.1568 40.182C79.2295 40.0398 79.2642 39.8692 79.2642 39.6639C79.2642 39.4585 79.2295 39.2879 79.1568 39.1457C79.0936 39.0036 79.0052 38.9309 78.8977 38.9309C78.7903 38.9309 78.7019 39.0036 78.6387 39.1457C78.566 39.2879 78.5313 39.4585 78.5313 39.6639C78.5313 39.8692 78.566 40.0398 78.6387 40.182C78.6987 40.3273 78.7903 40.3968 78.8977 40.3968Z" fill="#B37CD5"/>
<path fill-rule="evenodd" clip-rule="evenodd" d="M27.7737 33.0081L28.8085 32.7872L27.983 30.7612L28.1516 29.5797L27.0674 29.7308L27.4002 30.7031L27.7737 33.0081ZM28.9276 32.0649L28.7518 30.4124L28.5876 30.4488L28.5091 29.7802L28.3783 30.7118L28.9276 32.0649Z" fill="white"/>
<path fill-rule="evenodd" clip-rule="evenodd" d="M34.1843 31.6303L33.1496 31.8512L33.0667 29.6654L32.4258 28.6611L33.4766 28.353L33.5754 29.3747L34.1843 31.6303ZM32.747 31.2408L32.2209 29.6654L32.3851 29.632L32.1846 28.9881L32.6889 29.7831L32.747 31.2408Z" fill="white"/>
<path fill-rule="evenodd" clip-rule="evenodd" d="M28.9974 32.745L28.1807 30.7351L28.3333 29.6611L30.0787 28.1438L32.2965 28.808L32.8793 29.7265L32.9621 31.8919L28.9974 32.745ZM29.5192 29.9445L31.33 29.5506L31.7166 31.3426L29.9058 31.7321L29.5192 29.9445Z" fill="white"/>
<path fill-rule="evenodd" clip-rule="evenodd" d="M29.5358 36.637L30.899 36.3463L30.5139 34.5544L32.3291 34.1649L32.7142 35.9525L34.0774 35.6618L32.9613 31.8919L31.1868 32.2741L30.7726 32.3642L28.998 32.745L29.5358 36.637Z" fill="white"/>
<path fill-rule="evenodd" clip-rule="evenodd" d="M26.9053 29.7148L27.2119 29.5797L27.7511 30.8223L27.443 30.9531L26.9053 29.7148Z" fill="white"/>
<path fill-rule="evenodd" clip-rule="evenodd" d="M33.618 28.2673L33.2852 28.2745L33.3055 29.6247L33.6383 29.6203L33.618 28.2673Z" fill="white"/>
<path fill-rule="evenodd" clip-rule="evenodd" d="M32.0811 28.7178L32.3645 28.542L33.0824 29.6901L32.799 29.866L32.0811 28.7178Z" fill="white"/>
<path fill-rule="evenodd" clip-rule="evenodd" d="M28.473 29.4968L28.1445 29.4518L27.96 30.7888L28.2913 30.8339L28.473 29.4968Z" fill="white"/>
<path fill-rule="evenodd" clip-rule="evenodd" d="M30.0949 28.1597L30.0077 27.8037L28.1445 29.4518L28.3611 29.7017L30.0949 28.1597Z" fill="white"/>
<path fill-rule="evenodd" clip-rule="evenodd" d="M30.0529 28.1685L30.0078 27.8037L32.3651 28.542L32.2663 28.8617L30.0529 28.1685Z" fill="white"/>
<path fill-rule="evenodd" clip-rule="evenodd" d="M27.709 30.7322L28.5388 30.5345L29.0155 32.7421L28.658 32.8191L27.709 30.7322Z" fill="white"/>
<path fill-rule="evenodd" clip-rule="evenodd" d="M33.2199 29.5462L32.3857 29.7061L32.8624 31.9137L33.2156 31.8396L33.2199 29.5462Z" fill="white"/>
<path fill-rule="evenodd" clip-rule="evenodd" d="M18.2441 32.3976L21.5214 32.3889L24.6039 32.1796L27.8521 31.6594L29.0147 31.4079L29.458 32.8148L18.8269 35.1037L18.2441 32.3976Z" fill="white"/>
<path fill-rule="evenodd" clip-rule="evenodd" d="M18.0146 32.3351L18.3387 32.2654L19 34.8174L18.6759 34.8901L18.0146 32.3351Z" fill="white"/>
<path d="M29.1292 32.64L18.499 34.9301L18.5688 35.254L29.199 32.964L29.1292 32.64Z" fill="white"/>
<path fill-rule="evenodd" clip-rule="evenodd" d="M18.7061 35.1328L19.0301 35.063L20.7669 41.7731L20.4428 41.8428L18.7061 35.1328Z" fill="white"/>
<path fill-rule="evenodd" clip-rule="evenodd" d="M35.2178 39.0045L35.1481 38.6804L20.0059 41.9358L20.0756 42.2643L35.2178 39.0045Z" fill="white"/>
<path fill-rule="evenodd" clip-rule="evenodd" d="M23.2171 41.4242L23.5456 41.3545L22.0458 34.4105L21.7217 34.4803L23.2171 41.4242Z" fill="white"/>
<path fill-rule="evenodd" clip-rule="evenodd" d="M26.1654 40.7921L26.4938 40.7179L24.9954 33.7798L24.667 33.8495L26.1654 40.7921Z" fill="white"/>
<path d="M28.03 33.1299L27.7061 33.1995L29.1986 40.1449L29.5225 40.0753L28.03 33.1299Z" fill="white"/>
<path fill-rule="evenodd" clip-rule="evenodd" d="M22.1633 36.5149L22.3436 36.2359L20.7754 34.5297L20.5938 34.8087L22.1633 36.5149Z" fill="white"/>
<path fill-rule="evenodd" clip-rule="evenodd" d="M20.1867 41.8995L20.5602 41.8181L19.8989 38.7545L19.5254 38.8315L20.1867 41.8995Z" fill="white"/>
<path fill-rule="evenodd" clip-rule="evenodd" d="M19.9439 38.9754L19.8828 38.6877L19.332 38.8069L19.3931 39.0946L19.9439 38.9754Z" fill="white"/>
<path fill-rule="evenodd" clip-rule="evenodd" d="M21.4834 38.3432L23.069 38.0031L23.7419 41.1322L22.1621 41.4737L21.4834 38.3432Z" fill="white"/>
<path fill-rule="evenodd" clip-rule="evenodd" d="M24.4609 37.7037L26.0407 37.3636L26.718 40.4927L25.1338 40.8327L24.4609 37.7037Z" fill="white"/>
<path fill-rule="evenodd" clip-rule="evenodd" d="M27.4375 37.0643L29.6175 36.5963L30.2904 39.7224L28.1104 40.1933L27.4375 37.0643Z" fill="white"/>
<path fill-rule="evenodd" clip-rule="evenodd" d="M25.1052 35.8827L25.2855 35.6008L23.7173 33.8946L23.5371 34.1721L25.1052 35.8827Z" fill="white"/>
<path fill-rule="evenodd" clip-rule="evenodd" d="M28.1453 35.2272L28.3255 34.9482L26.7574 33.242L26.5771 33.521L28.1453 35.2272Z" fill="white"/>
<path fill-rule="evenodd" clip-rule="evenodd" d="M21.9859 38.5365L21.9248 38.2502L21.374 38.368L21.4351 38.6557L21.9859 38.5365Z" fill="white"/>
<path fill-rule="evenodd" clip-rule="evenodd" d="M24.9458 37.897L24.8877 37.6136L24.334 37.7328L24.395 38.0162L24.9458 37.897Z" fill="white"/>
<path fill-rule="evenodd" clip-rule="evenodd" d="M27.9214 37.2575L27.8604 36.9741L27.3096 37.0933L27.3677 37.3752L27.9214 37.2575Z" fill="white"/>
<path d="M20.1992 40.3778L21.7267 38.9143L21.8575 39.0539L20.3315 40.5174L20.1992 40.3778Z" fill="white"/>
<path d="M23.2451 39.7224L24.7769 38.2574L24.9092 38.3969L23.3774 39.8619L23.2451 39.7224Z" fill="white"/>
<path d="M26.21 39.0859L27.7418 37.6224L27.8726 37.7575L26.3451 39.221L26.21 39.0859Z" fill="white"/>
<path fill-rule="evenodd" clip-rule="evenodd" d="M20.1943 40.1235L20.4007 40.0785L20.4981 40.5305L20.2888 40.5755L20.1943 40.1235Z" fill="white"/>
<path fill-rule="evenodd" clip-rule="evenodd" d="M23.2129 39.471L23.4222 39.4259L23.5166 39.8779L23.3074 39.923L23.2129 39.471Z" fill="white"/>
<path fill-rule="evenodd" clip-rule="evenodd" d="M26.1943 38.8315L26.3993 38.7864L26.4981 39.2384L26.2888 39.2835L26.1943 38.8315Z" fill="white"/>
<path fill-rule="evenodd" clip-rule="evenodd" d="M42.6168 27.1512L39.6287 28.4926L36.7294 29.5666L33.5553 30.4328L32.3984 30.6828L32.5699 32.1463L43.201 29.8587L42.6168 27.1512Z" fill="white"/>
<path fill-rule="evenodd" clip-rule="evenodd" d="M42.7982 27L42.4727 27.0698L42.9246 29.6698L43.2531 29.6L42.7982 27Z" fill="white"/>
<path fill-rule="evenodd" clip-rule="evenodd" d="M32.8686 32.1753L32.7988 31.8469L43.4343 29.5593L43.504 29.8863L32.8686 32.1753Z" fill="white"/>
<path fill-rule="evenodd" clip-rule="evenodd" d="M43.3275 29.834L42.999 29.9037L44.182 36.7358L44.5105 36.6617L43.3275 29.834Z" fill="white"/>
<path fill-rule="evenodd" clip-rule="evenodd" d="M29.8725 40.1569L29.8027 39.8285L44.9449 36.5716L45.0147 36.8957L29.8725 40.1569Z" fill="white"/>
<path fill-rule="evenodd" clip-rule="evenodd" d="M41.8083 37.4247L41.4798 37.4945L39.9814 30.5519L40.3099 30.4822L41.8083 37.4247Z" fill="white"/>
<path fill-rule="evenodd" clip-rule="evenodd" d="M38.8596 38.0569L38.5311 38.131L37.0371 31.187L37.3612 31.1172L38.8596 38.0569Z" fill="white"/>
<path d="M34.3259 31.777L34.002 31.8466L35.4945 38.7921L35.8184 38.7224L34.3259 31.777Z" fill="white"/>
<path fill-rule="evenodd" clip-rule="evenodd" d="M40.7449 32.5154L40.4658 32.3352L41.1881 30.1334L41.4715 30.3136L40.7449 32.5154Z" fill="white"/>
<path fill-rule="evenodd" clip-rule="evenodd" d="M44.7643 36.6094L44.3908 36.6908L43.7295 33.6228L44.103 33.5414L44.7643 36.6094Z" fill="white"/>
<path fill-rule="evenodd" clip-rule="evenodd" d="M43.7793 33.8451L43.7168 33.5617L44.2676 33.4426L44.3286 33.726L43.7793 33.8451Z" fill="white"/>
<path fill-rule="evenodd" clip-rule="evenodd" d="M42.1168 33.9062L40.5312 34.2462L41.2085 37.3752L42.7897 37.0352L42.1168 33.9062Z" fill="white"/>
<path fill-rule="evenodd" clip-rule="evenodd" d="M39.1384 34.5457L37.5586 34.8857L38.2315 38.0162L39.8171 37.6747L39.1384 34.5457Z" fill="white"/>
<path fill-rule="evenodd" clip-rule="evenodd" d="M36.1668 35.1851L33.9824 35.6531L34.6597 38.7821L36.8397 38.3156L36.1668 35.1851Z" fill="white"/>
<path fill-rule="evenodd" clip-rule="evenodd" d="M37.7996 33.1519L37.5205 32.9717L38.2443 30.7685L38.5277 30.9487L37.7996 33.1519Z" fill="white"/>
<path fill-rule="evenodd" clip-rule="evenodd" d="M34.7624 33.803L34.4834 33.6228L35.2101 31.421L35.4891 31.6012L34.7624 33.803Z" fill="white"/>
<path fill-rule="evenodd" clip-rule="evenodd" d="M41.7383 34.284L41.6758 34.0006L42.231 33.8815L42.292 34.1649L41.7383 34.284Z" fill="white"/>
<path fill-rule="evenodd" clip-rule="evenodd" d="M38.7783 34.9235L38.7158 34.6358L39.2666 34.5166L39.3277 34.8044L38.7783 34.9235Z" fill="white"/>
<path d="M36.3023 35.155L35.748 35.2739L35.8096 35.561L36.3638 35.4421L36.3023 35.155Z" fill="white"/>
<path d="M44.0672 35.4118L42.0674 34.7055L42.1284 34.5253L44.1282 35.2316L44.0672 35.4118Z" fill="white"/>
<path d="M41.0164 36.0673L39.0166 35.3625L39.082 35.1823L41.0774 35.8871L41.0164 36.0673Z" fill="white"/>
<path d="M38.0515 36.7039L36.0518 35.9975L36.1172 35.8173L38.1126 36.5222L38.0515 36.7039Z" fill="white"/>
<path fill-rule="evenodd" clip-rule="evenodd" d="M44.0237 34.9933L43.8145 35.0384L43.9133 35.4889L44.1226 35.4438L44.0237 34.9933Z" fill="white"/>
<path fill-rule="evenodd" clip-rule="evenodd" d="M41.0081 35.6458L40.7988 35.6865L40.8977 36.137L41.1069 36.092L41.0081 35.6458Z" fill="white"/>
<path fill-rule="evenodd" clip-rule="evenodd" d="M38.0267 36.2853L37.8174 36.3303L37.9162 36.7809L38.1255 36.7358L38.0267 36.2853Z" fill="white"/>
<path fill-rule="evenodd" clip-rule="evenodd" d="M29.8164 39.8939L35.1661 38.7414L34.4801 35.576L29.1348 36.7242L29.8164 39.8939Z" fill="white"/>
<path fill-rule="evenodd" clip-rule="evenodd" d="M30.8618 39.8125H33.5344C34.0111 39.8125 34.3963 40.1976 34.3963 40.6743V44.9486H29.9941V40.6743C29.9956 40.1976 30.3851 39.8125 30.8618 39.8125Z" fill="white"/>
</svg>
