<svg width="108" height="64" viewBox="0 0 108 64" fill="none" xmlns="http://www.w3.org/2000/svg">
<path d="M85.7261 20.9372L85.9128 21.3136L86.3158 21.1944C88.0726 20.675 89.8172 20.3669 91.672 20.3669C100.059 20.3669 106.829 26.4521 106.829 33.7536C106.829 40.5479 100.981 46.3219 93.2786 47.3569L92.9056 47.407L92.8506 47.7793C91.9367 53.9597 85.8502 58.9071 78.4052 58.9071C77.0186 58.9071 75.6245 58.7019 74.3396 58.3911L74.1233 58.3387L73.9397 58.4644C69.8442 61.2665 64.3262 63.0413 58.3258 63.0413C52.2047 63.0413 46.6906 61.266 42.5996 58.3632L42.3167 58.1625L42.0296 58.3572C40.0791 59.6801 37.6667 60.4972 34.9001 60.4972C31.4535 60.4972 28.3499 59.0703 26.1664 56.9299L25.9103 56.6788L25.5904 56.841C23.1576 58.0739 20.3678 58.695 17.45 58.695C7.98931 58.695 0.5 51.8699 0.5 43.7182C0.5 37.807 4.40833 32.7698 10.0036 30.2885L10.379 30.1221L10.2886 29.7215C10.1833 29.2544 10.1812 28.7798 10.1812 28.2414C10.1812 20.4098 17.3094 14.0065 26.2944 14.0065H26.2958H26.2972H26.2986H26.3H26.3014H26.3028H26.3042H26.3056H26.307H26.3084H26.3098H26.3112H26.3126H26.314H26.3154H26.3168H26.3182H26.3196H26.321H26.3224H26.3238H26.3252H26.3266H26.328H26.3294H26.3308H26.3322H26.3336H26.335H26.3364H26.3378H26.3392H26.3406H26.342H26.3434H26.3448H26.3462H26.3476H26.349H26.3504H26.3518H26.3532H26.3546H26.356H26.3574H26.3588H26.3602H26.3616H26.363H26.3644H26.3658H26.3672H26.3686H26.37H26.3714H26.3728H26.3742H26.3756H26.377H26.3784H26.3798H26.3812H26.3826H26.384H26.3854H26.3868H26.3882H26.3896H26.391H26.3924H26.3938H26.3952H26.3966H26.398H26.3994H26.4008H26.4022H26.4036H26.405H26.4065H26.4079H26.4093H26.4107H26.4121H26.4135H26.4149H26.4163H26.4177H26.4191H26.4205H26.4219H26.4233H26.4247H26.4261H26.4275H26.4289H26.4303H26.4317H26.4331H26.4345H26.4359H26.4373H26.4387H26.4401H26.4415H26.4429H26.4443H26.4457H26.4471H26.4485H26.4499H26.4513H26.4527H26.4541H26.4555H26.4569H26.4583H26.4597H26.4611H26.4625H26.4639H26.4653H26.4667H26.4681H26.4695H26.4709H26.4723H26.4737H26.4751H26.4765H26.4779H26.4793H26.4807H26.4821H26.4835H26.4849H26.4863H26.4877H26.4891H26.4905H26.4919H26.4933H26.4947H26.4961H26.4975H26.4989H26.5003H26.5017H26.5031H26.5045H26.5059H26.5073H26.5087H26.5101H26.5115H26.5129H26.5143H26.5157H26.5171H26.5185H26.5199H26.5213H26.5227H26.5241H26.5255H26.5269H26.5283H26.5297H26.5311H26.5325H26.5339H26.5353H26.5367H26.5381H26.5395H26.5409H26.5423H26.5437H26.5451H26.5465H26.5479H26.5493H26.5507H26.5521H26.5535H26.5549H26.5563H26.5577H26.5591H26.5605H26.5619H26.5633H26.5647H26.5662H26.5676H26.569H26.5704H26.5718H26.5732H26.5746H26.576H26.5774H26.5788H26.5802H26.5816H26.583H26.5844H26.5858H26.5872H26.5886H26.59H26.5914H26.5928H26.5942H26.5956H26.597H26.5984H26.5998H26.6012H26.6026H26.604H26.6054H26.6068H26.6082H26.6096H26.611H26.6124H26.6138H26.6152H26.6166H26.618H26.6194H26.6208H26.6222H26.6236H26.625H26.6264H26.6278H26.6292H26.6306H26.632H26.6334H26.6348H26.6362H26.6376H26.639H26.6404H26.6418H26.6432H26.6446H26.646H26.6474H26.6488H26.6502H26.6516H26.653H26.6544H26.6558H26.6572H26.6586H26.66H26.6614H26.6628H26.6642H26.6656H26.667H26.6684H26.6698H26.6712H26.6726H26.674H26.6754H26.6768H26.6782H26.6796H26.681H26.6824H26.6838H26.6852H26.6866H26.688H26.6894H26.6908H26.6922H26.6936H26.695H26.6964H26.6978H26.6992H26.7006H26.702H26.7034H26.7048H26.7062H26.7076H26.709H26.7104H26.7119H26.7133H26.7147H26.7161H26.7175H26.7189H26.7203H26.7217H26.7231H26.7245H26.7259H26.7273H26.7287H26.7301H26.7315H26.7329H26.7343H26.7357H26.7371H26.7385H26.7399H26.7413H26.7427H26.7441H26.7455H26.7469H26.7483H26.7497H26.7511H26.7525H26.7539H26.7553H26.7567H26.7581H26.7595H26.7609H26.7623H26.7637H26.7651H26.7665H26.7679H26.7693H26.7707H26.7721H26.7735H26.7749H26.7763H26.7777H26.7791H26.7805H26.7819H26.7833H26.7847H26.7861H26.7875H26.7889H26.7903H26.7917H26.7931H26.7945H26.7959H26.7973H26.7987H26.8001H26.8015H26.8029H26.8043H26.8057H26.8071H26.8085H26.8099H26.8113H26.8127H26.8141H26.8155H26.8169H26.8183H26.8197H26.8211H26.8225H26.8239H26.8253H26.8267H26.8281H26.8295H26.8309H26.8323H26.8337H26.8351H26.8365H26.8379H26.8393H26.8407H26.8421H26.8435H26.8449H26.8463H26.8477H26.8491H26.8505H26.8519H26.8533H26.8547H26.8561H26.8575H26.8589H26.8603H26.8617H26.8631H26.8645H26.8659H26.8674H26.8688H26.8702H26.8716H26.873H26.8744H26.8758H26.8772H26.8786H26.88H26.8814H26.8828H26.8842H26.8856H26.887H26.8884H26.8898H26.8912H26.8926H26.894H26.8954H26.8968H26.8982H26.8996H26.901H26.9024H26.9038H26.9052H26.9066H26.908H26.9094H26.9108H26.9122H26.9136H26.915H26.9164H26.9178H26.9192H26.9206H26.922H26.9234H26.9248H26.9262H26.9276H26.929H26.9304H26.9318H26.9332H26.9346H26.936H26.9374H26.9388H26.9402H26.9416H26.943H26.9444H26.9458H26.9472H26.9486H26.95H26.9514H26.9528H26.9542H26.9556H26.957H26.9584H26.9598H26.9612H26.9626H26.964H26.9654H26.9668H26.9682H26.9696H26.971H26.9724H26.9738H26.9752H26.9766H26.978H26.9794H26.9808H26.9822H26.9836H26.985H26.9864H26.9878H26.9892H26.9906H26.992H26.9934H26.9948H26.9962H26.9976H26.999H27.0004H27.0018H27.0032H27.0046H27.006H27.0074H27.0088H27.0102H27.0116H27.3528L27.4772 13.6888C30.3822 6.2685 38.4293 0.861816 47.808 0.861816C56.6023 0.861816 64.0695 5.43643 67.4421 12.0379L67.6019 12.3506L67.9502 12.3065C68.7892 12.2002 69.5964 12.0984 70.5168 12.0984C77.3915 12.0984 83.1867 15.8183 85.7261 20.9372Z" fill="white" stroke="#B37CD5"/>
<circle cx="32.3402" cy="36.1476" r="16.0023" fill="#B37CD5"/>
<path d="M70.6826 46.9916V25.8534L71.5968 26.4217V46.6951L70.6826 46.9916Z" fill="#B37CD5"/>
<path fill-rule="evenodd" clip-rule="evenodd" d="M71.5957 23.9817C71.7193 24.1299 72.547 24.9762 72.6767 25.0534C73.0597 25.2727 73.5045 24.8094 73.2883 24.4419C73.174 24.2411 72.4513 23.5616 72.232 23.3516C71.0027 22.1131 71.2467 22.1502 70.0422 23.3516C69.8075 23.5864 69.1434 24.1886 68.9859 24.4141C68.7141 24.8249 69.2052 25.2696 69.5696 25.0503C69.7271 24.9731 70.5209 24.1516 70.6692 23.9786L70.6877 26.9251C70.6877 27.1506 70.5919 27.7281 71.1139 27.7528C71.6544 27.7775 71.5865 27.1691 71.5926 26.9498V23.9817H71.5957Z" fill="#B37CD5"/>
<path fill-rule="evenodd" clip-rule="evenodd" d="M71.5957 49.0546C71.7193 48.9064 72.547 48.0601 72.6767 47.9829C73.0597 47.7636 73.5045 48.2269 73.2883 48.5944C73.174 48.7952 72.4513 49.4747 72.232 49.6847C71.0027 50.9232 71.2467 50.8861 70.0422 49.6939C69.8075 49.4499 69.1434 48.8477 68.9859 48.6222C68.7141 48.2114 69.2052 47.7667 69.5696 47.986C69.7271 48.0725 70.5209 48.8909 70.6692 49.0577L70.6877 46.1112C70.6877 45.8857 70.5919 45.3175 71.1139 45.2835C71.6544 45.2588 71.5865 45.8672 71.5926 46.0927V49.0546H71.5957Z" fill="#B37CD5"/>
<path fill-rule="evenodd" clip-rule="evenodd" d="M58.325 33.9331C58.3497 34.316 58.1953 37.0618 58.1675 37.698C58.0624 40.2245 57.9142 42.7694 57.837 45.2805C57.8123 45.8982 57.7937 46.5622 57.7505 47.1707L57.6733 49.0547C57.7505 50.1789 59.0601 50.738 60.0206 50.0492C60.4931 49.7095 60.5704 49.2122 60.6043 48.647L61.2159 39.8785C61.2251 39.6778 61.1912 39.5728 61.3456 39.5048C61.5031 39.5666 61.4691 39.6531 61.4846 39.8353L62.0961 48.613C62.1393 49.2585 62.2629 49.7372 62.6644 50.0337C63.6682 50.775 64.8974 50.1635 65.021 49.0578C65.0457 48.8138 64.567 38.4331 64.5423 37.7258C64.5176 37.0988 64.3508 34.2913 64.3755 33.9331C64.6287 34.2543 65.9383 36.3205 66.207 36.7498C66.417 37.0803 66.556 37.3953 66.9235 37.5961C67.7605 38.0501 68.6964 37.3953 68.6593 36.5151C68.6408 36.0518 68.3628 35.7738 68.1713 35.4619C67.9706 35.1314 67.7976 34.8164 67.5968 34.4859C66.8371 33.1609 65.092 29.7171 64.0203 28.7319C63.6713 28.4107 63.4366 28.3211 62.859 28.3644C61.3765 28.4601 61.3765 28.4694 59.8847 28.3644C59.3442 28.3304 58.9766 28.4261 58.6987 28.7134C58.3064 29.1241 58.3682 29.0006 57.9821 29.5504C57.7628 29.8654 57.5621 30.1681 57.3706 30.4924C56.5676 31.8514 55.8974 33.1146 55.119 34.4674C54.9275 34.8071 54.7453 35.1283 54.5446 35.4433C54.4396 35.6163 54.3531 35.7399 54.2481 35.9066C53.584 36.9104 54.6681 38.1644 55.7676 37.6053C56.0981 37.4386 56.2834 37.1081 56.4904 36.7776C56.8486 36.1753 57.3274 35.4959 57.7134 34.8874C57.8092 34.7299 57.9049 34.5662 58.0192 34.3994L58.325 33.9331Z" fill="#B37CD5"/>
<path fill-rule="evenodd" clip-rule="evenodd" d="M61.0306 22.4559C59.5203 22.6134 58.22 23.9971 58.4054 25.7082C58.5721 27.2247 59.9404 28.5311 61.67 28.3304C64.2273 28.0339 65.2465 24.9669 63.276 23.1447C62.7232 22.6381 61.7997 22.3664 61.0306 22.4559Z" fill="#B37CD5"/>
<path d="M77.3476 31.6228C77.4434 31.3448 77.6626 31.2058 78.0024 31.2058C78.3421 31.2058 78.5614 31.3448 78.6479 31.6228L79.3552 34.5415C79.4262 34.7237 79.417 34.909 79.3367 35.0913C79.2502 35.2642 79.1174 35.3878 78.9259 35.4588C78.7436 35.5298 78.5583 35.5206 78.3761 35.4403C78.2001 35.3538 78.0796 35.221 78.0086 35.0295L77.8171 33.8435L77.397 35.0913C77.2488 35.3692 77.0295 35.5082 76.7423 35.5082C76.4458 35.5082 76.2265 35.3692 76.0875 35.0913L75.6613 33.8435L75.479 35.0295C75.408 35.221 75.2875 35.3507 75.1053 35.4403C74.9293 35.5175 74.747 35.5268 74.5648 35.4588C74.3733 35.3878 74.2405 35.2673 74.154 35.0913C74.0768 34.909 74.0676 34.7237 74.1355 34.5415L74.8335 31.6228C74.9293 31.3448 75.1486 31.2058 75.4883 31.2058C75.828 31.2058 76.0473 31.3448 76.1431 31.6228L76.7453 33.4111L77.3476 31.6228ZM80.9334 35.292C80.7945 35.4403 80.6277 35.5113 80.4269 35.5113C80.2262 35.5113 80.0594 35.4403 79.9204 35.3013C79.7814 35.1623 79.7104 34.9862 79.7104 34.7886V31.9286C79.7104 31.7278 79.7814 31.5548 79.9204 31.4159C80.0594 31.2769 80.2262 31.2058 80.4269 31.2058C80.6277 31.2058 80.7945 31.2769 80.9334 31.4159C81.0724 31.5548 81.1435 31.7309 81.1435 31.9286V32.8798L82.4252 31.4159C82.5642 31.2769 82.7402 31.2058 82.941 31.2058C83.1325 31.2058 83.3086 31.2769 83.4475 31.4159C83.5865 31.5548 83.6576 31.7309 83.6576 31.9286V34.7886C83.6576 34.9893 83.5865 35.1623 83.4475 35.3013C83.3086 35.4403 83.1325 35.5113 82.941 35.5113C82.7402 35.5113 82.5735 35.4403 82.4345 35.3013C82.2862 35.1623 82.2152 34.9862 82.2152 34.7886V33.828L80.9334 35.292ZM85.4459 34.0381V34.7886C85.4459 34.9893 85.3748 35.1623 85.2358 35.3013C85.0968 35.4403 84.9301 35.5113 84.7293 35.5113C84.5285 35.5113 84.3618 35.4403 84.2228 35.3013C84.0838 35.1623 84.0128 34.9862 84.0128 34.7886V31.9286C84.0128 31.7278 84.0838 31.5548 84.2228 31.4159C84.3618 31.2769 84.5285 31.2058 84.7293 31.2058C84.9301 31.2058 85.0968 31.2769 85.2358 31.4159C85.3748 31.5548 85.4459 31.7309 85.4459 31.9286V32.6791H86.3446V31.9286C86.3446 31.7278 86.4157 31.5548 86.5546 31.4159C86.6936 31.2769 86.8697 31.2058 87.0612 31.2058C87.2619 31.2058 87.4287 31.2769 87.5677 31.4159C87.7159 31.5548 87.787 31.7309 87.787 31.9286V34.7886C87.787 34.9893 87.7159 35.1623 87.5677 35.3013C87.4287 35.4403 87.2619 35.5113 87.0612 35.5113C86.8697 35.5113 86.6936 35.4403 86.5546 35.3013C86.4157 35.1623 86.3446 34.9862 86.3446 34.7886V34.0381H85.4459ZM88.8587 35.5113C88.658 35.5113 88.4912 35.4403 88.3522 35.3013C88.2132 35.1623 88.1422 34.9862 88.1422 34.7886C88.1422 34.5971 88.2132 34.421 88.3522 34.282C88.4912 34.1431 88.658 34.072 88.8587 34.072C89.0595 34.072 89.2263 34.1431 89.3652 34.282C89.5042 34.421 89.5753 34.5971 89.5753 34.7886C89.5753 34.9893 89.5042 35.1623 89.3652 35.3013C89.2263 35.4403 89.0595 35.5113 88.8587 35.5113ZM88.3429 40.1658C88.3676 40.1225 88.4047 40.0793 88.4479 40.0422C88.5777 39.9032 88.7537 39.8322 88.9452 39.8322C89.1459 39.8322 89.3189 39.9032 89.461 40.0422C89.6031 40.1812 89.671 40.348 89.671 40.5488C89.671 40.6013 89.6617 40.6538 89.6525 40.7063C89.6339 40.8453 89.5382 41.0028 89.3652 41.1757C88.939 41.5927 88.4325 41.8027 87.8395 41.8027C87.2465 41.8027 86.7399 41.5927 86.3199 41.1757C85.8999 40.7588 85.6837 40.2522 85.6837 39.65C85.6837 39.057 85.9029 38.5505 86.3199 38.1335C86.7369 37.7165 87.2434 37.5065 87.8395 37.5065C88.4325 37.5065 88.939 37.7165 89.3652 38.1335C89.5413 38.3065 89.637 38.464 89.6525 38.603C89.6617 38.6555 89.671 38.708 89.671 38.7605C89.671 38.952 89.6 39.128 89.461 39.267C89.322 39.406 89.1459 39.477 88.9452 39.477C88.7537 39.477 88.5777 39.406 88.4479 39.267C88.4047 39.233 88.3707 39.1898 88.3429 39.1435C88.2039 39.0045 88.0372 38.9334 87.8364 38.9334C87.6356 38.9334 87.4689 39.0045 87.3299 39.1435C87.1909 39.2825 87.1199 39.4585 87.1199 39.65C87.1199 39.8507 87.1909 40.0237 87.3299 40.1627C87.4689 40.3017 87.6356 40.3727 87.8364 40.3727C88.0372 40.3727 88.2039 40.3048 88.3429 40.1658ZM93.2383 37.9173C93.3341 37.6486 93.5441 37.5065 93.8838 37.5065C94.2236 37.5065 94.4429 37.6455 94.5386 37.9173L95.2459 40.836C95.3169 41.0275 95.3076 41.2097 95.2212 41.3858C95.1439 41.568 95.0019 41.6915 94.8197 41.7595C94.6374 41.8305 94.4521 41.8212 94.2699 41.7348C94.0938 41.6575 93.9641 41.5155 93.9024 41.3333L93.7109 40.138L93.2846 41.3858C93.1457 41.6637 92.9264 41.8027 92.6391 41.8027C92.3426 41.8027 92.1233 41.6637 91.9843 41.3858L91.5581 40.138L91.3666 41.3333C91.3049 41.5155 91.1844 41.6545 90.9991 41.7348C90.823 41.8212 90.6408 41.8305 90.4493 41.7595C90.2671 41.6884 90.1343 41.568 90.0478 41.3858C89.9613 41.2128 89.9521 41.0275 90.0231 40.836L90.7304 37.9173C90.8261 37.6486 91.0454 37.5065 91.3852 37.5065C91.7249 37.5065 91.9442 37.6455 92.0399 37.9173L92.6422 39.7056L93.2383 37.9173ZM96.3176 41.8058C96.1169 41.8058 95.9501 41.7348 95.8111 41.5958C95.6721 41.4568 95.6011 41.29 95.6011 41.0893C95.6011 40.8885 95.6721 40.7217 95.8111 40.5827C95.9501 40.4437 96.1169 40.3727 96.3176 40.3727C96.5184 40.3727 96.6851 40.4437 96.8241 40.5827C96.9631 40.7217 97.0341 40.8885 97.0341 41.0893C97.0341 41.29 96.9631 41.4568 96.8241 41.5958C96.6851 41.7348 96.5184 41.8058 96.3176 41.8058ZM75.5346 37.5436C75.7354 37.5436 75.9022 37.6146 76.0504 37.7536C76.1894 37.8926 76.2604 38.0594 76.2604 38.2601V41.0924C76.2604 41.2931 76.1894 41.4599 76.0504 41.5989C75.9022 41.7379 75.7354 41.8089 75.5346 41.8089C75.3431 41.8089 75.1671 41.7379 75.0281 41.5989C74.8891 41.4599 74.8181 41.2931 74.8181 41.0924V38.9736C74.6173 38.9736 74.4505 38.9025 74.3116 38.7636C74.1726 38.6246 74.1015 38.4578 74.1015 38.257C74.1015 38.0563 74.1726 37.8895 74.3116 37.7505C74.4505 37.6115 74.6173 37.5405 74.8181 37.5405H75.5346V37.5436ZM78.5861 40.3387H79.0124C79.2131 40.3387 79.3799 40.4098 79.5189 40.5488C79.6579 40.6877 79.7289 40.8545 79.7289 41.0553C79.7289 41.2468 79.6579 41.4228 79.5189 41.5618C79.3799 41.7008 79.2131 41.7718 79.0124 41.7718H77.3631C77.1623 41.7718 76.9955 41.7193 76.8565 41.6329C76.699 41.5093 76.6125 41.3549 76.5786 41.1541C76.5539 40.9626 76.5971 40.7804 76.7176 40.6229C77.7986 39.7426 78.3483 39.2454 78.3576 39.1249C78.3761 39.0014 78.3051 38.9427 78.1476 38.9427C77.9993 38.9427 77.9128 39.0137 77.8943 39.1527C77.8696 39.2485 77.8325 39.335 77.7986 39.4153C77.6596 39.5542 77.4835 39.6253 77.292 39.6253C77.0913 39.6253 76.9245 39.5542 76.7855 39.4153C76.6372 39.2763 76.5662 39.1095 76.5662 38.9087C76.5662 38.8315 76.5755 38.7605 76.5847 38.6833C76.6033 38.5443 76.7083 38.3682 76.8812 38.1428C77.3013 37.7258 77.7182 37.5158 78.1476 37.5158C78.5769 37.5158 78.9413 37.6393 79.2378 37.8741C79.5436 38.118 79.6918 38.4485 79.6918 38.8778C79.6918 39.3041 79.5436 39.6376 79.2378 39.8631C79.0834 40.0083 78.8672 40.1658 78.5861 40.3387ZM81.8168 41.8058C81.2145 41.8058 80.7697 41.5958 80.4732 41.1788C80.1675 40.7619 80.0192 40.2553 80.0192 39.6531C80.0192 39.0601 80.1675 38.5535 80.4732 38.1366C80.7697 37.7196 81.2145 37.5096 81.8168 37.5096C82.4098 37.5096 82.8545 37.7196 83.151 38.1366C83.4568 38.5535 83.6051 39.0601 83.6051 39.6531C83.6051 40.2553 83.4568 40.7588 83.151 41.1788C82.8545 41.5958 82.4098 41.8058 81.8168 41.8058ZM81.8168 40.3758C81.9125 40.3758 81.999 40.3048 82.07 40.1658C82.1411 40.0268 82.175 39.8507 82.175 39.6531C82.175 39.4616 82.1411 39.2855 82.07 39.1465C81.999 39.0076 81.9125 38.9365 81.8168 38.9365C81.7118 38.9365 81.6253 39.0076 81.5542 39.1465C81.4832 39.2855 81.4492 39.4616 81.4492 39.6531C81.4492 39.8538 81.4832 40.0268 81.5542 40.1658C81.6253 40.3048 81.7118 40.3758 81.8168 40.3758Z" fill="#B37CD5"/>
<path fill-rule="evenodd" clip-rule="evenodd" d="M31.8869 31.5367C30.3673 31.7317 29.4564 32.984 28.8775 34.1386C26.6862 38.4977 28.566 45.9071 32.3887 45.561C33.8203 45.4321 34.8916 44.0257 35.384 42.9685C36.6425 40.2612 36.6645 36.4023 35.2109 33.802C34.8286 33.1177 34.4731 32.6835 33.9713 32.243C33.5041 31.8434 32.7301 31.4297 31.8869 31.5367Z" fill="white"/>
<path fill-rule="evenodd" clip-rule="evenodd" d="M29.8634 44.7572C29.8146 44.6549 29.5031 44.3183 29.3694 44.1405C29.209 43.914 29.0894 43.7284 28.9431 43.4798C28.6678 43.0189 28.4539 42.4856 28.2761 41.9444C27.3605 39.2104 27.6311 35.4412 29.3206 33.0343C29.5472 32.7102 30.0946 32.0888 30.4234 31.9331C30.2944 31.6893 29.7171 31.3731 29.3962 31.2535C27.9961 30.7423 26.7344 31.4895 25.9479 32.5277C24.9615 33.8287 24.4188 35.5371 24.3118 37.6058C24.1781 40.1322 25.0716 43.6749 27.1969 44.7981C27.5839 45.0026 28.0008 45.1442 28.5341 45.1347C29.1665 45.1253 29.3788 44.9428 29.8634 44.7572Z" fill="white"/>
<path fill-rule="evenodd" clip-rule="evenodd" d="M33.7793 31.8513C33.9665 32.0684 34.2418 32.1093 34.8773 32.9478C37.086 35.8517 37.0593 41.6975 34.6193 44.4772C34.5045 44.6109 34.429 44.6408 34.3566 44.7886C35.236 45.2008 36.0273 45.3125 36.9696 44.7839C37.7027 44.3718 38.1872 43.7803 38.6229 43.0787C39.4488 41.7289 39.9428 39.5753 39.8405 37.6498C39.7383 35.6787 39.205 33.8051 38.2407 32.5797C37.8191 32.0385 37.1961 31.3857 36.2947 31.1638C35.8149 31.049 35.2769 31.0663 34.8286 31.2268C34.4856 31.3463 33.9571 31.6389 33.7793 31.8513Z" fill="white"/>
<path fill-rule="evenodd" clip-rule="evenodd" d="M36.8457 31.1591C37.0675 31.3149 37.1383 31.2928 37.5253 31.5854C39.0496 32.7574 39.8189 35.0966 39.9825 37.0457C40.187 39.4746 39.7387 42.0844 38.2049 43.9753L38.0712 44.1531C38.0979 44.1704 38.0932 44.1704 38.1372 44.1924C38.186 44.2144 38.1498 44.2019 38.208 44.2192C38.2442 44.2317 38.3417 44.2506 38.3638 44.2553C38.4755 44.2774 38.595 44.2947 38.7067 44.3041C40.1996 44.4064 41.3873 43.1321 42.0307 41.8799C43.5771 38.8485 43.4135 34.1826 41.2709 31.5272C40.4702 30.5424 39.1283 29.8896 37.8006 30.489C37.4954 30.6258 36.9794 30.9515 36.8457 31.1591Z" fill="white"/>
<path fill-rule="evenodd" clip-rule="evenodd" d="M26.0948 44.1799L25.6008 43.527C25.4451 43.3099 25.3114 43.0614 25.1745 42.8081C23.7351 40.1008 23.8012 36.0956 25.1792 33.4008C25.6244 32.5262 26.3921 31.576 27.2998 31.1764L27.4335 31.1104C27.4823 31.0789 27.465 31.0931 27.4917 31.0616C27.336 30.8618 26.8467 30.5503 26.5179 30.4088C25.2075 29.8487 23.9003 30.4969 23.1263 31.447C20.9224 34.1418 20.8468 38.7589 22.2595 41.666C22.8557 42.8883 24.1394 44.6062 26.0948 44.1799Z" fill="white"/>
<path fill-rule="evenodd" clip-rule="evenodd" d="M27.8758 30.9326C28.0409 30.9546 28.1023 30.9153 28.2706 30.8964L28.3414 30.8697C28.7772 30.7721 29.2837 30.8382 29.6974 30.9845C30.635 31.3086 30.1159 31.5257 30.8175 31.3715C31.6937 31.1811 32.8657 31.1135 33.7026 31.554C33.8049 31.4879 33.8898 31.4297 33.9921 31.3542C34.5128 30.9672 35.1735 30.6888 35.8326 30.5912C35.9474 30.5739 36.1976 30.5598 36.3124 30.5425C36.4508 30.5299 36.6097 30.5692 36.7969 30.5692C36.7434 30.338 36.4099 29.9698 36.2369 29.8456C35.9695 29.6552 35.7131 29.5483 35.2506 29.5483C33.7309 29.5577 33.7089 29.9919 33.2102 30.1083C33.1033 29.6552 32.9617 29.2509 32.8185 28.8215L32.3293 27.6007C32.2632 27.4639 32.2176 27.3396 32.1562 27.2137C32.0902 27.08 32.0414 26.9557 31.969 26.8094C31.6843 26.2195 30.6979 24.2657 30.2449 23.959C30.0278 24.0124 28.9738 24.5803 28.8936 24.9138C29.6534 25.3134 30.2008 26.4052 30.5155 27.1429C30.8175 27.8273 31.0708 28.6516 31.1604 29.3941C31.2186 29.8786 31.1998 29.8157 31.1022 30.242C30.9685 30.2105 30.1206 29.6741 29.6896 29.5451C29.1925 29.3988 28.258 29.5278 27.8946 29.7669C27.6901 29.9006 27.2465 30.2467 27.1836 30.4732C27.3252 30.5425 27.8003 30.8303 27.8758 30.9326Z" fill="white"/>
</svg>
