<svg width="108" height="64" viewBox="0 0 108 64" fill="none" xmlns="http://www.w3.org/2000/svg">
<path d="M86.0542 20.9372L86.241 21.3136L86.6439 21.1944C88.4008 20.675 90.1453 20.3669 92.0002 20.3669C100.388 20.3669 107.157 26.4521 107.157 33.7536C107.157 40.5479 101.309 46.3219 93.6067 47.3569L93.2338 47.407L93.1787 47.7793C92.2648 53.9597 86.1783 58.9071 78.7333 58.9071C77.3467 58.9071 75.9526 58.7019 74.6677 58.3911L74.4514 58.3387L74.2678 58.4644C70.1723 61.2665 64.6544 63.0413 58.6539 63.0413C52.5328 63.0413 47.0188 61.266 42.9277 58.3632L42.6448 58.1625L42.3577 58.3572C40.4072 59.6801 37.9948 60.4972 35.2282 60.4972C31.7817 60.4972 28.678 59.0703 26.4946 56.9299L26.2384 56.6788L25.9185 56.841C23.4857 58.0739 20.6959 58.695 17.7782 58.695C8.31743 58.695 0.828125 51.8699 0.828125 43.7182C0.828125 37.807 4.73645 32.7698 10.3317 30.2885L10.7071 30.1221L10.6167 29.7215C10.5114 29.2544 10.5094 28.7798 10.5094 28.2414C10.5094 20.4098 17.6375 14.0065 26.6225 14.0065H26.6239H26.6253H26.6267H26.6281H26.6295H26.6309H26.6323H26.6337H26.6351H26.6365H26.6379H26.6393H26.6407H26.6421H26.6435H26.6449H26.6463H26.6477H26.6491H26.6505H26.6519H26.6533H26.6547H26.6561H26.6575H26.6589H26.6603H26.6617H26.6631H26.6645H26.6659H26.6673H26.6687H26.6701H26.6715H26.6729H26.6743H26.6757H26.6771H26.6785H26.6799H26.6813H26.6827H26.6841H26.6855H26.6869H26.6883H26.6897H26.6912H26.6926H26.694H26.6954H26.6968H26.6982H26.6996H26.701H26.7024H26.7038H26.7052H26.7066H26.708H26.7094H26.7108H26.7122H26.7136H26.715H26.7164H26.7178H26.7192H26.7206H26.722H26.7234H26.7248H26.7262H26.7276H26.729H26.7304H26.7318H26.7332H26.7346H26.736H26.7374H26.7388H26.7402H26.7416H26.743H26.7444H26.7458H26.7472H26.7486H26.75H26.7514H26.7528H26.7542H26.7556H26.757H26.7584H26.7598H26.7612H26.7626H26.764H26.7654H26.7668H26.7682H26.7696H26.771H26.7724H26.7738H26.7752H26.7766H26.778H26.7794H26.7808H26.7822H26.7836H26.785H26.7864H26.7878H26.7892H26.7906H26.792H26.7934H26.7948H26.7962H26.7976H26.799H26.8004H26.8018H26.8032H26.8046H26.806H26.8074H26.8088H26.8102H26.8116H26.813H26.8144H26.8158H26.8172H26.8186H26.82H26.8214H26.8228H26.8242H26.8256H26.827H26.8284H26.8298H26.8312H26.8326H26.834H26.8354H26.8368H26.8382H26.8396H26.841H26.8424H26.8438H26.8452H26.8466H26.848H26.8494H26.8508H26.8522H26.8536H26.855H26.8565H26.8579H26.8593H26.8607H26.8621H26.8635H26.8649H26.8663H26.8677H26.8691H26.8705H26.8719H26.8733H26.8747H26.8761H26.8775H26.8789H26.8803H26.8817H26.8831H26.8845H26.8859H26.8873H26.8887H26.8901H26.8915H26.8929H26.8943H26.8957H26.8971H26.8985H26.8999H26.9013H26.9027H26.9041H26.9055H26.9069H26.9083H26.9097H26.9111H26.9125H26.9139H26.9153H26.9167H26.9181H26.9195H26.9209H26.9223H26.9237H26.9251H26.9265H26.9279H26.9293H26.9307H26.9321H26.9335H26.9349H26.9363H26.9377H26.9391H26.9405H26.9419H26.9433H26.9447H26.9461H26.9475H26.9489H26.9503H26.9517H26.9531H26.9545H26.9559H26.9573H26.9587H26.9601H26.9615H26.9629H26.9643H26.9657H26.9671H26.9685H26.9699H26.9713H26.9727H26.9741H26.9755H26.9769H26.9783H26.9797H26.9811H26.9825H26.9839H26.9853H26.9867H26.9881H26.9895H26.9909H26.9923H26.9937H26.9951H26.9965H26.9979H26.9993H27.0007H27.0021H27.0036H27.005H27.0064H27.0078H27.0092H27.0106H27.012H27.0134H27.0148H27.0162H27.0176H27.019H27.0204H27.0218H27.0232H27.0246H27.026H27.0274H27.0288H27.0302H27.0316H27.033H27.0344H27.0358H27.0372H27.0386H27.04H27.0414H27.0428H27.0442H27.0456H27.047H27.0484H27.0498H27.0512H27.0526H27.054H27.0554H27.0568H27.0582H27.0596H27.061H27.0624H27.0638H27.0652H27.0666H27.068H27.0694H27.0708H27.0722H27.0736H27.075H27.0764H27.0778H27.0792H27.0806H27.082H27.0834H27.0848H27.0862H27.0876H27.089H27.0904H27.0918H27.0932H27.0946H27.096H27.0974H27.0988H27.1002H27.1016H27.103H27.1044H27.1058H27.1072H27.1086H27.11H27.1114H27.1128H27.1142H27.1156H27.117H27.1184H27.1198H27.1212H27.1226H27.124H27.1254H27.1268H27.1282H27.1296H27.131H27.1324H27.1338H27.1352H27.1366H27.138H27.1394H27.1408H27.1422H27.1436H27.145H27.1464H27.1478H27.1492H27.1506H27.1521H27.1535H27.1549H27.1563H27.1577H27.1591H27.1605H27.1619H27.1633H27.1647H27.1661H27.1675H27.1689H27.1703H27.1717H27.1731H27.1745H27.1759H27.1773H27.1787H27.1801H27.1815H27.1829H27.1843H27.1857H27.1871H27.1885H27.1899H27.1913H27.1927H27.1941H27.1955H27.1969H27.1983H27.1997H27.2011H27.2025H27.2039H27.2053H27.2067H27.2081H27.2095H27.2109H27.2123H27.2137H27.2151H27.2165H27.2179H27.2193H27.2207H27.2221H27.2235H27.2249H27.2263H27.2277H27.2291H27.2305H27.2319H27.2333H27.2347H27.2361H27.2375H27.2389H27.2403H27.2417H27.2431H27.2445H27.2459H27.2473H27.2487H27.2501H27.2515H27.2529H27.2543H27.2557H27.2571H27.2585H27.2599H27.2613H27.2627H27.2641H27.2655H27.2669H27.2683H27.2697H27.2711H27.2725H27.2739H27.2753H27.2767H27.2781H27.2795H27.2809H27.2823H27.2837H27.2851H27.2865H27.2879H27.2893H27.2907H27.2921H27.2935H27.2949H27.2963H27.2977H27.2991H27.3005H27.3019H27.3033H27.3047H27.3061H27.3075H27.3089H27.3103H27.3117H27.3131H27.3145H27.3159H27.3173H27.3187H27.3201H27.3215H27.3229H27.3243H27.3257H27.3271H27.3285H27.3299H27.3313H27.3327H27.3342H27.3356H27.337H27.3384H27.3398H27.681L27.8053 13.6888C30.7103 6.2685 38.7574 0.861816 48.1361 0.861816C56.9305 0.861816 64.3976 5.43643 67.7703 12.0379L67.93 12.3506L68.2784 12.3065C69.1173 12.2002 69.9245 12.0984 70.8449 12.0984C77.7196 12.0984 83.5148 15.8183 86.0542 20.9372Z" fill="white" stroke="#B37CD5"/>
<circle cx="32.6683" cy="36.1475" r="16.0023" fill="#B37CD5"/>
<path fill-rule="evenodd" clip-rule="evenodd" d="M34.093 40.1905V41.3866V41.6331H28.1747H27.3195C27.3153 41.4866 27.2322 41.2119 27.1885 41.0851L27.0378 40.7188C26.9744 40.5878 26.8631 40.4131 26.7786 40.2891C26.7152 40.2018 26.5123 39.9595 26.4362 39.8961L26.3644 39.8327C25.9065 39.3748 25.1021 39.0297 24.3977 39.0297C23.8638 39.0297 23.5257 39.0818 23.0763 39.2847H23.0678L23.0593 39.2889L23.0509 39.2931C22.9706 39.3284 22.8959 39.3692 22.8241 39.4087C22.7607 39.4439 22.6973 39.4805 22.6297 39.5284H22.6142C22.2845 39.7355 21.9887 39.982 21.6914 40.2638V34.3426L27.2674 33.8017L28.2381 29.1822C28.1817 29.0864 28.2705 28.8723 27.3548 28.8878C27.5379 27.5396 32.556 27.3099 34.093 27V37.8139H38.5223H42.8768H43.3587H43.6855V39.7623H42.8768V38.6211H38.5223V40.1919H34.093V40.1905ZM27.9958 33.7383C28.2902 32.2041 28.5536 30.9432 28.8791 29.4133C28.9551 29.0639 29.1735 28.7737 29.5792 28.737C30.5147 28.6539 31.4572 28.6976 32.3968 28.737C32.6152 28.7455 32.9223 28.9244 32.9336 29.2343L33.0688 33.5241H33.073V33.5523V33.6199V38.1281C33.073 38.848 32.6476 38.848 31.9023 38.848H28.6748C28.3959 38.848 28.2085 38.8437 28.0535 38.7451C27.8859 38.6338 27.814 38.4549 27.7985 38.1295L27.7943 38.0224C27.7619 37.2433 27.7027 35.9078 27.7943 34.7103C27.8211 34.375 27.9 34.0454 27.9958 33.7383ZM32.6208 33.6312L28.4621 33.758C28.362 34.0721 28.2747 34.4103 28.2465 34.7441C28.1592 35.9205 28.2141 37.2335 28.2465 37.9999L28.255 38.1112C28.2592 38.2703 28.2747 38.345 28.3029 38.3661C28.3508 38.3943 28.4776 38.3986 28.6776 38.3986H31.9052C32.3588 38.3986 32.6222 38.3985 32.6222 38.1281V33.6312H32.6208ZM34.4199 37.4716H43.6855V27.858C43.4699 27.8537 43.2079 27.8495 43.1051 27.9214C41.7357 28.8244 40.5101 29.9923 39.1844 30.9672C38.5194 31.4602 38.3363 31.6631 38.2292 32.6648L37.8827 35.9768H34.4199V37.4716ZM41.8907 42.084C41.8907 41.4796 41.3976 40.9316 40.7876 40.9316C40.565 40.9316 40.434 40.94 40.2339 41.0386C39.5056 41.3965 39.3704 42.3432 39.9043 42.8715C40.0874 43.0546 40.3537 43.2208 40.6411 43.2208C40.9031 43.2208 41.0116 43.2251 41.2581 43.1053C41.6315 42.9222 41.8907 42.501 41.8907 42.084ZM40.7763 44.3887H40.7651C40.5256 44.3845 40.3946 44.3775 40.1762 44.3211C39.862 44.2422 39.4633 44.0591 39.2323 43.8407C39.2041 43.8168 39.1928 43.797 39.1647 43.7731C39.1295 43.7491 39.1126 43.7407 39.0816 43.7055C38.6561 43.2363 38.4124 42.7123 38.4124 42.0558C38.4124 41.6867 38.5039 41.388 38.6195 41.133C38.7223 40.8992 38.7942 40.7949 38.9421 40.6047C38.966 40.5723 38.9773 40.561 39.0097 40.5329L39.2253 40.3145L39.5591 40.0806C39.9691 39.8581 40.2551 39.7623 40.789 39.7623C41.1229 39.7623 41.4934 39.8693 41.7118 39.9806L42.0738 40.1877C42.5162 40.4779 42.8783 41.0344 42.9938 41.5627C43.1727 42.3981 42.9135 43.1687 42.3809 43.697C42.2175 43.8647 41.9386 44.0788 41.716 44.1704C41.3934 44.3056 41.1694 44.3887 40.7763 44.3887ZM25.4613 42.084C25.4613 41.7895 25.3374 41.4754 25.1387 41.2767C25.0429 41.1851 24.9359 41.102 24.8161 41.0429C24.1202 40.6935 23.1523 41.1499 23.1523 42.0966C23.1523 42.5418 23.4355 42.932 23.7778 43.0983C24.3033 43.3603 24.9359 43.2054 25.2669 42.7165C25.3021 42.6573 25.3303 42.6052 25.3627 42.5376C25.4092 42.4333 25.4613 42.2305 25.4613 42.084ZM24.3301 44.3887C23.7651 44.3887 23.3791 44.245 22.9607 43.9633C22.9128 43.9309 22.841 43.8802 22.8015 43.8407L22.6508 43.7055C22.4564 43.4744 22.324 43.3392 22.1887 43.025C21.8788 42.2939 21.9224 41.6331 22.2803 40.9414C22.3127 40.8823 22.3521 40.8189 22.3916 40.7667C22.81 40.175 23.4904 39.7609 24.2385 39.7609C24.6597 39.7609 24.9105 39.813 25.281 39.9792C25.922 40.261 26.4081 40.8738 26.563 41.5613L26.6264 42.0825C26.6264 42.1459 26.6151 42.1417 26.6151 42.2023C26.5996 42.4967 26.5433 42.7503 26.4235 43.018C26.2531 43.3913 25.9107 43.8125 25.5642 44.0154C25.2979 44.1746 25.1739 44.2422 24.8513 44.3253C24.6964 44.3648 24.5217 44.3887 24.3301 44.3887Z" fill="white"/>
<path fill-rule="evenodd" clip-rule="evenodd" d="M31.5303 34.3666C31.7923 34.3666 32.0079 34.5807 32.0079 34.8442C32.0079 35.1062 31.7923 35.3217 31.5303 35.3217C31.2683 35.3217 31.0527 35.1076 31.0527 34.8442C31.0527 34.5821 31.2669 34.3666 31.5303 34.3666Z" fill="white"/>
<path fill-rule="evenodd" clip-rule="evenodd" d="M21 34.5215C21.7636 34.5215 22.3806 35.047 22.3806 35.6937C22.3806 36.3403 21.7636 36.8658 21 36.8658V34.5215Z" fill="white"/>
<path fill-rule="evenodd" clip-rule="evenodd" d="M43.6855 38.183H43.8405C43.9279 38.183 43.9997 38.2549 43.9997 38.338V39.2283C43.9997 39.3115 43.9279 39.3833 43.8405 39.3833H43.6855V38.183Z" fill="white"/>
<path d="M71.1289 47.2761V25.5267L72.0701 26.1086V46.9708L71.1289 47.2761Z" fill="#B37CD5"/>
<path fill-rule="evenodd" clip-rule="evenodd" d="M72.0696 23.5967C72.1968 23.7493 73.049 24.6205 73.1825 24.6905C73.5768 24.9162 74.0347 24.4488 73.8121 24.0609C73.6944 23.8542 72.9504 23.1642 72.7246 22.9384C71.4591 21.6729 71.7103 21.7015 70.4702 22.9384C70.2285 23.1801 69.5449 23.8097 69.3827 24.0418C69.1029 24.4552 69.6085 24.9131 69.9837 24.6968C70.1363 24.6078 70.9631 23.7652 71.1157 23.5839L71.1348 26.6269C71.1348 26.8591 71.0362 27.4441 71.5736 27.4696C72.13 27.5045 72.0601 26.8781 72.0601 26.6428L72.0696 23.5967Z" fill="#B37CD5"/>
<path fill-rule="evenodd" clip-rule="evenodd" d="M72.0696 49.4129C72.1968 49.2603 73.049 48.389 73.1825 48.3095C73.5768 48.0838 74.0347 48.5512 73.8121 48.9391C73.6944 49.1458 72.9504 49.8358 72.7246 50.0616C71.4591 51.3271 71.7103 51.2985 70.4702 50.0616C70.2285 49.8199 69.5449 49.1903 69.3827 48.9582C69.1029 48.5448 69.6085 48.087 69.9837 48.3032C70.1363 48.3922 70.9631 49.2348 71.1157 49.4161L71.1348 46.3826C71.1348 46.141 71.0362 45.5559 71.5736 45.5304C72.13 45.505 72.0601 46.1314 72.0601 46.3572L72.0696 49.4129Z" fill="#B37CD5"/>
<path fill-rule="evenodd" clip-rule="evenodd" d="M58.4064 33.8354C58.4318 34.2297 58.2728 37.0565 58.2442 37.721C58.1361 40.3221 57.9835 42.9358 57.8944 45.5273C57.8754 46.1632 57.8595 46.8469 57.815 47.4733L57.7355 49.4034C57.815 50.5608 59.1632 51.1427 60.152 50.4368C60.6385 50.087 60.718 49.5751 60.753 48.9932L61.3826 39.9659C61.3921 39.7592 61.3572 39.6511 61.5162 39.5716C61.6783 39.6352 61.6433 39.7243 61.6592 39.9214L62.2888 48.9582C62.3334 49.6228 62.4605 50.1156 62.8739 50.4209C63.9073 51.184 65.1728 50.5481 65.3 49.4161C65.3255 49.1649 64.8326 38.4683 64.7976 37.7497C64.7786 37.1042 64.61 34.2138 64.6355 33.8386C64.8962 34.1788 66.2444 36.2965 66.5211 36.7385C66.7373 37.0787 66.8804 37.4031 67.2588 37.6097C68.1205 38.0867 69.0839 37.4126 69.0458 36.5064C69.0267 36.0231 68.7405 35.7432 68.5434 35.4126C68.3367 35.0723 68.1491 34.7575 67.9519 34.4078C67.1697 33.0532 65.3732 29.4983 64.2698 28.4839C63.9105 28.1532 63.6688 28.0706 63.0742 28.1055C61.548 28.2041 61.548 28.2136 60.0121 28.1151C59.4557 28.0706 59.0773 28.1691 58.7911 28.4744C58.3873 28.8973 58.4509 28.7701 58.0534 29.3361C57.8277 29.6509 57.621 29.9657 57.4238 30.3059C56.5971 31.705 55.8976 32.9991 55.1058 34.3887C54.9087 34.7385 54.7115 35.0691 54.5144 35.3935C54.4063 35.5715 54.3172 35.6987 54.2091 35.8704C53.5255 36.9102 54.6416 38.2044 55.7736 37.6193C56.1138 37.4476 56.3046 37.1169 56.5176 36.7671C56.8865 36.1566 57.3793 35.4475 57.7768 34.8275C57.8754 34.6653 57.9739 34.4968 58.0916 34.3251L58.4064 33.8354Z" fill="#B37CD5"/>
<path fill-rule="evenodd" clip-rule="evenodd" d="M61.1926 22.0163C59.6377 22.1785 58.2991 23.603 58.4899 25.3646C58.6616 26.9258 60.0702 28.2708 61.8508 28.0642C64.4837 27.7684 65.533 24.6014 63.4948 22.7254C62.9351 22.2039 61.9844 21.9368 61.1926 22.0163Z" fill="#B37CD5"/>
<path d="M77.9904 31.4665C78.089 31.1803 78.3148 31.0372 78.6645 31.0372C79.0143 31.0372 79.2401 31.1803 79.3291 31.4665L80.0573 34.4713C80.1304 34.6589 80.1209 34.8497 80.0382 35.0278C79.9492 35.2154 79.8061 35.3426 79.6153 35.4125C79.4277 35.4857 79.2369 35.4761 79.0493 35.3871C78.868 35.3076 78.744 35.1613 78.6709 34.9737L78.4737 33.7432L78.0413 35.0278C77.8887 35.3139 77.6629 35.457 77.3672 35.457C77.062 35.457 76.8362 35.3139 76.6931 35.0278L76.2543 33.7432L76.0667 34.9737C75.9936 35.1613 75.8696 35.3044 75.682 35.3871C75.5007 35.4761 75.3131 35.4857 75.116 35.4125C74.9283 35.3394 74.7916 35.2154 74.7026 35.0278C74.6231 34.8497 74.6136 34.6589 74.6835 34.4713L75.4021 31.4665C75.5007 31.1803 75.7265 31.0372 76.0762 31.0372C76.426 31.0372 76.6518 31.1803 76.7503 31.4665L77.3704 33.298L77.9904 31.4665ZM81.6821 35.244C81.539 35.3871 81.3673 35.4602 81.1606 35.4602C80.9539 35.4602 80.7822 35.3871 80.6391 35.244C80.4961 35.1009 80.4229 34.9292 80.4229 34.7225V31.7717C80.4229 31.565 80.4961 31.3933 80.6391 31.2502C80.7822 31.1072 80.9539 31.034 81.1606 31.034C81.3673 31.034 81.539 31.1072 81.6821 31.2502C81.8252 31.3933 81.8983 31.565 81.8983 31.7717V32.7574L83.2179 31.2502C83.361 31.1072 83.5422 31.034 83.7489 31.034C83.9461 31.034 84.1273 31.1072 84.2704 31.2502C84.4135 31.3933 84.4866 31.565 84.4866 31.7717V34.7225C84.4866 34.9292 84.4135 35.1009 84.2704 35.244C84.1273 35.3871 83.9461 35.4602 83.7489 35.4602C83.5422 35.4602 83.3642 35.3871 83.2274 35.244C83.0748 35.1009 83.0017 34.9292 83.0017 34.7225V33.7368L81.6821 35.244ZM86.3277 33.9498V34.7225C86.3277 34.9292 86.2546 35.1009 86.1115 35.244C85.9684 35.3871 85.7967 35.4602 85.59 35.4602C85.3833 35.4602 85.2116 35.3871 85.0685 35.244C84.9254 35.1009 84.8523 34.9292 84.8523 34.7225V31.7717C84.8523 31.565 84.9254 31.3933 85.0685 31.2502C85.2116 31.1072 85.3833 31.034 85.59 31.034C85.7967 31.034 85.9684 31.1072 86.1115 31.2502C86.2546 31.3933 86.3277 31.565 86.3277 31.7717V32.5444H87.253V31.7717C87.253 31.565 87.3261 31.3933 87.4692 31.2502C87.6123 31.1072 87.7935 31.034 87.9907 31.034C88.1974 31.034 88.3691 31.1072 88.5122 31.2502C88.6648 31.3933 88.7379 31.565 88.7379 31.7717V34.7225C88.7379 34.9292 88.6648 35.1009 88.5122 35.244C88.3691 35.3871 88.1974 35.4602 87.9907 35.4602C87.7935 35.4602 87.6123 35.3871 87.4692 35.244C87.3261 35.1009 87.253 34.9292 87.253 34.7225V33.9498H86.3277ZM89.8413 35.4602C89.6346 35.4602 89.4629 35.3871 89.3198 35.244C89.1767 35.1009 89.1036 34.9292 89.1036 34.7225C89.1036 34.5158 89.1767 34.3441 89.3198 34.201C89.4629 34.058 89.6346 33.9848 89.8413 33.9848C90.048 33.9848 90.2197 34.058 90.3628 34.201C90.5059 34.3441 90.579 34.5158 90.579 34.7225C90.579 34.9292 90.5059 35.1009 90.3628 35.244C90.2165 35.3871 90.0448 35.4602 89.8413 35.4602ZM86.811 40.2489C86.846 40.2044 86.8841 40.1694 86.9191 40.1217C87.0622 39.9882 87.2339 39.915 87.4406 39.915C87.6473 39.915 87.819 39.9882 87.9621 40.1312C88.1052 40.2743 88.1783 40.446 88.1783 40.6527C88.1783 40.7068 88.1783 40.7608 88.1592 40.8053C88.1401 40.9484 88.0416 41.1106 87.8635 41.2887C87.4311 41.7179 86.9128 41.9437 86.2991 41.9437C85.6886 41.9437 85.1671 41.7275 84.7283 41.2887C84.2958 40.8594 84.0828 40.3379 84.0828 39.7274C84.0828 39.1169 84.299 38.5954 84.7283 38.1662C85.1671 37.7274 85.6886 37.5111 86.2991 37.5111C86.9096 37.5111 87.4311 37.7274 87.8635 38.1566C88.0447 38.3442 88.1433 38.5064 88.1592 38.6495C88.1783 38.694 88.1783 38.7481 88.1783 38.8021C88.1783 39.0088 88.1052 39.1805 87.9621 39.3236C87.819 39.4667 87.6473 39.5398 87.4406 39.5398C87.2339 39.5398 87.0622 39.4667 86.9191 39.3236C86.8841 39.2886 86.846 39.2505 86.811 39.2059C86.6775 39.0629 86.4962 38.9897 86.2991 38.9897C86.0924 38.9897 85.9143 39.0629 85.7681 39.2059C85.625 39.349 85.5518 39.5207 85.5518 39.7274C85.5518 39.9341 85.625 40.1058 85.7681 40.2489C85.9111 40.392 86.0924 40.4651 86.2991 40.4651C86.4994 40.4651 86.6775 40.3952 86.811 40.2489ZM91.8509 37.9436C91.9494 37.6574 92.1752 37.5143 92.525 37.5143C92.8748 37.5143 93.1005 37.6574 93.1991 37.9436L93.9273 40.9484C93.9908 41.136 93.9813 41.3268 93.9018 41.5144C93.8128 41.6925 93.676 41.8292 93.4789 41.8928C93.2913 41.9659 93.1005 41.9564 92.9129 41.8737C92.7317 41.7847 92.6077 41.648 92.5345 41.4508L92.3374 40.2298L91.9049 41.5144C91.7523 41.8006 91.5361 41.9437 91.2308 41.9437C90.9351 41.9437 90.7094 41.8006 90.5567 41.5144L90.1243 40.2298L89.9271 41.4508C89.854 41.648 89.73 41.7815 89.5488 41.8737C89.3612 41.9532 89.1704 41.9628 88.9828 41.8928C88.7856 41.8292 88.6489 41.6957 88.5599 41.5144C88.4804 41.3268 88.4708 41.136 88.5408 40.9484L89.2594 37.9436C89.358 37.6574 89.5837 37.5143 89.9335 37.5143C90.2833 37.5143 90.509 37.6574 90.6076 37.9436L91.2277 39.7847L91.8509 37.9436ZM95.0242 41.9469C94.8176 41.9469 94.6459 41.8737 94.5028 41.7306C94.3597 41.5876 94.2866 41.4063 94.2866 41.2028C94.2866 41.0057 94.3597 40.8244 94.5028 40.6813C94.6459 40.5382 94.8176 40.4651 95.0242 40.4651C95.2309 40.4651 95.4026 40.5382 95.5457 40.6813C95.6888 40.8244 95.7619 41.0057 95.7619 41.2028C95.7619 41.4095 95.6888 41.5876 95.5457 41.7306C95.3995 41.8737 95.2309 41.9469 95.0242 41.9469ZM76.2829 38.8594C76.2034 38.8594 76.1207 38.8943 76.0667 38.9579C76.0031 39.012 75.9681 39.0915 75.9681 39.1741C75.9681 39.2632 76.0031 39.3363 76.0667 39.3999C76.1207 39.4635 76.2003 39.4889 76.2829 39.4889C76.372 39.4889 76.4451 39.4635 76.5087 39.3999C76.5723 39.3363 76.5977 39.2664 76.5977 39.1741C76.5977 39.0946 76.5723 39.012 76.5087 38.9579C76.4451 38.8943 76.3751 38.8594 76.2829 38.8594ZM75.7265 40.5923C75.2145 40.4746 74.8902 40.1694 74.728 39.6861C74.5754 39.1932 74.6104 38.7449 74.8457 38.3506C75.0714 37.9563 75.4117 37.7051 75.8505 37.5779C76.2988 37.4603 76.7122 37.5143 77.1096 37.7401C77.5135 37.9722 77.7647 38.3061 77.8823 38.7544C78 39.1932 77.9459 39.6161 77.7202 40.0104L76.8139 41.5717C76.7154 41.7497 76.5627 41.8674 76.3656 41.9119C76.1684 41.966 75.9872 41.9469 75.8091 41.8388C75.6279 41.7402 75.5134 41.5876 75.4689 41.3904C75.4148 41.1933 75.4339 41.012 75.542 40.834L75.7265 40.5923ZM80.0922 41.9469C79.4817 41.9469 79.0238 41.7306 78.709 41.2918C78.4038 40.8626 78.2512 40.3411 78.2512 39.7306C78.2512 39.1201 78.4038 38.5986 78.709 38.1693C79.0238 37.7305 79.4817 37.5143 80.0922 37.5143C80.7027 37.5143 81.1702 37.7305 81.4754 38.1693C81.7807 38.5986 81.9428 39.1201 81.9428 39.7306C81.9428 40.3411 81.7807 40.8626 81.4754 41.2918C81.1702 41.7306 80.7027 41.9469 80.0922 41.9469ZM80.0922 40.4651C80.2003 40.4651 80.2894 40.392 80.3625 40.2489C80.4261 40.1058 80.4611 39.9341 80.4611 39.7274C80.4611 39.5207 80.4261 39.349 80.3625 39.2059C80.2894 39.0629 80.2003 38.9897 80.0922 38.9897C79.9841 38.9897 79.8951 39.0629 79.8315 39.2059C79.7584 39.349 79.7234 39.5207 79.7234 39.7274C79.7234 39.9341 79.7584 40.1058 79.8315 40.2489C79.8951 40.3952 79.9841 40.4651 80.0922 40.4651Z" fill="#B37CD5"/>
</svg>
