<svg width="108" height="64" viewBox="0 0 108 64" fill="none" xmlns="http://www.w3.org/2000/svg">
<path d="M86.397 20.9372L86.5837 21.3136L86.9867 21.1944C88.7435 20.675 90.4881 20.3669 92.3429 20.3669C100.73 20.3669 107.5 26.4521 107.5 33.7536C107.5 40.5479 101.652 46.3219 93.9495 47.3569L93.5765 47.407L93.5215 47.7793C92.6076 53.9597 86.5211 58.9071 79.0761 58.9071C77.6895 58.9071 76.2954 58.7019 75.0105 58.3911L74.7942 58.3387L74.6106 58.4644C70.5151 61.2665 64.9971 63.0413 58.9967 63.0413C52.8756 63.0413 47.3615 61.266 43.2705 58.3632L42.9876 58.1625L42.7005 58.3572C40.75 59.6801 38.3376 60.4972 35.571 60.4972C32.1244 60.4972 29.0208 59.0703 26.8373 56.9299L26.5812 56.6788L26.2613 56.841C23.8285 58.0739 21.0387 58.695 18.1209 58.695C8.66021 58.695 1.1709 51.8699 1.1709 43.7182C1.1709 37.807 5.07922 32.7698 10.6745 30.2885L11.0499 30.1221L10.9595 29.7215C10.8542 29.2544 10.8521 28.7798 10.8521 28.2414C10.8521 20.4098 17.9803 14.0065 26.9653 14.0065H26.9667H26.9681H26.9695H26.9709H26.9723H26.9737H26.9751H26.9765H26.9779H26.9793H26.9807H26.9821H26.9835H26.9849H26.9863H26.9877H26.9891H26.9905H26.9919H26.9933H26.9947H26.9961H26.9975H26.9989H27.0003H27.0017H27.0031H27.0045H27.0059H27.0073H27.0087H27.0101H27.0115H27.0129H27.0143H27.0157H27.0171H27.0185H27.0199H27.0213H27.0227H27.0241H27.0255H27.0269H27.0283H27.0297H27.0311H27.0325H27.0339H27.0353H27.0367H27.0381H27.0395H27.0409H27.0423H27.0437H27.0451H27.0465H27.0479H27.0493H27.0507H27.0521H27.0535H27.0549H27.0563H27.0577H27.0591H27.0605H27.0619H27.0633H27.0647H27.0661H27.0675H27.0689H27.0703H27.0717H27.0731H27.0745H27.0759H27.0773H27.0787H27.0801H27.0816H27.083H27.0844H27.0858H27.0872H27.0886H27.09H27.0914H27.0928H27.0942H27.0956H27.097H27.0984H27.0998H27.1012H27.1026H27.104H27.1054H27.1068H27.1082H27.1096H27.111H27.1124H27.1138H27.1152H27.1166H27.118H27.1194H27.1208H27.1222H27.1236H27.125H27.1264H27.1278H27.1292H27.1306H27.132H27.1334H27.1348H27.1362H27.1376H27.139H27.1404H27.1418H27.1432H27.1446H27.146H27.1474H27.1488H27.1502H27.1516H27.153H27.1544H27.1558H27.1572H27.1586H27.16H27.1614H27.1628H27.1642H27.1656H27.167H27.1684H27.1698H27.1712H27.1726H27.174H27.1754H27.1768H27.1782H27.1796H27.181H27.1824H27.1838H27.1852H27.1866H27.188H27.1894H27.1908H27.1922H27.1936H27.195H27.1964H27.1978H27.1992H27.2006H27.202H27.2034H27.2048H27.2062H27.2076H27.209H27.2104H27.2118H27.2132H27.2146H27.216H27.2174H27.2188H27.2202H27.2216H27.223H27.2244H27.2258H27.2272H27.2286H27.23H27.2314H27.2328H27.2342H27.2356H27.237H27.2384H27.2399H27.2413H27.2427H27.2441H27.2455H27.2469H27.2483H27.2497H27.2511H27.2525H27.2539H27.2553H27.2567H27.2581H27.2595H27.2609H27.2623H27.2637H27.2651H27.2665H27.2679H27.2693H27.2707H27.2721H27.2735H27.2749H27.2763H27.2777H27.2791H27.2805H27.2819H27.2833H27.2847H27.2861H27.2875H27.2889H27.2903H27.2917H27.2931H27.2945H27.2959H27.2973H27.2987H27.3001H27.3015H27.3029H27.3043H27.3057H27.3071H27.3085H27.3099H27.3113H27.3127H27.3141H27.3155H27.3169H27.3183H27.3197H27.3211H27.3225H27.3239H27.3253H27.3267H27.3281H27.3295H27.3309H27.3323H27.3337H27.3351H27.3365H27.3379H27.3393H27.3407H27.3421H27.3435H27.3449H27.3463H27.3477H27.3491H27.3505H27.3519H27.3533H27.3547H27.3561H27.3575H27.3589H27.3603H27.3617H27.3631H27.3645H27.3659H27.3673H27.3687H27.3701H27.3715H27.3729H27.3743H27.3757H27.3771H27.3785H27.3799H27.3813H27.3827H27.3841H27.3856H27.387H27.3884H27.3898H27.3912H27.3926H27.394H27.3954H27.3968H27.3982H27.3996H27.401H27.4024H27.4038H27.4052H27.4066H27.408H27.4094H27.4108H27.4122H27.4136H27.415H27.4164H27.4178H27.4192H27.4206H27.422H27.4234H27.4248H27.4262H27.4276H27.429H27.4304H27.4318H27.4332H27.4346H27.436H27.4374H27.4388H27.4402H27.4416H27.443H27.4444H27.4458H27.4472H27.4486H27.45H27.4514H27.4528H27.4542H27.4556H27.457H27.4584H27.4598H27.4612H27.4626H27.464H27.4654H27.4668H27.4682H27.4696H27.471H27.4724H27.4738H27.4752H27.4766H27.478H27.4794H27.4808H27.4822H27.4836H27.485H27.4864H27.4878H27.4892H27.4906H27.492H27.4934H27.4948H27.4962H27.4976H27.499H27.5004H27.5018H27.5032H27.5046H27.506H27.5074H27.5088H27.5102H27.5116H27.513H27.5144H27.5158H27.5172H27.5186H27.52H27.5214H27.5228H27.5242H27.5256H27.527H27.5284H27.5298H27.5312H27.5326H27.534H27.5354H27.5368H27.5382H27.5396H27.5411H27.5425H27.5439H27.5453H27.5467H27.5481H27.5495H27.5509H27.5523H27.5537H27.5551H27.5565H27.5579H27.5593H27.5607H27.5621H27.5635H27.5649H27.5663H27.5677H27.5691H27.5705H27.5719H27.5733H27.5747H27.5761H27.5775H27.5789H27.5803H27.5817H27.5831H27.5845H27.5859H27.5873H27.5887H27.5901H27.5915H27.5929H27.5943H27.5957H27.5971H27.5985H27.5999H27.6013H27.6027H27.6041H27.6055H27.6069H27.6083H27.6097H27.6111H27.6125H27.6139H27.6153H27.6167H27.6181H27.6195H27.6209H27.6223H27.6237H27.6251H27.6265H27.6279H27.6293H27.6307H27.6321H27.6335H27.6349H27.6363H27.6377H27.6391H27.6405H27.6419H27.6433H27.6447H27.6461H27.6475H27.6489H27.6503H27.6517H27.6531H27.6545H27.6559H27.6573H27.6587H27.6601H27.6615H27.6629H27.6643H27.6657H27.6671H27.6685H27.6699H27.6713H27.6727H27.6741H27.6755H27.6769H27.6783H27.6797H27.6811H27.6825H28.0237L28.1481 13.6888C31.0531 6.2685 39.1002 0.861816 48.4789 0.861816C57.2732 0.861816 64.7404 5.43643 68.113 12.0379L68.2728 12.3506L68.6211 12.3065C69.4601 12.2002 70.2673 12.0984 71.1877 12.0984C78.0624 12.0984 83.8576 15.8183 86.397 20.9372Z" fill="white" stroke="#B37CD5"/>
<circle cx="33.012" cy="36.1475" r="16.0023" fill="#B37CD5"/>
<path d="M71.1289 47.2761V25.5267L72.0701 26.1086V46.9708L71.1289 47.2761Z" fill="#B37CD5"/>
<path fill-rule="evenodd" clip-rule="evenodd" d="M72.0696 23.5967C72.1968 23.7493 73.049 24.6205 73.1825 24.6905C73.5768 24.9162 74.0347 24.4488 73.8121 24.0609C73.6944 23.8542 72.9504 23.1642 72.7246 22.9384C71.4591 21.6729 71.7103 21.7015 70.4702 22.9384C70.2285 23.1801 69.5449 23.8097 69.3827 24.0418C69.1029 24.4552 69.6085 24.9131 69.9837 24.6968C70.1363 24.6078 70.9631 23.7652 71.1157 23.5839L71.1348 26.6269C71.1348 26.8591 71.0362 27.4441 71.5736 27.4696C72.13 27.5045 72.0601 26.8781 72.0601 26.6428L72.0696 23.5967Z" fill="#B37CD5"/>
<path fill-rule="evenodd" clip-rule="evenodd" d="M72.0696 49.4129C72.1968 49.2603 73.049 48.389 73.1825 48.3095C73.5768 48.0838 74.0347 48.5512 73.8121 48.9391C73.6944 49.1458 72.9504 49.8358 72.7246 50.0616C71.4591 51.3271 71.7103 51.2985 70.4702 50.0616C70.2285 49.8199 69.5449 49.1903 69.3827 48.9582C69.1029 48.5448 69.6085 48.087 69.9837 48.3032C70.1363 48.3922 70.9631 49.2348 71.1157 49.4161L71.1348 46.3826C71.1348 46.141 71.0362 45.5559 71.5736 45.5304C72.13 45.505 72.0601 46.1314 72.0601 46.3572L72.0696 49.4129Z" fill="#B37CD5"/>
<path fill-rule="evenodd" clip-rule="evenodd" d="M58.4064 33.8354C58.4318 34.2297 58.2728 37.0565 58.2442 37.721C58.1361 40.3221 57.9835 42.9358 57.8944 45.5273C57.8754 46.1632 57.8595 46.8469 57.815 47.4733L57.7355 49.4034C57.815 50.5608 59.1632 51.1427 60.152 50.4368C60.6385 50.087 60.718 49.5751 60.753 48.9932L61.3826 39.9659C61.3921 39.7592 61.3572 39.6511 61.5162 39.5716C61.6783 39.6352 61.6433 39.7243 61.6592 39.9214L62.2888 48.9582C62.3334 49.6228 62.4605 50.1156 62.8739 50.4209C63.9073 51.184 65.1728 50.5481 65.3 49.4161C65.3255 49.1649 64.8326 38.4683 64.7976 37.7497C64.7786 37.1042 64.61 34.2138 64.6355 33.8386C64.8962 34.1788 66.2444 36.2965 66.5211 36.7385C66.7373 37.0787 66.8804 37.4031 67.2588 37.6097C68.1205 38.0867 69.0839 37.4126 69.0458 36.5064C69.0267 36.0231 68.7405 35.7432 68.5434 35.4126C68.3367 35.0723 68.1491 34.7575 67.9519 34.4078C67.1697 33.0532 65.3732 29.4983 64.2698 28.4839C63.9105 28.1532 63.6688 28.0706 63.0742 28.1055C61.548 28.2041 61.548 28.2136 60.0121 28.1151C59.4557 28.0706 59.0773 28.1691 58.7911 28.4744C58.3873 28.8973 58.4509 28.7701 58.0534 29.3361C57.8277 29.6509 57.621 29.9657 57.4238 30.3059C56.5971 31.705 55.8976 32.9991 55.1058 34.3887C54.9087 34.7385 54.7115 35.0691 54.5144 35.3935C54.4063 35.5715 54.3172 35.6987 54.2091 35.8704C53.5255 36.9102 54.6416 38.2044 55.7736 37.6193C56.1138 37.4476 56.3046 37.1169 56.5176 36.7671C56.8865 36.1566 57.3793 35.4475 57.7768 34.8275C57.8754 34.6653 57.9739 34.4968 58.0916 34.3251L58.4064 33.8354Z" fill="#B37CD5"/>
<path fill-rule="evenodd" clip-rule="evenodd" d="M61.1926 22.0163C59.6377 22.1785 58.2991 23.603 58.4899 25.3646C58.6616 26.9258 60.0702 28.2708 61.8508 28.0642C64.4837 27.7684 65.533 24.6014 63.4948 22.7254C62.9351 22.2039 61.9844 21.9368 61.1926 22.0163Z" fill="#B37CD5"/>
<path d="M77.9904 31.4665C78.089 31.1803 78.3148 31.0372 78.6645 31.0372C79.0143 31.0372 79.2401 31.1803 79.3291 31.4665L80.0573 34.4713C80.1304 34.6589 80.1209 34.8497 80.0382 35.0278C79.9492 35.2154 79.8061 35.3426 79.6153 35.4125C79.4277 35.4857 79.2369 35.4761 79.0493 35.3871C78.868 35.3076 78.744 35.1613 78.6709 34.9737L78.4737 33.7432L78.0413 35.0278C77.8887 35.3139 77.6629 35.457 77.3672 35.457C77.062 35.457 76.8362 35.3139 76.6931 35.0278L76.2543 33.7432L76.0667 34.9737C75.9936 35.1613 75.8696 35.3044 75.682 35.3871C75.5007 35.4761 75.3131 35.4857 75.116 35.4125C74.9283 35.3394 74.7916 35.2154 74.7026 35.0278C74.6231 34.8497 74.6136 34.6589 74.6835 34.4713L75.4021 31.4665C75.5007 31.1803 75.7265 31.0372 76.0762 31.0372C76.426 31.0372 76.6518 31.1803 76.7503 31.4665L77.3704 33.298L77.9904 31.4665ZM81.6821 35.244C81.539 35.3871 81.3673 35.4602 81.1606 35.4602C80.9539 35.4602 80.7822 35.3871 80.6391 35.244C80.4961 35.1009 80.4229 34.9292 80.4229 34.7225V31.7717C80.4229 31.565 80.4961 31.3933 80.6391 31.2502C80.7822 31.1072 80.9539 31.034 81.1606 31.034C81.3673 31.034 81.539 31.1072 81.6821 31.2502C81.8252 31.3933 81.8983 31.565 81.8983 31.7717V32.7574L83.2179 31.2502C83.361 31.1072 83.5422 31.034 83.7489 31.034C83.9461 31.034 84.1273 31.1072 84.2704 31.2502C84.4135 31.3933 84.4866 31.565 84.4866 31.7717V34.7225C84.4866 34.9292 84.4135 35.1009 84.2704 35.244C84.1273 35.3871 83.9461 35.4602 83.7489 35.4602C83.5422 35.4602 83.3642 35.3871 83.2274 35.244C83.0748 35.1009 83.0017 34.9292 83.0017 34.7225V33.7368L81.6821 35.244ZM86.3277 33.9498V34.7225C86.3277 34.9292 86.2546 35.1009 86.1115 35.244C85.9684 35.3871 85.7967 35.4602 85.59 35.4602C85.3833 35.4602 85.2116 35.3871 85.0685 35.244C84.9254 35.1009 84.8523 34.9292 84.8523 34.7225V31.7717C84.8523 31.565 84.9254 31.3933 85.0685 31.2502C85.2116 31.1072 85.3833 31.034 85.59 31.034C85.7967 31.034 85.9684 31.1072 86.1115 31.2502C86.2546 31.3933 86.3277 31.565 86.3277 31.7717V32.5444H87.253V31.7717C87.253 31.565 87.3261 31.3933 87.4692 31.2502C87.6123 31.1072 87.7935 31.034 87.9907 31.034C88.1974 31.034 88.3691 31.1072 88.5122 31.2502C88.6648 31.3933 88.7379 31.565 88.7379 31.7717V34.7225C88.7379 34.9292 88.6648 35.1009 88.5122 35.244C88.3691 35.3871 88.1974 35.4602 87.9907 35.4602C87.7935 35.4602 87.6123 35.3871 87.4692 35.244C87.3261 35.1009 87.253 34.9292 87.253 34.7225V33.9498H86.3277ZM89.8413 35.4602C89.6346 35.4602 89.4629 35.3871 89.3198 35.244C89.1767 35.1009 89.1036 34.9292 89.1036 34.7225C89.1036 34.5158 89.1767 34.3441 89.3198 34.201C89.4629 34.058 89.6346 33.9848 89.8413 33.9848C90.048 33.9848 90.2197 34.058 90.3628 34.201C90.5059 34.3441 90.579 34.5158 90.579 34.7225C90.579 34.9292 90.5059 35.1009 90.3628 35.244C90.2165 35.3871 90.0448 35.4602 89.8413 35.4602ZM86.811 40.2489C86.846 40.2044 86.8841 40.1694 86.9191 40.1217C87.0622 39.9882 87.2339 39.915 87.4406 39.915C87.6473 39.915 87.819 39.9882 87.9621 40.1312C88.1052 40.2743 88.1783 40.446 88.1783 40.6527C88.1783 40.7068 88.1783 40.7608 88.1592 40.8053C88.1401 40.9484 88.0416 41.1106 87.8635 41.2887C87.4311 41.7179 86.9128 41.9437 86.2991 41.9437C85.6886 41.9437 85.1671 41.7275 84.7283 41.2887C84.2958 40.8594 84.0828 40.3379 84.0828 39.7274C84.0828 39.1169 84.299 38.5954 84.7283 38.1662C85.1671 37.7274 85.6886 37.5111 86.2991 37.5111C86.9096 37.5111 87.4311 37.7274 87.8635 38.1566C88.0447 38.3442 88.1433 38.5064 88.1592 38.6495C88.1783 38.694 88.1783 38.7481 88.1783 38.8021C88.1783 39.0088 88.1052 39.1805 87.9621 39.3236C87.819 39.4667 87.6473 39.5398 87.4406 39.5398C87.2339 39.5398 87.0622 39.4667 86.9191 39.3236C86.8841 39.2886 86.846 39.2505 86.811 39.2059C86.6775 39.0629 86.4962 38.9897 86.2991 38.9897C86.0924 38.9897 85.9143 39.0629 85.7681 39.2059C85.625 39.349 85.5518 39.5207 85.5518 39.7274C85.5518 39.9341 85.625 40.1058 85.7681 40.2489C85.9111 40.392 86.0924 40.4651 86.2991 40.4651C86.4994 40.4651 86.6775 40.3952 86.811 40.2489ZM91.8509 37.9436C91.9494 37.6574 92.1752 37.5143 92.525 37.5143C92.8748 37.5143 93.1005 37.6574 93.1991 37.9436L93.9273 40.9484C93.9908 41.136 93.9813 41.3268 93.9018 41.5144C93.8128 41.6925 93.676 41.8292 93.4789 41.8928C93.2913 41.9659 93.1005 41.9564 92.9129 41.8737C92.7317 41.7847 92.6077 41.648 92.5345 41.4508L92.3374 40.2298L91.9049 41.5144C91.7523 41.8006 91.5361 41.9437 91.2308 41.9437C90.9351 41.9437 90.7094 41.8006 90.5567 41.5144L90.1243 40.2298L89.9271 41.4508C89.854 41.648 89.73 41.7815 89.5488 41.8737C89.3612 41.9532 89.1704 41.9628 88.9828 41.8928C88.7856 41.8292 88.6489 41.6957 88.5599 41.5144C88.4804 41.3268 88.4708 41.136 88.5408 40.9484L89.2594 37.9436C89.358 37.6574 89.5837 37.5143 89.9335 37.5143C90.2833 37.5143 90.509 37.6574 90.6076 37.9436L91.2277 39.7847L91.8509 37.9436ZM95.0242 41.9469C94.8176 41.9469 94.6459 41.8737 94.5028 41.7306C94.3597 41.5876 94.2866 41.4063 94.2866 41.2028C94.2866 41.0057 94.3597 40.8244 94.5028 40.6813C94.6459 40.5382 94.8176 40.4651 95.0242 40.4651C95.2309 40.4651 95.4026 40.5382 95.5457 40.6813C95.6888 40.8244 95.7619 41.0057 95.7619 41.2028C95.7619 41.4095 95.6888 41.5876 95.5457 41.7306C95.3995 41.8737 95.2309 41.9469 95.0242 41.9469ZM76.2829 38.8594C76.2034 38.8594 76.1207 38.8943 76.0667 38.9579C76.0031 39.012 75.9681 39.0915 75.9681 39.1741C75.9681 39.2632 76.0031 39.3363 76.0667 39.3999C76.1207 39.4635 76.2003 39.4889 76.2829 39.4889C76.372 39.4889 76.4451 39.4635 76.5087 39.3999C76.5723 39.3363 76.5977 39.2664 76.5977 39.1741C76.5977 39.0946 76.5723 39.012 76.5087 38.9579C76.4451 38.8943 76.3751 38.8594 76.2829 38.8594ZM75.7265 40.5923C75.2145 40.4746 74.8902 40.1694 74.728 39.6861C74.5754 39.1932 74.6104 38.7449 74.8457 38.3506C75.0714 37.9563 75.4117 37.7051 75.8505 37.5779C76.2988 37.4603 76.7122 37.5143 77.1096 37.7401C77.5135 37.9722 77.7647 38.3061 77.8823 38.7544C78 39.1932 77.9459 39.6161 77.7202 40.0104L76.8139 41.5717C76.7154 41.7497 76.5627 41.8674 76.3656 41.9119C76.1684 41.966 75.9872 41.9469 75.8091 41.8388C75.6279 41.7402 75.5134 41.5876 75.4689 41.3904C75.4148 41.1933 75.4339 41.012 75.542 40.834L75.7265 40.5923ZM80.0922 41.9469C79.4817 41.9469 79.0238 41.7306 78.709 41.2918C78.4038 40.8626 78.2512 40.3411 78.2512 39.7306C78.2512 39.1201 78.4038 38.5986 78.709 38.1693C79.0238 37.7305 79.4817 37.5143 80.0922 37.5143C80.7027 37.5143 81.1702 37.7305 81.4754 38.1693C81.7807 38.5986 81.9428 39.1201 81.9428 39.7306C81.9428 40.3411 81.7807 40.8626 81.4754 41.2918C81.1702 41.7306 80.7027 41.9469 80.0922 41.9469ZM80.0922 40.4651C80.2003 40.4651 80.2894 40.392 80.3625 40.2489C80.4261 40.1058 80.4611 39.9341 80.4611 39.7274C80.4611 39.5207 80.4261 39.349 80.3625 39.2059C80.2894 39.0629 80.2003 38.9897 80.0922 38.9897C79.9841 38.9897 79.8951 39.0629 79.8315 39.2059C79.7584 39.349 79.7234 39.5207 79.7234 39.7274C79.7234 39.9341 79.7584 40.1058 79.8315 40.2489C79.8951 40.3952 79.9841 40.4651 80.0922 40.4651Z" fill="#B37CD5"/>
<path d="M37.0561 27.0801C35.3449 28.7743 33.9453 30.1671 33.9453 30.1739C33.9453 30.1807 34.1769 30.4191 34.4613 30.7052L34.9772 31.2211L34.3608 31.834C34.022 32.1763 33.7376 32.4504 33.7257 32.4504C33.7155 32.4504 33.6252 32.3942 33.5299 32.3261L33.3511 32.2018L33.1877 32.3193C33.0957 32.384 33.0123 32.4334 33.0055 32.4334C32.9918 32.4334 32.2001 31.6399 31.9106 31.3402L31.7898 31.2125L31.8459 31.1564L31.8987 31.1002L31.8528 31.0508C31.8272 31.0218 30.4378 29.6205 28.7624 27.9332L25.7231 24.8684L25.6618 24.9246L25.6005 24.9807L25.4081 24.7815C25.1629 24.5397 25.0761 24.4853 24.9382 24.4853C24.7236 24.4853 24.5602 24.6453 24.5602 24.8599C24.5602 24.9995 24.6062 25.0693 24.8377 25.3042L25.0557 25.5256L24.5278 26.0602L24 26.5864L26.2169 28.822C27.4394 30.0496 28.8288 31.4458 29.3073 31.926L30.1773 32.8011L30.712 32.2784L31.2466 31.7591L31.8034 32.3244C32.1099 32.6343 32.3636 32.8897 32.3602 32.8897C32.3533 32.8931 32.3244 32.9186 32.2852 32.9425C32.2239 32.9884 32.178 33.0821 31.8357 33.8534L31.4509 34.7115L31.3402 34.8222L31.2262 34.9295L31.1649 34.8682L31.1036 34.812L30.2012 35.7025C29.7091 36.1895 28.3044 37.5789 27.0835 38.7895L24.8633 40.9825L24.9194 41.0472L24.9807 41.1085L24.7628 41.3299C24.6453 41.4508 24.5312 41.5784 24.5125 41.6142C24.3848 41.8713 24.6232 42.1982 24.9041 42.1523C25.0216 42.1301 25.1135 42.0671 25.3281 41.8526L25.5239 41.6534L26.0449 42.1846L26.5659 42.7158L27.4037 41.89C27.8634 41.4337 28.8254 40.4836 29.5388 39.7787C30.2522 39.0738 30.8363 38.5 30.8363 38.5085C30.8363 38.5613 30.6217 39.5369 30.5366 39.8758C30.2522 40.9927 29.8589 42.0467 29.4707 42.7346C29.406 42.8452 29.3532 42.9406 29.3566 42.944C29.3634 42.9474 29.7551 42.8657 30.2369 42.7618L31.1104 42.5728H33.3443H35.5816L36.4585 42.7618C36.9404 42.8657 37.3388 42.9508 37.3456 42.9508C37.3524 42.9508 37.3235 42.9014 37.2894 42.8435C37.1753 42.6648 36.8654 42.0075 36.7122 41.6261C36.2491 40.4479 35.8932 38.9853 35.6957 37.412C35.6429 37.0034 35.585 36.4193 35.5952 36.4074C35.5986 36.4006 37.5908 38.4081 40.0171 40.8616L40.9978 41.8509L41.0625 41.7896L41.1272 41.7283L41.3418 41.9462C41.4661 42.0705 41.5921 42.1744 41.6381 42.1982C41.8883 42.3157 42.1693 42.1335 42.1693 41.8594C42.1693 41.8066 42.1557 41.7351 42.1403 41.6993C42.1267 41.6602 42.016 41.5325 41.8986 41.4116L41.6806 41.1902L42.2084 40.6641L42.7329 40.1414L42.1557 39.5608C41.839 39.2407 40.6403 38.0369 39.5012 36.8842C38.3604 35.7349 37.2315 34.5958 36.988 34.3523L36.5504 33.9113L36.026 34.434L35.4982 34.9601L35.3705 34.8324L35.2428 34.7047L34.8614 33.8466C34.5481 33.1417 34.4698 32.9816 34.4272 32.9493C34.3983 32.9323 34.3744 32.9101 34.3778 32.9067C34.3812 32.8999 34.6383 32.6428 34.9482 32.3363L35.5118 31.7778L35.568 31.834C35.5969 31.8664 35.6327 31.8868 35.6429 31.8868C35.6531 31.8834 37.0119 30.5451 38.6618 28.9173C40.3083 27.2828 41.7045 25.9019 41.7692 25.8423L41.8798 25.7316L41.8151 25.6669L41.7504 25.5988L41.9786 25.3775C42.1846 25.1748 42.2101 25.1425 42.2391 25.0505C42.2749 24.9297 42.2561 24.8292 42.1863 24.7202C42.0978 24.5857 41.8662 24.5244 41.7198 24.5959C41.684 24.613 41.5563 24.727 41.4354 24.8479L41.2141 25.0659L40.6931 24.5312L40.172 24L37.0561 27.0801ZM34.64 35.1832L34.9533 35.4965L34.9005 35.5425C34.8682 35.568 34.8478 35.5952 34.8478 35.6106C34.8478 35.6208 34.9363 35.7246 35.0504 35.8353C35.1611 35.946 35.2428 36.0379 35.2326 36.0345C35.2224 36.0277 35.0402 35.9392 34.8341 35.8319L34.4527 35.6395H33.3477L32.2427 35.6429L32.1388 35.6957L32.0349 35.7519L31.8987 35.6174L31.7625 35.4829L32.0656 35.1764L32.3721 34.8699H33.3477H34.3285L34.64 35.1832Z" fill="white"/>
<path d="M30.7207 43.4208C30.5249 43.4633 30.1043 43.5604 29.7842 43.6268C29.4641 43.6949 29.1678 43.7613 29.1321 43.7698L29.0605 43.7919V45.7211V47.6502L29.1576 47.6672C29.2104 47.6809 29.6173 47.7677 30.06 47.8596L30.862 48.0299H31.24H31.618V46.6388V45.2511L31.7355 45.1762C31.8751 45.0843 32.185 44.9344 32.3416 44.88C33.1793 44.5956 34.0988 44.6739 34.8292 45.086L34.9723 45.1677L34.9757 46.5945L34.9825 48.0299H35.4132H35.8474L36.7379 47.8409C37.2266 47.737 37.6318 47.6519 37.6403 47.6519C37.6438 47.6519 37.6472 46.7835 37.6438 45.716L37.6403 43.78L37.5263 43.7545C37.465 43.7409 37.0104 43.6404 36.5149 43.5331L35.6176 43.3339L33.3513 43.3373H31.0816L30.7207 43.4208Z" fill="white"/>
</svg>
