<svg width="108" height="64" viewBox="0 0 108 64" fill="none" xmlns="http://www.w3.org/2000/svg">
<path d="M85.7261 20.9372L85.9128 21.3136L86.3158 21.1944C88.0726 20.675 89.8172 20.3669 91.672 20.3669C100.059 20.3669 106.829 26.4521 106.829 33.7536C106.829 40.5479 100.981 46.3219 93.2786 47.3569L92.9056 47.407L92.8506 47.7793C91.9367 53.9597 85.8502 58.9071 78.4052 58.9071C77.0186 58.9071 75.6245 58.7019 74.3396 58.3911L74.1233 58.3387L73.9397 58.4644C69.8442 61.2665 64.3262 63.0413 58.3258 63.0413C52.2047 63.0413 46.6906 61.266 42.5996 58.3632L42.3167 58.1625L42.0296 58.3572C40.0791 59.6801 37.6667 60.4972 34.9001 60.4972C31.4535 60.4972 28.3499 59.0703 26.1664 56.9299L25.9103 56.6788L25.5904 56.841C23.1576 58.0739 20.3678 58.695 17.45 58.695C7.98931 58.695 0.5 51.8699 0.5 43.7182C0.5 37.807 4.40833 32.7698 10.0036 30.2885L10.379 30.1221L10.2886 29.7215C10.1833 29.2544 10.1812 28.7798 10.1812 28.2414C10.1812 20.4098 17.3094 14.0065 26.2944 14.0065H26.2958H26.2972H26.2986H26.3H26.3014H26.3028H26.3042H26.3056H26.307H26.3084H26.3098H26.3112H26.3126H26.314H26.3154H26.3168H26.3182H26.3196H26.321H26.3224H26.3238H26.3252H26.3266H26.328H26.3294H26.3308H26.3322H26.3336H26.335H26.3364H26.3378H26.3392H26.3406H26.342H26.3434H26.3448H26.3462H26.3476H26.349H26.3504H26.3518H26.3532H26.3546H26.356H26.3574H26.3588H26.3602H26.3616H26.363H26.3644H26.3658H26.3672H26.3686H26.37H26.3714H26.3728H26.3742H26.3756H26.377H26.3784H26.3798H26.3812H26.3826H26.384H26.3854H26.3868H26.3882H26.3896H26.391H26.3924H26.3938H26.3952H26.3966H26.398H26.3994H26.4008H26.4022H26.4036H26.405H26.4065H26.4079H26.4093H26.4107H26.4121H26.4135H26.4149H26.4163H26.4177H26.4191H26.4205H26.4219H26.4233H26.4247H26.4261H26.4275H26.4289H26.4303H26.4317H26.4331H26.4345H26.4359H26.4373H26.4387H26.4401H26.4415H26.4429H26.4443H26.4457H26.4471H26.4485H26.4499H26.4513H26.4527H26.4541H26.4555H26.4569H26.4583H26.4597H26.4611H26.4625H26.4639H26.4653H26.4667H26.4681H26.4695H26.4709H26.4723H26.4737H26.4751H26.4765H26.4779H26.4793H26.4807H26.4821H26.4835H26.4849H26.4863H26.4877H26.4891H26.4905H26.4919H26.4933H26.4947H26.4961H26.4975H26.4989H26.5003H26.5017H26.5031H26.5045H26.5059H26.5073H26.5087H26.5101H26.5115H26.5129H26.5143H26.5157H26.5171H26.5185H26.5199H26.5213H26.5227H26.5241H26.5255H26.5269H26.5283H26.5297H26.5311H26.5325H26.5339H26.5353H26.5367H26.5381H26.5395H26.5409H26.5423H26.5437H26.5451H26.5465H26.5479H26.5493H26.5507H26.5521H26.5535H26.5549H26.5563H26.5577H26.5591H26.5605H26.5619H26.5633H26.5647H26.5662H26.5676H26.569H26.5704H26.5718H26.5732H26.5746H26.576H26.5774H26.5788H26.5802H26.5816H26.583H26.5844H26.5858H26.5872H26.5886H26.59H26.5914H26.5928H26.5942H26.5956H26.597H26.5984H26.5998H26.6012H26.6026H26.604H26.6054H26.6068H26.6082H26.6096H26.611H26.6124H26.6138H26.6152H26.6166H26.618H26.6194H26.6208H26.6222H26.6236H26.625H26.6264H26.6278H26.6292H26.6306H26.632H26.6334H26.6348H26.6362H26.6376H26.639H26.6404H26.6418H26.6432H26.6446H26.646H26.6474H26.6488H26.6502H26.6516H26.653H26.6544H26.6558H26.6572H26.6586H26.66H26.6614H26.6628H26.6642H26.6656H26.667H26.6684H26.6698H26.6712H26.6726H26.674H26.6754H26.6768H26.6782H26.6796H26.681H26.6824H26.6838H26.6852H26.6866H26.688H26.6894H26.6908H26.6922H26.6936H26.695H26.6964H26.6978H26.6992H26.7006H26.702H26.7034H26.7048H26.7062H26.7076H26.709H26.7104H26.7119H26.7133H26.7147H26.7161H26.7175H26.7189H26.7203H26.7217H26.7231H26.7245H26.7259H26.7273H26.7287H26.7301H26.7315H26.7329H26.7343H26.7357H26.7371H26.7385H26.7399H26.7413H26.7427H26.7441H26.7455H26.7469H26.7483H26.7497H26.7511H26.7525H26.7539H26.7553H26.7567H26.7581H26.7595H26.7609H26.7623H26.7637H26.7651H26.7665H26.7679H26.7693H26.7707H26.7721H26.7735H26.7749H26.7763H26.7777H26.7791H26.7805H26.7819H26.7833H26.7847H26.7861H26.7875H26.7889H26.7903H26.7917H26.7931H26.7945H26.7959H26.7973H26.7987H26.8001H26.8015H26.8029H26.8043H26.8057H26.8071H26.8085H26.8099H26.8113H26.8127H26.8141H26.8155H26.8169H26.8183H26.8197H26.8211H26.8225H26.8239H26.8253H26.8267H26.8281H26.8295H26.8309H26.8323H26.8337H26.8351H26.8365H26.8379H26.8393H26.8407H26.8421H26.8435H26.8449H26.8463H26.8477H26.8491H26.8505H26.8519H26.8533H26.8547H26.8561H26.8575H26.8589H26.8603H26.8617H26.8631H26.8645H26.8659H26.8674H26.8688H26.8702H26.8716H26.873H26.8744H26.8758H26.8772H26.8786H26.88H26.8814H26.8828H26.8842H26.8856H26.887H26.8884H26.8898H26.8912H26.8926H26.894H26.8954H26.8968H26.8982H26.8996H26.901H26.9024H26.9038H26.9052H26.9066H26.908H26.9094H26.9108H26.9122H26.9136H26.915H26.9164H26.9178H26.9192H26.9206H26.922H26.9234H26.9248H26.9262H26.9276H26.929H26.9304H26.9318H26.9332H26.9346H26.936H26.9374H26.9388H26.9402H26.9416H26.943H26.9444H26.9458H26.9472H26.9486H26.95H26.9514H26.9528H26.9542H26.9556H26.957H26.9584H26.9598H26.9612H26.9626H26.964H26.9654H26.9668H26.9682H26.9696H26.971H26.9724H26.9738H26.9752H26.9766H26.978H26.9794H26.9808H26.9822H26.9836H26.985H26.9864H26.9878H26.9892H26.9906H26.992H26.9934H26.9948H26.9962H26.9976H26.999H27.0004H27.0018H27.0032H27.0046H27.006H27.0074H27.0088H27.0102H27.0116H27.3528L27.4772 13.6888C30.3822 6.2685 38.4293 0.861816 47.808 0.861816C56.6023 0.861816 64.0695 5.43643 67.4421 12.0379L67.6019 12.3506L67.9502 12.3065C68.7892 12.2002 69.5964 12.0984 70.5168 12.0984C77.3915 12.0984 83.1867 15.8183 85.7261 20.9372Z" fill="white" stroke="#F99035"/>
<circle cx="32.3402" cy="36.1475" r="16.0023" fill="#F99035"/>
<path fill-rule="evenodd" clip-rule="evenodd" d="M32.7599 39.516L32.942 39.3327L30.6266 37.0198L30.4434 37.2018L32.7599 39.516Z" fill="white"/>
<path fill-rule="evenodd" clip-rule="evenodd" d="M30.6266 39.516L30.4434 39.3327L32.7599 37.0198L32.942 37.2018L30.6266 39.516Z" fill="white"/>
<path fill-rule="evenodd" clip-rule="evenodd" d="M32.7599 39.516L32.942 39.3327L30.6266 37.0198L30.4434 37.2018L32.7599 39.516Z" fill="white"/>
<path fill-rule="evenodd" clip-rule="evenodd" d="M30.6266 39.516L30.4434 39.3327L32.7599 37.0198L32.942 37.2018L30.6266 39.516Z" fill="white"/>
<path d="M30.8368 29.5239H30.4434V49.5116H30.8368V29.5239Z" fill="white"/>
<path fill-rule="evenodd" clip-rule="evenodd" d="M32.7599 34.52L32.942 34.3367L30.6266 32.0201L30.4434 32.2058L32.7599 34.52Z" fill="white"/>
<path fill-rule="evenodd" clip-rule="evenodd" d="M30.6266 34.52L30.4434 34.3367L32.7599 32.0201L32.942 32.2058L30.6266 34.52Z" fill="white"/>
<path d="M32.9452 29.5239H32.5518V49.5116H32.9452V29.5239Z" fill="white"/>
<path fill-rule="evenodd" clip-rule="evenodd" d="M32.7599 32.0201L32.942 31.8368L30.6266 29.5239L30.4434 29.706L32.7599 32.0201Z" fill="white"/>
<path fill-rule="evenodd" clip-rule="evenodd" d="M30.6266 32.0201L30.4434 31.8368L32.7599 29.5239L32.942 29.706L30.6266 32.0201Z" fill="white"/>
<path fill-rule="evenodd" clip-rule="evenodd" d="M32.7599 34.52L32.942 34.3367L30.6266 32.0201L30.4434 32.2058L32.7599 34.52Z" fill="white"/>
<path fill-rule="evenodd" clip-rule="evenodd" d="M30.6266 34.52L30.4434 34.3367L32.7599 32.0201L32.942 32.2058L30.6266 34.52Z" fill="white"/>
<path fill-rule="evenodd" clip-rule="evenodd" d="M32.7599 34.52L32.942 34.3367L30.6266 32.0201L30.4434 32.2058L32.7599 34.52Z" fill="white"/>
<path fill-rule="evenodd" clip-rule="evenodd" d="M30.6266 34.52L30.4434 34.3367L32.7599 32.0201L32.942 32.2058L30.6266 34.52Z" fill="white"/>
<path fill-rule="evenodd" clip-rule="evenodd" d="M30.685 32.989H32.7486C33.0077 32.989 33.2215 33.2028 33.2215 33.4618V35.5243C33.2215 35.7833 33.0077 35.9934 32.7486 35.9934H30.685C30.426 35.9934 30.2158 35.7833 30.2158 35.5243V33.4618C30.2146 33.2028 30.426 32.989 30.685 32.989Z" fill="white"/>
<path fill-rule="evenodd" clip-rule="evenodd" d="M30.3293 36.3576H33.0564C33.3289 36.3576 33.5537 36.5812 33.5537 36.8536C33.5537 37.1261 33.3289 37.3497 33.0564 37.3497H30.3293C30.0568 37.3497 29.832 37.1261 29.832 36.8536C29.832 36.5812 30.0568 36.3576 30.3293 36.3576Z" fill="white"/>
<path fill-rule="evenodd" clip-rule="evenodd" d="M34.5341 32.989C34.8066 32.989 35.0314 33.2126 35.0314 33.4851V35.4949C35.0314 35.7674 34.8066 35.991 34.5341 35.991C34.258 35.991 34.0332 35.7674 34.0332 35.4949V33.4851C34.0332 33.2126 34.258 32.989 34.5341 32.989Z" fill="white"/>
<path fill-rule="evenodd" clip-rule="evenodd" d="M34.5305 36.3576H35.8769C36.1494 36.3576 36.3742 36.5812 36.3742 36.8536C36.3742 37.1261 36.1494 37.3497 35.8769 37.3497H34.5305C34.258 37.3497 34.0332 37.1261 34.0332 36.8536C34.0332 36.5812 34.258 36.3576 34.5305 36.3576Z" fill="white"/>
<path fill-rule="evenodd" clip-rule="evenodd" d="M28.8547 32.989C28.5822 32.989 28.3574 33.2126 28.3574 33.4851V35.4949C28.3574 35.7674 28.5822 35.991 28.8547 35.991C29.1272 35.991 29.352 35.7674 29.352 35.4949V33.4851C29.352 33.2126 29.1284 32.989 28.8547 32.989Z" fill="white"/>
<path fill-rule="evenodd" clip-rule="evenodd" d="M28.8547 36.3576H27.5119C27.2358 36.3576 27.0146 36.5812 27.0146 36.8536C27.0146 37.1261 27.2358 37.3497 27.5119 37.3497H28.8547C29.1272 37.3497 29.352 37.1261 29.352 36.8536C29.352 36.5812 29.1284 36.3576 28.8547 36.3576Z" fill="white"/>
<path fill-rule="evenodd" clip-rule="evenodd" d="M32.7599 32.0201L32.942 31.8368L30.6266 29.5239L30.4434 29.706L32.7599 32.0201Z" fill="white"/>
<path fill-rule="evenodd" clip-rule="evenodd" d="M30.6266 32.0201L30.4434 31.8368L32.7599 29.5239L32.942 29.706L30.6266 32.0201Z" fill="white"/>
<path fill-rule="evenodd" clip-rule="evenodd" d="M32.7599 42.0158L32.942 41.8325L30.6266 39.5159L30.4434 39.7016L32.7599 42.0158Z" fill="white"/>
<path fill-rule="evenodd" clip-rule="evenodd" d="M30.6266 42.0158L30.4434 41.8325L32.7599 39.5159L32.942 39.7016L30.6266 42.0158Z" fill="white"/>
<path fill-rule="evenodd" clip-rule="evenodd" d="M32.7599 32.0201L32.942 31.8368L30.6266 29.5239L30.4434 29.706L32.7599 32.0201Z" fill="white"/>
<path fill-rule="evenodd" clip-rule="evenodd" d="M30.6266 32.0201L30.4434 31.8368L32.7599 29.5239L32.942 29.706L30.6266 32.0201Z" fill="white"/>
<path fill-rule="evenodd" clip-rule="evenodd" d="M32.7599 42.0158L32.942 41.8325L30.6266 39.5159L30.4434 39.7016L32.7599 42.0158Z" fill="white"/>
<path fill-rule="evenodd" clip-rule="evenodd" d="M30.6266 42.0158L30.4434 41.8325L32.7599 39.5159L32.942 39.7016L30.6266 42.0158Z" fill="white"/>
<path fill-rule="evenodd" clip-rule="evenodd" d="M32.7599 44.5156L32.942 44.3287L30.6266 42.0158L30.4434 42.1979L32.7599 44.5156Z" fill="white"/>
<path fill-rule="evenodd" clip-rule="evenodd" d="M30.6266 44.5156L30.4434 44.3287L32.7599 42.0158L32.942 42.1979L30.6266 44.5156Z" fill="white"/>
<path fill-rule="evenodd" clip-rule="evenodd" d="M32.7599 42.0158L32.942 41.8325L30.6266 39.5159L30.4434 39.7016L32.7599 42.0158Z" fill="white"/>
<path fill-rule="evenodd" clip-rule="evenodd" d="M30.6266 42.0158L30.4434 41.8325L32.7599 39.5159L32.942 39.7016L30.6266 42.0158Z" fill="white"/>
<path fill-rule="evenodd" clip-rule="evenodd" d="M32.7599 44.5156L32.942 44.3287L30.6266 42.0158L30.4434 42.1979L32.7599 44.5156Z" fill="white"/>
<path fill-rule="evenodd" clip-rule="evenodd" d="M30.6266 44.5156L30.4434 44.3287L32.7599 42.0158L32.942 42.1979L30.6266 44.5156Z" fill="white"/>
<path fill-rule="evenodd" clip-rule="evenodd" d="M32.7599 47.0118L32.942 46.8285L30.6266 44.5156L30.4434 44.6977L32.7599 47.0118Z" fill="white"/>
<path fill-rule="evenodd" clip-rule="evenodd" d="M30.6266 47.0118L30.4434 46.8285L32.7599 44.5156L32.942 44.6977L30.6266 47.0118Z" fill="white"/>
<path fill-rule="evenodd" clip-rule="evenodd" d="M32.7599 42.0158L32.942 41.8325L30.6266 39.5159L30.4434 39.7016L32.7599 42.0158Z" fill="white"/>
<path fill-rule="evenodd" clip-rule="evenodd" d="M30.6266 42.0158L30.4434 41.8325L32.7599 39.5159L32.942 39.7016L30.6266 42.0158Z" fill="white"/>
<path fill-rule="evenodd" clip-rule="evenodd" d="M32.7599 44.5156L32.942 44.3287L30.6266 42.0158L30.4434 42.1979L32.7599 44.5156Z" fill="white"/>
<path fill-rule="evenodd" clip-rule="evenodd" d="M30.6266 44.5156L30.4434 44.3287L32.7599 42.0158L32.942 42.1979L30.6266 44.5156Z" fill="white"/>
<path fill-rule="evenodd" clip-rule="evenodd" d="M32.7599 47.0118L32.942 46.8285L30.6266 44.5156L30.4434 44.6977L32.7599 47.0118Z" fill="white"/>
<path fill-rule="evenodd" clip-rule="evenodd" d="M30.6266 47.0118L30.4434 46.8285L32.7599 44.5156L32.942 44.6977L30.6266 47.0118Z" fill="white"/>
<path fill-rule="evenodd" clip-rule="evenodd" d="M32.7599 49.5116L32.942 49.3247L30.6266 47.0118L30.4434 47.1975L32.7599 49.5116Z" fill="white"/>
<path fill-rule="evenodd" clip-rule="evenodd" d="M30.6266 49.5116L30.4434 49.3247L32.7599 47.0118L32.942 47.1975L30.6266 49.5116Z" fill="white"/>
<path fill-rule="evenodd" clip-rule="evenodd" d="M32.7599 42.0158L32.942 41.8325L30.6266 39.5159L30.4434 39.7016L32.7599 42.0158Z" fill="white"/>
<path fill-rule="evenodd" clip-rule="evenodd" d="M30.6266 42.0158L30.4434 41.8325L32.7599 39.5159L32.942 39.7016L30.6266 42.0158Z" fill="white"/>
<path fill-rule="evenodd" clip-rule="evenodd" d="M32.7599 44.5156L32.942 44.3287L30.6266 42.0158L30.4434 42.1979L32.7599 44.5156Z" fill="white"/>
<path fill-rule="evenodd" clip-rule="evenodd" d="M30.6266 44.5156L30.4434 44.3287L32.7599 42.0158L32.942 42.1979L30.6266 44.5156Z" fill="white"/>
<path fill-rule="evenodd" clip-rule="evenodd" d="M32.7599 47.0118L32.942 46.8285L30.6266 44.5156L30.4434 44.6977L32.7599 47.0118Z" fill="white"/>
<path fill-rule="evenodd" clip-rule="evenodd" d="M30.6266 47.0118L30.4434 46.8285L32.7599 44.5156L32.942 44.6977L30.6266 47.0118Z" fill="white"/>
<path fill-rule="evenodd" clip-rule="evenodd" d="M32.7599 49.5116L32.942 49.3247L30.6266 47.0118L30.4434 47.1975L32.7599 49.5116Z" fill="white"/>
<path fill-rule="evenodd" clip-rule="evenodd" d="M30.6266 49.5116L30.4434 49.3247L32.7599 47.0118L32.942 47.1975L30.6266 49.5116Z" fill="white"/>
<path fill-rule="evenodd" clip-rule="evenodd" d="M32.7599 42.0158L32.942 41.8325L30.6266 39.5159L30.4434 39.7016L32.7599 42.0158Z" fill="white"/>
<path fill-rule="evenodd" clip-rule="evenodd" d="M30.6266 42.0158L30.4434 41.8325L32.7599 39.5159L32.942 39.7016L30.6266 42.0158Z" fill="white"/>
<path fill-rule="evenodd" clip-rule="evenodd" d="M32.7599 44.5156L32.942 44.3287L30.6266 42.0158L30.4434 42.1979L32.7599 44.5156Z" fill="white"/>
<path fill-rule="evenodd" clip-rule="evenodd" d="M30.6266 44.5156L30.4434 44.3287L32.7599 42.0158L32.942 42.1979L30.6266 44.5156Z" fill="white"/>
<path fill-rule="evenodd" clip-rule="evenodd" d="M32.7599 47.0118L32.942 46.8285L30.6266 44.5156L30.4434 44.6977L32.7599 47.0118Z" fill="white"/>
<path fill-rule="evenodd" clip-rule="evenodd" d="M30.6266 47.0118L30.4434 46.8285L32.7599 44.5156L32.942 44.6977L30.6266 47.0118Z" fill="white"/>
<path fill-rule="evenodd" clip-rule="evenodd" d="M32.7599 49.5116L32.942 49.3247L30.6266 47.0118L30.4434 47.1975L32.7599 49.5116Z" fill="white"/>
<path fill-rule="evenodd" clip-rule="evenodd" d="M30.6266 49.5116L30.4434 49.3247L32.7599 47.0118L32.942 47.1975L30.6266 49.5116Z" fill="white"/>
<path fill-rule="evenodd" clip-rule="evenodd" d="M33.4923 49.5117H29.8989C29.6191 49.5117 29.3955 49.7352 29.3955 50.015C29.3955 50.2912 29.6203 50.5184 29.8989 50.5184H33.4923C33.7684 50.5184 33.9956 50.2912 33.9956 50.015C33.9956 49.7352 33.7684 49.5117 33.4923 49.5117Z" fill="white"/>
<path fill-rule="evenodd" clip-rule="evenodd" d="M32.9106 28.9888H30.4731C30.197 28.9888 29.9697 29.2124 29.9697 29.4922C29.9697 29.7683 30.197 29.9956 30.4731 29.9956H32.9106C33.1868 29.9956 33.414 29.7683 33.414 29.4922C33.414 29.2136 33.1868 28.9888 32.9106 28.9888Z" fill="white"/>
<path d="M31.4608 25.0656C32.3002 25.0656 32.8793 25.5787 33.142 26.197C33.2312 26.4108 33.2837 26.6344 33.2898 26.8555C33.2996 27.0791 33.2691 27.3003 33.1933 27.4933C33.0137 27.949 32.5995 28.2789 31.9263 28.2789C31.0869 28.2789 30.5041 27.7658 30.2451 27.1475C30.1559 26.9337 30.1033 26.7101 30.0936 26.4853C30.0838 26.2642 30.1143 26.0442 30.1937 25.8475C30.3734 25.3967 30.7851 25.0656 31.4608 25.0656ZM32.9489 26.2751C32.718 25.7302 32.2036 25.272 31.4608 25.272C30.8841 25.272 30.5359 25.5482 30.3868 25.9233C30.3208 26.0919 30.2939 26.2813 30.3 26.478C30.3098 26.6747 30.355 26.8751 30.4344 27.0681C30.6654 27.613 31.1798 28.0712 31.9251 28.0712C32.4981 28.0712 32.8463 27.7951 32.9954 27.4163C33.0613 27.2477 33.0882 27.0583 33.0821 26.8641C33.0736 26.6686 33.0284 26.4658 32.9489 26.2751Z" fill="white"/>
<path d="M31.6928 24.0209C31.9554 24.0209 32.1937 24.1382 32.366 24.3275C32.5346 24.5133 32.6384 24.7723 32.6384 25.0545C32.6384 25.3368 32.5346 25.5958 32.366 25.7815C32.1937 25.9709 31.9554 26.0882 31.6928 26.0882C31.4301 26.0882 31.1918 25.9709 31.0195 25.7815C30.8509 25.5958 30.7471 25.3368 30.7471 25.0545C30.7471 24.7723 30.8509 24.5133 31.0195 24.3275C31.1918 24.1382 31.4301 24.0209 31.6928 24.0209ZM32.2096 24.4693C32.0788 24.3214 31.8956 24.231 31.6915 24.231C31.4912 24.231 31.3079 24.3202 31.1735 24.4693C31.0391 24.6183 30.956 24.8248 30.956 25.0558C30.956 25.2867 31.0391 25.4932 31.1735 25.6459C31.3079 25.7913 31.4912 25.8805 31.6915 25.8805C31.8956 25.8805 32.0776 25.7913 32.2096 25.6459C32.344 25.4944 32.4307 25.2879 32.4307 25.0558C32.4307 24.8236 32.3452 24.6171 32.2096 24.4693Z" fill="white"/>
<path d="M31.4608 25.0656C32.3002 25.0656 32.8793 25.5787 33.142 26.197C33.2312 26.4108 33.2837 26.6344 33.2898 26.8555C33.2996 27.0791 33.2691 27.3003 33.1933 27.4933C33.0137 27.949 32.5995 28.2789 31.9263 28.2789C31.0869 28.2789 30.5041 27.7658 30.2451 27.1475C30.1559 26.9337 30.1033 26.7101 30.0936 26.4853C30.0838 26.2642 30.1143 26.0442 30.1937 25.8475C30.3734 25.3967 30.7851 25.0656 31.4608 25.0656ZM32.9489 26.2751C32.718 25.7302 32.2036 25.272 31.4608 25.272C30.8841 25.272 30.5359 25.5482 30.3868 25.9233C30.3208 26.0919 30.2939 26.2813 30.3 26.478C30.3098 26.6747 30.355 26.8751 30.4344 27.0681C30.6654 27.613 31.1798 28.0712 31.9251 28.0712C32.4981 28.0712 32.8463 27.7951 32.9954 27.4163C33.0613 27.2477 33.0882 27.0583 33.0821 26.8641C33.0736 26.6686 33.0284 26.4658 32.9489 26.2751Z" fill="white"/>
<path d="M31.4884 26.5793C32.0407 26.3826 32.5624 26.2617 32.9595 26.2214C33.4018 26.1761 33.7048 26.2385 33.7708 26.4242C33.8368 26.6075 33.6401 26.8481 33.2698 27.0925C32.9387 27.31 32.4549 27.5409 31.899 27.7413C31.343 27.938 30.8226 28.059 30.4255 28.0993C29.9868 28.1445 29.6802 28.0822 29.6142 27.8965C29.5482 27.7132 29.7449 27.4688 30.1151 27.2281C30.4499 27.0094 30.9325 26.7761 31.4884 26.5793ZM32.9827 26.4278C32.5991 26.4657 32.0957 26.5867 31.5569 26.7761C31.018 26.9691 30.5489 27.1927 30.2275 27.4041C29.9441 27.5898 29.7828 27.745 29.8133 27.828C29.8414 27.9075 30.065 27.9282 30.4035 27.894C30.7835 27.8561 31.2868 27.7352 31.8293 27.5458V27.5421C32.3681 27.3528 32.8337 27.1279 33.155 26.9178C33.4385 26.7321 33.5997 26.5769 33.5729 26.4938C33.5423 26.4095 33.3212 26.3924 32.9827 26.4278Z" fill="white"/>
<path d="M31.5405 27.2135C32.0304 27.1964 32.4972 27.255 32.849 27.365C33.2254 27.4786 33.4844 27.6582 33.532 27.872C33.5394 27.8928 33.5418 27.9172 33.5418 27.9405C33.5455 28.092 33.4526 28.23 33.2828 28.34C33.1349 28.4402 32.9199 28.5257 32.6645 28.588C32.4263 28.643 32.1465 28.6772 31.8459 28.6882C31.3523 28.7053 30.8892 28.6467 30.5374 28.5367C30.161 28.4231 29.902 28.2435 29.8507 28.0296C29.8434 28.0089 29.8434 27.9844 29.8409 27.9612C29.8373 27.8097 29.9301 27.6753 30.0999 27.5617C30.2478 27.4615 30.4628 27.376 30.7182 27.3173C30.9577 27.2587 31.2375 27.2232 31.5405 27.2135ZM32.7867 27.5654C32.4556 27.4615 32.0133 27.4065 31.5478 27.42C31.2619 27.4297 30.9955 27.4652 30.7683 27.5201C30.5374 27.5751 30.3468 27.6472 30.2197 27.734C30.1097 27.8061 30.0511 27.8818 30.0535 27.9551C30.0535 27.9624 30.0535 27.9722 30.0572 27.9832C30.0877 28.1213 30.2954 28.2447 30.6021 28.3388C30.9332 28.4426 31.3719 28.4976 31.841 28.4842C32.1269 28.4744 32.3896 28.439 32.6181 28.3876C32.8527 28.3327 33.0396 28.2569 33.1704 28.1702C33.2779 28.0981 33.3365 28.0223 33.3365 27.949C33.3365 27.9417 33.3329 27.9319 33.3292 27.9209C33.2974 27.7853 33.0946 27.6582 32.7867 27.5654Z" fill="white"/>
<path fill-rule="evenodd" clip-rule="evenodd" d="M31.6927 22L32.0239 22.931L32.355 23.862H31.6927H31.0293L31.3604 22.931L31.6927 22Z" fill="white"/>
<path d="M31.8408 23.5444H31.5439V29.6571H31.8408V23.5444Z" fill="white"/>
<path d="M71.1416 47.2834V25.5273L72.083 26.1093V46.9781L71.1416 47.2834Z" fill="#F99035"/>
<path fill-rule="evenodd" clip-rule="evenodd" d="M72.0839 23.5874C72.2111 23.74 73.073 24.6114 73.2066 24.6909C73.6009 24.9167 74.0589 24.4492 73.8362 24.0612C73.7186 23.8545 72.9649 23.1549 72.7486 22.9386C71.4733 21.6729 71.7246 21.7015 70.4938 22.9386C70.2426 23.1803 69.5588 23.81 69.4061 24.0326C69.1263 24.4556 69.6224 24.9135 70.0072 24.6973C70.1599 24.6082 70.9867 23.7655 71.1394 23.5842L71.1489 26.6182C71.1489 26.8503 71.0503 27.445 71.5973 27.4705C72.1443 27.4959 72.0839 26.8694 72.0839 26.6436V23.5874Z" fill="#F99035"/>
<path fill-rule="evenodd" clip-rule="evenodd" d="M72.0839 49.4079C72.2111 49.2552 73.073 48.3838 73.2066 48.3139C73.6009 48.0817 74.0589 48.5556 73.8362 48.9436C73.7186 49.1407 72.9649 49.8404 72.7486 50.0566C71.4733 51.3319 71.7246 51.2938 70.4938 50.0662C70.2426 49.8149 69.5588 49.1948 69.4061 48.9626C69.1263 48.5492 69.6224 48.0912 70.0072 48.3075C70.1599 48.3965 70.9867 49.2393 71.1394 49.411L71.1489 46.3771C71.1489 46.1449 71.0503 45.5598 71.5973 45.5343C72.1443 45.4993 72.0839 46.1258 72.0839 46.3612V49.4079Z" fill="#F99035"/>
<path fill-rule="evenodd" clip-rule="evenodd" d="M58.4275 33.8373C58.4466 34.2317 58.2844 37.0589 58.2558 37.7236C58.1572 40.3187 58.0045 42.9392 57.9155 45.5311C57.8964 46.1608 57.871 46.8414 57.836 47.4774L57.7565 49.4078C57.836 50.5654 59.1844 51.1474 60.1639 50.4319C60.6569 50.082 60.73 49.5796 60.7745 48.9944L61.3947 39.9561C61.4138 39.7589 61.3756 39.6413 61.5378 39.5713C61.6905 39.6349 61.665 39.724 61.6714 39.9211L62.3011 48.9499C62.3456 49.6146 62.4823 50.1075 62.8926 50.4128C63.9166 51.1761 65.1824 50.5464 65.3191 49.4078C65.3446 49.1661 64.8421 38.4678 64.8166 37.7395C64.7912 37.0939 64.6195 34.203 64.6545 33.8341C64.9152 34.1649 66.2541 36.2925 66.5403 36.7345C66.7566 37.0748 66.8997 37.3992 67.2686 37.6059C68.1305 38.0734 69.1005 37.3992 69.0559 36.5024C69.0368 36.019 68.7602 35.7296 68.563 35.4084C68.3563 35.0681 68.1686 34.7437 67.9714 34.4034C67.1796 33.0391 65.3923 29.4931 64.2887 28.4786C63.9198 28.1478 63.6877 28.0652 63.093 28.1001C61.5569 28.1987 61.5664 28.2083 60.0304 28.1001C59.4738 28.0652 59.0858 28.1638 58.8092 28.4595C58.4053 28.8825 58.4593 28.7553 58.065 29.3214C57.8487 29.6457 57.642 29.9574 57.4353 30.3009C56.618 31.6906 55.9183 32.9946 55.1264 34.3843C54.9197 34.7341 54.7321 35.0649 54.5349 35.3893C54.4172 35.5674 54.3377 35.6946 54.22 35.8663C53.5458 36.8999 54.6526 38.1911 55.7847 37.6155C56.125 37.4437 56.3254 37.113 56.5289 36.7632C56.8978 36.143 57.4003 35.4433 57.7883 34.8168C57.8869 34.6546 57.995 34.4861 58.1031 34.3239L58.4275 33.8373Z" fill="#F99035"/>
<path fill-rule="evenodd" clip-rule="evenodd" d="M61.2134 22.0195C59.6487 22.1817 58.3098 23.6065 58.5102 25.3683C58.6819 26.9298 60.0908 28.2751 61.8622 28.0684C64.4954 27.7726 65.5544 24.6051 63.5159 22.7287C62.9466 22.2071 62.0021 21.9368 61.2134 22.0195Z" fill="#F99035"/>
<path d="M78.0052 31.4585C78.1038 31.1723 78.3296 31.0355 78.6794 31.0355C79.0292 31.0355 79.255 31.1691 79.3536 31.4585L80.0819 34.4638C80.155 34.661 80.1455 34.8423 80.0564 35.0299C79.9674 35.2176 79.8306 35.3448 79.643 35.4084C79.4458 35.4815 79.2582 35.472 79.0769 35.3893C78.8893 35.3002 78.7621 35.1635 78.6921 34.9759L78.5045 33.7451L78.0656 35.0299C77.9225 35.3161 77.6967 35.4593 77.3914 35.4593C77.0956 35.4593 76.8698 35.3161 76.7172 35.0299L76.2847 33.7451L76.0875 34.9759C76.0239 35.1635 75.8903 35.3002 75.709 35.3893C75.5214 35.4688 75.3306 35.4783 75.143 35.4084C74.9553 35.3448 74.809 35.2207 74.7295 35.0299C74.6405 34.8423 74.6309 34.661 74.7041 34.4638L75.4324 31.4585C75.5309 31.1723 75.7568 31.0355 76.097 31.0355C76.4469 31.0355 76.6727 31.1691 76.7713 31.4585L77.3914 33.2999L78.0052 31.4585ZM81.6975 35.2366C81.5543 35.3893 81.3826 35.4624 81.1759 35.4624C80.9787 35.4624 80.7974 35.3893 80.6543 35.2462C80.5112 35.1031 80.4381 34.9218 80.4381 34.7183V31.7733C80.4381 31.5666 80.5112 31.3949 80.6543 31.2518C80.7974 31.1087 80.9787 31.0355 81.1759 31.0355C81.3826 31.0355 81.5607 31.1087 81.707 31.2518C81.8533 31.3949 81.9233 31.5666 81.9233 31.7733V32.7529L83.2431 31.2454C83.3862 31.1023 83.5579 31.0387 83.7646 31.0387C83.9713 31.0387 84.1431 31.1118 84.2862 31.255C84.4293 31.3981 84.5024 31.5698 84.5024 31.7765V34.7214C84.5024 34.9282 84.4293 35.1062 84.2862 35.2494C84.1431 35.3925 83.9713 35.4656 83.7646 35.4656C83.5579 35.4656 83.3862 35.3925 83.2431 35.2494C83.0999 35.1062 83.0268 34.925 83.0268 34.7214V33.7356L81.6975 35.2366ZM86.3502 33.9455V34.7183C86.3502 34.925 86.277 35.1031 86.1339 35.2462C85.9908 35.3893 85.8095 35.4624 85.6124 35.4624C85.4056 35.4624 85.2339 35.3893 85.0908 35.2462C84.9477 35.1031 84.8745 34.9218 84.8745 34.7183V31.7733C84.8745 31.5666 84.9477 31.3949 85.0908 31.2518C85.2339 31.1087 85.4056 31.0355 85.6124 31.0355C85.8095 31.0355 85.9908 31.1087 86.1339 31.2518C86.277 31.3949 86.3502 31.5666 86.3502 31.7733V32.5461H87.2756V31.7733C87.2756 31.5666 87.3488 31.3949 87.4919 31.2518C87.635 31.1087 87.8067 31.0355 88.0134 31.0355C88.2202 31.0355 88.3919 31.1087 88.535 31.2518C88.6781 31.3949 88.7513 31.5666 88.7513 31.7733V34.7183C88.7513 34.925 88.6781 35.1031 88.535 35.2462C88.3919 35.3893 88.2202 35.4624 88.0134 35.4624C87.8067 35.4624 87.635 35.3893 87.4919 35.2462C87.3488 35.1031 87.2756 34.9218 87.2756 34.7183V33.9455H86.3502ZM89.8548 35.4624C89.6481 35.4624 89.4764 35.3893 89.3333 35.2462C89.1901 35.1031 89.117 34.9218 89.117 34.7183C89.117 34.5211 89.1901 34.3398 89.3333 34.1967C89.4764 34.0536 89.6481 33.9804 89.8548 33.9804C90.0615 33.9804 90.2333 34.0536 90.3764 34.1967C90.5195 34.3398 90.5926 34.5211 90.5926 34.7183C90.5926 34.925 90.5195 35.1031 90.3764 35.2462C90.2333 35.3893 90.0615 35.4624 89.8548 35.4624ZM76.1447 37.555C76.3514 37.555 76.5232 37.6282 76.6663 37.7713C76.8094 37.9144 76.8826 38.0957 76.8826 38.2929V41.2092C76.8826 41.4159 76.8094 41.5876 76.6663 41.7307C76.5232 41.8738 76.3514 41.947 76.1447 41.947C75.938 41.947 75.7663 41.8738 75.6232 41.7307C75.4801 41.5876 75.4069 41.4159 75.4069 41.2092V39.037C75.2002 39.037 75.0285 38.9639 74.8854 38.8112C74.7327 38.6681 74.6596 38.4964 74.6596 38.2897C74.6596 38.0925 74.7327 37.9112 74.8854 37.7681C75.0285 37.625 75.2002 37.5519 75.4069 37.5519H76.1447V37.555ZM89.3619 40.2551C89.3873 40.2106 89.4255 40.166 89.4604 40.1279C89.6036 39.9848 89.7753 39.9116 89.982 39.9116C90.1887 39.9116 90.3605 39.9848 90.5036 40.1279C90.6467 40.271 90.7198 40.4522 90.7198 40.6494C90.7198 40.7035 90.7198 40.7576 90.7103 40.8116C90.6912 40.9547 90.5831 41.1169 90.405 41.295C89.9725 41.7244 89.4541 41.9406 88.8403 41.9406C88.2265 41.9406 87.7081 41.7244 87.2693 41.295C86.8368 40.8657 86.6237 40.3441 86.6237 39.7335C86.6237 39.1134 86.8399 38.595 87.2693 38.1625C87.7081 37.7331 88.2297 37.5169 88.8403 37.5169C89.4509 37.5169 89.9725 37.7331 90.405 38.1625C90.5863 38.3406 90.6912 38.5028 90.7103 38.6459C90.7198 38.6999 90.7198 38.754 90.7198 38.8081C90.7198 39.0148 90.6467 39.1865 90.5036 39.3296C90.3605 39.4727 90.1887 39.5459 89.982 39.5459C89.7753 39.5459 89.6036 39.4727 89.4604 39.3296C89.4255 39.2946 89.3873 39.2501 89.3619 39.2024C89.2188 39.0593 89.0375 38.9862 88.8403 38.9862C88.6336 38.9862 88.4619 39.0593 88.3187 39.2024C88.1756 39.3455 88.1025 39.5268 88.1025 39.7303C88.1025 39.9275 88.1756 40.1088 88.3187 40.2519C88.4619 40.395 88.6336 40.4682 88.8403 40.4682C89.0375 40.4713 89.2188 40.3982 89.3619 40.2551ZM94.393 37.9494C94.4916 37.6632 94.7174 37.5201 95.0672 37.5201C95.4171 37.5201 95.6429 37.6632 95.7414 37.9494L96.4697 40.9547C96.5429 41.1424 96.5333 41.3332 96.4443 41.5113C96.3552 41.6989 96.2185 41.8261 96.0309 41.8961C95.8337 41.9692 95.646 41.9597 95.4648 41.8706C95.2771 41.7911 95.1499 41.6448 95.08 41.4572L94.8923 40.236L94.4534 41.5113C94.3103 41.7975 94.0845 41.9406 93.7792 41.9406C93.4835 41.9406 93.2577 41.7975 93.105 41.5113L92.6725 40.236L92.4753 41.4572C92.4117 41.6448 92.2782 41.788 92.0969 41.8706C91.9093 41.9597 91.7184 41.9692 91.5308 41.8961C91.3432 41.8229 91.1969 41.6989 91.1174 41.5113C91.0283 41.3332 91.0188 41.1424 91.0919 40.9547L91.8202 37.9494C91.9188 37.6632 92.1446 37.5201 92.4849 37.5201C92.8347 37.5201 93.0605 37.6632 93.1591 37.9494L93.7792 39.7812L94.393 37.9494ZM97.5637 41.9406C97.3666 41.9406 97.1853 41.8675 97.0422 41.7244C96.8991 41.5812 96.8259 41.4095 96.8259 41.2028C96.8259 40.9961 96.8991 40.8243 97.0422 40.6812C97.1853 40.5381 97.3666 40.465 97.5637 40.465C97.7705 40.465 97.9485 40.5381 98.0948 40.6812C98.238 40.8243 98.3111 40.9961 98.3111 41.2028C98.3111 41.4095 98.238 41.5812 98.0948 41.7244C97.9517 41.8675 97.7705 41.9406 97.5637 41.9406ZM80.0278 39.3582C80.3427 39.5554 80.4953 39.8798 80.4953 40.3282C80.4953 40.7766 80.3427 41.1551 80.0374 41.4763C79.7416 41.7911 79.3377 41.9438 78.832 41.9438C78.2564 41.9438 77.843 41.8357 77.5917 41.613C77.3405 41.3872 77.2133 41.1646 77.2133 40.9388C77.2133 40.7226 77.2928 40.5254 77.4455 40.3727C77.6077 40.2106 77.7953 40.131 78.0211 40.131C78.2278 40.131 78.3804 40.2042 78.4886 40.3282C78.5872 40.4618 78.6953 40.5349 78.8225 40.5445C78.9497 40.5445 79.0197 40.4809 79.0483 40.3282C79.0674 40.1851 78.9593 40.0961 78.7144 40.0674C78.39 40.0484 78.2278 39.8798 78.2278 39.5554C78.2628 39.231 78.4441 39.0625 78.7494 39.0434C78.9465 39.0084 79.0292 38.9448 79.0197 38.8653C79.0006 38.7763 78.9306 38.7381 78.7939 38.7476C78.6667 38.7476 78.5681 38.7922 78.514 38.8653C78.4504 38.9448 78.3328 38.983 78.1642 38.983C77.9829 38.983 77.8239 38.9289 77.6967 38.8112C77.5695 38.6936 77.4995 38.5409 77.4995 38.3628C77.4995 38.1752 77.6267 37.9844 77.8589 37.7967C78.1006 37.6091 78.4345 37.5201 78.8734 37.5201C79.2423 37.5201 79.5667 37.6377 79.8529 37.8699C80.1328 38.102 80.2759 38.4073 80.2759 38.7667C80.2791 38.9703 80.1964 39.1674 80.0278 39.3582ZM82.6325 41.9406C82.0218 41.9406 81.5639 41.7244 81.249 41.295C80.9437 40.8657 80.7911 40.3441 80.7911 39.7335C80.7911 39.1134 80.9437 38.595 81.249 38.1625C81.5639 37.7331 82.0218 37.5169 82.6325 37.5169C83.2431 37.5169 83.7106 37.7331 84.0159 38.1625C84.3307 38.5918 84.4834 39.1134 84.4834 39.7335C84.4834 40.3441 84.3307 40.8657 84.0159 41.295C83.7106 41.7275 83.2431 41.9406 82.6325 41.9406ZM82.6325 40.4713C82.7406 40.4713 82.8296 40.3982 82.9028 40.2551C82.9664 40.112 83.0014 39.9307 83.0014 39.7335C83.0014 39.5268 82.9664 39.3487 82.9028 39.2056C82.8296 39.0625 82.7406 38.9893 82.6325 38.9893C82.5243 38.9893 82.4448 39.0625 82.3717 39.2056C82.2985 39.3487 82.2635 39.53 82.2635 39.7335C82.2635 39.9307 82.2985 40.112 82.3717 40.2551C82.4448 40.3982 82.5243 40.4713 82.6325 40.4713Z" fill="#F99035"/>
</svg>
