<svg width="108" height="64" viewBox="0 0 108 64" fill="none" xmlns="http://www.w3.org/2000/svg">
<path d="M85.7261 20.9372L85.9128 21.3136L86.3158 21.1944C88.0726 20.675 89.8172 20.3669 91.672 20.3669C100.059 20.3669 106.829 26.4521 106.829 33.7536C106.829 40.5479 100.981 46.3219 93.2786 47.3569L92.9056 47.407L92.8506 47.7793C91.9367 53.9597 85.8502 58.9071 78.4052 58.9071C77.0186 58.9071 75.6245 58.7019 74.3396 58.3911L74.1233 58.3387L73.9397 58.4644C69.8442 61.2665 64.3262 63.0413 58.3258 63.0413C52.2047 63.0413 46.6906 61.266 42.5996 58.3632L42.3167 58.1625L42.0296 58.3572C40.0791 59.6801 37.6667 60.4972 34.9001 60.4972C31.4535 60.4972 28.3499 59.0703 26.1664 56.9299L25.9103 56.6788L25.5904 56.841C23.1576 58.0739 20.3678 58.695 17.45 58.695C7.98931 58.695 0.5 51.8699 0.5 43.7182C0.5 37.807 4.40833 32.7698 10.0036 30.2885L10.379 30.1221L10.2886 29.7215C10.1833 29.2544 10.1812 28.7798 10.1812 28.2414C10.1812 20.4098 17.3094 14.0065 26.2944 14.0065H26.2958H26.2972H26.2986H26.3H26.3014H26.3028H26.3042H26.3056H26.307H26.3084H26.3098H26.3112H26.3126H26.314H26.3154H26.3168H26.3182H26.3196H26.321H26.3224H26.3238H26.3252H26.3266H26.328H26.3294H26.3308H26.3322H26.3336H26.335H26.3364H26.3378H26.3392H26.3406H26.342H26.3434H26.3448H26.3462H26.3476H26.349H26.3504H26.3518H26.3532H26.3546H26.356H26.3574H26.3588H26.3602H26.3616H26.363H26.3644H26.3658H26.3672H26.3686H26.37H26.3714H26.3728H26.3742H26.3756H26.377H26.3784H26.3798H26.3812H26.3826H26.384H26.3854H26.3868H26.3882H26.3896H26.391H26.3924H26.3938H26.3952H26.3966H26.398H26.3994H26.4008H26.4022H26.4036H26.405H26.4064H26.4079H26.4093H26.4107H26.4121H26.4135H26.4149H26.4163H26.4177H26.4191H26.4205H26.4219H26.4233H26.4247H26.4261H26.4275H26.4289H26.4303H26.4317H26.4331H26.4345H26.4359H26.4373H26.4387H26.4401H26.4415H26.4429H26.4443H26.4457H26.4471H26.4485H26.4499H26.4513H26.4527H26.4541H26.4555H26.4569H26.4583H26.4597H26.4611H26.4625H26.4639H26.4653H26.4667H26.4681H26.4695H26.4709H26.4723H26.4737H26.4751H26.4765H26.4779H26.4793H26.4807H26.4821H26.4835H26.4849H26.4863H26.4877H26.4891H26.4905H26.4919H26.4933H26.4947H26.4961H26.4975H26.4989H26.5003H26.5017H26.5031H26.5045H26.5059H26.5073H26.5087H26.5101H26.5115H26.5129H26.5143H26.5157H26.5171H26.5185H26.5199H26.5213H26.5227H26.5241H26.5255H26.5269H26.5283H26.5297H26.5311H26.5325H26.5339H26.5353H26.5367H26.5381H26.5395H26.5409H26.5423H26.5437H26.5451H26.5465H26.5479H26.5493H26.5507H26.5521H26.5535H26.5549H26.5563H26.5577H26.5591H26.5605H26.5619H26.5633H26.5647H26.5662H26.5676H26.569H26.5704H26.5718H26.5732H26.5746H26.576H26.5774H26.5788H26.5802H26.5816H26.583H26.5844H26.5858H26.5872H26.5886H26.59H26.5914H26.5928H26.5942H26.5956H26.597H26.5984H26.5998H26.6012H26.6026H26.604H26.6054H26.6068H26.6082H26.6096H26.611H26.6124H26.6138H26.6152H26.6166H26.618H26.6194H26.6208H26.6222H26.6236H26.625H26.6264H26.6278H26.6292H26.6306H26.632H26.6334H26.6348H26.6362H26.6376H26.639H26.6404H26.6418H26.6432H26.6446H26.646H26.6474H26.6488H26.6502H26.6516H26.653H26.6544H26.6558H26.6572H26.6586H26.66H26.6614H26.6628H26.6642H26.6656H26.667H26.6684H26.6698H26.6712H26.6726H26.674H26.6754H26.6768H26.6782H26.6796H26.681H26.6824H26.6838H26.6852H26.6866H26.688H26.6894H26.6908H26.6922H26.6936H26.695H26.6964H26.6978H26.6992H26.7006H26.702H26.7034H26.7048H26.7062H26.7076H26.709H26.7104H26.7118H26.7133H26.7147H26.7161H26.7175H26.7189H26.7203H26.7217H26.7231H26.7245H26.7259H26.7273H26.7287H26.7301H26.7315H26.7329H26.7343H26.7357H26.7371H26.7385H26.7399H26.7413H26.7427H26.7441H26.7455H26.7469H26.7483H26.7497H26.7511H26.7525H26.7539H26.7553H26.7567H26.7581H26.7595H26.7609H26.7623H26.7637H26.7651H26.7665H26.7679H26.7693H26.7707H26.7721H26.7735H26.7749H26.7763H26.7777H26.7791H26.7805H26.7819H26.7833H26.7847H26.7861H26.7875H26.7889H26.7903H26.7917H26.7931H26.7945H26.7959H26.7973H26.7987H26.8001H26.8015H26.8029H26.8043H26.8057H26.8071H26.8085H26.8099H26.8113H26.8127H26.8141H26.8155H26.8169H26.8183H26.8197H26.8211H26.8225H26.8239H26.8253H26.8267H26.8281H26.8295H26.8309H26.8323H26.8337H26.8351H26.8365H26.8379H26.8393H26.8407H26.8421H26.8435H26.8449H26.8463H26.8477H26.8491H26.8505H26.8519H26.8533H26.8547H26.8561H26.8575H26.8589H26.8603H26.8617H26.8631H26.8645H26.8659H26.8673H26.8688H26.8702H26.8716H26.873H26.8744H26.8758H26.8772H26.8786H26.88H26.8814H26.8828H26.8842H26.8856H26.887H26.8884H26.8898H26.8912H26.8926H26.894H26.8954H26.8968H26.8982H26.8996H26.901H26.9024H26.9038H26.9052H26.9066H26.908H26.9094H26.9108H26.9122H26.9136H26.915H26.9164H26.9178H26.9192H26.9206H26.922H26.9234H26.9248H26.9262H26.9276H26.929H26.9304H26.9318H26.9332H26.9346H26.936H26.9374H26.9388H26.9402H26.9416H26.943H26.9444H26.9458H26.9472H26.9486H26.95H26.9514H26.9528H26.9542H26.9556H26.957H26.9584H26.9598H26.9612H26.9626H26.964H26.9654H26.9668H26.9682H26.9696H26.971H26.9724H26.9738H26.9752H26.9766H26.978H26.9794H26.9808H26.9822H26.9836H26.985H26.9864H26.9878H26.9892H26.9906H26.992H26.9934H26.9948H26.9962H26.9976H26.999H27.0004H27.0018H27.0032H27.0046H27.006H27.0074H27.0088H27.0102H27.0116H27.3528L27.4772 13.6888C30.3822 6.2685 38.4293 0.861816 47.808 0.861816C56.6023 0.861816 64.0695 5.43643 67.4421 12.0379L67.6019 12.3506L67.9502 12.3065C68.7892 12.2002 69.5964 12.0984 70.5168 12.0984C77.3915 12.0984 83.1867 15.8183 85.7261 20.9372Z" fill="white" stroke="#F99035"/>
<circle cx="32.3402" cy="36.1475" r="16.0023" fill="#F99035"/>
<path d="M70.7988 47.2834V25.5273L71.7402 26.1093V46.9781L70.7988 47.2834Z" fill="#F99035"/>
<path fill-rule="evenodd" clip-rule="evenodd" d="M71.7412 23.5874C71.8684 23.74 72.7302 24.6114 72.8638 24.6909C73.2581 24.9167 73.7161 24.4492 73.4935 24.0612C73.3758 23.8545 72.6221 23.1549 72.4058 22.9386C71.1305 21.6729 71.3818 21.7015 70.151 22.9386C69.8998 23.1803 69.216 23.81 69.0634 24.0326C68.7835 24.4556 69.2796 24.9135 69.6644 24.6973C69.8171 24.6082 70.644 23.7655 70.7966 23.5842L70.8062 26.6182C70.8062 26.8503 70.7076 27.445 71.2546 27.4705C71.8016 27.4959 71.7412 26.8694 71.7412 26.6436V23.5874Z" fill="#F99035"/>
<path fill-rule="evenodd" clip-rule="evenodd" d="M71.7412 49.4079C71.8684 49.2552 72.7302 48.3838 72.8638 48.3139C73.2581 48.0817 73.7161 48.5556 73.4935 48.9436C73.3758 49.1407 72.6221 49.8404 72.4058 50.0566C71.1305 51.3319 71.3818 51.2938 70.151 50.0662C69.8998 49.8149 69.216 49.1948 69.0634 48.9626C68.7835 48.5492 69.2796 48.0912 69.6644 48.3075C69.8171 48.3965 70.644 49.2393 70.7966 49.411L70.8062 46.3771C70.8062 46.1449 70.7076 45.5598 71.2546 45.5343C71.8016 45.4993 71.7412 46.1258 71.7412 46.3612V49.4079Z" fill="#F99035"/>
<path fill-rule="evenodd" clip-rule="evenodd" d="M58.0847 33.8373C58.1038 34.2317 57.9416 37.0589 57.913 37.7236C57.8144 40.3187 57.6618 42.9392 57.5727 45.5311C57.5536 46.1608 57.5282 46.8414 57.4932 47.4774L57.4137 49.4078C57.4932 50.5654 58.8416 51.1474 59.8212 50.4319C60.3141 50.082 60.3872 49.5796 60.4318 48.9944L61.0519 39.9561C61.071 39.7589 61.0328 39.6413 61.195 39.5713C61.3477 39.6349 61.3222 39.724 61.3286 39.9211L61.9583 48.9499C62.0028 49.6146 62.1396 50.1075 62.5498 50.4128C63.5739 51.1761 64.8396 50.5464 64.9764 49.4078C65.0018 49.1661 64.4993 38.4678 64.4739 37.7395C64.4484 37.0939 64.2767 34.203 64.3117 33.8341C64.5725 34.1649 65.9113 36.2925 66.1976 36.7345C66.4138 37.0748 66.5569 37.3992 66.9259 37.6059C67.7877 38.0734 68.7577 37.3992 68.7132 36.5024C68.6941 36.019 68.4174 35.7296 68.2202 35.4084C68.0135 35.0681 67.8259 34.7437 67.6287 34.4034C66.8368 33.0391 65.0495 29.4931 63.9459 28.4786C63.577 28.1478 63.3449 28.0652 62.7502 28.1001C61.2141 28.1987 61.2237 28.2083 59.6876 28.1001C59.1311 28.0652 58.7431 28.1638 58.4664 28.4595C58.0625 28.8825 58.1166 28.7553 57.7222 29.3214C57.5059 29.6457 57.2992 29.9574 57.0925 30.3009C56.2752 31.6906 55.5755 32.9946 54.7836 34.3843C54.5769 34.7341 54.3893 35.0649 54.1921 35.3893C54.0744 35.5674 53.9949 35.6946 53.8773 35.8663C53.2031 36.8999 54.3098 38.1911 55.442 37.6155C55.7822 37.4437 55.9826 37.113 56.1861 36.7632C56.555 36.143 57.0575 35.4433 57.4455 34.8168C57.5441 34.6546 57.6522 34.4861 57.7604 34.3239L58.0847 33.8373Z" fill="#F99035"/>
<path fill-rule="evenodd" clip-rule="evenodd" d="M60.8706 22.0195C59.3059 22.1817 57.967 23.6065 58.1674 25.3683C58.3391 26.9298 59.748 28.2751 61.5194 28.0684C64.1526 27.7726 65.2117 24.6051 63.1731 22.7287C62.6038 22.2071 61.6593 21.9368 60.8706 22.0195Z" fill="#F99035"/>
<path d="M77.6624 31.4585C77.761 31.1723 77.9868 31.0355 78.3366 31.0355C78.6865 31.0355 78.9123 31.1691 79.0108 31.4585L79.7391 34.4638C79.8123 34.661 79.8027 34.8423 79.7137 35.0299C79.6246 35.2176 79.4879 35.3448 79.3002 35.4084C79.1031 35.4815 78.9154 35.472 78.7342 35.3893C78.5465 35.3002 78.4193 35.1635 78.3493 34.9759L78.1617 33.7451L77.7228 35.0299C77.5797 35.3161 77.3539 35.4593 77.0486 35.4593C76.7529 35.4593 76.5271 35.3161 76.3744 35.0299L75.9419 33.7451L75.7447 34.9759C75.6811 35.1635 75.5475 35.3002 75.3663 35.3893C75.1786 35.4688 74.9878 35.4783 74.8002 35.4084C74.6126 35.3448 74.4662 35.2207 74.3867 35.0299C74.2977 34.8423 74.2882 34.661 74.3613 34.4638L75.0896 31.4585C75.1882 31.1723 75.414 31.0355 75.7543 31.0355C76.1041 31.0355 76.3299 31.1691 76.4285 31.4585L77.0486 33.2999L77.6624 31.4585ZM81.3547 35.2366C81.2116 35.3893 81.0398 35.4624 80.8331 35.4624C80.6359 35.4624 80.4547 35.3893 80.3116 35.2462C80.1684 35.1031 80.0953 34.9218 80.0953 34.7183V31.7733C80.0953 31.5666 80.1684 31.3949 80.3116 31.2518C80.4547 31.1087 80.6359 31.0355 80.8331 31.0355C81.0398 31.0355 81.2179 31.1087 81.3642 31.2518C81.5105 31.3949 81.5805 31.5666 81.5805 31.7733V32.7529L82.9003 31.2454C83.0434 31.1023 83.2151 31.0387 83.4219 31.0387C83.6286 31.0387 83.8003 31.1118 83.9434 31.255C84.0865 31.3981 84.1597 31.5698 84.1597 31.7765V34.7214C84.1597 34.9282 84.0865 35.1062 83.9434 35.2494C83.8003 35.3925 83.6286 35.4656 83.4219 35.4656C83.2151 35.4656 83.0434 35.3925 82.9003 35.2494C82.7572 35.1062 82.684 34.925 82.684 34.7214V33.7356L81.3547 35.2366ZM86.0074 33.9455V34.7183C86.0074 34.925 85.9343 35.1031 85.7911 35.2462C85.648 35.3893 85.4668 35.4624 85.2696 35.4624C85.0629 35.4624 84.8911 35.3893 84.748 35.2462C84.6049 35.1031 84.5318 34.9218 84.5318 34.7183V31.7733C84.5318 31.5666 84.6049 31.3949 84.748 31.2518C84.8911 31.1087 85.0629 31.0355 85.2696 31.0355C85.4668 31.0355 85.648 31.1087 85.7911 31.2518C85.9343 31.3949 86.0074 31.5666 86.0074 31.7733V32.5461H86.9328V31.7733C86.9328 31.5666 87.006 31.3949 87.1491 31.2518C87.2922 31.1087 87.4639 31.0355 87.6707 31.0355C87.8774 31.0355 88.0491 31.1087 88.1922 31.2518C88.3353 31.3949 88.4085 31.5666 88.4085 31.7733V34.7183C88.4085 34.925 88.3353 35.1031 88.1922 35.2462C88.0491 35.3893 87.8774 35.4624 87.6707 35.4624C87.4639 35.4624 87.2922 35.3893 87.1491 35.2462C87.006 35.1031 86.9328 34.9218 86.9328 34.7183V33.9455H86.0074ZM89.512 35.4624C89.3053 35.4624 89.1336 35.3893 88.9905 35.2462C88.8474 35.1031 88.7742 34.9218 88.7742 34.7183C88.7742 34.5211 88.8474 34.3398 88.9905 34.1967C89.1336 34.0536 89.3053 33.9804 89.512 33.9804C89.7187 33.9804 89.8905 34.0536 90.0336 34.1967C90.1767 34.3398 90.2498 34.5211 90.2498 34.7183C90.2498 34.925 90.1767 35.1031 90.0336 35.2462C89.8905 35.3893 89.7187 35.4624 89.512 35.4624ZM75.802 37.555C76.0087 37.555 76.1804 37.6282 76.3235 37.7713C76.4666 37.9144 76.5398 38.0957 76.5398 38.2929V41.2092C76.5398 41.4159 76.4666 41.5876 76.3235 41.7307C76.1804 41.8738 76.0087 41.947 75.802 41.947C75.5952 41.947 75.4235 41.8738 75.2804 41.7307C75.1373 41.5876 75.0641 41.4159 75.0641 41.2092V39.037C74.8574 39.037 74.6857 38.9639 74.5426 38.8112C74.3899 38.6681 74.3168 38.4964 74.3168 38.2897C74.3168 38.0925 74.3899 37.9112 74.5426 37.7681C74.6857 37.625 74.8574 37.5519 75.0641 37.5519H75.802V37.555ZM89.0191 40.2551C89.0445 40.2106 89.0827 40.166 89.1177 40.1279C89.2608 39.9848 89.4325 39.9116 89.6392 39.9116C89.846 39.9116 90.0177 39.9848 90.1608 40.1279C90.3039 40.271 90.3771 40.4522 90.3771 40.6494C90.3771 40.7035 90.3771 40.7576 90.3675 40.8116C90.3484 40.9547 90.2403 41.1169 90.0622 41.295C89.6297 41.7244 89.1113 41.9406 88.4975 41.9406C87.8838 41.9406 87.3654 41.7244 86.9265 41.295C86.494 40.8657 86.2809 40.3441 86.2809 39.7335C86.2809 39.1134 86.4972 38.595 86.9265 38.1625C87.3654 37.7331 87.8869 37.5169 88.4975 37.5169C89.1081 37.5169 89.6297 37.7331 90.0622 38.1625C90.2435 38.3406 90.3484 38.5028 90.3675 38.6459C90.3771 38.6999 90.3771 38.754 90.3771 38.8081C90.3771 39.0148 90.3039 39.1865 90.1608 39.3296C90.0177 39.4727 89.846 39.5459 89.6392 39.5459C89.4325 39.5459 89.2608 39.4727 89.1177 39.3296C89.0827 39.2946 89.0445 39.2501 89.0191 39.2024C88.876 39.0593 88.6947 38.9862 88.4975 38.9862C88.2908 38.9862 88.1191 39.0593 87.976 39.2024C87.8329 39.3455 87.7597 39.5268 87.7597 39.7303C87.7597 39.9275 87.8329 40.1088 87.976 40.2519C88.1191 40.395 88.2908 40.4682 88.4975 40.4682C88.6947 40.4713 88.876 40.3982 89.0191 40.2551ZM94.0502 37.9494C94.1488 37.6632 94.3746 37.5201 94.7245 37.5201C95.0743 37.5201 95.3001 37.6632 95.3987 37.9494L96.127 40.9547C96.2001 41.1424 96.1906 41.3332 96.1015 41.5113C96.0125 41.6989 95.8757 41.8261 95.6881 41.8961C95.4909 41.9692 95.3033 41.9597 95.122 41.8706C94.9344 41.7911 94.8072 41.6448 94.7372 41.4572L94.5496 40.236L94.1107 41.5113C93.9676 41.7975 93.7418 41.9406 93.4365 41.9406C93.1407 41.9406 92.9149 41.7975 92.7623 41.5113L92.3297 40.236L92.1326 41.4572C92.069 41.6448 91.9354 41.788 91.7541 41.8706C91.5665 41.9597 91.3757 41.9692 91.188 41.8961C91.0004 41.8229 90.8541 41.6989 90.7746 41.5113C90.6855 41.3332 90.676 41.1424 90.7491 40.9547L91.4774 37.9494C91.576 37.6632 91.8018 37.5201 92.1421 37.5201C92.4919 37.5201 92.7177 37.6632 92.8163 37.9494L93.4365 39.7812L94.0502 37.9494ZM97.221 41.9406C97.0238 41.9406 96.8425 41.8675 96.6994 41.7244C96.5563 41.5812 96.4831 41.4095 96.4831 41.2028C96.4831 40.9961 96.5563 40.8243 96.6994 40.6812C96.8425 40.5381 97.0238 40.465 97.221 40.465C97.4277 40.465 97.6058 40.5381 97.7521 40.6812C97.8952 40.8243 97.9683 40.9961 97.9683 41.2028C97.9683 41.4095 97.8952 41.5812 97.7521 41.7244C97.609 41.8675 97.4277 41.9406 97.221 41.9406ZM79.6851 39.3582C79.9999 39.5554 80.1525 39.8798 80.1525 40.3282C80.1525 40.7766 79.9999 41.1551 79.6946 41.4763C79.3988 41.7911 78.9949 41.9438 78.4893 41.9438C77.9137 41.9438 77.5002 41.8357 77.249 41.613C76.9977 41.3872 76.8705 41.1646 76.8705 40.9388C76.8705 40.7226 76.95 40.5254 77.1027 40.3727C77.2649 40.2106 77.4525 40.131 77.6783 40.131C77.885 40.131 78.0377 40.2042 78.1458 40.3282C78.2444 40.4618 78.3525 40.5349 78.4797 40.5445C78.607 40.5445 78.6769 40.4809 78.7055 40.3282C78.7246 40.1851 78.6165 40.0961 78.3716 40.0674C78.0472 40.0484 77.885 39.8798 77.885 39.5554C77.92 39.231 78.1013 39.0625 78.4066 39.0434C78.6038 39.0084 78.6865 38.9448 78.6769 38.8653C78.6578 38.7763 78.5879 38.7381 78.4511 38.7476C78.3239 38.7476 78.2253 38.7922 78.1713 38.8653C78.1076 38.9448 77.99 38.983 77.8214 38.983C77.6402 38.983 77.4811 38.9289 77.3539 38.8112C77.2267 38.6936 77.1567 38.5409 77.1567 38.3628C77.1567 38.1752 77.284 37.9844 77.5161 37.7967C77.7578 37.6091 78.0917 37.5201 78.5306 37.5201C78.8995 37.5201 79.2239 37.6377 79.5101 37.8699C79.79 38.102 79.9331 38.4073 79.9331 38.7667C79.9363 38.9703 79.8536 39.1674 79.6851 39.3582ZM82.2897 41.9406C81.6791 41.9406 81.2211 41.7244 80.9063 41.295C80.601 40.8657 80.4483 40.3441 80.4483 39.7335C80.4483 39.1134 80.601 38.595 80.9063 38.1625C81.2211 37.7331 81.6791 37.5169 82.2897 37.5169C82.9003 37.5169 83.3678 37.7331 83.6731 38.1625C83.9879 38.5918 84.1406 39.1134 84.1406 39.7335C84.1406 40.3441 83.9879 40.8657 83.6731 41.295C83.3678 41.7275 82.9003 41.9406 82.2897 41.9406ZM82.2897 40.4713C82.3978 40.4713 82.4868 40.3982 82.56 40.2551C82.6236 40.112 82.6586 39.9307 82.6586 39.7335C82.6586 39.5268 82.6236 39.3487 82.56 39.2056C82.4868 39.0625 82.3978 38.9893 82.2897 38.9893C82.1816 38.9893 82.102 39.0625 82.0289 39.2056C81.9558 39.3487 81.9208 39.53 81.9208 39.7335C81.9208 39.9307 81.9558 40.112 82.0289 40.2551C82.102 40.3982 82.1816 40.4713 82.2897 40.4713Z" fill="#F99035"/>
<path d="M34.4939 29.0582L41.28 45.5439H40.2819L33.749 29.0582H34.4939Z" fill="white"/>
<path d="M30.8452 29.0582L24.0645 45.5439H25.0612L31.5954 29.0582H30.8452Z" fill="white"/>
<path d="M33.2386 22.9995H32.1045V39.2764H33.2386V22.9995Z" fill="white"/>
<path fill-rule="evenodd" clip-rule="evenodd" d="M31.7626 39.698H33.6268C33.8585 39.698 34.0524 39.8879 34.0524 40.1236V41.9825C34.0524 42.2182 33.8585 42.4081 33.6268 42.4081H31.7626C31.5309 42.4081 31.3369 42.2182 31.3369 41.9825V40.1236C31.3356 39.8879 31.5309 39.698 31.7626 39.698Z" fill="white"/>
<path fill-rule="evenodd" clip-rule="evenodd" d="M31.4398 42.7395H33.9061C34.1539 42.7395 34.3546 42.9415 34.3546 43.188C34.3546 43.4345 34.1526 43.6366 33.9061 43.6366H31.4398C31.1919 43.6366 30.9912 43.4345 30.9912 43.188C30.9899 42.9402 31.1919 42.7395 31.4398 42.7395Z" fill="white"/>
<path fill-rule="evenodd" clip-rule="evenodd" d="M35.2366 39.698C35.4845 39.698 35.6852 39.9 35.6852 40.1465V41.9596C35.6852 42.2061 35.4831 42.4081 35.2366 42.4081C34.9888 42.4081 34.7881 42.2061 34.7881 41.9596V40.1465C34.7881 39.9 34.9901 39.698 35.2366 39.698Z" fill="white"/>
<path fill-rule="evenodd" clip-rule="evenodd" d="M35.2366 42.7395H36.4503C36.6941 42.7395 36.8988 42.9415 36.8988 43.188C36.8988 43.4345 36.6927 43.6366 36.4503 43.6366H35.2366C34.9888 43.6366 34.7881 43.4345 34.7881 43.188C34.7881 42.9402 34.9901 42.7395 35.2366 42.7395Z" fill="white"/>
<path fill-rule="evenodd" clip-rule="evenodd" d="M30.1068 39.698C29.8589 39.698 29.6582 39.9 29.6582 40.1465V41.9596C29.6582 42.2061 29.8603 42.4081 30.1068 42.4081C30.3546 42.4081 30.5553 42.2061 30.5553 41.9596V40.1465C30.5553 39.9 30.3546 39.698 30.1068 39.698Z" fill="white"/>
<path fill-rule="evenodd" clip-rule="evenodd" d="M30.1074 42.7395H28.8978C28.6499 42.7395 28.4492 42.9415 28.4492 43.188C28.4492 43.4345 28.6513 43.6366 28.8978 43.6366H30.1074C30.3552 43.6366 30.5559 43.4345 30.5559 43.188C30.5559 42.9402 30.3552 42.7395 30.1074 42.7395Z" fill="white"/>
<path fill-rule="evenodd" clip-rule="evenodd" d="M26.0016 45.4644H23.1285C22.878 45.4644 22.6719 45.6692 22.6719 45.917C22.6719 46.1676 22.878 46.3736 23.1285 46.3736H26.0016C26.2495 46.3736 26.4542 46.1689 26.4542 45.917C26.4542 45.6705 26.2481 45.4644 26.0016 45.4644Z" fill="white"/>
<path fill-rule="evenodd" clip-rule="evenodd" d="M42.2194 45.4644H39.3463C39.0957 45.4644 38.8896 45.6692 38.8896 45.917C38.8896 46.1676 39.0957 46.3736 39.3463 46.3736H42.2194C42.4672 46.3736 42.672 46.1689 42.672 45.917C42.6733 45.6705 42.4672 45.4644 42.2194 45.4644Z" fill="white"/>
<path d="M33.6725 22.9995C33.6725 23.5504 33.224 23.9989 32.6717 23.9989C32.1194 23.9989 31.6709 23.5504 31.6709 22.9995C31.6709 22.4485 32.1194 22 32.6717 22C33.224 22 33.6725 22.4485 33.6725 22.9995Z" fill="white"/>
<path fill-rule="evenodd" clip-rule="evenodd" d="M32.2153 27.5119H33.1286C33.4707 27.5119 33.7482 27.7893 33.7482 28.1315V29.9863C33.7482 30.3284 33.4707 30.6099 33.1286 30.6099H32.2153C31.8732 30.6099 31.5957 30.3284 31.5957 29.9863V28.1315C31.5957 27.7893 31.8732 27.5119 32.2153 27.5119Z" fill="white"/>
<path fill-rule="evenodd" clip-rule="evenodd" d="M30.8494 28.1503H31.4583C31.6873 28.1503 31.8731 28.3362 31.8731 28.5652V29.5539C31.8731 29.7815 31.6873 29.9688 31.4583 29.9688H30.8494C30.6205 29.9688 30.4346 29.7829 30.4346 29.5539V28.5652C30.4346 28.3362 30.6205 28.1503 30.8494 28.1503Z" fill="white"/>
<path fill-rule="evenodd" clip-rule="evenodd" d="M33.8856 28.1503H34.4944C34.7194 28.1503 34.9052 28.3362 34.9052 28.5652V29.5539C34.9052 29.7815 34.7194 29.9688 34.4944 29.9688H33.8856C33.6566 29.9688 33.4707 29.7829 33.4707 29.5539V28.5652C33.4707 28.3362 33.6579 28.1503 33.8856 28.1503Z" fill="white"/>
<path d="M29.1102 27.5725H28.752V30.2031H29.1102V27.5725Z" fill="white"/>
<path d="M30.6889 29.8489H28.752V30.2018H30.6889V29.8489Z" fill="white"/>
<path d="M30.0989 29.0582H28.752V29.4111H30.0989V29.0582Z" fill="white"/>
<path d="M30.0989 28.2675H28.752V28.6245H30.0989V28.2675Z" fill="white"/>
<path fill-rule="evenodd" clip-rule="evenodd" d="M28.752 27.8351V27.4768L30.2053 27.6829V28.0399L28.752 27.8351Z" fill="white"/>
<path d="M30.2069 27.819H29.8486V29.4111H30.2069V27.819Z" fill="white"/>
<path d="M36.5917 27.5725H36.2334V30.2031H36.5917V27.5725Z" fill="white"/>
<path d="M36.5913 29.8489H34.6543V30.2018H36.5913V29.8489Z" fill="white"/>
<path d="M36.5911 29.0582H35.2441V29.4111H36.5911V29.0582Z" fill="white"/>
<path d="M36.5911 28.2675H35.2441V28.6245H36.5911V28.2675Z" fill="white"/>
<path fill-rule="evenodd" clip-rule="evenodd" d="M36.5911 27.8351V27.4768L35.1377 27.6829V28.0399L36.5911 27.8351Z" fill="white"/>
<path d="M35.496 27.819H35.1377V29.4111H35.496V27.819Z" fill="white"/>
<path fill-rule="evenodd" clip-rule="evenodd" d="M31.7666 39.2764H33.5783V38.7174C33.5783 38.4399 33.3493 38.2082 33.0718 38.2082H32.2731C31.9956 38.2082 31.7666 38.4399 31.7666 38.7174V39.2764Z" fill="white"/>
</svg>
