<svg width="108" height="64" viewBox="0 0 108 64" fill="none" xmlns="http://www.w3.org/2000/svg">
<path d="M85.7261 20.9372L85.9128 21.3136L86.3158 21.1944C88.0726 20.675 89.8172 20.3669 91.672 20.3669C100.059 20.3669 106.829 26.4521 106.829 33.7536C106.829 40.5479 100.981 46.3219 93.2786 47.3569L92.9056 47.407L92.8506 47.7793C91.9367 53.9597 85.8502 58.9071 78.4052 58.9071C77.0186 58.9071 75.6245 58.7019 74.3396 58.3911L74.1233 58.3387L73.9397 58.4644C69.8442 61.2665 64.3262 63.0413 58.3258 63.0413C52.2047 63.0413 46.6906 61.266 42.5996 58.3632L42.3167 58.1625L42.0296 58.3572C40.0791 59.6801 37.6667 60.4972 34.9001 60.4972C31.4535 60.4972 28.3499 59.0703 26.1664 56.9299L25.9103 56.6788L25.5904 56.841C23.1576 58.0739 20.3678 58.695 17.45 58.695C7.98931 58.695 0.5 51.8699 0.5 43.7182C0.5 37.807 4.40833 32.7698 10.0036 30.2885L10.379 30.1221L10.2886 29.7215C10.1833 29.2544 10.1812 28.7798 10.1812 28.2414C10.1812 20.4098 17.3094 14.0065 26.2944 14.0065H26.2958H26.2972H26.2986H26.3H26.3014H26.3028H26.3042H26.3056H26.307H26.3084H26.3098H26.3112H26.3126H26.314H26.3154H26.3168H26.3182H26.3196H26.321H26.3224H26.3238H26.3252H26.3266H26.328H26.3294H26.3308H26.3322H26.3336H26.335H26.3364H26.3378H26.3392H26.3406H26.342H26.3434H26.3448H26.3462H26.3476H26.349H26.3504H26.3518H26.3532H26.3546H26.356H26.3574H26.3588H26.3602H26.3616H26.363H26.3644H26.3658H26.3672H26.3686H26.37H26.3714H26.3728H26.3742H26.3756H26.377H26.3784H26.3798H26.3812H26.3826H26.384H26.3854H26.3868H26.3882H26.3896H26.391H26.3924H26.3938H26.3952H26.3966H26.398H26.3994H26.4008H26.4022H26.4036H26.405H26.4065H26.4079H26.4093H26.4107H26.4121H26.4135H26.4149H26.4163H26.4177H26.4191H26.4205H26.4219H26.4233H26.4247H26.4261H26.4275H26.4289H26.4303H26.4317H26.4331H26.4345H26.4359H26.4373H26.4387H26.4401H26.4415H26.4429H26.4443H26.4457H26.4471H26.4485H26.4499H26.4513H26.4527H26.4541H26.4555H26.4569H26.4583H26.4597H26.4611H26.4625H26.4639H26.4653H26.4667H26.4681H26.4695H26.4709H26.4723H26.4737H26.4751H26.4765H26.4779H26.4793H26.4807H26.4821H26.4835H26.4849H26.4863H26.4877H26.4891H26.4905H26.4919H26.4933H26.4947H26.4961H26.4975H26.4989H26.5003H26.5017H26.5031H26.5045H26.5059H26.5073H26.5087H26.5101H26.5115H26.5129H26.5143H26.5157H26.5171H26.5185H26.5199H26.5213H26.5227H26.5241H26.5255H26.5269H26.5283H26.5297H26.5311H26.5325H26.5339H26.5353H26.5367H26.5381H26.5395H26.5409H26.5423H26.5437H26.5451H26.5465H26.5479H26.5493H26.5507H26.5521H26.5535H26.5549H26.5563H26.5577H26.5591H26.5605H26.5619H26.5633H26.5647H26.5662H26.5676H26.569H26.5704H26.5718H26.5732H26.5746H26.576H26.5774H26.5788H26.5802H26.5816H26.583H26.5844H26.5858H26.5872H26.5886H26.59H26.5914H26.5928H26.5942H26.5956H26.597H26.5984H26.5998H26.6012H26.6026H26.604H26.6054H26.6068H26.6082H26.6096H26.611H26.6124H26.6138H26.6152H26.6166H26.618H26.6194H26.6208H26.6222H26.6236H26.625H26.6264H26.6278H26.6292H26.6306H26.632H26.6334H26.6348H26.6362H26.6376H26.639H26.6404H26.6418H26.6432H26.6446H26.646H26.6474H26.6488H26.6502H26.6516H26.653H26.6544H26.6558H26.6572H26.6586H26.66H26.6614H26.6628H26.6642H26.6656H26.667H26.6684H26.6698H26.6712H26.6726H26.674H26.6754H26.6768H26.6782H26.6796H26.681H26.6824H26.6838H26.6852H26.6866H26.688H26.6894H26.6908H26.6922H26.6936H26.695H26.6964H26.6978H26.6992H26.7006H26.702H26.7034H26.7048H26.7062H26.7076H26.709H26.7104H26.7119H26.7133H26.7147H26.7161H26.7175H26.7189H26.7203H26.7217H26.7231H26.7245H26.7259H26.7273H26.7287H26.7301H26.7315H26.7329H26.7343H26.7357H26.7371H26.7385H26.7399H26.7413H26.7427H26.7441H26.7455H26.7469H26.7483H26.7497H26.7511H26.7525H26.7539H26.7553H26.7567H26.7581H26.7595H26.7609H26.7623H26.7637H26.7651H26.7665H26.7679H26.7693H26.7707H26.7721H26.7735H26.7749H26.7763H26.7777H26.7791H26.7805H26.7819H26.7833H26.7847H26.7861H26.7875H26.7889H26.7903H26.7917H26.7931H26.7945H26.7959H26.7973H26.7987H26.8001H26.8015H26.8029H26.8043H26.8057H26.8071H26.8085H26.8099H26.8113H26.8127H26.8141H26.8155H26.8169H26.8183H26.8197H26.8211H26.8225H26.8239H26.8253H26.8267H26.8281H26.8295H26.8309H26.8323H26.8337H26.8351H26.8365H26.8379H26.8393H26.8407H26.8421H26.8435H26.8449H26.8463H26.8477H26.8491H26.8505H26.8519H26.8533H26.8547H26.8561H26.8575H26.8589H26.8603H26.8617H26.8631H26.8645H26.8659H26.8674H26.8688H26.8702H26.8716H26.873H26.8744H26.8758H26.8772H26.8786H26.88H26.8814H26.8828H26.8842H26.8856H26.887H26.8884H26.8898H26.8912H26.8926H26.894H26.8954H26.8968H26.8982H26.8996H26.901H26.9024H26.9038H26.9052H26.9066H26.908H26.9094H26.9108H26.9122H26.9136H26.915H26.9164H26.9178H26.9192H26.9206H26.922H26.9234H26.9248H26.9262H26.9276H26.929H26.9304H26.9318H26.9332H26.9346H26.936H26.9374H26.9388H26.9402H26.9416H26.943H26.9444H26.9458H26.9472H26.9486H26.95H26.9514H26.9528H26.9542H26.9556H26.957H26.9584H26.9598H26.9612H26.9626H26.964H26.9654H26.9668H26.9682H26.9696H26.971H26.9724H26.9738H26.9752H26.9766H26.978H26.9794H26.9808H26.9822H26.9836H26.985H26.9864H26.9878H26.9892H26.9906H26.992H26.9934H26.9948H26.9962H26.9976H26.999H27.0004H27.0018H27.0032H27.0046H27.006H27.0074H27.0088H27.0102H27.0116H27.3528L27.4772 13.6888C30.3822 6.2685 38.4293 0.861816 47.808 0.861816C56.6023 0.861816 64.0695 5.43643 67.4421 12.0379L67.6019 12.3506L67.9502 12.3065C68.7892 12.2002 69.5964 12.0984 70.5168 12.0984C77.3915 12.0984 83.1867 15.8183 85.7261 20.9372Z" fill="white" stroke="#F99035"/>
<circle cx="32.3411" cy="36.1475" r="16.0023" fill="#F99035"/>
<path d="M70.4561 47.2834V25.5273L71.3974 26.1093V46.9781L70.4561 47.2834Z" fill="#F99035"/>
<path fill-rule="evenodd" clip-rule="evenodd" d="M71.3984 23.5874C71.5256 23.74 72.3874 24.6114 72.521 24.6909C72.9154 24.9167 73.3733 24.4492 73.1507 24.0612C73.033 23.8545 72.2793 23.1549 72.063 22.9386C70.7878 21.6729 71.039 21.7015 69.8083 22.9386C69.557 23.1803 68.8733 23.81 68.7206 24.0326C68.4407 24.4556 68.9369 24.9135 69.3217 24.6973C69.4743 24.6082 70.3012 23.7655 70.4538 23.5842L70.4634 26.6182C70.4634 26.8503 70.3648 27.445 70.9118 27.4705C71.4588 27.4959 71.3984 26.8694 71.3984 26.6436V23.5874Z" fill="#F99035"/>
<path fill-rule="evenodd" clip-rule="evenodd" d="M71.3984 49.4079C71.5256 49.2552 72.3874 48.3838 72.521 48.3139C72.9154 48.0817 73.3733 48.5556 73.1507 48.9436C73.033 49.1407 72.2793 49.8404 72.063 50.0566C70.7878 51.3319 71.039 51.2938 69.8083 50.0662C69.557 49.8149 68.8733 49.1948 68.7206 48.9626C68.4407 48.5492 68.9369 48.0912 69.3217 48.3075C69.4743 48.3965 70.3012 49.2393 70.4538 49.411L70.4634 46.3771C70.4634 46.1449 70.3648 45.5598 70.9118 45.5343C71.4588 45.4993 71.3984 46.1258 71.3984 46.3612V49.4079Z" fill="#F99035"/>
<path fill-rule="evenodd" clip-rule="evenodd" d="M57.742 33.8373C57.7611 34.2317 57.5989 37.0589 57.5702 37.7236C57.4716 40.3187 57.319 42.9392 57.23 45.5311C57.2109 46.1608 57.1854 46.8414 57.1504 47.4774L57.0709 49.4078C57.1504 50.5654 58.4989 51.1474 59.4784 50.4319C59.9713 50.082 60.0445 49.5796 60.089 48.9944L60.7092 39.9561C60.7282 39.7589 60.6901 39.6413 60.8523 39.5713C61.0049 39.6349 60.9795 39.724 60.9858 39.9211L61.6155 48.9499C61.66 49.6145 61.7968 50.1075 62.207 50.4128C63.2311 51.1761 64.4968 50.5464 64.6336 49.4078C64.659 49.1661 64.1565 38.4678 64.1311 37.7395C64.1057 37.0939 63.9339 34.203 63.9689 33.8341C64.2297 34.1649 65.5686 36.2925 65.8548 36.7345C66.0711 37.0748 66.2142 37.3992 66.5831 37.6059C67.4449 38.0734 68.4149 37.3992 68.3704 36.5024C68.3513 36.019 68.0746 35.7296 67.8774 35.4084C67.6707 35.0681 67.4831 34.7437 67.2859 34.4034C66.494 33.0391 64.7067 29.4931 63.6032 28.4786C63.2343 28.1478 63.0021 28.0652 62.4074 28.1001C60.8713 28.1987 60.8809 28.2083 59.3448 28.1001C58.7883 28.0652 58.4003 28.1637 58.1236 28.4595C57.7197 28.8825 57.7738 28.7553 57.3794 29.3214C57.1632 29.6457 56.9564 29.9574 56.7497 30.3009C55.9324 31.6906 55.2327 32.9945 54.4409 34.3843C54.2342 34.7341 54.0465 35.0649 53.8493 35.3893C53.7317 35.5674 53.6522 35.6946 53.5345 35.8663C52.8603 36.8999 53.967 38.1911 55.0992 37.6155C55.4395 37.4437 55.6398 37.113 55.8434 36.7631C56.2123 36.143 56.7148 35.4433 57.1027 34.8168C57.2013 34.6546 57.3095 34.4861 57.4176 34.3239L57.742 33.8373Z" fill="#F99035"/>
<path fill-rule="evenodd" clip-rule="evenodd" d="M60.5278 22.0195C58.9632 22.1817 57.6243 23.6065 57.8246 25.3683C57.9964 26.9298 59.4052 28.2751 61.1766 28.0683C63.8099 27.7726 64.8689 24.6051 62.8303 22.7287C62.2611 22.2071 61.3165 21.9368 60.5278 22.0195Z" fill="#F99035"/>
<path d="M77.3196 31.4585C77.4182 31.1723 77.644 31.0355 77.9939 31.0355C78.3437 31.0355 78.5695 31.1691 78.6681 31.4585L79.3963 34.4638C79.4695 34.661 79.4599 34.8423 79.3709 35.0299C79.2818 35.2175 79.1451 35.3448 78.9575 35.4084C78.7603 35.4815 78.5727 35.472 78.3914 35.3893C78.2038 35.3002 78.0765 35.1635 78.0066 34.9758L77.8189 33.7451L77.3801 35.0299C77.237 35.3161 77.0112 35.4592 76.7059 35.4592C76.4101 35.4592 76.1843 35.3161 76.0316 35.0299L75.5991 33.7451L75.4019 34.9758C75.3383 35.1635 75.2048 35.3002 75.0235 35.3893C74.8359 35.4688 74.6451 35.4783 74.4574 35.4084C74.2698 35.3448 74.1235 35.2207 74.044 35.0299C73.9549 34.8423 73.9454 34.661 74.0185 34.4638L74.7468 31.4585C74.8454 31.1723 75.0712 31.0355 75.4115 31.0355C75.7613 31.0355 75.9871 31.1691 76.0857 31.4585L76.7059 33.2999L77.3196 31.4585ZM81.0119 35.2366C80.8688 35.3893 80.6971 35.4624 80.4903 35.4624C80.2932 35.4624 80.1119 35.3893 79.9688 35.2462C79.8257 35.1031 79.7525 34.9218 79.7525 34.7182V31.7733C79.7525 31.5666 79.8257 31.3949 79.9688 31.2518C80.1119 31.1087 80.2932 31.0355 80.4903 31.0355C80.6971 31.0355 80.8752 31.1087 81.0214 31.2518C81.1677 31.3949 81.2377 31.5666 81.2377 31.7733V32.7529L82.5575 31.2454C82.7006 31.1023 82.8724 31.0387 83.0791 31.0387C83.2858 31.0387 83.4575 31.1118 83.6006 31.255C83.7438 31.3981 83.8169 31.5698 83.8169 31.7765V34.7214C83.8169 34.9281 83.7438 35.1062 83.6006 35.2493C83.4575 35.3925 83.2858 35.4656 83.0791 35.4656C82.8724 35.4656 82.7006 35.3925 82.5575 35.2493C82.4144 35.1062 82.3413 34.925 82.3413 34.7214V33.7356L81.0119 35.2366ZM85.6646 33.9454V34.7182C85.6646 34.925 85.5915 35.1031 85.4484 35.2462C85.3053 35.3893 85.124 35.4624 84.9268 35.4624C84.7201 35.4624 84.5483 35.3893 84.4052 35.2462C84.2621 35.1031 84.189 34.9218 84.189 34.7182V31.7733C84.189 31.5666 84.2621 31.3949 84.4052 31.2518C84.5483 31.1087 84.7201 31.0355 84.9268 31.0355C85.124 31.0355 85.3053 31.1087 85.4484 31.2518C85.5915 31.3949 85.6646 31.5666 85.6646 31.7733V32.5461H86.5901V31.7733C86.5901 31.5666 86.6632 31.3949 86.8063 31.2518C86.9494 31.1087 87.1212 31.0355 87.3279 31.0355C87.5346 31.0355 87.7063 31.1087 87.8495 31.2518C87.9926 31.3949 88.0657 31.5666 88.0657 31.7733V34.7182C88.0657 34.925 87.9926 35.1031 87.8495 35.2462C87.7063 35.3893 87.5346 35.4624 87.3279 35.4624C87.1212 35.4624 86.9494 35.3893 86.8063 35.2462C86.6632 35.1031 86.5901 34.9218 86.5901 34.7182V33.9454H85.6646ZM89.1692 35.4624C88.9625 35.4624 88.7908 35.3893 88.6477 35.2462C88.5046 35.1031 88.4314 34.9218 88.4314 34.7182C88.4314 34.5211 88.5046 34.3398 88.6477 34.1967C88.7908 34.0536 88.9625 33.9804 89.1692 33.9804C89.376 33.9804 89.5477 34.0536 89.6908 34.1967C89.8339 34.3398 89.9071 34.5211 89.9071 34.7182C89.9071 34.925 89.8339 35.1031 89.6908 35.2462C89.5477 35.3893 89.376 35.4624 89.1692 35.4624ZM75.4592 37.555C75.6659 37.555 75.8376 37.6282 75.9808 37.7713C76.1239 37.9144 76.197 38.0957 76.197 38.2929V41.2091C76.197 41.4159 76.1239 41.5876 75.9808 41.7307C75.8376 41.8738 75.6659 41.947 75.4592 41.947C75.2525 41.947 75.0807 41.8738 74.9376 41.7307C74.7945 41.5876 74.7214 41.4159 74.7214 41.2091V39.037C74.5146 39.037 74.3429 38.9639 74.1998 38.8112C74.0472 38.6681 73.974 38.4964 73.974 38.2897C73.974 38.0925 74.0472 37.9112 74.1998 37.7681C74.3429 37.625 74.5146 37.5519 74.7214 37.5519H75.4592V37.555ZM88.6763 40.2551C88.7018 40.2105 88.7399 40.166 88.7749 40.1279C88.918 39.9847 89.0898 39.9116 89.2965 39.9116C89.5032 39.9116 89.6749 39.9847 89.818 40.1279C89.9611 40.271 90.0343 40.4522 90.0343 40.6494C90.0343 40.7035 90.0343 40.7575 90.0247 40.8116C90.0057 40.9547 89.8975 41.1169 89.7194 41.295C89.2869 41.7243 88.7686 41.9406 88.1548 41.9406C87.541 41.9406 87.0226 41.7243 86.5837 41.295C86.1512 40.8657 85.9381 40.3441 85.9381 39.7335C85.9381 39.1134 86.1544 38.595 86.5837 38.1625C87.0226 37.7331 87.5442 37.5169 88.1548 37.5169C88.7654 37.5169 89.2869 37.7331 89.7194 38.1625C89.9007 38.3406 90.0057 38.5028 90.0247 38.6459C90.0343 38.6999 90.0343 38.754 90.0343 38.8081C90.0343 39.0148 89.9611 39.1865 89.818 39.3296C89.6749 39.4727 89.5032 39.5459 89.2965 39.5459C89.0898 39.5459 88.918 39.4727 88.7749 39.3296C88.7399 39.2946 88.7018 39.2501 88.6763 39.2024C88.5332 39.0593 88.3519 38.9861 88.1548 38.9861C87.9481 38.9861 87.7763 39.0593 87.6332 39.2024C87.4901 39.3455 87.4169 39.5268 87.4169 39.7303C87.4169 39.9275 87.4901 40.1088 87.6332 40.2519C87.7763 40.395 87.9481 40.4681 88.1548 40.4681C88.3519 40.4713 88.5332 40.3982 88.6763 40.2551ZM93.7075 37.9494C93.8061 37.6632 94.0319 37.52 94.3817 37.52C94.7315 37.52 94.9573 37.6632 95.0559 37.9494L95.7842 40.9547C95.8573 41.1424 95.8478 41.3332 95.7587 41.5113C95.6697 41.6989 95.5329 41.8261 95.3453 41.8961C95.1481 41.9692 94.9605 41.9597 94.7792 41.8706C94.5916 41.7911 94.4644 41.6448 94.3944 41.4572L94.2068 40.236L93.7679 41.5113C93.6248 41.7975 93.399 41.9406 93.0937 41.9406C92.7979 41.9406 92.5721 41.7975 92.4195 41.5113L91.987 40.236L91.7898 41.4572C91.7262 41.6448 91.5926 41.788 91.4113 41.8706C91.2237 41.9597 91.0329 41.9692 90.8452 41.8961C90.6576 41.8229 90.5113 41.6989 90.4318 41.5113C90.3428 41.3332 90.3332 41.1424 90.4064 40.9547L91.1347 37.9494C91.2332 37.6632 91.459 37.52 91.7993 37.52C92.1492 37.52 92.3749 37.6632 92.4735 37.9494L93.0937 39.7812L93.7075 37.9494ZM96.8782 41.9406C96.681 41.9406 96.4997 41.8675 96.3566 41.7243C96.2135 41.5812 96.1404 41.4095 96.1404 41.2028C96.1404 40.9961 96.2135 40.8243 96.3566 40.6812C96.4997 40.5381 96.681 40.465 96.8782 40.465C97.0849 40.465 97.263 40.5381 97.4093 40.6812C97.5524 40.8243 97.6255 40.9961 97.6255 41.2028C97.6255 41.4095 97.5524 41.5812 97.4093 41.7243C97.2662 41.8675 97.0849 41.9406 96.8782 41.9406ZM79.3423 39.3582C79.6571 39.5554 79.8098 39.8798 79.8098 40.3282C79.8098 40.7766 79.6571 41.1551 79.3518 41.4763C79.056 41.7911 78.6522 41.9438 78.1465 41.9438C77.5709 41.9438 77.1574 41.8357 76.9062 41.613C76.655 41.3872 76.5277 41.1646 76.5277 40.9388C76.5277 40.7226 76.6073 40.5254 76.7599 40.3727C76.9221 40.2105 77.1097 40.131 77.3355 40.131C77.5423 40.131 77.6949 40.2042 77.803 40.3282C77.9016 40.4618 78.0098 40.5349 78.137 40.5445C78.2642 40.5445 78.3341 40.4809 78.3628 40.3282C78.3818 40.1851 78.2737 40.0961 78.0288 40.0674C77.7044 40.0484 77.5422 39.8798 77.5422 39.5554C77.5772 39.231 77.7585 39.0625 78.0638 39.0434C78.261 39.0084 78.3437 38.9448 78.3341 38.8653C78.3151 38.7763 78.2451 38.7381 78.1083 38.7476C77.9811 38.7476 77.8825 38.7922 77.8285 38.8653C77.7649 38.9448 77.6472 38.983 77.4787 38.983C77.2974 38.983 77.1384 38.9289 77.0111 38.8112C76.8839 38.6936 76.814 38.5409 76.814 38.3628C76.814 38.1752 76.9412 37.9844 77.1733 37.7967C77.415 37.6091 77.749 37.52 78.1878 37.52C78.5568 37.52 78.8811 37.6377 79.1674 37.8699C79.4472 38.102 79.5903 38.4073 79.5903 38.7667C79.5935 38.9702 79.5108 39.1674 79.3423 39.3582ZM81.9469 41.9406C81.3363 41.9406 80.8783 41.7243 80.5635 41.295C80.2582 40.8657 80.1055 40.3441 80.1055 39.7335C80.1055 39.1134 80.2582 38.595 80.5635 38.1625C80.8783 37.7331 81.3363 37.5169 81.9469 37.5169C82.5575 37.5169 83.025 37.7331 83.3303 38.1625C83.6452 38.5918 83.7978 39.1134 83.7978 39.7335C83.7978 40.3441 83.6452 40.8657 83.3303 41.295C83.025 41.7275 82.5575 41.9406 81.9469 41.9406ZM81.9469 40.4713C82.055 40.4713 82.1441 40.3982 82.2172 40.2551C82.2808 40.112 82.3158 39.9307 82.3158 39.7335C82.3158 39.5268 82.2808 39.3487 82.2172 39.2056C82.1441 39.0625 82.055 38.9893 81.9469 38.9893C81.8388 38.9893 81.7593 39.0625 81.6861 39.2056C81.613 39.3487 81.578 39.53 81.578 39.7335C81.578 39.9307 81.613 40.112 81.6861 40.2551C81.7593 40.3982 81.8388 40.4713 81.9469 40.4713Z" fill="#F99035"/>
<path fill-rule="evenodd" clip-rule="evenodd" d="M33.277 36.6153C33.2446 36.6202 33.2268 36.6332 33.1992 36.6478L32.3888 37.0141C32.251 37.0741 32.1181 37.1243 31.9851 37.1924C31.8749 37.2475 31.7696 37.288 31.6593 37.3383C31.4438 37.4339 31.225 37.5214 31.0142 37.6268L30.0385 38.066C29.9282 38.1163 29.8277 38.1568 29.7175 38.2071L29.3885 38.3578C29.2005 38.4356 29.0124 38.5264 28.826 38.609L28.4192 38.7922C28.3916 38.8019 28.3689 38.8149 28.3414 38.8295C28.3138 38.8392 28.2863 38.8522 28.2587 38.8668C28.1209 38.9348 27.988 38.9851 27.8519 39.0499L27.2894 39.3012C27.2619 39.3141 27.2343 39.3287 27.2067 39.3384L26.7999 39.5216C26.7723 39.5346 26.7497 39.5443 26.7221 39.5589C26.6945 39.5719 26.667 39.5816 26.6394 39.5962C26.4514 39.674 26.2634 39.7745 26.077 39.8474L25.5875 40.0662C25.5599 40.0792 25.5275 40.0938 25.5048 40.1035C25.4497 40.1311 25.3946 40.1538 25.3443 40.1764C25.239 40.2316 25.1288 40.2672 25.0185 40.3223C24.803 40.4228 24.5874 40.5152 24.3686 40.6157C24.341 40.6287 24.3134 40.6433 24.2859 40.653C24.2583 40.666 24.2356 40.6757 24.2081 40.6903C24.1805 40.7 24.153 40.713 24.1303 40.7227C24.1027 40.7357 24.0752 40.7454 24.0476 40.76C23.8823 40.8378 23.7218 40.901 23.5581 40.9788L23.2372 41.1247C23.1918 41.1425 23.1999 41.1474 23.1415 41.1474C23.1188 41.1522 23.0637 41.1522 23.0362 41.1571L22.7379 41.1701C22.7055 41.1701 22.7055 41.1603 22.6699 41.1603C22.3684 41.1603 22.0604 41.0955 21.7719 41.0226C21.3229 40.9123 20.8739 40.7389 20.4346 40.5833C20.211 40.5055 19.9857 40.4374 19.7522 40.3823C19.313 40.2818 18.9596 40.2591 18.5074 40.3175C18.4345 40.3272 18.4296 40.345 18.3842 40.4407C18.3518 40.5087 18.334 40.5736 18.3291 40.6368V40.6822C18.334 40.7729 18.3696 40.8702 18.4345 40.9658C18.5123 41.089 18.6403 41.209 18.7408 41.3127L19.3908 41.893C19.4038 41.906 19.4183 41.9205 19.4362 41.9384L19.6793 42.1669C19.7069 42.1945 19.7441 42.2399 19.7749 42.2577C19.6323 42.5316 19.5642 42.6597 19.6145 42.9855C19.6193 43.0309 19.6193 43.0357 19.6518 43.0535C19.8479 43.1686 20.5854 43.1184 20.8285 43.1135C20.9987 43.1087 21.1722 43.086 21.3407 43.0762L21.8448 43.0308C21.9178 43.0211 21.9826 43.0211 22.0507 43.013C22.5775 42.9579 23.1124 42.9077 23.6343 42.8396L25.594 42.5932C25.7171 42.5802 25.8598 42.5657 25.9878 42.5478C26.2537 42.5154 26.5098 42.4976 26.7805 42.4603C27.2343 42.4052 27.7011 42.3695 28.1631 42.3047C28.557 42.2496 28.9508 42.222 29.3496 42.1718C29.6786 42.1313 30.0093 42.1037 30.3383 42.0616L30.7371 42.0162C30.8473 42.0064 31.6123 41.7601 31.7582 41.7195L32.4358 41.5185C32.6643 41.4456 32.8848 41.3808 33.1133 41.3127L34.1296 41.0112C34.5834 40.8734 35.0324 40.7373 35.4847 40.6044C35.7132 40.5395 35.9337 40.4666 36.1622 40.4034L37.0051 40.1473C37.4541 40.0063 37.9257 39.896 38.3828 39.768C38.6114 39.7031 38.8448 39.6497 39.0749 39.58C39.6374 39.4146 40.1885 39.259 40.7234 39.0305C40.866 38.9656 41.0492 38.8927 41.1773 38.8149C41.2226 38.7873 41.2729 38.7695 41.3102 38.7322L41.516 38.4988C41.5663 38.434 41.8094 38.1779 41.8823 38.0968L42.4594 37.4566C42.4869 37.4193 42.6652 37.241 42.6652 37.2134C42.6652 37.1956 42.3816 36.4954 42.3265 36.3446C42.2714 36.1939 42.2162 36.0513 42.1611 35.9005C42.1336 35.8276 42.106 35.7595 42.0785 35.6817C42.0655 35.6412 42.0558 35.6088 42.0412 35.5666L41.4042 33.701C41.3993 33.6783 41.3993 33.6556 41.3766 33.6556L40.456 33.6653L40.007 33.6929C39.9616 33.6929 39.9065 33.7026 39.8611 33.7058C39.8108 33.7058 39.7654 33.7156 39.7152 33.7188C39.4948 33.7512 39.2614 33.7836 39.0506 33.8469L38.8026 33.9198C38.7654 33.9295 38.7151 33.9474 38.6843 33.9603C38.6568 33.9052 38.4914 33.722 38.4363 33.6491L38.0052 33.0964C37.9825 33.0688 37.9646 33.0461 37.9403 33.0137L37.3309 32.2179C37.0294 31.8191 36.6987 31.4398 36.3924 31.0427C36.2465 30.8595 36.0941 30.6812 35.9482 30.4981L34.0518 28.1656C34.0291 28.1429 34.0113 28.1154 33.987 28.0927L33.7989 27.8544C33.6757 27.6988 33.5428 27.5432 33.4278 27.3795L33.1895 27.0504C33.1522 26.9953 33.1117 26.9451 33.0744 26.89C32.9366 26.6841 32.6902 26.3632 32.52 26.1719L32.3191 25.9563C32.2461 25.8834 32.1683 25.8185 32.0954 25.7553C31.9673 25.6402 31.8198 25.5495 31.6788 25.4668C31.6464 25.4441 31.6188 25.4344 31.5864 25.4166C31.4259 25.329 31.2606 25.2707 31.0823 25.2107C30.7808 25.1151 30.4599 25.0648 30.1341 25.0276C30.0514 25.0227 29.9509 25.0178 29.8731 25.0097C29.8326 25.0049 29.7451 25 29.6527 25H29.4095C29.2718 25 28.9476 25.0875 28.8195 25.1183C28.2295 25.2642 27.5779 25.5576 27.0884 25.8818C26.9182 25.9969 26.7399 26.1249 26.594 26.2708C26.5487 26.3162 26.5017 26.3534 26.4611 26.4037C26.4482 26.4215 26.4336 26.4361 26.4158 26.4491C26.3833 26.4815 26.3606 26.5139 26.3331 26.5447C26.2504 26.6452 26.1775 26.7457 26.1094 26.8511C26.0964 26.8738 26.0867 26.8883 26.0721 26.911C25.8209 27.3633 25.6961 27.8447 25.7966 28.4298C25.8095 28.5303 25.829 28.6259 25.8614 28.7183C25.8744 28.7637 25.889 28.8059 25.9068 28.8464C25.9246 28.8966 25.9441 28.9291 25.9619 28.9696C26.0802 29.203 26.2504 29.3942 26.4012 29.605C26.4239 29.6374 26.4514 29.6698 26.4741 29.7055C26.5195 29.7735 26.5697 29.8465 26.6119 29.921C26.6346 29.9664 26.6492 29.994 26.6848 30.0313C27.0544 30.396 33.2446 36.57 33.277 36.6153Z" fill="white"/>
<path fill-rule="evenodd" clip-rule="evenodd" d="M35.8291 40.8881C35.902 41.021 36.0123 41.3046 36.0949 41.4602L36.1452 41.5753C36.2457 41.7714 36.3154 41.9416 36.4288 42.1378C36.4418 42.1556 36.4467 42.1751 36.4612 42.1929C36.5796 42.389 36.7498 42.6727 36.9102 42.838C36.9653 42.8931 37.0205 42.9563 37.0804 43.0066C37.0983 43.0195 37.108 43.0293 37.121 43.0471C37.1712 43.0925 37.2993 43.1881 37.3592 43.2254C37.3771 43.2384 37.3916 43.2481 37.4095 43.2578C37.4322 43.2708 37.4419 43.2805 37.4694 43.2951C37.6396 43.3778 37.7353 43.4361 37.9508 43.4831C38.5328 43.6112 39.1552 43.5512 39.7225 43.3923C39.8052 43.3697 39.883 43.347 39.9608 43.3194C40.3141 43.2011 40.6334 43.0682 40.9495 42.8753C41.0597 42.8104 41.2283 42.697 41.3288 42.6192C41.6044 42.3955 41.8734 42.1118 41.8734 41.7277C41.8734 41.4667 41.8556 41.3533 41.7632 41.1198C41.6027 40.7179 41.3839 40.5298 41.2234 40.1279C41.131 39.9042 41.063 39.6935 40.922 39.5006C40.9041 39.473 40.8069 39.3596 40.7615 39.3677C40.7242 39.3725 40.6837 39.3952 40.6464 39.4049C40.6059 39.4147 40.5686 39.4276 40.5281 39.4422C40.3725 39.4876 40.212 39.5379 40.0564 39.5832L39.2362 39.8393C39.1957 39.8523 39.1584 39.8669 39.1179 39.8766C39.0352 39.8993 38.9623 39.922 38.8845 39.9496L38.4128 40.0906C38.3723 40.1035 38.335 40.1181 38.2977 40.1279L37.2393 40.4569C37.0788 40.5023 36.9329 40.5525 36.7676 40.5979L35.8291 40.8881Z" fill="white"/>
<path fill-rule="evenodd" clip-rule="evenodd" d="M28.771 36.7758C28.771 37.0043 28.8164 37.2005 28.8812 37.4063C28.8991 37.4614 28.9218 37.5295 28.9461 37.5798C28.8861 37.6122 28.8277 37.6349 28.7629 37.6673L26.7335 38.6641C26.6687 38.6965 26.6152 38.7241 26.5552 38.7517L24.4303 39.7939C24.3978 39.8117 24.3654 39.8263 24.3346 39.8393C24.2746 39.8717 24.2163 39.8993 24.1515 39.9301C24.0234 39.9949 23.9035 40.0484 23.7803 40.1132L23.1303 40.4293C23.1027 40.4423 23.0622 40.4666 23.0379 40.4747C22.9601 40.4244 22.8175 40.251 22.7397 40.1781C22.6392 40.0727 22.5435 39.9771 22.4382 39.8766L22.1367 39.5799C22.0767 39.52 22.0135 39.4568 21.9487 39.3968L21.8336 39.2817C21.7331 39.1812 21.6229 39.0888 21.5272 38.9883C21.4348 38.8975 21.2711 38.7598 21.1739 38.6674L21.0134 38.5296C20.9956 38.5118 20.9907 38.5069 20.9729 38.4923C20.8902 38.4194 20.6163 38.1811 20.5288 38.1811C20.4882 38.1811 20.4461 38.2135 20.4234 38.2314C20.3407 38.3189 20.3002 38.4194 20.2581 38.5328C20.2256 38.6058 20.203 38.6933 20.1851 38.7711C20.1478 38.9446 20.117 39.118 20.0895 39.2979C20.0765 39.4081 20.0392 39.6772 20.0392 39.7874C20.0392 39.8198 20.0392 39.8328 20.0344 39.8604C20.0247 39.9106 20.0344 39.9609 20.0295 40.0062C20.0198 40.0565 20.0247 40.1116 20.0247 40.1667C20.0247 40.1797 20.1576 40.2121 20.1803 40.217L20.4185 40.2948C20.451 40.3045 20.4736 40.3077 20.5012 40.3174C20.5563 40.3353 20.6066 40.3547 20.6617 40.3726C20.7719 40.4098 20.8675 40.4455 20.9777 40.4828C21.3392 40.6011 21.5921 40.6789 21.9714 40.7664C22.0864 40.794 22.2145 40.807 22.3425 40.8264L22.5354 40.8442C22.6084 40.8442 22.6635 40.8491 22.7413 40.8491C23.2956 40.8491 23.6668 40.6984 24.1239 40.4698C24.4302 40.3142 24.7658 40.0954 25.1175 39.9203C25.1678 39.8976 25.2229 39.8749 25.2731 39.8523L26.0285 39.5135C26.056 39.5005 26.0738 39.4908 26.1063 39.4762C26.2765 39.4033 26.4677 39.3206 26.633 39.2379L26.7887 39.1699C26.8389 39.1472 26.8843 39.1245 26.9394 39.1018L27.5489 38.8278C27.672 38.763 27.8001 38.7128 27.9281 38.6544C27.9557 38.6414 27.9784 38.6317 28.0059 38.6171C28.0335 38.6074 28.0513 38.5993 28.0789 38.5847L28.4582 38.4161C28.5133 38.3934 28.5587 38.3707 28.6138 38.3481L28.7597 38.28C28.8148 38.2573 28.8602 38.2346 28.9153 38.2119L29.2168 38.0741C29.2394 38.0612 29.2621 38.0514 29.2897 38.0417L29.5182 37.9364C29.6236 37.8958 29.7192 37.8407 29.8197 37.7986L29.9753 37.7305C30.0029 37.7208 30.0256 37.7078 30.0531 37.6981L31.2704 37.1454C31.298 37.1356 31.3207 37.1275 31.3482 37.1129C31.4439 37.0627 31.5492 37.0254 31.6497 36.9752L32.1036 36.7693C32.196 36.7288 32.5104 36.5764 32.5655 36.5635C32.5607 36.5408 32.525 36.5035 32.5104 36.4808L32.4423 36.403C32.4051 36.3657 32.3775 36.3252 32.3418 36.2928L32.0809 36.0545C32.0209 35.9945 31.9885 35.967 31.9074 36.014C31.7616 36.1015 31.6416 36.2198 31.4909 36.2976C31.4536 36.2247 31.2802 36.014 31.2072 35.954C31.1894 35.941 31.1845 35.941 31.1699 35.9216C31.1521 35.9086 31.1521 35.9037 31.1327 35.8892C30.9398 35.7433 30.7842 35.646 30.5459 35.5682C30.3806 35.5131 30.1698 35.4856 29.9737 35.4856C29.9235 35.4856 29.7808 35.5407 29.7354 35.5536C29.562 35.6185 29.3286 35.7368 29.1957 35.8649C29.1779 35.8827 29.1681 35.8875 29.1503 35.9054C29.0676 35.9783 28.9996 36.061 28.9396 36.1566C28.8407 36.3414 28.771 36.5294 28.771 36.7758Z" fill="white"/>
<path fill-rule="evenodd" clip-rule="evenodd" d="M44.4476 34.928C44.5934 35.1468 44.6583 35.317 44.7539 35.5634C44.7669 35.5958 44.7815 35.6412 44.7944 35.6736L44.9824 36.2734C45.0051 36.3609 45.0278 36.4387 45.0473 36.5246C45.1899 37.0741 45.2807 37.536 45.3536 38.1033L45.4039 38.5248C45.4039 38.5799 45.4039 38.6204 45.4087 38.6755C45.4185 38.7582 45.4314 39.1926 45.4217 39.2834L45.4039 39.4892C45.399 39.5265 45.3942 39.554 45.3942 39.5897C45.3536 39.5622 45.3261 39.4989 45.2612 39.4941C45.2515 39.5443 45.2564 39.5443 45.2564 39.6043C45.0781 39.6043 44.8674 39.4714 44.7296 39.366C44.6566 39.3158 44.5918 39.2477 44.5286 39.1829C44.2774 38.9316 43.9386 38.3546 43.7862 38.0126L43.4701 37.3042C43.3826 37.0984 43.2546 36.7872 43.1589 36.5959C43.0909 36.4581 43.0909 36.5003 43.1541 36.3901C43.1638 36.3771 43.1638 36.3674 43.1768 36.3495C43.2448 36.2312 43.347 36.0756 43.4377 35.9751C43.4783 35.9249 43.5107 35.8843 43.5561 35.8422L43.877 35.5261C43.9597 35.4435 44.1477 35.2749 44.2028 35.2052L44.4476 34.928ZM45.7248 38.716V39.037C45.7151 39.2655 45.6875 39.486 45.6324 39.687C45.6049 39.7777 45.5676 39.875 45.5271 39.956C45.4817 40.0468 45.4946 40.029 45.4168 40.0387C45.3617 40.0436 45.3212 40.0565 45.2564 40.0565C45.1413 40.0565 44.9127 39.9106 44.822 39.8409C44.7993 39.828 44.7815 39.8134 44.7571 39.7956C44.7344 39.7777 44.7199 39.7631 44.702 39.7453C44.6745 39.7226 44.6648 39.7178 44.6421 39.6951C44.5918 39.6399 44.5497 39.6221 44.4767 39.5346C44.4638 39.5119 44.4443 39.4973 44.4216 39.4746L44.2757 39.3012C43.9872 38.9494 43.817 38.6431 43.5885 38.2589L43.4329 37.9802C43.4102 37.9299 43.3875 37.8894 43.3599 37.8391C43.2773 37.6738 43.1443 37.4226 43.0763 37.2589C43.0536 37.2086 43.0309 37.1632 43.0082 37.113C42.8931 36.8698 42.7148 36.4549 42.6143 36.2069C42.5738 36.0967 42.5365 36.001 42.4911 35.8957L42.1378 34.9539C42.1281 34.9215 42.1199 34.8988 42.1054 34.8713C42.0956 34.8389 42.0924 34.8162 42.0827 34.7935C41.9497 34.4466 41.8444 34.0851 41.7293 33.7318C41.7196 33.7042 41.7115 33.6864 41.7018 33.654C41.6061 33.3298 41.4862 32.9732 41.4084 32.6474C41.3127 32.2487 41.243 32.0023 41.175 31.5857C41.1474 31.4074 41.1101 31.1918 41.0972 31.0135C41.0874 30.9536 41.0793 30.8758 41.0745 30.8174C41.0696 30.6942 41.0566 30.5564 41.0566 30.4154V30.1772C41.0566 29.8157 41.1393 29.3311 41.3452 29.1203C41.4003 29.0652 41.5688 29.0831 41.6385 29.0977C41.7844 29.1349 41.9822 29.2581 42.0827 29.3586C42.1005 29.3716 42.1054 29.3764 42.1232 29.391C42.1961 29.4559 42.3615 29.6423 42.4247 29.7201C42.4652 29.7752 42.5025 29.8254 42.543 29.8805C42.7489 30.1496 43.052 30.6488 43.2205 30.973L43.3859 31.294C43.4539 31.4317 43.6971 31.9164 43.7522 32.0525L44.2239 33.1369C44.2514 33.2147 44.4168 33.6086 44.42 33.6394C44.4654 33.6394 44.48 33.6297 44.5254 33.6297C44.6534 33.6297 44.796 33.6394 44.9014 33.667C45.0716 33.7075 45.1575 33.7772 45.1899 33.7853C45.1899 34.1322 45.044 34.3153 44.8414 34.5309C44.7636 34.6136 44.7766 34.6087 44.8187 34.7416L45.2629 36.2782C45.2758 36.3333 45.2904 36.3787 45.3034 36.4338C45.3358 36.5392 45.3585 36.6397 45.386 36.7499C45.5319 37.3253 45.7021 38.0385 45.7248 38.716ZM41.3565 30.3684C41.3565 30.1577 41.3889 29.7103 41.4797 29.5353C41.4975 29.5077 41.5073 29.485 41.5445 29.485C41.6548 29.4753 41.6369 29.4802 41.7877 29.5953C41.9433 29.7103 42.1443 29.9162 42.2691 30.0702C42.5479 30.4171 42.8007 30.8758 42.9742 31.2826C43.2254 31.8597 43.4329 32.4172 43.6744 32.9927L43.8024 33.2812C43.8478 33.3768 43.9532 33.5778 43.9726 33.6556L43.2578 33.7107C42.9742 33.7334 42.6435 33.7512 42.3647 33.7788C42.1216 33.8063 42.1491 33.8112 42.1362 33.7561L41.9805 33.1385C41.9708 33.1159 41.9676 33.0883 41.9579 33.0656L41.7293 32.3249C41.5834 31.858 41.423 31.2324 41.3808 30.738C41.3695 30.6245 41.3565 30.4965 41.3565 30.3684Z" fill="white"/>
<path fill-rule="evenodd" clip-rule="evenodd" d="M21.3535 43.381C21.3665 43.4037 21.4038 43.4182 21.4313 43.4312L21.6826 43.5868C21.903 43.7149 22.164 43.8656 22.3974 43.9531C22.54 44.0034 22.6908 44.0488 22.8415 44.0585H22.9469C23.0522 44.0488 23.1576 44.0212 23.2581 43.9629C23.4137 43.8672 23.4688 43.7619 23.5466 43.6387C23.6017 43.5431 23.6519 43.3777 23.6844 43.2675C23.6892 43.2399 23.6973 43.2027 23.6973 43.1767H23.2435C23.1333 43.1767 22.2628 43.287 22.0667 43.3048C21.9338 43.3177 21.4313 43.381 21.3535 43.381Z" fill="white"/>
</svg>
