<svg width="108" height="64" viewBox="0 0 108 64" fill="none" xmlns="http://www.w3.org/2000/svg">
<path d="M85.7261 20.9372L85.9128 21.3136L86.3158 21.1944C88.0726 20.675 89.8172 20.3669 91.672 20.3669C100.059 20.3669 106.829 26.4521 106.829 33.7536C106.829 40.5479 100.981 46.3219 93.2786 47.3569L92.9056 47.407L92.8506 47.7793C91.9367 53.9597 85.8502 58.9071 78.4052 58.9071C77.0186 58.9071 75.6245 58.7019 74.3396 58.3911L74.1233 58.3387L73.9397 58.4644C69.8442 61.2665 64.3262 63.0413 58.3258 63.0413C52.2047 63.0413 46.6906 61.266 42.5996 58.3632L42.3167 58.1625L42.0296 58.3572C40.0791 59.6801 37.6667 60.4972 34.9001 60.4972C31.4535 60.4972 28.3499 59.0703 26.1664 56.9299L25.9103 56.6788L25.5904 56.841C23.1576 58.0739 20.3678 58.695 17.45 58.695C7.98931 58.695 0.5 51.8699 0.5 43.7182C0.5 37.807 4.40833 32.7698 10.0036 30.2885L10.379 30.1221L10.2886 29.7215C10.1833 29.2544 10.1812 28.7798 10.1812 28.2414C10.1812 20.4098 17.3094 14.0065 26.2944 14.0065H26.2958H26.2972H26.2986H26.3H26.3014H26.3028H26.3042H26.3056H26.307H26.3084H26.3098H26.3112H26.3126H26.314H26.3154H26.3168H26.3182H26.3196H26.321H26.3224H26.3238H26.3252H26.3266H26.328H26.3294H26.3308H26.3322H26.3336H26.335H26.3364H26.3378H26.3392H26.3406H26.342H26.3434H26.3448H26.3462H26.3476H26.349H26.3504H26.3518H26.3532H26.3546H26.356H26.3574H26.3588H26.3602H26.3616H26.363H26.3644H26.3658H26.3672H26.3686H26.37H26.3714H26.3728H26.3742H26.3756H26.377H26.3784H26.3798H26.3812H26.3826H26.384H26.3854H26.3868H26.3882H26.3896H26.391H26.3924H26.3938H26.3952H26.3966H26.398H26.3994H26.4008H26.4022H26.4036H26.405H26.4065H26.4079H26.4093H26.4107H26.4121H26.4135H26.4149H26.4163H26.4177H26.4191H26.4205H26.4219H26.4233H26.4247H26.4261H26.4275H26.4289H26.4303H26.4317H26.4331H26.4345H26.4359H26.4373H26.4387H26.4401H26.4415H26.4429H26.4443H26.4457H26.4471H26.4485H26.4499H26.4513H26.4527H26.4541H26.4555H26.4569H26.4583H26.4597H26.4611H26.4625H26.4639H26.4653H26.4667H26.4681H26.4695H26.4709H26.4723H26.4737H26.4751H26.4765H26.4779H26.4793H26.4807H26.4821H26.4835H26.4849H26.4863H26.4877H26.4891H26.4905H26.4919H26.4933H26.4947H26.4961H26.4975H26.4989H26.5003H26.5017H26.5031H26.5045H26.5059H26.5073H26.5087H26.5101H26.5115H26.5129H26.5143H26.5157H26.5171H26.5185H26.5199H26.5213H26.5227H26.5241H26.5255H26.5269H26.5283H26.5297H26.5311H26.5325H26.5339H26.5353H26.5367H26.5381H26.5395H26.5409H26.5423H26.5437H26.5451H26.5465H26.5479H26.5493H26.5507H26.5521H26.5535H26.5549H26.5563H26.5577H26.5591H26.5605H26.5619H26.5633H26.5647H26.5662H26.5676H26.569H26.5704H26.5718H26.5732H26.5746H26.576H26.5774H26.5788H26.5802H26.5816H26.583H26.5844H26.5858H26.5872H26.5886H26.59H26.5914H26.5928H26.5942H26.5956H26.597H26.5984H26.5998H26.6012H26.6026H26.604H26.6054H26.6068H26.6082H26.6096H26.611H26.6124H26.6138H26.6152H26.6166H26.618H26.6194H26.6208H26.6222H26.6236H26.625H26.6264H26.6278H26.6292H26.6306H26.632H26.6334H26.6348H26.6362H26.6376H26.639H26.6404H26.6418H26.6432H26.6446H26.646H26.6474H26.6488H26.6502H26.6516H26.653H26.6544H26.6558H26.6572H26.6586H26.66H26.6614H26.6628H26.6642H26.6656H26.667H26.6684H26.6698H26.6712H26.6726H26.674H26.6754H26.6768H26.6782H26.6796H26.681H26.6824H26.6838H26.6852H26.6866H26.688H26.6894H26.6908H26.6922H26.6936H26.695H26.6964H26.6978H26.6992H26.7006H26.702H26.7034H26.7048H26.7062H26.7076H26.709H26.7104H26.7119H26.7133H26.7147H26.7161H26.7175H26.7189H26.7203H26.7217H26.7231H26.7245H26.7259H26.7273H26.7287H26.7301H26.7315H26.7329H26.7343H26.7357H26.7371H26.7385H26.7399H26.7413H26.7427H26.7441H26.7455H26.7469H26.7483H26.7497H26.7511H26.7525H26.7539H26.7553H26.7567H26.7581H26.7595H26.7609H26.7623H26.7637H26.7651H26.7665H26.7679H26.7693H26.7707H26.7721H26.7735H26.7749H26.7763H26.7777H26.7791H26.7805H26.7819H26.7833H26.7847H26.7861H26.7875H26.7889H26.7903H26.7917H26.7931H26.7945H26.7959H26.7973H26.7987H26.8001H26.8015H26.8029H26.8043H26.8057H26.8071H26.8085H26.8099H26.8113H26.8127H26.8141H26.8155H26.8169H26.8183H26.8197H26.8211H26.8225H26.8239H26.8253H26.8267H26.8281H26.8295H26.8309H26.8323H26.8337H26.8351H26.8365H26.8379H26.8393H26.8407H26.8421H26.8435H26.8449H26.8463H26.8477H26.8491H26.8505H26.8519H26.8533H26.8547H26.8561H26.8575H26.8589H26.8603H26.8617H26.8631H26.8645H26.8659H26.8674H26.8688H26.8702H26.8716H26.873H26.8744H26.8758H26.8772H26.8786H26.88H26.8814H26.8828H26.8842H26.8856H26.887H26.8884H26.8898H26.8912H26.8926H26.894H26.8954H26.8968H26.8982H26.8996H26.901H26.9024H26.9038H26.9052H26.9066H26.908H26.9094H26.9108H26.9122H26.9136H26.915H26.9164H26.9178H26.9192H26.9206H26.922H26.9234H26.9248H26.9262H26.9276H26.929H26.9304H26.9318H26.9332H26.9346H26.936H26.9374H26.9388H26.9402H26.9416H26.943H26.9444H26.9458H26.9472H26.9486H26.95H26.9514H26.9528H26.9542H26.9556H26.957H26.9584H26.9598H26.9612H26.9626H26.964H26.9654H26.9668H26.9682H26.9696H26.971H26.9724H26.9738H26.9752H26.9766H26.978H26.9794H26.9808H26.9822H26.9836H26.985H26.9864H26.9878H26.9892H26.9906H26.992H26.9934H26.9948H26.9962H26.9976H26.999H27.0004H27.0018H27.0032H27.0046H27.006H27.0074H27.0088H27.0102H27.0116H27.3528L27.4772 13.6888C30.3822 6.2685 38.4293 0.861816 47.808 0.861816C56.6023 0.861816 64.0695 5.43643 67.4421 12.0379L67.6019 12.3506L67.9502 12.3065C68.7892 12.2002 69.5964 12.0984 70.5168 12.0984C77.3915 12.0984 83.1867 15.8183 85.7261 20.9372Z" fill="white" stroke="#F99035"/>
<circle cx="32.3411" cy="36.1475" r="16.0023" fill="#F99035"/>
<path fill-rule="evenodd" clip-rule="evenodd" d="M29.5601 44.8827H34.6253V44.5884H29.5601V44.8827ZM33.9914 43.7417C33.8933 43.6813 33.7997 43.6013 33.7137 43.5032C33.6367 43.4142 33.5431 43.2949 33.4541 43.1802H33.4496C33.2277 42.907 33.027 42.6565 32.7161 42.4301C32.63 42.3697 32.5364 42.3109 32.4353 42.2595C32.3417 42.2127 32.2436 42.175 32.1365 42.1524C31.9191 42.1146 31.7063 42.1433 31.5177 42.2127C31.2611 42.3109 31.0528 42.4678 30.9245 42.6052C30.8475 42.6897 30.7751 42.7757 30.7026 42.8738C30.6392 42.9583 30.5698 43.0565 30.4974 43.1802H30.4928L30.4551 43.2481C30.3404 43.4398 30.2332 43.6194 30.037 43.7417H33.9914ZM34.6268 39.8537V38.853C34.58 38.7761 34.5498 38.6961 34.5589 38.5889L34.4517 38.5934C34.337 38.6055 34.2299 38.6282 34.1318 38.6614C34.0291 38.6961 33.9401 38.7429 33.8586 38.7927C33.6835 38.9119 33.5643 39.0734 33.4541 39.2274C33.2579 39.487 33.0783 39.7299 32.7628 39.8658V40.548H31.2067V40.1269V39.9141C31.1645 39.9096 31.1252 39.9096 31.0875 39.9096C30.9592 39.9141 30.8309 39.9262 30.7087 39.9609C30.6408 39.9775 30.6196 39.9865 30.606 39.9956H30.6015C30.5381 40.0258 30.4989 40.0469 30.3963 40.0469H30.3917C30.3495 40.0469 30.3193 40.0469 30.2891 40.0378L30.2287 40.6476C30.2197 40.7412 30.2166 40.8227 30.2121 40.8861C30.2 41.1804 30.1955 41.2604 29.9555 41.6905L29.7593 42.0528C29.6914 42.172 29.6265 42.2867 29.5586 42.3984V43.0293C29.622 42.9916 29.6733 42.91 29.7246 42.821L29.7759 42.7395H29.7714C29.8484 42.6112 29.9329 42.492 30.028 42.3682C30.114 42.2535 30.2031 42.1463 30.3012 42.0407C30.5019 41.8188 30.8294 41.5683 31.2309 41.4234C31.5418 41.3087 31.901 41.2574 32.2844 41.3253C32.4851 41.36 32.6602 41.4279 32.8172 41.5049C32.9621 41.5819 33.0904 41.6664 33.2051 41.7479C33.6186 42.0377 33.8526 42.335 34.1137 42.6595H34.1091C34.1771 42.744 34.2495 42.8301 34.3567 42.9538C34.408 43.0172 34.4593 43.0429 34.5016 43.0474C34.5182 43.0519 34.5363 43.0474 34.5438 43.0474C34.5529 43.0429 34.5604 43.0383 34.5695 43.0308C34.5785 43.0217 34.5861 43.0097 34.5861 42.9961C34.5982 42.8512 34.3053 42.2595 34.0789 41.7947C33.9688 41.5683 33.8707 41.369 33.8148 41.2332C33.759 41.0928 33.7288 40.9947 33.7212 40.88C33.7122 40.7819 33.7258 40.6884 33.7424 40.5435C33.7544 40.4408 33.7726 40.3397 33.7982 40.2537C33.8284 40.139 33.8707 40.0318 33.9341 39.9382L34.1091 39.662L34.4155 39.7601C34.5031 39.7843 34.571 39.819 34.6268 39.8537ZM34.6268 37.7362V34.9938C34.4185 35.0662 34.1921 35.1085 33.9612 35.1085C33.5099 35.1085 33.0919 34.9545 32.7628 34.6949V38.7323L32.7719 38.7202C32.9258 38.5165 33.0873 38.2991 33.3816 38.0939C33.522 38.0003 33.685 37.9143 33.8556 37.8599C34.0171 37.7996 34.1967 37.7664 34.3884 37.7498C34.4593 37.7452 34.5408 37.7362 34.6268 37.7362ZM34.6268 34.0399V33.7546H33.0315C33.0783 33.8225 33.1251 33.8829 33.1809 33.9373C33.3817 34.138 33.6579 34.2602 33.9612 34.2602C34.2118 34.2602 34.4382 34.1802 34.6268 34.0399ZM31.1509 33.7531H29.5601V34.0384C29.7427 34.1787 29.9736 34.2602 30.2257 34.2602C30.5291 34.2602 30.8007 34.1365 31.0015 33.9373C31.0573 33.8814 31.1086 33.8225 31.1509 33.7531ZM29.5601 34.9938V39.0734C29.8167 39.0432 30.0808 39.0734 30.3314 39.1549L30.3827 39.1715C30.4129 39.1625 30.4506 39.1504 30.4928 39.1413C30.6845 39.09 30.8762 39.0689 31.0724 39.0643C31.1147 39.0643 31.1584 39.0643 31.2052 39.0643V34.8428C30.9155 35.0089 30.5834 35.107 30.2242 35.107C29.9918 35.1085 29.7699 35.0662 29.5601 34.9938ZM29.5601 39.9292V40.2522C29.5978 40.231 29.6371 40.2175 29.6793 40.2009L30.2468 40.0212L30.1834 40.0001C30.1623 39.9911 30.1321 39.979 30.0687 39.9579C29.9148 39.9065 29.7578 39.8945 29.6039 39.9231C29.5903 39.9262 29.5737 39.9292 29.5601 39.9292Z" fill="white"/>
<path fill-rule="evenodd" clip-rule="evenodd" d="M20.6534 39.244C20.6112 39.7088 20.6791 39.6741 20.4315 40.1254C20.2987 40.3684 20.1719 40.6024 20.0346 40.8287C19.9108 41.037 19.7056 41.3102 19.7539 41.6302C19.7916 41.9154 20.0572 42.1373 20.3893 42.1026C20.7394 42.0679 20.8375 41.8339 20.9824 41.5955C21.1364 41.3479 21.2858 41.1532 21.4594 40.9616C21.7492 40.6416 22.3635 40.2507 23.0577 40.3775C23.3611 40.4333 23.6071 40.5858 23.8033 40.7261C24.2893 41.0672 24.5157 41.437 24.8779 41.8626C25.2538 42.3018 25.8197 42.092 25.8545 41.6619C25.8892 41.2951 25.219 40.1239 25.053 39.7119C24.976 39.5157 24.9806 39.4568 25.0062 39.2304C25.0274 39.0734 25.0621 38.9074 25.1345 38.7957C25.2417 38.8304 25.3051 38.9029 25.3654 38.9617C25.4636 39.0553 25.625 39.2304 25.7322 39.2681C26.0522 39.3874 26.2997 39.1021 26.3254 38.8289C26.3631 38.3384 26.2484 37.9384 26.019 37.543C25.9843 37.4826 25.9556 37.4328 25.9163 37.3815C25.8786 37.3211 25.8137 37.2743 25.8484 37.1989C25.8786 37.1219 25.9043 37.0962 25.8741 36.9981C25.8062 36.7642 25.5119 36.7899 25.2643 36.8065C24.9489 36.8321 24.6848 36.9347 24.4674 37.0827C23.7294 37.5853 23.909 38.3867 22.4163 38.1603C22.0918 38.109 21.7643 38.1045 21.4488 38.186C21.1288 38.2705 21.3552 38.2961 21.0473 38.195C20.6127 38.0501 20.1176 38.1316 19.8022 38.4078C19.452 38.7097 19.1034 39.57 19.5169 39.8779C19.692 40.0062 20.101 40.1843 20.2972 39.976C20.4391 39.8311 20.3591 39.3376 20.6534 39.244Z" fill="white"/>
<path fill-rule="evenodd" clip-rule="evenodd" d="M22.0713 32.5865L30.4072 26.9296C30.4238 26.9553 30.4419 26.9764 30.4539 26.9975L24.3609 32.5849H22.0713V32.5865ZM33.7714 26.9311L42.1073 32.588H39.9067L33.7322 26.9915C33.7472 26.9734 33.7593 26.9522 33.7714 26.9311ZM39.2773 32.5865H36.0791L33.2522 27.4579C33.3201 27.4111 33.385 27.3597 33.4484 27.3039L39.2773 32.5865ZM35.5976 32.5865H32.3059V27.8125C32.5066 27.7914 32.7028 27.7401 32.8809 27.6631L35.5976 32.5865ZM32.3059 26.7817V26.6157L32.3828 26.7605C32.3572 26.7681 32.3315 26.7726 32.3059 26.7817ZM31.8787 32.5865H28.7273L31.3324 27.6752C31.5029 27.7431 31.6855 27.7899 31.8787 27.811V32.5865ZM31.8153 26.7651L31.8787 26.6458V26.7817C31.8576 26.7772 31.8365 26.7681 31.8153 26.7651ZM28.2504 32.5865H24.9888L30.7453 27.313C30.8132 27.3733 30.8811 27.4277 30.9581 27.4745L28.2504 32.5865Z" fill="white"/>
<path fill-rule="evenodd" clip-rule="evenodd" d="M28.0136 33.1615C28.0136 34.0006 27.3314 34.6813 26.4877 34.6813C25.647 34.6813 24.9648 33.9991 24.9648 33.1615H28.0136Z" fill="white"/>
<path fill-rule="evenodd" clip-rule="evenodd" d="M31.748 33.1615C31.748 34.0006 31.0658 34.6813 30.2251 34.6813C29.3814 34.6813 28.6992 33.9991 28.6992 33.1615H31.748Z" fill="white"/>
<path fill-rule="evenodd" clip-rule="evenodd" d="M35.4824 33.1615C35.4824 34.0006 34.8002 34.6813 33.9595 34.6813C33.1158 34.6813 32.4336 33.9991 32.4336 33.1615H35.4824Z" fill="white"/>
<path fill-rule="evenodd" clip-rule="evenodd" d="M39.2186 33.1615C39.2186 34.0006 38.5364 34.6813 37.6957 34.6813C36.8551 34.6813 36.1729 33.9991 36.1729 33.1615H39.2186Z" fill="white"/>
<path fill-rule="evenodd" clip-rule="evenodd" d="M24.2773 33.1615C24.2773 34.0006 23.5951 34.6813 22.7514 34.6813C21.9107 34.6813 21.2285 33.9991 21.2285 33.1615H24.2773Z" fill="white"/>
<path fill-rule="evenodd" clip-rule="evenodd" d="M42.958 33.1615C42.958 34.0006 42.2758 34.6813 41.4321 34.6813C40.5914 34.6813 39.9092 33.9991 39.9092 33.1615H42.958Z" fill="white"/>
<path fill-rule="evenodd" clip-rule="evenodd" d="M33.6152 25.9002C33.6152 26.7394 32.933 27.4201 32.0923 27.4201C31.2486 27.4201 30.5664 26.7379 30.5664 25.9002C30.5664 25.7598 31.8886 24.4045 32.0923 24C32.293 24.4045 33.6152 25.7598 33.6152 25.9002Z" fill="white"/>
<path fill-rule="evenodd" clip-rule="evenodd" d="M23.3564 47.0772C23.5179 45.4502 24.905 44.1642 26.5758 44.1642H31.9489H32.2387H37.6118C39.2826 44.1642 40.6696 45.4502 40.8266 47.0772H32.2387H31.9489H23.3564Z" fill="white"/>
<path fill-rule="evenodd" clip-rule="evenodd" d="M38.655 39.244C38.6082 39.7088 38.6807 39.6741 38.4286 40.1254C38.2958 40.3684 38.169 40.6024 38.0317 40.8287C37.9079 41.037 37.7027 41.3102 37.751 41.6302C37.7887 41.9154 38.0543 42.1373 38.3864 42.1026C38.7365 42.0679 38.8346 41.8339 38.9795 41.5955C39.1335 41.3479 39.2829 41.1532 39.4565 40.9616C39.7508 40.6416 40.3605 40.2507 41.0548 40.3775C41.3612 40.4333 41.6042 40.5858 41.8049 40.7261C42.2864 41.0672 42.5128 41.437 42.875 41.8626C43.2509 42.3018 43.8168 42.092 43.8561 41.6619C43.8863 41.2951 43.2161 40.1239 43.0501 39.7119C42.9731 39.5157 42.9777 39.4568 43.0033 39.2304C43.0245 39.0734 43.0637 38.9074 43.1316 38.7957C43.2388 38.8304 43.3022 38.9029 43.3625 38.9617C43.4606 39.0553 43.6221 39.2304 43.7293 39.2681C44.0493 39.3874 44.2968 39.1021 44.3225 38.8289C44.3602 38.3384 44.2455 37.9384 44.0161 37.543C43.9814 37.4826 43.9527 37.4328 43.9134 37.3815C43.8757 37.3211 43.8108 37.2743 43.8455 37.1989C43.8757 37.1219 43.9059 37.0962 43.8757 36.9981C43.8033 36.7642 43.5089 36.7899 43.2659 36.8065C42.946 36.8321 42.6818 36.9347 42.4645 37.0827C41.731 37.5853 41.9061 38.3867 40.4134 38.1603C40.0889 38.109 39.7613 38.1045 39.4459 38.186C39.1259 38.2705 39.3523 38.2961 39.0444 38.195C38.6097 38.0501 38.1147 38.1316 37.7993 38.4078C37.4536 38.7097 37.1004 39.57 37.514 39.8779C37.6891 40.0062 38.0981 40.1843 38.2943 39.976C38.4377 39.8311 38.3577 39.3376 38.655 39.244Z" fill="white"/>
<path fill-rule="evenodd" clip-rule="evenodd" d="M29.8073 40.6068C29.765 41.0717 29.8329 41.0324 29.5854 41.4883C29.4526 41.7267 29.3258 41.9652 29.1884 42.1916C29.0647 42.3999 28.8594 42.6731 28.9077 42.993C28.9454 43.2783 29.2111 43.5002 29.5431 43.4654C29.8888 43.4277 29.9914 43.1923 30.1363 42.9583C30.2902 42.7108 30.4397 42.5116 30.6132 42.3244C30.903 42.0044 31.5173 41.6135 32.2116 41.7373C32.5149 41.7931 32.761 41.9456 32.9572 42.0905C33.4432 42.4316 33.6696 42.8013 34.0318 43.227C34.4076 43.6662 34.9736 43.4564 35.0083 43.0262C35.043 42.6595 34.3729 41.4837 34.2069 41.0717C34.1299 40.8755 34.1344 40.8166 34.1601 40.5947C34.1812 40.4378 34.2159 40.2718 34.2884 40.1601C34.3955 40.1948 34.4589 40.2627 34.5193 40.3216C34.6174 40.4197 34.7789 40.5902 34.8861 40.6325C35.206 40.7517 35.4536 40.4665 35.4747 40.1933C35.5169 39.7027 35.4022 39.3028 35.1713 38.9028C35.1366 38.847 35.1034 38.7957 35.0687 38.7459C35.0264 38.6825 34.9661 38.6387 35.0008 38.5587C35.031 38.4863 35.0566 38.4606 35.0264 38.358C34.9585 38.1285 34.6642 38.1542 34.4167 38.1708C34.1012 38.1965 33.8326 38.2991 33.6198 38.444C32.8817 38.9511 33.0613 39.7511 31.5686 39.5216C31.2441 39.4748 30.9121 39.4703 30.6012 39.5518C30.2767 39.6333 30.5031 39.662 30.1997 39.5563C29.765 39.4115 29.27 39.496 28.9545 39.7737C28.6044 40.0755 28.2557 40.9328 28.6692 41.2392C28.8398 41.3705 29.2533 41.5501 29.4496 41.3419C29.5899 41.1909 29.5129 40.7004 29.8073 40.6068Z" fill="white"/>
<path d="M32.3358 33.1615H31.6279V40.1254H32.3358V33.1615Z" fill="white"/>
<path d="M23.1815 33.9236H22.4736V38.7156H23.1815V33.9236Z" fill="white"/>
<path d="M41.1805 33.1615H40.4727V39.1504H41.1805V33.1615Z" fill="white"/>
<path d="M70.6758 47.4614V25.4264L71.6326 26.0159V47.1522L70.6758 47.4614Z" fill="#F99035"/>
<path fill-rule="evenodd" clip-rule="evenodd" d="M60.6218 33.3802C59.0369 33.5445 57.6806 34.9878 57.8739 36.7725C58.0478 38.3542 59.475 39.7169 61.279 39.5075C63.9464 39.1983 65.0095 35.9993 62.9542 34.0986C62.3776 33.5703 61.4111 33.2997 60.6218 33.3802Z" fill="#F99035"/>
<path d="M70.6758 47.3616V25.3265L71.6326 25.916V47.0523L70.6758 47.3616Z" fill="#F99035"/>
<path fill-rule="evenodd" clip-rule="evenodd" d="M71.6325 23.371C71.7614 23.5257 72.6247 24.4084 72.7697 24.4792C73.1692 24.708 73.6266 24.2344 73.4075 23.8414C73.2787 23.632 72.5249 22.9329 72.2961 22.7042C71.014 21.422 71.2685 21.451 70.0121 22.7042C69.7672 22.9587 69.0746 23.5869 68.92 23.822C68.6365 24.2408 69.1391 24.7047 69.5192 24.4857C69.6835 24.3955 70.5211 23.5418 70.6757 23.3678L70.6854 26.4411C70.6854 26.6763 70.5855 27.2691 71.13 27.2948C71.6937 27.3303 71.6228 26.6956 71.6293 26.4572V23.371H71.6325Z" fill="#F99035"/>
<path fill-rule="evenodd" clip-rule="evenodd" d="M71.6325 49.5264C71.7614 49.3718 72.6247 48.4891 72.7697 48.4086C73.1692 48.1798 73.6266 48.6534 73.4075 49.0464C73.2787 49.2558 72.5249 49.9646 72.2961 50.1836C71.014 51.4658 71.2685 51.4368 70.0121 50.1836C69.7672 49.9388 69.0746 49.3009 68.92 49.0658C68.6365 48.647 69.1391 48.1831 69.5192 48.4021C69.6835 48.4923 70.5211 49.346 70.6757 49.5297L70.6854 46.4563C70.6854 46.2115 70.5855 45.6188 71.13 45.593C71.6937 45.5672 71.6228 46.2018 71.6293 46.4306V49.5264H71.6325Z" fill="#F99035"/>
<path fill-rule="evenodd" clip-rule="evenodd" d="M57.7896 33.7443C57.8153 34.1437 57.6542 37.0076 57.6253 37.6809C57.5254 40.3161 57.3611 42.9642 57.2805 45.5897C57.2548 46.234 57.2355 46.9266 57.1904 47.5613L57.1098 49.5167C57.2 50.6894 58.5659 51.2789 59.5582 50.5637C60.0575 50.2094 60.1316 49.6907 60.167 49.1012L60.8049 39.9553C60.8145 39.7459 60.7855 39.6364 60.9498 39.5655C61.1045 39.6203 61.0787 39.7105 61.0851 39.9102L61.723 49.0657C61.7681 49.739 61.9066 50.2384 62.3158 50.5476C63.3627 51.3208 64.6449 50.6765 64.7738 49.5296C64.7995 49.2751 64.3002 38.438 64.2744 37.7099C64.2487 37.056 64.0747 34.1276 64.1101 33.7539C64.3646 34.089 65.7306 36.2345 66.0108 36.6887C66.2396 37.0334 66.3749 37.3523 66.7582 37.5617C67.6313 38.045 68.6074 37.362 68.5687 36.4439C68.5494 35.9606 68.2691 35.6707 68.0597 35.3357C67.8503 34.991 67.6699 34.6721 67.4605 34.3177C66.668 32.9453 64.8479 29.3437 63.73 28.316C63.366 27.981 63.1308 27.8972 62.5284 27.9327C60.9724 28.0325 60.9821 28.0422 59.4261 27.9423C58.8623 27.8972 58.4693 28.0068 58.1794 28.3064C57.7702 28.7348 57.8347 28.606 57.432 29.1794C57.2032 29.4983 56.9939 29.8172 56.7941 30.1619C55.9662 31.5794 55.2574 32.897 54.4456 34.2984C54.2459 34.6527 54.0558 34.9878 53.8464 35.326C53.7369 35.5064 53.6467 35.6256 53.5372 35.7996C52.8542 36.853 53.9753 38.1642 55.1222 37.5811C55.4669 37.4007 55.6698 37.0624 55.876 36.708C56.2497 36.0895 56.749 35.3711 57.1517 34.7429C57.2516 34.5786 57.3514 34.4079 57.4706 34.2339L57.7896 33.7443Z" fill="#F99035"/>
<path fill-rule="evenodd" clip-rule="evenodd" d="M60.6218 21.77C59.0369 21.9343 57.6806 23.3775 57.8739 25.1622C58.0478 26.744 59.475 28.1066 61.279 27.9069C63.9464 27.5976 65.0095 24.3891 62.9542 22.4884C62.3776 21.9633 61.4208 21.6894 60.6218 21.77Z" fill="#F99035"/>
<path d="M77.6307 31.3443C77.7306 31.0543 77.9593 30.9094 78.3137 30.9094C78.668 30.9094 78.8968 31.0543 78.9966 31.3443L79.7344 34.3886C79.7988 34.5787 79.7891 34.7719 79.7086 34.9523C79.6184 35.1424 79.4799 35.2713 79.2801 35.3422C79.0901 35.4163 78.8968 35.4066 78.7067 35.3164C78.5231 35.2358 78.3974 35.0877 78.3233 34.8976L78.1236 33.6605L77.6855 34.9523C77.5308 35.2423 77.3118 35.3873 77.0025 35.3873C76.7029 35.3873 76.4742 35.2423 76.3196 34.9523L75.8814 33.6605L75.6817 34.8976C75.6076 35.0877 75.482 35.2326 75.2984 35.3164C75.1083 35.4066 74.915 35.4163 74.7249 35.3422C74.5252 35.2681 74.3867 35.1424 74.2965 34.9523C74.2159 34.7719 74.2063 34.5787 74.2771 34.3886L75.0052 31.3443C75.1051 31.0543 75.3338 30.9094 75.6881 30.9094C76.0425 30.9094 76.2712 31.0543 76.3711 31.3443L76.9993 33.1999L77.6307 31.3443ZM81.3709 35.1714C81.2259 35.3164 81.0519 35.3905 80.8425 35.3905C80.6332 35.3905 80.4592 35.3164 80.3142 35.1714C80.1693 35.0265 80.0952 34.8525 80.0952 34.6431V31.6535C80.0952 31.4441 80.1693 31.2702 80.3142 31.1252C80.4592 30.9803 80.6332 30.9061 80.8425 30.9061C81.0519 30.9061 81.2259 30.9803 81.3709 31.1252C81.5158 31.2702 81.5899 31.4441 81.5899 31.6535V32.6522L82.9269 31.1252C83.0815 30.9803 83.2554 30.9061 83.4648 30.9061C83.6742 30.9061 83.8482 30.9803 83.9932 31.1252C84.1381 31.2702 84.2122 31.4441 84.2122 31.6535V34.6431C84.2122 34.8525 84.1381 35.0265 83.9932 35.1714C83.8482 35.3164 83.6742 35.3905 83.4648 35.3905C83.2554 35.3905 83.0815 35.3164 82.9365 35.1714C82.7916 35.0265 82.7175 34.8525 82.7175 34.6431V33.6444L81.3709 35.1714ZM86.0839 33.8635V34.6463C86.0839 34.8557 86.0098 35.0297 85.8649 35.1746C85.7199 35.3196 85.5363 35.3937 85.3269 35.3937C85.1271 35.3937 84.9435 35.3196 84.7985 35.1746C84.6536 35.0297 84.5795 34.8557 84.5795 34.6463V31.6568C84.5795 31.4474 84.6536 31.2734 84.7985 31.1284C84.9435 30.9835 85.1271 30.9094 85.3269 30.9094C85.5363 30.9094 85.7167 30.9835 85.8649 31.1284C86.0131 31.2734 86.0839 31.4474 86.0839 31.6568V32.4493H87.0117V31.6568C87.0117 31.4474 87.0858 31.2734 87.2308 31.1284C87.3758 30.9835 87.5594 30.9094 87.7688 30.9094C87.9685 30.9094 88.1521 30.9835 88.2971 31.1284C88.4421 31.2734 88.5162 31.4474 88.5162 31.6568V34.6463C88.5162 34.8557 88.4421 35.0297 88.2971 35.1746C88.1521 35.3196 87.9685 35.3937 87.7688 35.3937C87.5594 35.3937 87.379 35.3196 87.2308 35.1746C87.0826 35.0297 87.0117 34.8557 87.0117 34.6463V33.8635H86.0839ZM89.634 35.3905C89.4246 35.3905 89.2507 35.3164 89.1057 35.1714C88.9607 35.0265 88.8867 34.8525 88.8867 34.6431C88.8867 34.4337 88.9607 34.2597 89.1057 34.1148C89.2507 33.9698 89.4246 33.8957 89.634 33.8957C89.8434 33.8957 90.0174 33.9698 90.1624 34.1148C90.3073 34.2597 90.3814 34.4337 90.3814 34.6431C90.3814 34.8525 90.3073 35.0265 90.1624 35.1714C90.0174 35.3164 89.8434 35.3905 89.634 35.3905ZM75.7461 37.5167C75.9459 37.5167 76.1295 37.5908 76.2745 37.7357C76.4194 37.8807 76.4935 38.0547 76.4935 38.2641V41.2085C76.4935 41.4179 76.4194 41.5983 76.2745 41.7433C76.1295 41.8883 75.9459 41.9623 75.7461 41.9623C75.5367 41.9623 75.3563 41.8883 75.2081 41.7433C75.06 41.5983 74.9891 41.4147 74.9891 41.2085V39.0082C74.7894 39.0082 74.6057 38.9341 74.4608 38.7892C74.3158 38.6442 74.2417 38.4702 74.2417 38.2608C74.2417 38.0514 74.3158 37.8775 74.4608 37.7325C74.6057 37.5875 74.7894 37.5134 74.9891 37.5134H75.7461V37.5167ZM78.6938 41.9623C78.0753 41.9623 77.6114 41.7433 77.2925 41.3084C76.9832 40.8638 76.8286 40.3355 76.8286 39.717C76.8286 39.0984 76.9832 38.5701 77.2925 38.1352C77.6114 37.7003 78.0753 37.4812 78.6938 37.4812C79.3123 37.4812 79.7859 37.7003 80.0952 38.1352C80.4044 38.5701 80.5687 39.0984 80.5687 39.717C80.5687 40.3355 80.4044 40.8638 80.0952 41.3084C79.7859 41.7433 79.3123 41.9623 78.6938 41.9623ZM78.6938 40.4611C78.8033 40.4611 78.8935 40.387 78.9676 40.2421C79.0321 40.0971 79.0675 39.9231 79.0675 39.7137C79.0675 39.5043 79.0321 39.3304 78.9676 39.1854C78.8935 39.0404 78.8033 38.9663 78.6938 38.9663C78.5843 38.9663 78.5037 39.0404 78.4296 39.1854C78.3556 39.3304 78.3201 39.5043 78.3201 39.7137C78.3201 39.9231 78.3556 40.0971 78.4296 40.2421C78.5037 40.3903 78.5843 40.4611 78.6938 40.4611ZM82.4179 38.9535C83.0461 38.9438 83.4842 39.034 83.7097 39.2273C84.0286 39.5011 84.1833 39.8652 84.1833 40.3258C84.1833 40.7801 84.0383 41.1634 83.729 41.4791C83.4198 41.798 83.0106 41.9623 82.5016 41.9623C81.9282 41.9623 81.5094 41.8431 81.2549 41.6176C80.9907 41.3986 80.8651 41.1731 80.8651 40.9444C80.8651 40.7156 80.9456 40.5256 81.1099 40.3613C81.2646 40.2066 81.4643 40.1261 81.693 40.1261C81.9024 40.1261 82.0571 40.1905 82.1569 40.3258C82.2665 40.4611 82.3857 40.5256 82.5403 40.5159C82.6949 40.5062 82.7755 40.4257 82.8045 40.2421C82.7948 40.0778 82.6852 39.9972 82.4501 39.9972C81.9669 40.0166 81.6769 40.0166 81.5771 39.9972C81.3773 39.9618 81.213 39.8619 81.0938 39.688C80.9746 39.5237 80.9295 39.3336 80.9746 39.1339L81.1035 38.1352C81.1293 37.9548 81.2227 37.8066 81.358 37.6906C81.4772 37.5714 81.6318 37.5167 81.8316 37.5167H83.4777C83.6775 37.5167 83.8418 37.5714 83.9706 37.6971C84.0898 37.8163 84.1542 37.9612 84.1542 38.1416C84.1542 38.3317 84.0898 38.4767 83.9706 38.5959C83.8418 38.7247 83.6807 38.7763 83.4777 38.7763H82.4404L82.4179 38.9535ZM89.125 40.2453C89.1605 40.2002 89.1991 40.1648 89.2346 40.1261C89.3795 39.9811 89.5535 39.907 89.7629 39.907C89.9723 39.907 90.1463 39.9811 90.2912 40.1261C90.4362 40.2711 90.5103 40.445 90.5103 40.6544C90.5103 40.7092 90.5006 40.7639 90.491 40.8187C90.4716 40.954 90.3717 41.1183 90.1913 41.3019C89.7532 41.7465 89.2281 41.9656 88.5999 41.9656C87.9911 41.9656 87.4531 41.7465 87.0149 41.3116C86.5768 40.867 86.361 40.3387 86.361 39.7202C86.361 39.1017 86.58 38.5733 87.0149 38.1384C87.4498 37.7035 87.9878 37.4845 88.5999 37.4845C89.2281 37.4845 89.7564 37.7035 90.1913 38.1288C90.375 38.3188 90.4748 38.4831 90.491 38.6281C90.5006 38.6732 90.5103 38.728 90.5103 38.7827C90.5103 38.9921 90.4362 39.1661 90.2912 39.3175C90.1463 39.4625 89.9723 39.5366 89.7629 39.5366C89.5535 39.5366 89.3795 39.456 89.2346 39.3078C89.1991 39.2724 89.1605 39.2337 89.125 39.1886C88.9897 39.0437 88.8061 38.9696 88.5967 38.9696C88.397 38.9696 88.2133 39.0437 88.0684 39.1886C87.9234 39.3336 87.8493 39.5076 87.8493 39.717C87.8493 39.9264 87.9234 40.1003 88.0684 40.2453C88.2133 40.3903 88.397 40.4644 88.5967 40.4644C88.8061 40.4611 88.9865 40.3903 89.125 40.2453ZM94.2311 37.9065C94.331 37.6165 94.5597 37.478 94.9141 37.478C95.2684 37.478 95.4972 37.6133 95.597 37.9065L96.3348 40.9508C96.3992 41.1505 96.3895 41.3342 96.309 41.5242C96.2188 41.7143 96.0803 41.8432 95.8805 41.9076C95.6905 41.9817 95.4972 41.972 95.3071 41.8883C95.1235 41.7981 94.9978 41.6595 94.9237 41.4695L94.724 40.2227L94.2859 41.5242C94.1313 41.8142 93.9025 41.9591 93.6029 41.9591C93.3033 41.9591 93.0746 41.8142 92.92 41.5242L92.4819 40.2227L92.2821 41.4695C92.208 41.6595 92.0824 41.7981 91.8923 41.8883C91.7119 41.9688 91.5186 41.9785 91.3285 41.9076C91.1288 41.8432 90.9903 41.7175 90.9001 41.5242C90.8196 41.3342 90.8099 41.1505 90.8807 40.9508L91.6088 37.9065C91.7087 37.6165 91.9374 37.478 92.2918 37.478C92.6461 37.478 92.8749 37.6133 92.9747 37.9065L93.6029 39.7717L94.2311 37.9065ZM97.4429 41.9623C97.2335 41.9623 97.0596 41.8883 96.9146 41.7433C96.7696 41.5983 96.6956 41.4147 96.6956 41.2085C96.6956 41.0088 96.7696 40.8252 96.9146 40.6802C97.0596 40.5352 97.2335 40.4611 97.4429 40.4611C97.6523 40.4611 97.8263 40.5352 97.9713 40.6802C98.1162 40.8252 98.1904 41.0088 98.1904 41.2085C98.1904 41.4179 98.1162 41.5983 97.9713 41.7433C97.8263 41.8883 97.6523 41.9623 97.4429 41.9623Z" fill="#F99035"/>
</svg>
